<?xml version="1.0" standalone="no"?>
<!DOCTYPE svg PUBLIC "-//W3C//DTD SVG 20010904//EN"
 "http://www.w3.org/TR/2001/REC-SVG-20010904/DTD/svg10.dtd">
<svg version="1.0" xmlns="http://www.w3.org/2000/svg"
 width="1271.000000pt" height="1280.000000pt" viewBox="0 0 1271.000000 1280.000000"
 preserveAspectRatio="xMidYMid meet">
<g transform="translate(0.000000,1280.000000) scale(0.100000,-0.100000)"
fill="#000000" stroke="none">
<path d="M4380 10251 c-359 -119 -551 -254 -651 -455 -77 -158 -86 -306 -34
-561 87 -422 393 -1290 692 -1965 131 -295 269 -569 423 -836 72 -125 130
-230 130 -234 0 -4 -98 -96 -217 -205 -686 -623 -1183 -1156 -1656 -1777 -403
-529 -633 -922 -697 -1192 -38 -155 -23 -226 79 -379 75 -112 204 -243 332
-339 88 -66 459 -301 466 -295 2 3 8 47 14 98 78 703 418 1470 1021 2300 130
179 389 502 548 684 167 191 420 465 429 465 16 0 40 -38 114 -182 240 -465
903 -1455 1327 -1983 271 -337 647 -713 940 -942 262 -204 536 -336 756 -364
200 -25 408 36 621 183 105 72 304 267 418 407 88 110 258 351 252 357 -2 2
-25 -3 -52 -11 -60 -19 -85 -19 -85 -1 0 7 25 52 56 100 31 48 55 89 52 91 -2
2 -42 -9 -88 -24 -160 -54 -236 -64 -430 -58 -373 12 -621 104 -920 344 -114
91 -406 383 -564 565 -346 397 -715 885 -964 1274 -224 350 -512 870 -512 923
0 14 72 78 243 214 654 523 1154 1027 1586 1597 372 490 609 917 725 1303 48
159 68 284 70 422 1 132 -6 164 -74 310 -69 150 -135 187 -325 186 -203 -1
-390 -53 -628 -172 -78 -39 -144 -73 -146 -75 -2 -1 4 -43 13 -91 33 -181 15
-441 -50 -703 -169 -682 -690 -1494 -1308 -2039 -186 -163 -405 -331 -432
-331 -16 0 -83 121 -224 405 -423 857 -889 2200 -970 2798 -9 63 -16 87 -26
87 -18 0 -30 31 -39 103 -6 43 -11 57 -24 57 -9 0 -95 -27 -191 -59z"/>
</g>
</svg>
