<?xml version="1.0" standalone="no"?>
<!DOCTYPE svg PUBLIC "-//W3C//DTD SVG 1.1//EN" "http://www.w3.org/Graphics/SVG/1.1/DTD/svg11.dtd" >
<svg xmlns="http://www.w3.org/2000/svg" xmlns:xlink="http://www.w3.org/1999/xlink" version="1.1">
<metadata>
Created by FontForge 20190801 at Mon Oct 10 21:12:27 2022
 By root
Danger Night - Personal Use (Absonstype). 2022. All Rights Reserved
</metadata>
<defs>
<font id="DangerNightPersonalUse" horiz-adv-x="315" >
  <font-face 
    font-family="Danger Night - Personal Use"
    font-weight="400"
    font-stretch="normal"
    units-per-em="1000"
    panose-1="2 0 5 0 0 0 0 0 0 0"
    ascent="750"
    descent="-250"
    x-height="410"
    cap-height="605"
    bbox="20 -228 828 991"
    underline-thickness="50"
    underline-position="-100"
    unicode-range="U+001D-2265"
  />
<missing-glyph horiz-adv-x="500" 
 />
    <glyph glyph-name=".notdef" horiz-adv-x="500" 
 />
    <glyph glyph-name=".null" horiz-adv-x="0" 
 />
    <glyph glyph-name=".null" horiz-adv-x="0" 
 />
    <glyph glyph-name="nonmarkingreturn" horiz-adv-x="508" 
 />
    <glyph glyph-name="space" unicode=" " horiz-adv-x="203" 
 />
    <glyph glyph-name="space" unicode="&#xa0;" horiz-adv-x="203" 
 />
    <glyph glyph-name="exclam" unicode="!" horiz-adv-x="208" 
d="M101 65c10 4 16 18 25 20c5 1 6 8 6 15c2 30 8 60 8 91c0 12 -1 24 -3 36l-1 9l2 14c5 17 6 34 6 51c0 18 -1 35 -3 53c-1 11 -1 21 -1 32v34c0 58 14 99 48 118c7 4 16 7 20 22c-53 0 -73 10 -107 55l-15 20c-12 13 -24 19 -37 19c-6 0 -13 -1 -19 -4
c-4 -1 -10 -1 -10 -13c11 -3 20 -9 28 -22c26 -45 41 -97 41 -159v-102c0 -14 0 -29 -1 -43c-1 -6 -1 -13 -1 -19v-20c1 -52 10 -102 11 -154v-17c0 -12 0 -24 3 -36zM111 -14c18 9 33 20 45 37c-6 4 -15 -1 -17 8v2c0 6 6 10 6 16c-13 6 -27 4 -40 5c-3 0 -7 -1 -8 -5
c-2 -14 -17 -21 -23 -33c15 -7 25 -21 37 -30z" />
    <glyph glyph-name="quotedbl" unicode="&#x22;" horiz-adv-x="224" 
d="M28 529c23 8 45 27 64 56l2 -3c0 -7 1 -11 4 -12l7 26v5c5 0 8 3 8 10v5v4l3 3s1 3 1 4c-3 4 -5 10 -5 17c0 6 -2 13 -6 19c-4 3 -10 4 -18 4c-11 0 -20 1 -27 4h-1c-3 -1 -11 -7 -24 -17c-6 -4 -9 -9 -9 -16l1 -15c0 -11 -3 -22 -8 -33l2 -5c2 0 4 1 7 4c2 2 4 3 6 3
l4 -4c1 -2 2 -4 3 -5c1 -2 3 -3 6 -4s5 -3 5 -6c-4 -8 -12 -23 -25 -44zM135 529c23 8 45 27 64 56l2 -3c0 -7 1 -11 4 -12l7 26v5c5 0 8 3 8 10v5v4l3 3s1 3 1 4c-3 4 -5 10 -5 17c0 6 -2 13 -6 19c-4 3 -10 4 -18 4c-11 0 -20 1 -27 4h-1c-3 -1 -11 -7 -24 -17
c-6 -4 -9 -9 -9 -16l1 -15c0 -11 -3 -22 -8 -33l2 -5c2 0 4 1 7 4c2 2 4 3 6 3l4 -4c1 -2 2 -4 3 -5c1 -2 3 -3 6 -4s5 -3 5 -6c-4 -8 -12 -23 -25 -44z" />
    <glyph glyph-name="numbersign" unicode="#" horiz-adv-x="234" 
d="M116 81c3 0 5 4 7 7c6 10 12 19 14 32c3 16 7 23 15 23c5 0 11 -2 19 -6l4 -3c3 -2 6 -3 8 -3c3 0 6 2 8 4c-2 9 -12 6 -15 12c-5 8 -5 8 -9 8l-9 -1c-2 0 -4 0 -6 2v5c10 13 18 27 23 42c6 13 12 19 21 19c4 0 9 -1 14 -3l6 -1c6 0 11 3 18 5c-10 12 -21 14 -35 15
c6 8 10 14 13 20c2 4 3 6 3 8c0 3 -3 4 -8 5c-10 2 -19 2 -29 3c0 -9 -1 -17 -2 -24c0 -8 -4 -15 -11 -15l-32 -1l-14 1c15 13 14 32 33 42c-17 8 -32 7 -51 11c4 -5 6 -10 6 -14c0 -8 -6 -15 -8 -22c-3 -13 -9 -18 -21 -18h-3c-15 0 -29 -1 -44 -2c2 -3 2 -5 3 -5
c3 -2 6 -2 9 -2h6c3 0 5 0 8 -1l1 -2c0 -3 -4 -5 -4 -9l3 -4c9 4 16 13 30 13h2c-8 -20 -20 -37 -25 -58c-1 -2 -3 -3 -6 -3l-6 1c-11 0 -20 -7 -32 -10c13 -8 26 -2 40 -7c-8 -17 -21 -28 -27 -43c6 -7 13 -8 21 -8h6c5 0 11 0 17 -3c-5 11 -7 20 -7 29c0 5 1 10 2 14
c2 8 5 13 14 13h2c5 -1 10 0 15 -3c2 -1 4 -2 6 -2c1 0 3 1 5 3l3 1c2 0 5 -1 6 -2l2 -4l-2 -5l-17 -37l-2 -6c0 -4 3 -7 7 -9zM127 156h-5c-10 3 -20 0 -32 5c7 18 15 36 23 54l1 2c2 4 6 5 9 5c2 0 4 -1 6 -2c1 -1 2 -2 2 -3c0 -2 -5 -4 -6 -7l-3 -5c11 4 17 10 26 12h2
c5 0 8 -2 8 -6c0 -2 0 -3 -1 -5c-7 -12 -10 -25 -14 -37c-3 -9 -7 -13 -16 -13z" />
    <glyph glyph-name="dollar" unicode="$" horiz-adv-x="828" 
d="M29 286c7 2 12 10 18 15c5 6 13 8 20 13s15 5 22 9s14 3 24 5c-6 4 -12 1 -16 5c1 2 2 3 4 5c14 11 24 24 26 45c1 5 3 10 6 14c6 9 9 18 11 28c3 14 5 27 8 41c4 17 10 34 10 52c0 8 0 20 -5 27c-2 4 -4 7 -4 12c-1 12 -7 22 -10 33c0 2 -1 4 -3 4c-4 4 -7 9 -11 13
c-1 1 -3 4 -4 4c-7 0 -12 5 -18 7c-12 4 -24 3 -36 5c-2 0 -4 -1 -6 -2c-22 -9 -25 -9 -41 -27c-2 -2 -4 -4 -4 -9l10 10c4 3 5 4 11 6c4 0 7 -4 7 -7c0 -9 -5 -17 -10 -23c0 -1 -1 -1 -1 -2c1 -1 0 -1 2 -2c2 0 3 3 4 3l2 -1v-10c0 -9 -4 -20 -4 -32c0 -14 4 -29 4 -42
c0 -17 2 -27 3 -44c0 -8 -2 -16 -2 -23c0 -5 2 -9 2 -14c0 -7 -1 -8 -1 -14c0 -8 1 -15 3 -22c1 -7 4 -14 4 -22c-2 -14 -3 -27 -12 -38c-5 -7 -10 -14 -13 -22zM82 346c-6 1 -8 1 -8 7c0 15 1 17 1 33c-1 30 1 25 -3 52c1 4 1 9 1 13v13v8v16c0 3 0 6 1 9c5 -1 8 -5 14 -5
c-1 2 -3 2 -4 4c-7 8 -11 17 -11 28c1 23 0 46 2 69c1 8 4 17 9 17c3 0 9 -6 14 -9c12 -8 12 -25 22 -38c3 -4 5 -9 5 -14c0 -14 -8 -25 -14 -35c-2 -2 -3 -4 -4 -7c8 6 14 14 20 24c5 -4 6 -10 7 -15c1 -6 3 -13 3 -20l-1 -6c-2 -10 -2 -22 -5 -32c-5 -19 -2 -39 -14 -53
c-5 -6 -8 -11 -8 -20c0 -3 0 -5 -2 -7c-6 -10 -13 -21 -20 -29c-1 -2 -3 -3 -5 -3zM298 337c15 2 27 9 33 22c4 9 11 13 19 15c2 1 4 0 5 3c0 2 -2 3 -4 4c-4 3 -6 5 -6 10c0 4 1 4 1 8v22c0 3 0 7 -1 10c0 3 1 3 2 7l-2 10c0 6 3 12 3 17v7c0 1 0 2 2 3c7 -9 16 -17 22 -27
c7 -14 14 -29 21 -44c3 -6 5 -11 5 -17c0 -5 -1 -9 -3 -14l1 -1c7 4 14 6 21 6c13 0 29 -6 42 -9c-4 4 -9 8 -14 12c-4 2 -6 5 -6 9l1 6c-1 4 -1 4 -1 9c0 3 2 6 2 10c0 5 -1 7 -2 12c1 6 2 10 2 16l-1 20l1 56c0 3 4 3 4 4c-3 6 -6 8 -6 13c0 7 6 12 10 19c3 5 6 10 7 17
c-11 -18 -26 -27 -48 -27c2 -3 6 -6 6 -9l-2 -7c0 -3 2 -8 3 -11c1 -6 2 -11 2 -16c0 -13 -3 -21 -3 -35c0 -5 0 -10 1 -15c0 -8 -1 -13 -1 -21c0 -5 1 -7 1 -12c0 -1 0 -3 -3 -3c-7 10 -9 18 -14 31c-2 3 -4 7 -7 10c-4 2 -6 7 -8 11c-7 15 -15 30 -24 44
c-6 9 -12 19 -12 31l1 6c-6 0 -9 -2 -13 -2s-9 0 -13 1c-12 0 -20 -4 -26 -15c9 4 5 4 15 5c5 0 9 -4 9 -10c0 -4 -1 -5 -3 -9c0 -1 0 -1 1 -2c4 -3 4 -8 4 -13c0 -14 0 -28 -3 -43c0 -6 -1 -12 -1 -18c0 -7 1 -14 1 -21c1 -6 2 -11 2 -17s-3 -11 -3 -19c0 -4 3 -9 3 -12
c-2 -12 -5 -22 -14 -29c-3 6 -7 14 -13 21c-24 23 -27 24 -37 57c5 -4 6 -4 9 -4l-2 3c-13 14 -14 32 -18 49c-3 13 -7 26 -10 39c-2 13 -8 26 -8 34c0 6 3 11 8 14c3 2 5 4 7 8c-11 -5 -11 -5 -26 -5c-16 0 -32 -8 -32 -23v-3c4 9 11 14 15 14s4 -4 4 -11
c-2 -19 -7 -27 -12 -44c-4 -14 -11 -27 -13 -42c0 -2 -2 -4 -2 -5c-4 -12 -7 -23 -10 -33c-5 -14 -12 -28 -23 -38l-4 -4l-4 -6c12 6 24 13 37 13c8 0 15 -2 24 -3c-6 4 -10 7 -15 8c-7 3 -8 8 -9 16c0 5 2 10 6 13c15 12 15 14 34 14c4 0 8 3 10 3s4 -2 4 -5
c3 -12 5 -19 6 -31c0 -7 -2 -13 -9 -17l-1 -1l1 -2c7 2 14 2 20 2c25 0 46 -9 61 -33l-3 -3c-1 0 -4 0 -4 -3zM180 429l10 29c3 -2 2 -5 6 -7c0 22 5 35 10 57c5 -13 6 -20 8 -32c0 -8 -4 -14 -9 -21c6 1 7 6 11 8c5 -5 4 -13 6 -20c0 -3 -4 -6 -8 -6c-11 -1 -22 -4 -34 -8z
M529 355c16 10 29 19 43 19c4 0 7 -1 11 -2c1 0 2 1 3 2c-2 3 -6 4 -8 6c-8 5 -11 11 -11 18c0 9 3 18 3 28c0 13 0 17 -1 31c0 2 1 5 1 8v3c-5 -4 -10 -6 -15 -6c-4 0 -7 1 -12 3c-2 0 -3 -1 -5 -2c-3 -1 -6 -1 -8 -1c-5 0 -9 2 -13 7v-3c0 -11 12 -15 13 -25c3 1 5 3 7 4
c2 2 4 3 6 3c3 0 4 -2 4 -4c0 -13 -2 -18 -3 -31c-1 -6 -4 -14 -11 -16c-4 -1 -7 -3 -9 -6c-2 -2 -4 -3 -5 -3s-3 2 -5 4c-2 4 -2 8 -3 12c-4 -1 -6 -2 -7 -2c-3 0 -4 4 -5 11c2 11 2 18 2 29v17c0 7 -3 15 -3 22c0 2 0 4 1 6c0 1 -1 2 -1 3c-3 2 -4 3 -4 6c0 2 1 5 2 7
c0 7 4 12 7 17c2 2 3 4 3 6c0 3 -3 7 -3 11c0 9 8 15 16 15c4 0 6 -2 7 -7c0 -2 0 -4 2 -7c8 -8 11 -18 11 -28c0 -6 0 -10 -2 -15c0 -2 -1 -3 -1 -4s0 -2 1 -3c19 14 11 34 33 39c-9 5 -16 8 -18 17c-5 18 -16 21 -35 21c-12 -2 -26 -3 -32 -16l-1 -1c-6 -2 -9 -9 -13 -13
c-3 -3 -5 -7 -5 -11c-1 -13 -6 -25 -6 -39c0 -4 1 -7 2 -10c4 -10 4 -20 5 -30c0 -7 0 -15 2 -22c1 -4 2 -7 2 -11l-1 -7c0 -5 3 -9 8 -12c4 -3 7 -7 11 -11c2 -4 5 -7 9 -8c7 -1 14 -1 21 -1c9 0 18 1 27 8c-1 -12 -12 -16 -17 -26zM579 344c13 2 24 6 31 18
c7 13 23 18 35 18c8 0 17 -4 29 -8c-2 7 -3 12 -3 18v9c0 3 -1 7 -5 8c1 -1 1 -3 1 -5s-1 -5 -3 -7c-1 -1 -2 -3 -3 -3c-12 4 -22 1 -34 5v1v4c0 4 -1 6 -1 10s1 7 2 12c-2 4 -2 6 -2 11c0 6 1 11 1 16v8c0 9 5 12 15 12h6c7 -1 10 -3 11 -11v-8c3 4 5 9 5 14
c0 4 -1 7 -3 10c-5 5 -6 9 -6 16l-3 -1c-3 -4 -6 -5 -9 -5l-12 1c-2 0 -4 1 -4 3v7c0 6 -1 12 1 18l-1 8c0 3 0 5 4 7c-1 5 -4 9 -4 14c0 6 1 9 8 9c5 0 11 -2 11 -5c1 -3 2 -4 3 -4s2 1 3 2c11 9 24 12 34 20c3 2 7 5 9 11c-10 -8 -19 -12 -29 -13c1 4 6 5 6 9
c-3 0 -6 -2 -8 -3c-5 -4 -12 -9 -17 -9h-3c-10 3 -19 3 -29 4c-14 0 -22 -9 -34 -18c-4 -3 -6 -8 -8 -12c-1 -1 -1 -1 -1 -2c1 -1 1 0 2 -1h1c7 9 9 11 19 13c5 0 9 -3 9 -8s-5 -7 -5 -10c0 -5 5 -6 5 -11v-20c0 -17 -4 -32 -4 -48c0 -12 3 -23 3 -36c0 -7 -3 -12 -3 -19
c0 -5 1 -8 1 -13c0 -12 -6 -25 -17 -32c-2 -1 -4 -1 -4 -4zM682 294c19 5 30 21 34 38c3 10 9 16 18 19c3 2 5 2 5 5c0 1 0 2 -1 2c-7 6 -9 12 -9 20c0 2 0 6 1 9c-1 3 -1 7 -1 10c0 7 1 15 1 22c0 5 0 8 -1 12c0 2 1 5 2 5c3 0 3 -4 4 -6c0 -8 5 -15 7 -22
c4 -13 16 -21 19 -35c2 -6 4 -13 7 -19c4 -7 7 -14 7 -21c0 -6 -2 -9 -3 -15c0 -1 1 -2 2 -2s2 0 3 1c6 6 13 8 20 8c5 0 9 -1 14 -3c5 0 9 -5 15 -5l2 1c-2 3 -4 6 -7 8c-6 4 -9 11 -14 17c-4 5 -6 12 -10 16c-6 6 -11 14 -14 21c-1 2 -1 5 -3 7c-5 4 -4 9 -5 15
c4 -2 4 -5 5 -6c3 -3 3 -5 7 -5c-9 11 -13 21 -14 34c0 3 1 5 4 7c26 19 35 46 35 77c0 14 -2 28 -6 42c-1 5 0 10 -3 14c-3 5 -4 10 -5 16l-2 12c-2 7 -9 10 -12 16c-4 6 -7 9 -12 9c-8 0 -18 -6 -26 -15l-11 -13c-4 4 -4 8 -4 13v16c-5 -3 -11 -5 -16 -5l-11 1
c-12 0 -22 -10 -23 -22c4 3 11 8 15 8c5 0 8 -10 8 -16c0 -5 -2 -10 -5 -14c7 -4 7 -10 7 -16v-23c0 -25 -4 -49 -4 -74s2 -37 3 -61l-1 -13c-1 -5 -2 -11 -2 -16c1 -9 2 -12 2 -21c0 -19 -6 -35 -20 -48c-2 -2 -2 -2 -2 -5zM749 446c-4 0 -9 1 -14 4c-3 2 -5 5 -6 9
c0 14 3 21 3 35c1 19 0 37 2 56c1 12 8 22 18 29c0 1 1 1 3 1c1 0 2 0 3 -1c14 -8 16 -24 16 -40c0 -12 -2 -24 -5 -36c-1 -4 -2 -6 -2 -11c8 10 7 22 13 32c1 -2 1 -3 1 -5l-4 -38c-1 -6 -2 -11 -7 -15c-2 -2 -3 -6 -6 -9c-5 -8 -9 -11 -15 -11zM134 -68c15 3 25 14 31 30
c4 13 9 24 23 28c2 0 2 2 2 3c0 2 -3 5 -5 8c-3 3 -5 6 -5 11v11c0 10 1 5 0 16c0 5 2 9 2 14c0 2 -1 5 -1 8l-1 11c0 9 1 19 1 28v10c2 8 3 14 3 22v6l-1 3c0 2 1 2 2 3l13 -24c4 -6 6 -11 9 -17l22 -70c2 -8 4 -16 4 -25c0 -8 -2 -15 -4 -25c9 7 14 11 22 11
c10 0 29 -6 43 -15l1 2l-15 17c-3 3 -6 7 -6 11l1 9c0 6 -1 11 -1 17s2 10 2 16l-1 14c0 37 1 44 1 78l-1 34l1 33v4c3 1 4 3 4 4c0 2 -2 4 -3 6c-2 4 -3 9 -3 13c0 18 16 35 17 56l-11 -19c-6 -13 -17 -19 -31 -21c-2 -1 -5 0 -6 -3c3 -4 5 -8 5 -13c0 -2 0 -4 -1 -6
c1 -16 5 -27 5 -43c0 -18 -4 -35 -4 -53c0 -11 2 -22 2 -32s-1 -19 -1 -29c1 -10 0 -6 1 -17c0 -1 0 -3 -1 -4c-3 1 -3 3 -4 5c-5 14 -9 29 -13 44c-1 5 -2 9 -6 13c-4 5 -6 11 -8 18l-12 39c-8 25 -24 49 -24 75c0 4 0 8 1 12c-6 -2 -11 -5 -17 -5c-4 0 -8 2 -12 2
c-9 0 -19 -8 -23 -23c7 4 13 8 16 8c4 0 7 -7 8 -14c0 -7 -1 -11 -5 -17c6 -3 7 -8 7 -13v-30c0 -22 -4 -44 -4 -69c0 -17 1 -34 2 -52c0 -5 2 -8 2 -11c-1 -12 -4 -17 -4 -27c1 -10 2 -12 2 -21c0 -13 -4 -25 -9 -37c-2 -6 -6 -11 -11 -14c0 -1 -2 -2 -2 -3c0 0 0 -1 1 -1z
M288 0c14 2 25 7 32 21c4 8 11 14 20 16c2 1 4 0 4 2c0 5 -10 5 -10 14s1 18 5 26c1 4 1 8 1 12c0 12 0 22 -1 33c-1 6 -2 13 -2 19c1 10 0 5 1 16c0 8 -4 15 -4 24l1 14c0 6 -1 7 -2 13c0 2 1 5 1 7c4 11 10 22 22 28l-1 1h-3c-14 -3 -24 -12 -30 -24
c-5 -9 -11 -13 -19 -13l-7 1c-2 1 -3 1 -5 1h-3c9 -10 21 -10 21 -17l-1 -6l1 -5c0 -11 0 -23 -1 -34l-1 -7c0 -7 5 -12 5 -16c0 -1 0 -3 -1 -5c-3 -7 -6 -14 -8 -23c5 4 5 6 8 6c1 0 2 -2 2 -2c0 -2 0 -3 -1 -4c-2 -6 -2 -12 -2 -17c0 -6 1 -10 1 -16c0 -5 -3 -11 -3 -16
s2 -10 2 -14c0 -2 0 -5 -1 -7c-4 -12 -10 -22 -21 -28zM425 14c17 10 29 19 44 19c3 0 7 0 11 -2c1 0 2 1 2 2c-2 3 -6 4 -8 6c-7 5 -11 12 -11 19c0 8 4 17 4 27c-1 13 0 17 -2 31c0 3 2 5 2 9l-1 2c-5 -4 -9 -6 -14 -6s-7 2 -12 3c-2 0 -4 -1 -6 -2c-3 -1 -5 -1 -8 -1
c-5 0 -9 2 -13 7v-2c0 -12 12 -16 13 -26l7 4c2 2 4 4 7 4c2 0 4 -3 4 -5c-1 -13 -2 -18 -4 -31c-1 -6 -4 -14 -11 -16c-4 -1 -7 -3 -9 -6c-2 -2 -3 -3 -5 -3c-1 0 -3 2 -5 5s-2 7 -3 12c-3 -2 -5 -3 -7 -3c-3 0 -4 4 -4 11c1 11 2 18 2 29l-1 18c0 7 -3 14 -3 21
c0 3 0 4 1 7c0 0 0 2 -1 2c-3 2 -4 4 -4 6s1 5 2 7c1 7 4 12 8 17c2 2 2 4 2 6c0 3 -2 7 -2 11c0 9 7 15 16 15c3 0 5 -2 6 -7c1 -2 1 -4 3 -6c7 -9 11 -19 11 -29c0 -5 -1 -10 -2 -15c-1 -1 -1 -3 -1 -4v-2c19 14 12 33 33 38c-8 5 -16 8 -18 17c-5 19 -16 21 -35 21
c-12 -2 -25 -2 -32 -16c0 0 0 -1 -1 -1c-6 -2 -8 -9 -13 -13c-3 -3 -5 -7 -5 -11c-1 -13 -6 -25 -6 -39c0 -3 1 -7 2 -10c7 -18 3 -35 7 -52c1 -3 2 -7 2 -11l-1 -7c0 -5 4 -9 8 -12c5 -3 8 -7 11 -11c2 -4 5 -7 10 -7c7 -1 13 -2 20 -2c10 0 18 2 27 8
c-1 -12 -12 -16 -17 -26zM476 3c12 3 23 6 29 17c6 10 13 20 26 21l2 2c0 1 -1 2 -1 2c-7 3 -10 9 -10 15l1 6l-1 1v5c0 4 2 7 2 10c0 6 -2 10 -2 14c0 6 1 13 1 19c0 13 3 16 13 16c5 -1 10 -1 15 -5c1 0 1 -1 2 -1c6 2 8 2 16 3l-1 -7c0 -6 5 -11 5 -16
c-3 -13 -8 -13 -19 -21l4 -1c3 0 6 3 9 3c2 0 3 -2 3 -3c0 -2 -1 -5 -1 -7c0 -3 1 -4 1 -7c0 -6 -3 -11 -7 -15l-13 -17c-1 -1 -2 -2 -2 -3l1 -2c9 7 16 10 24 10c9 0 27 -4 39 -11c1 0 2 -1 3 -1h1c0 3 -1 5 -4 6c-4 4 -8 6 -13 9c-2 2 -5 5 -5 7l1 7c0 3 -1 6 -1 9
s1 6 2 8c4 5 6 10 6 15c0 3 -2 8 -2 12s3 6 3 9c0 6 -8 13 -8 20v49c0 1 0 4 1 4c3 1 4 2 4 3s-3 3 -4 4c-1 3 -2 5 -2 8c0 12 16 21 17 37c-12 -19 -27 -27 -49 -27c5 -7 8 -10 8 -16l-2 -12l1 -3c3 -5 3 -11 3 -17c-1 -13 -3 -13 -16 -17c-3 0 -4 2 -6 6
c-4 -3 -7 -6 -11 -6c-1 0 -3 0 -5 1h-6c-4 0 -5 2 -5 7l1 33c0 1 0 2 1 2c2 0 2 1 2 2s0 3 -1 4c-1 4 -2 7 -2 10c0 5 3 9 9 14c1 2 3 2 3 5h-2c-4 0 -8 -1 -12 -4c-6 -4 -12 -6 -19 -6l-8 1c-9 0 -16 -6 -21 -14c5 0 6 2 10 2c6 0 12 -5 12 -11c0 -2 -1 -3 -2 -6
c0 -2 4 -4 4 -8l1 -11c0 -10 -2 -19 -8 -28c-4 -7 -8 -16 -8 -26c0 -4 4 -7 7 -11l7 -23c1 -3 2 -6 2 -9c-2 -8 -3 -10 -3 -17c0 -6 1 -7 2 -12c-2 -15 -7 -27 -20 -34c-1 -1 -2 -1 -2 -3zM602 -62c18 5 29 21 34 40c3 11 11 16 19 20l4 1c2 0 4 -1 5 -2c2 -1 4 -4 6 -4
s2 1 3 3c0 3 -3 5 -3 8l-1 1c-7 10 -8 23 -13 33c-1 13 -3 25 -3 37c1 15 2 16 2 30c0 10 -1 15 -3 24c2 9 5 13 5 21c0 5 -1 11 -2 17c-2 13 -3 19 -4 33c0 16 3 31 6 46c1 5 4 9 8 9l4 -1c2 -1 4 -2 6 -2l2 1c-1 3 -4 4 -6 4c-3 2 -8 4 -8 6c0 1 0 3 2 3c8 0 13 -3 20 -5
c1 -1 2 -2 2 -4c1 -4 3 -7 7 -10c1 0 2 -1 2 -2c3 -12 7 -23 7 -35c0 -7 -3 -11 -3 -19c10 11 12 33 19 56c2 9 5 18 13 23c1 1 2 2 2 3c-1 2 -1 3 -2 3l-3 -1c-3 0 -5 -1 -7 -1c-6 2 -8 4 -14 4s-8 1 -13 2c-4 -1 -6 -2 -9 -2c-7 0 -14 7 -21 7l-4 -1c-3 -1 -5 -3 -8 -3
c-1 0 -3 0 -4 2l-12 -4c-2 0 -3 -2 -4 -2c-4 3 -6 4 -10 4c-21 0 -36 -4 -58 -4c-5 0 -7 -3 -7 -9s2 -10 2 -16c0 -14 -10 -25 -10 -41c0 -5 1 -11 5 -17c2 21 7 45 22 60c1 3 4 5 7 6c6 1 11 -1 17 3c12 -2 22 -11 22 -20l-1 -10l1 -15c0 -6 -2 -11 -2 -16
c0 -6 2 -12 2 -19c0 -9 -1 -10 -2 -20c0 -9 4 -18 4 -26c0 -3 0 -5 -1 -8l-7 -33c4 1 4 7 7 7c2 -1 3 -1 3 -4c-2 -12 -4 -20 -4 -29l1 -15c0 -12 -1 -15 -1 -26c-1 -5 -2 -9 -2 -14c1 -9 3 -12 3 -20c0 -13 -5 -26 -10 -38c-2 -6 -6 -11 -10 -14c-1 -1 -3 -2 -3 -3z" />
    <glyph glyph-name="percent" unicode="%" horiz-adv-x="338" 
d="M134 -16c-1 0 -3 1 -5 3c-3 2 -6 5 -8 8c-19 24 -40 32 -61 32c-11 0 -21 -2 -32 -5c-2 -1 -5 -1 -7 -1l-1 6c0 6 4 9 7 12l35 49c22 32 38 69 48 116c8 39 19 79 34 114c24 55 46 111 60 175c7 28 13 56 25 80c5 11 8 21 8 31c0 14 -5 27 -14 40c-2 2 -3 3 -3 7v3l4 1
c10 0 18 -11 27 -16c6 -4 12 -11 17 -15c10 -7 19 -11 29 -11c6 0 13 1 19 4c4 2 8 6 12 6c3 0 6 -1 10 -5c-9 -19 -20 -33 -32 -46c-20 -23 -38 -49 -54 -79c-8 -14 -14 -29 -19 -46c-32 -110 -66 -217 -99 -325c-3 -9 -6 -19 -8 -28c-3 -13 -5 -26 -5 -39
c0 -19 4 -37 13 -54c2 -3 4 -6 5 -9v-4c-1 -3 -3 -4 -5 -4zM100 459h-2c-9 0 -13 9 -19 16c-4 6 -7 13 -10 20c-6 -1 -2 -8 -8 -9c-5 14 -8 27 -8 41c0 13 2 25 6 38s18 20 25 32c1 3 5 3 9 3h13c15 0 31 -1 46 -6c-2 -2 -8 -2 -8 -5c0 -2 1 -3 3 -6c6 -6 9 -15 13 -23
c4 -13 8 -26 20 -40l-8 1c-6 0 -9 -3 -10 -10c0 -16 -12 -30 -20 -41c-9 -12 -27 -10 -42 -11zM107 476c6 2 14 0 18 9c2 6 5 12 9 17c5 8 11 14 11 24l-1 7c-3 11 -3 16 -6 16c-2 0 -6 -2 -13 -6l-2 1c-1 1 -1 2 -1 3l1 4l1 11c0 7 -3 9 -14 15c-3 2 -4 3 -6 3
c-1 0 -2 -2 -3 -5l-2 -9c-1 -2 -1 -5 -1 -8v-7c0 -6 -1 -12 -10 -15l-1 -2l2 -5l11 -15c-7 0 -11 -2 -11 -6c0 -2 0 -4 2 -7c2 -5 4 -11 7 -16c2 -4 4 -9 8 -9h1zM254 84c-5 0 -9 4 -13 8c-8 8 -12 18 -17 27l-2 1c-3 0 -3 -6 -6 -6h-1c-5 12 -7 25 -7 38l2 28
c2 20 17 33 30 44c4 4 10 5 17 5s14 -1 21 -3c10 -2 20 -2 34 -3c-6 -4 -12 -2 -15 -9c19 -17 18 -45 35 -66l-7 -1c-4 0 -8 0 -8 -6v-2c0 -16 -15 -27 -19 -42c-1 -3 -6 -5 -10 -6zM262 103c7 1 14 0 17 9c4 10 10 19 18 28c2 2 3 5 3 7c0 1 0 2 -1 3c-2 2 -3 4 -3 7
s2 7 3 11l1 3c0 2 -1 4 -3 6l-3 1c-2 0 -4 -2 -6 -3s-4 -5 -8 -5l-4 2l3 21c0 5 -3 6 -13 9c-2 1 -3 5 -8 5c-3 -5 -4 -11 -5 -17l-1 -13c0 -6 -1 -11 -10 -14l-1 -2c0 -2 1 -4 2 -5l10 -15c-6 -1 -11 -3 -11 -7c0 -2 1 -4 3 -7l7 -14c2 -5 3 -10 8 -10h2z" />
    <glyph glyph-name="ampersand" unicode="&#x26;" horiz-adv-x="414" 
d="M314 -90l-25 28l19 35c-1 7 -6 21 -14 40c-1 1 -2 3 -3 5c32 -3 67 -10 106 -19l2 -1l-12 16c18 5 27 16 27 32s-10 36 -31 59c-2 2 -4 4 -5 6c-1 1 -3 2 -6 2c8 -13 12 -25 12 -34c0 -14 -8 -21 -23 -21c-14 0 -28 6 -41 18c-3 2 -7 3 -13 3c-7 0 -14 -1 -22 -3
c-2 7 -3 14 -3 21c0 13 3 26 9 39c4 10 6 20 6 30c0 7 -1 14 -2 21s-2 15 -2 22c0 36 -7 63 -21 82c-10 11 -18 26 -23 43s-18 32 -37 45c-25 19 -46 44 -63 75c-5 9 -7 18 -7 28c0 18 7 33 20 45c8 5 15 13 21 22c2 3 5 5 8 5c1 0 3 -1 6 -2c15 -12 22 -27 22 -45
c0 -9 -2 -19 -6 -29c-2 -3 -3 -6 -4 -9c-3 -3 -4 -6 -4 -9c0 -2 2 -4 5 -6c1 0 2 1 3 2s1 2 2 3s1 1 1 2c13 15 28 22 45 22h27c19 1 33 12 42 35c-1 1 -3 2 -4 2s-2 0 -3 -1s-2 -1 -3 -1c-5 -3 -10 -4 -15 -4c-11 0 -19 8 -26 24c-15 32 -36 48 -64 48
c-24 -1 -46 -6 -67 -14c0 8 1 14 3 17s3 8 3 15c-4 -1 -8 -4 -13 -11c-13 -19 -29 -33 -48 -40c-13 -5 -22 -14 -28 -28c-6 -15 -9 -30 -9 -46c0 -17 3 -33 10 -47l14 -21c-15 -25 -22 -41 -22 -49c1 -4 2 -7 3 -8l2 -2c0 -2 -3 -2 -7 -2h-10c-6 0 -9 -1 -9 -3
c0 -8 -3 -20 -8 -35c-3 -8 -5 -14 -5 -19l2 -94c-4 -12 -6 -22 -6 -29c0 -18 2 -40 7 -69h3l26 -15c0 -19 -5 -38 -14 -55c-1 -1 -1 -3 -1 -6c2 -2 4 -3 6 -3l16 3c7 0 15 -2 23 -7c7 -5 15 -8 24 -8c6 0 12 1 19 3c7 1 14 2 22 2c22 0 35 -6 38 -19c2 -7 5 -10 8 -10
s6 2 9 5c1 1 2 2 2 3c5 7 11 13 17 18c9 3 18 5 28 6l1 -5c-1 -8 -2 -17 -4 -27s-3 -19 -3 -28c0 -19 12 -33 37 -40c14 -5 23 -7 27 -7c1 -1 2 -1 3 -1zM183 64c-5 0 -10 1 -14 4c-5 3 -10 4 -15 4c-4 0 -7 -1 -11 -3c-3 -2 -8 -3 -13 -3c-14 0 -38 47 -73 142l11 3
c3 0 6 0 10 -1c3 -1 12 -5 25 -10s21 -10 22 -14s2 -6 2 -6c1 0 1 2 2 7c0 8 -2 19 -4 34c-5 23 -21 40 -50 52l40 87c13 -21 25 -43 36 -66l2 -2c0 -1 1 -1 4 -1l1 5c0 5 -2 10 -5 15c-1 2 -6 14 -15 38c31 -21 57 -48 79 -82l3 -4c3 -7 5 -11 5 -13c0 -4 -2 -7 -7 -9
c-2 0 -4 3 -8 8c-4 9 -12 17 -24 24c7 -15 15 -30 22 -45c7 -14 11 -34 13 -58l-1 -5c-5 -8 -7 -16 -7 -23c0 -9 2 -19 6 -29l3 -19c0 -3 -1 -6 -3 -7s-5 -3 -10 -4s-10 -4 -14 -9s-8 -9 -12 -10z" />
    <glyph glyph-name="quotesingle" unicode="'" horiz-adv-x="117" 
d="M28 529c23 8 45 27 64 56l2 -3c0 -7 1 -11 4 -12l7 26v5c5 0 8 3 8 10v5v4l3 3s1 3 1 4c-3 4 -5 10 -5 17c0 6 -2 13 -6 19c-4 3 -10 4 -18 4c-11 0 -20 1 -27 4h-1c-3 -1 -11 -7 -24 -17c-6 -4 -9 -9 -9 -16l1 -15c0 -11 -3 -22 -8 -33l2 -5c2 0 4 1 7 4c2 2 4 3 6 3
l4 -4c1 -2 2 -4 3 -5c1 -2 3 -3 6 -4s5 -3 5 -6c-4 -8 -12 -23 -25 -44z" />
    <glyph glyph-name="parenleft" unicode="(" horiz-adv-x="173" 
d="M173 -14c-2 2 -4 6 -6 10c-2 3 -5 7 -7 12c-2 4 -5 7 -9 9c-6 3 -11 6 -14 8c-2 3 -4 6 -4 11s1 12 3 21l2 10c3 7 4 15 4 23v6c0 3 -1 6 -1 9c-1 20 -5 40 -13 59c-6 11 -10 23 -10 35c0 8 2 17 6 26c2 3 2 6 2 8c0 4 -1 6 -3 8c-6 3 -10 7 -11 11c-2 5 -3 10 -3 16
l1 22c0 6 2 12 5 16c2 1 3 2 4 2l7 -1c2 0 3 0 3 1l-20 60c-6 17 -9 35 -11 53l-1 24l1 40l-2 33c0 9 2 17 6 24c5 16 12 30 21 42c3 3 4 6 4 10c0 2 0 4 -2 7c-3 6 -5 13 -5 19c0 8 1 15 3 23c2 5 4 10 7 14s7 6 11 6h7v42c-5 0 -10 -1 -16 -2c-6 -2 -11 -5 -16 -8
c-6 -3 -11 -5 -17 -6c-7 -2 -13 -5 -16 -10c-4 -6 -7 -12 -10 -18c0 -1 -1 -2 -2 -4c-2 -5 -6 -9 -12 -13l-9 -9s-5 -8 -6 -13l-2 -11c-6 -27 -10 -55 -10 -82v-16c0 -22 -2 -44 -7 -64l-5 -29v-7s0 -1 1 -3c0 -1 1 -2 3 -3c2 3 4 5 4 8c1 2 2 5 2 8c0 4 1 7 2 10s3 6 5 9
c2 -6 2 -11 2 -16l-1 -15c-3 -22 -6 -44 -8 -66l-2 -25c0 -6 1 -12 3 -18c4 -9 5 -18 5 -26l-2 -23c0 -11 4 -19 10 -24c8 -10 12 -23 12 -37l4 -103c0 -8 2 -16 5 -25c8 -13 11 -29 11 -45l-2 -19c0 -5 -1 -10 -1 -15c0 -12 2 -25 4 -37c3 -20 11 -29 24 -29l12 1l9 4l16 2
c6 0 11 -2 14 -7c3 -4 6 -12 9 -22c2 -4 3 -7 4 -11c2 -8 5 -14 8 -20v120z" />
    <glyph glyph-name="parenright" unicode=")" horiz-adv-x="173" 
d="M20 -14v-120c4 6 6 12 8 20c2 4 3 7 4 11c4 10 7 18 10 22c3 5 7 7 13 7l16 -2l9 -4l12 -1c14 0 22 9 24 29c3 12 4 25 4 37c0 5 0 10 -1 15l-2 19c0 16 4 32 11 45c4 9 5 17 5 25l4 103c0 14 4 27 12 37c7 5 10 13 10 24l-2 23c0 8 2 17 5 26c2 6 3 12 3 18l-2 25
c-2 22 -4 44 -8 66l-1 15c0 5 1 10 2 16c3 -3 5 -6 6 -9s1 -6 1 -10c1 -3 2 -6 2 -8c1 -3 2 -5 4 -8c2 1 3 2 4 3v3v7l-5 29c-4 20 -7 42 -7 64v16c0 27 -3 55 -10 82l-2 11c0 5 -2 10 -5 13s-6 6 -10 9c-5 4 -9 8 -12 13c0 2 -1 3 -2 4c-2 6 -6 12 -9 18c-4 5 -9 8 -17 10
c-5 1 -11 3 -17 6c-4 3 -10 6 -16 8c-5 1 -10 2 -16 2v-42h7c5 0 9 -2 12 -6s5 -9 6 -14c2 -8 3 -15 3 -23c0 -6 -1 -13 -5 -19c-1 -3 -2 -5 -2 -7c0 -4 2 -7 4 -10c10 -12 17 -26 21 -42c4 -7 6 -15 6 -24l-2 -33l1 -40l-1 -24c-1 -18 -5 -36 -11 -53l-20 -60
c1 -1 2 -1 3 -1l7 1c2 0 3 -1 4 -2c4 -4 5 -10 5 -16l1 -22c0 -6 -1 -11 -2 -16c-2 -4 -6 -8 -12 -11c-2 -2 -3 -4 -3 -8c0 -2 1 -5 2 -8c4 -9 6 -18 6 -26c0 -12 -3 -24 -10 -35c-7 -19 -11 -39 -13 -59c0 -3 0 -6 -1 -9v-6c0 -8 2 -16 4 -23l2 -10c2 -9 3 -16 3 -21
s-1 -8 -4 -11c-2 -2 -7 -5 -14 -8c-4 -2 -7 -5 -9 -9c-2 -5 -4 -9 -7 -12c-2 -4 -4 -8 -6 -10z" />
    <glyph glyph-name="asterisk" unicode="*" horiz-adv-x="500" 
 />
    <glyph glyph-name="plus" unicode="+" horiz-adv-x="223" 
d="M96 227c14 6 24 14 36 17l6 1c10 0 20 -6 33 -6c-8 9 -16 11 -21 16c-16 14 -19 32 -22 51v3c0 7 3 9 12 9h8c7 0 14 -1 20 -5l4 -3c1 0 2 1 2 4c0 6 2 8 5 8l40 -10c-4 6 -6 11 -6 16s1 8 4 12s3 8 3 13c0 4 0 8 3 12c-27 -14 -56 -9 -84 -13h-3c-7 0 -10 3 -11 12
c0 23 1 46 13 68c6 11 12 24 15 40c-15 -7 -24 -17 -35 -25c-12 -9 -26 -8 -42 -10c21 -16 22 -40 25 -62c1 -5 1 -10 1 -15c-1 -8 -6 -12 -11 -12c-3 0 -6 1 -9 3c-2 1 -5 3 -7 3l-2 -1c-8 -6 -16 -7 -25 -7c-8 0 -16 1 -25 2c5 -9 8 -18 8 -26c0 -9 -3 -18 -11 -26l5 -1
l4 1c14 8 29 10 44 16c4 2 7 2 9 2c7 0 11 -4 11 -13l-1 -15c0 -15 5 -30 5 -46c0 -4 0 -9 -1 -13z" />
    <glyph glyph-name="comma" unicode="," horiz-adv-x="117" 
d="M28 -55c23 8 45 27 64 56l2 -3c0 -7 1 -11 4 -12l7 26v5c5 0 8 3 8 10v5v4l3 3s1 3 1 4c-3 4 -5 10 -5 17c0 6 -2 13 -6 19c-4 3 -10 4 -18 4c-11 0 -20 1 -27 4h-1c-3 -1 -11 -7 -24 -17c-6 -4 -9 -9 -9 -16l1 -15c0 -11 -3 -22 -8 -33l2 -5c2 0 4 1 7 4c2 2 4 3 6 3
l4 -4c1 -2 2 -4 3 -5c1 -2 3 -3 6 -4s5 -3 5 -6c-4 -8 -12 -23 -25 -44z" />
    <glyph glyph-name="hyphen" unicode="-" horiz-adv-x="223" 
d="M25 288c3 0 5 1 7 2c17 5 34 16 53 16l9 -1l7 1c13 2 26 6 39 6c10 0 19 -2 29 -8l3 -1c1 0 2 1 2 4v3c0 3 2 4 4 4l5 -1c12 -5 24 -6 36 -9c0 6 -7 10 -7 15l1 3c2 6 4 12 7 18v9c0 3 0 6 3 9c-27 -14 -56 -10 -84 -13l-10 -1c-25 0 -48 10 -73 18c2 -9 11 -11 11 -19
v-1c-7 -3 -14 -4 -22 -4c-7 0 -14 1 -22 2c5 -9 8 -18 8 -27c0 -8 -3 -16 -11 -24c2 -1 4 -1 5 -1z" />
    <glyph glyph-name="hyphen" unicode="&#xad;" horiz-adv-x="223" 
d="M25 288c3 0 5 1 7 2c17 5 34 16 53 16l9 -1l7 1c13 2 26 6 39 6c10 0 19 -2 29 -8l3 -1c1 0 2 1 2 4v3c0 3 2 4 4 4l5 -1c12 -5 24 -6 36 -9c0 6 -7 10 -7 15l1 3c2 6 4 12 7 18v9c0 3 0 6 3 9c-27 -14 -56 -10 -84 -13l-10 -1c-25 0 -48 10 -73 18c2 -9 11 -11 11 -19
v-1c-7 -3 -14 -4 -22 -4c-7 0 -14 1 -22 2c5 -9 8 -18 8 -27c0 -8 -3 -16 -11 -24c2 -1 4 -1 5 -1z" />
    <glyph glyph-name="period" unicode="." horiz-adv-x="117" 
d="M98 3l8 32h3c4 0 5 1 5 4l-2 9c0 5 5 9 5 12v1c-6 6 -4 14 -5 21c-4 15 -7 18 -23 18h-7c-6 0 -12 0 -18 4l-3 1c-2 0 -3 -1 -5 -3l-20 -15c-5 -4 -9 -9 -9 -16l1 -15c0 -11 -3 -22 -8 -33c0 -1 0 -3 2 -5c4 2 8 5 13 7c7 -12 16 -16 25 -16c11 0 23 5 34 8l1 -13
c1 -1 2 -1 3 -1z" />
    <glyph glyph-name="slash" unicode="/" horiz-adv-x="338" 
d="M134 -16c-1 0 -3 1 -5 3c-3 2 -6 5 -8 8c-19 24 -40 32 -61 32c-11 0 -21 -2 -32 -5c-2 -1 -5 -1 -7 -1l-1 6c0 6 4 9 7 12l35 49c22 32 38 69 48 116c8 39 19 79 34 114c24 55 46 111 60 175c7 28 13 56 25 80c5 11 8 21 8 31c0 14 -5 27 -14 40c-2 2 -3 3 -3 7v3l4 1
c10 0 18 -11 27 -16c6 -4 12 -11 17 -15c10 -7 19 -11 29 -11c6 0 13 1 19 4c4 2 8 6 12 6c3 0 6 -1 10 -5c-9 -19 -20 -33 -32 -46c-20 -23 -38 -49 -54 -79c-8 -14 -14 -29 -19 -46c-32 -110 -66 -217 -99 -325c-3 -9 -6 -19 -8 -28c-3 -13 -5 -26 -5 -39
c0 -19 4 -37 13 -54c2 -3 4 -6 5 -9v-4c-1 -3 -3 -4 -5 -4z" />
    <glyph glyph-name="zero" unicode="0" horiz-adv-x="307" 
d="M146 -11c9 0 19 1 29 5c16 6 31 13 48 23c-3 -9 -4 -15 -7 -23c7 1 9 5 11 8c29 46 51 96 66 153c3 13 4 26 4 39c1 18 2 35 8 51c2 4 2 8 2 13c0 4 0 9 -2 13c-11 37 -6 78 -18 114v6c-6 43 -18 82 -41 114c-7 10 -14 22 -19 36c-3 8 -7 12 -13 15c-17 9 -34 12 -51 12
s-34 -3 -52 -10c-2 -1 -5 0 -5 -4l1 -9c0 -17 -12 -23 -22 -30c-8 -6 -14 -14 -19 -25c-14 -33 -25 -67 -33 -104c-7 -32 -13 -64 -13 -97v-8c1 -21 4 -42 4 -63c0 -9 -1 -17 -2 -26l-1 -10c0 -4 1 -8 5 -8l7 2c2 0 3 -4 3 -8c4 -49 23 -93 33 -139c2 -6 4 -9 8 -12
c22 -17 44 -28 69 -28zM148 26c-2 0 -4 2 -7 6c-9 10 -16 22 -19 39c-5 25 -10 51 -21 73c-2 4 -4 9 -5 14c-2 7 -2 13 -2 18c0 13 6 19 21 20h5c5 0 11 1 15 6v2c0 7 -5 4 -7 7c-11 9 -20 19 -25 36c-4 13 -9 25 -14 37c-7 18 -10 35 -10 53c0 16 3 33 8 49c3 9 6 17 10 26
c7 16 14 33 14 53c0 6 2 12 3 18c3 14 6 21 10 21c3 0 7 -4 14 -11l3 -2c10 -9 14 -15 14 -24c0 -7 -3 -16 -10 -30c17 10 28 23 38 36c6 8 10 12 14 12s8 -5 12 -16c10 -22 14 -47 19 -71l1 -6c0 -7 -3 -12 -9 -15c-3 -1 -6 -2 -9 -9l8 1c10 0 18 -5 24 -14
c5 -8 7 -17 7 -27v-5c-2 -21 -6 -41 -15 -59c-3 -5 -8 -9 -9 -18h2c7 0 10 11 17 14c5 -12 8 -23 8 -33c0 -11 -4 -22 -10 -34c-6 -13 -13 -26 -20 -38c-10 -19 -18 -39 -21 -62c-1 -8 0 -18 -9 -20c-2 -1 -3 -2 -3 -5l1 -4l1 -6c0 -3 -1 -6 -3 -8c-5 -5 -10 -13 -16 -13
c-1 0 -3 0 -4 1c-3 2 -4 5 -4 8c0 6 2 12 3 18v9c-8 -11 -9 -25 -13 -37c-2 -6 -4 -10 -7 -10z" />
    <glyph glyph-name="one" unicode="1" horiz-adv-x="168" 
d="M66 16c8 0 19 1 24 13c6 19 17 25 29 25l10 -1c10 -2 20 -6 33 -6h6c-8 11 -16 16 -23 20c-13 7 -23 17 -23 34l2 14l-1 24c0 17 2 33 2 50c0 9 0 18 -2 27c0 3 0 7 1 10c2 6 2 12 2 18c0 12 -3 24 -7 35c-2 5 -3 10 -3 14c0 5 1 10 3 16c6 19 11 40 17 61
c-7 -1 -8 -8 -12 -11l-4 -2c-2 0 -3 1 -5 2c-1 1 -2 4 -2 7v3c1 5 2 10 4 15c4 11 5 22 5 34l-2 49l2 27c2 9 3 18 3 28c0 7 0 14 -3 21l-1 8c0 9 5 17 10 25l17 18h-7c-51 0 -115 -60 -117 -111c8 1 12 10 17 16c4 4 8 6 11 6c5 0 9 -5 11 -15c2 -7 3 -13 3 -19
c0 -8 -2 -17 -4 -25c-4 -18 -8 -35 -8 -54v-10c1 -9 1 -17 1 -26c0 -21 -3 -42 -9 -62l2 -4l2 -1c2 0 4 5 7 5l3 -1c0 -43 -3 -86 -20 -126h1c9 0 10 13 18 13h1c5 -19 8 -37 8 -57c0 -8 0 -17 -2 -26l-1 -13l1 -15c0 -10 -5 -16 -13 -21l-33 -22c15 -6 28 -10 41 -10h5z
" />
    <glyph glyph-name="two" unicode="2" horiz-adv-x="828" 
d="M29 286c7 2 12 10 18 15c5 6 13 8 20 13s15 5 22 9s14 3 24 5c-6 4 -12 1 -16 5c1 2 2 3 4 5c14 11 24 24 26 45c1 5 3 10 6 14c6 9 9 18 11 28c3 14 5 27 8 41c4 17 10 34 10 52c0 8 0 20 -5 27c-2 4 -4 7 -4 12c-1 12 -7 22 -10 33c0 2 -1 4 -3 4c-4 4 -7 9 -11 13
c-1 1 -3 4 -4 4c-7 0 -12 5 -18 7c-12 4 -24 3 -36 5c-2 0 -4 -1 -6 -2c-22 -9 -25 -9 -41 -27c-2 -2 -4 -4 -4 -9l10 10c4 3 5 4 11 6c4 0 7 -4 7 -7c0 -9 -5 -17 -10 -23c0 -1 -1 -1 -1 -2c1 -1 0 -1 2 -2c2 0 3 3 4 3l2 -1v-10c0 -9 -4 -20 -4 -32c0 -14 4 -29 4 -42
c0 -17 2 -27 3 -44c0 -8 -2 -16 -2 -23c0 -5 2 -9 2 -14c0 -7 -1 -8 -1 -14c0 -8 1 -15 3 -22c1 -7 4 -14 4 -22c-2 -14 -3 -27 -12 -38c-5 -7 -10 -14 -13 -22zM82 346c-6 1 -8 1 -8 7c0 15 1 17 1 33c-1 30 1 25 -3 52c1 4 1 9 1 13v13v8v16c0 3 0 6 1 9c5 -1 8 -5 14 -5
c-1 2 -3 2 -4 4c-7 8 -11 17 -11 28c1 23 0 46 2 69c1 8 4 17 9 17c3 0 9 -6 14 -9c12 -8 12 -25 22 -38c3 -4 5 -9 5 -14c0 -14 -8 -25 -14 -35c-2 -2 -3 -4 -4 -7c8 6 14 14 20 24c5 -4 6 -10 7 -15c1 -6 3 -13 3 -20l-1 -6c-2 -10 -2 -22 -5 -32c-5 -19 -2 -39 -14 -53
c-5 -6 -8 -11 -8 -20c0 -3 0 -5 -2 -7c-6 -10 -13 -21 -20 -29c-1 -2 -3 -3 -5 -3zM298 337c15 2 27 9 33 22c4 9 11 13 19 15c2 1 4 0 5 3c0 2 -2 3 -4 4c-4 3 -6 5 -6 10c0 4 1 4 1 8v22c0 3 0 7 -1 10c0 3 1 3 2 7l-2 10c0 6 3 12 3 17v7c0 1 0 2 2 3c7 -9 16 -17 22 -27
c7 -14 14 -29 21 -44c3 -6 5 -11 5 -17c0 -5 -1 -9 -3 -14l1 -1c7 4 14 6 21 6c13 0 29 -6 42 -9c-4 4 -9 8 -14 12c-4 2 -6 5 -6 9l1 6c-1 4 -1 4 -1 9c0 3 2 6 2 10c0 5 -1 7 -2 12c1 6 2 10 2 16l-1 20l1 56c0 3 4 3 4 4c-3 6 -6 8 -6 13c0 7 6 12 10 19c3 5 6 10 7 17
c-11 -18 -26 -27 -48 -27c2 -3 6 -6 6 -9l-2 -7c0 -3 2 -8 3 -11c1 -6 2 -11 2 -16c0 -13 -3 -21 -3 -35c0 -5 0 -10 1 -15c0 -8 -1 -13 -1 -21c0 -5 1 -7 1 -12c0 -1 0 -3 -3 -3c-7 10 -9 18 -14 31c-2 3 -4 7 -7 10c-4 2 -6 7 -8 11c-7 15 -15 30 -24 44
c-6 9 -12 19 -12 31l1 6c-6 0 -9 -2 -13 -2s-9 0 -13 1c-12 0 -20 -4 -26 -15c9 4 5 4 15 5c5 0 9 -4 9 -10c0 -4 -1 -5 -3 -9c0 -1 0 -1 1 -2c4 -3 4 -8 4 -13c0 -14 0 -28 -3 -43c0 -6 -1 -12 -1 -18c0 -7 1 -14 1 -21c1 -6 2 -11 2 -17s-3 -11 -3 -19c0 -4 3 -9 3 -12
c-2 -12 -5 -22 -14 -29c-3 6 -7 14 -13 21c-24 23 -27 24 -37 57c5 -4 6 -4 9 -4l-2 3c-13 14 -14 32 -18 49c-3 13 -7 26 -10 39c-2 13 -8 26 -8 34c0 6 3 11 8 14c3 2 5 4 7 8c-11 -5 -11 -5 -26 -5c-16 0 -32 -8 -32 -23v-3c4 9 11 14 15 14s4 -4 4 -11
c-2 -19 -7 -27 -12 -44c-4 -14 -11 -27 -13 -42c0 -2 -2 -4 -2 -5c-4 -12 -7 -23 -10 -33c-5 -14 -12 -28 -23 -38l-4 -4l-4 -6c12 6 24 13 37 13c8 0 15 -2 24 -3c-6 4 -10 7 -15 8c-7 3 -8 8 -9 16c0 5 2 10 6 13c15 12 15 14 34 14c4 0 8 3 10 3s4 -2 4 -5
c3 -12 5 -19 6 -31c0 -7 -2 -13 -9 -17l-1 -1l1 -2c7 2 14 2 20 2c25 0 46 -9 61 -33l-3 -3c-1 0 -4 0 -4 -3zM180 429l10 29c3 -2 2 -5 6 -7c0 22 5 35 10 57c5 -13 6 -20 8 -32c0 -8 -4 -14 -9 -21c6 1 7 6 11 8c5 -5 4 -13 6 -20c0 -3 -4 -6 -8 -6c-11 -1 -22 -4 -34 -8z
M529 355c16 10 29 19 43 19c4 0 7 -1 11 -2c1 0 2 1 3 2c-2 3 -6 4 -8 6c-8 5 -11 11 -11 18c0 9 3 18 3 28c0 13 0 17 -1 31c0 2 1 5 1 8v3c-5 -4 -10 -6 -15 -6c-4 0 -7 1 -12 3c-2 0 -3 -1 -5 -2c-3 -1 -6 -1 -8 -1c-5 0 -9 2 -13 7v-3c0 -11 12 -15 13 -25c3 1 5 3 7 4
c2 2 4 3 6 3c3 0 4 -2 4 -4c0 -13 -2 -18 -3 -31c-1 -6 -4 -14 -11 -16c-4 -1 -7 -3 -9 -6c-2 -2 -4 -3 -5 -3s-3 2 -5 4c-2 4 -2 8 -3 12c-4 -1 -6 -2 -7 -2c-3 0 -4 4 -5 11c2 11 2 18 2 29v17c0 7 -3 15 -3 22c0 2 0 4 1 6c0 1 -1 2 -1 3c-3 2 -4 3 -4 6c0 2 1 5 2 7
c0 7 4 12 7 17c2 2 3 4 3 6c0 3 -3 7 -3 11c0 9 8 15 16 15c4 0 6 -2 7 -7c0 -2 0 -4 2 -7c8 -8 11 -18 11 -28c0 -6 0 -10 -2 -15c0 -2 -1 -3 -1 -4s0 -2 1 -3c19 14 11 34 33 39c-9 5 -16 8 -18 17c-5 18 -16 21 -35 21c-12 -2 -26 -3 -32 -16l-1 -1c-6 -2 -9 -9 -13 -13
c-3 -3 -5 -7 -5 -11c-1 -13 -6 -25 -6 -39c0 -4 1 -7 2 -10c4 -10 4 -20 5 -30c0 -7 0 -15 2 -22c1 -4 2 -7 2 -11l-1 -7c0 -5 3 -9 8 -12c4 -3 7 -7 11 -11c2 -4 5 -7 9 -8c7 -1 14 -1 21 -1c9 0 18 1 27 8c-1 -12 -12 -16 -17 -26zM579 344c13 2 24 6 31 18
c7 13 23 18 35 18c8 0 17 -4 29 -8c-2 7 -3 12 -3 18v9c0 3 -1 7 -5 8c1 -1 1 -3 1 -5s-1 -5 -3 -7c-1 -1 -2 -3 -3 -3c-12 4 -22 1 -34 5v1v4c0 4 -1 6 -1 10s1 7 2 12c-2 4 -2 6 -2 11c0 6 1 11 1 16v8c0 9 5 12 15 12h6c7 -1 10 -3 11 -11v-8c3 4 5 9 5 14
c0 4 -1 7 -3 10c-5 5 -6 9 -6 16l-3 -1c-3 -4 -6 -5 -9 -5l-12 1c-2 0 -4 1 -4 3v7c0 6 -1 12 1 18l-1 8c0 3 0 5 4 7c-1 5 -4 9 -4 14c0 6 1 9 8 9c5 0 11 -2 11 -5c1 -3 2 -4 3 -4s2 1 3 2c11 9 24 12 34 20c3 2 7 5 9 11c-10 -8 -19 -12 -29 -13c1 4 6 5 6 9
c-3 0 -6 -2 -8 -3c-5 -4 -12 -9 -17 -9h-3c-10 3 -19 3 -29 4c-14 0 -22 -9 -34 -18c-4 -3 -6 -8 -8 -12c-1 -1 -1 -1 -1 -2c1 -1 1 0 2 -1h1c7 9 9 11 19 13c5 0 9 -3 9 -8s-5 -7 -5 -10c0 -5 5 -6 5 -11v-20c0 -17 -4 -32 -4 -48c0 -12 3 -23 3 -36c0 -7 -3 -12 -3 -19
c0 -5 1 -8 1 -13c0 -12 -6 -25 -17 -32c-2 -1 -4 -1 -4 -4zM682 294c19 5 30 21 34 38c3 10 9 16 18 19c3 2 5 2 5 5c0 1 0 2 -1 2c-7 6 -9 12 -9 20c0 2 0 6 1 9c-1 3 -1 7 -1 10c0 7 1 15 1 22c0 5 0 8 -1 12c0 2 1 5 2 5c3 0 3 -4 4 -6c0 -8 5 -15 7 -22
c4 -13 16 -21 19 -35c2 -6 4 -13 7 -19c4 -7 7 -14 7 -21c0 -6 -2 -9 -3 -15c0 -1 1 -2 2 -2s2 0 3 1c6 6 13 8 20 8c5 0 9 -1 14 -3c5 0 9 -5 15 -5l2 1c-2 3 -4 6 -7 8c-6 4 -9 11 -14 17c-4 5 -6 12 -10 16c-6 6 -11 14 -14 21c-1 2 -1 5 -3 7c-5 4 -4 9 -5 15
c4 -2 4 -5 5 -6c3 -3 3 -5 7 -5c-9 11 -13 21 -14 34c0 3 1 5 4 7c26 19 35 46 35 77c0 14 -2 28 -6 42c-1 5 0 10 -3 14c-3 5 -4 10 -5 16l-2 12c-2 7 -9 10 -12 16c-4 6 -7 9 -12 9c-8 0 -18 -6 -26 -15l-11 -13c-4 4 -4 8 -4 13v16c-5 -3 -11 -5 -16 -5l-11 1
c-12 0 -22 -10 -23 -22c4 3 11 8 15 8c5 0 8 -10 8 -16c0 -5 -2 -10 -5 -14c7 -4 7 -10 7 -16v-23c0 -25 -4 -49 -4 -74s2 -37 3 -61l-1 -13c-1 -5 -2 -11 -2 -16c1 -9 2 -12 2 -21c0 -19 -6 -35 -20 -48c-2 -2 -2 -2 -2 -5zM749 446c-4 0 -9 1 -14 4c-3 2 -5 5 -6 9
c0 14 3 21 3 35c1 19 0 37 2 56c1 12 8 22 18 29c0 1 1 1 3 1c1 0 2 0 3 -1c14 -8 16 -24 16 -40c0 -12 -2 -24 -5 -36c-1 -4 -2 -6 -2 -11c8 10 7 22 13 32c1 -2 1 -3 1 -5l-4 -38c-1 -6 -2 -11 -7 -15c-2 -2 -3 -6 -6 -9c-5 -8 -9 -11 -15 -11zM134 -68c15 3 25 14 31 30
c4 13 9 24 23 28c2 0 2 2 2 3c0 2 -3 5 -5 8c-3 3 -5 6 -5 11v11c0 10 1 5 0 16c0 5 2 9 2 14c0 2 -1 5 -1 8l-1 11c0 9 1 19 1 28v10c2 8 3 14 3 22v6l-1 3c0 2 1 2 2 3l13 -24c4 -6 6 -11 9 -17l22 -70c2 -8 4 -16 4 -25c0 -8 -2 -15 -4 -25c9 7 14 11 22 11
c10 0 29 -6 43 -15l1 2l-15 17c-3 3 -6 7 -6 11l1 9c0 6 -1 11 -1 17s2 10 2 16l-1 14c0 37 1 44 1 78l-1 34l1 33v4c3 1 4 3 4 4c0 2 -2 4 -3 6c-2 4 -3 9 -3 13c0 18 16 35 17 56l-11 -19c-6 -13 -17 -19 -31 -21c-2 -1 -5 0 -6 -3c3 -4 5 -8 5 -13c0 -2 0 -4 -1 -6
c1 -16 5 -27 5 -43c0 -18 -4 -35 -4 -53c0 -11 2 -22 2 -32s-1 -19 -1 -29c1 -10 0 -6 1 -17c0 -1 0 -3 -1 -4c-3 1 -3 3 -4 5c-5 14 -9 29 -13 44c-1 5 -2 9 -6 13c-4 5 -6 11 -8 18l-12 39c-8 25 -24 49 -24 75c0 4 0 8 1 12c-6 -2 -11 -5 -17 -5c-4 0 -8 2 -12 2
c-9 0 -19 -8 -23 -23c7 4 13 8 16 8c4 0 7 -7 8 -14c0 -7 -1 -11 -5 -17c6 -3 7 -8 7 -13v-30c0 -22 -4 -44 -4 -69c0 -17 1 -34 2 -52c0 -5 2 -8 2 -11c-1 -12 -4 -17 -4 -27c1 -10 2 -12 2 -21c0 -13 -4 -25 -9 -37c-2 -6 -6 -11 -11 -14c0 -1 -2 -2 -2 -3c0 0 0 -1 1 -1z
M288 0c14 2 25 7 32 21c4 8 11 14 20 16c2 1 4 0 4 2c0 5 -10 5 -10 14s1 18 5 26c1 4 1 8 1 12c0 12 0 22 -1 33c-1 6 -2 13 -2 19c1 10 0 5 1 16c0 8 -4 15 -4 24l1 14c0 6 -1 7 -2 13c0 2 1 5 1 7c4 11 10 22 22 28l-1 1h-3c-14 -3 -24 -12 -30 -24
c-5 -9 -11 -13 -19 -13l-7 1c-2 1 -3 1 -5 1h-3c9 -10 21 -10 21 -17l-1 -6l1 -5c0 -11 0 -23 -1 -34l-1 -7c0 -7 5 -12 5 -16c0 -1 0 -3 -1 -5c-3 -7 -6 -14 -8 -23c5 4 5 6 8 6c1 0 2 -2 2 -2c0 -2 0 -3 -1 -4c-2 -6 -2 -12 -2 -17c0 -6 1 -10 1 -16c0 -5 -3 -11 -3 -16
s2 -10 2 -14c0 -2 0 -5 -1 -7c-4 -12 -10 -22 -21 -28zM425 14c17 10 29 19 44 19c3 0 7 0 11 -2c1 0 2 1 2 2c-2 3 -6 4 -8 6c-7 5 -11 12 -11 19c0 8 4 17 4 27c-1 13 0 17 -2 31c0 3 2 5 2 9l-1 2c-5 -4 -9 -6 -14 -6s-7 2 -12 3c-2 0 -4 -1 -6 -2c-3 -1 -5 -1 -8 -1
c-5 0 -9 2 -13 7v-2c0 -12 12 -16 13 -26l7 4c2 2 4 4 7 4c2 0 4 -3 4 -5c-1 -13 -2 -18 -4 -31c-1 -6 -4 -14 -11 -16c-4 -1 -7 -3 -9 -6c-2 -2 -3 -3 -5 -3c-1 0 -3 2 -5 5s-2 7 -3 12c-3 -2 -5 -3 -7 -3c-3 0 -4 4 -4 11c1 11 2 18 2 29l-1 18c0 7 -3 14 -3 21
c0 3 0 4 1 7c0 0 0 2 -1 2c-3 2 -4 4 -4 6s1 5 2 7c1 7 4 12 8 17c2 2 2 4 2 6c0 3 -2 7 -2 11c0 9 7 15 16 15c3 0 5 -2 6 -7c1 -2 1 -4 3 -6c7 -9 11 -19 11 -29c0 -5 -1 -10 -2 -15c-1 -1 -1 -3 -1 -4v-2c19 14 12 33 33 38c-8 5 -16 8 -18 17c-5 19 -16 21 -35 21
c-12 -2 -25 -2 -32 -16c0 0 0 -1 -1 -1c-6 -2 -8 -9 -13 -13c-3 -3 -5 -7 -5 -11c-1 -13 -6 -25 -6 -39c0 -3 1 -7 2 -10c7 -18 3 -35 7 -52c1 -3 2 -7 2 -11l-1 -7c0 -5 4 -9 8 -12c5 -3 8 -7 11 -11c2 -4 5 -7 10 -7c7 -1 13 -2 20 -2c10 0 18 2 27 8
c-1 -12 -12 -16 -17 -26zM476 3c12 3 23 6 29 17c6 10 13 20 26 21l2 2c0 1 -1 2 -1 2c-7 3 -10 9 -10 15l1 6l-1 1v5c0 4 2 7 2 10c0 6 -2 10 -2 14c0 6 1 13 1 19c0 13 3 16 13 16c5 -1 10 -1 15 -5c1 0 1 -1 2 -1c6 2 8 2 16 3l-1 -7c0 -6 5 -11 5 -16
c-3 -13 -8 -13 -19 -21l4 -1c3 0 6 3 9 3c2 0 3 -2 3 -3c0 -2 -1 -5 -1 -7c0 -3 1 -4 1 -7c0 -6 -3 -11 -7 -15l-13 -17c-1 -1 -2 -2 -2 -3l1 -2c9 7 16 10 24 10c9 0 27 -4 39 -11c1 0 2 -1 3 -1h1c0 3 -1 5 -4 6c-4 4 -8 6 -13 9c-2 2 -5 5 -5 7l1 7c0 3 -1 6 -1 9
s1 6 2 8c4 5 6 10 6 15c0 3 -2 8 -2 12s3 6 3 9c0 6 -8 13 -8 20v49c0 1 0 4 1 4c3 1 4 2 4 3s-3 3 -4 4c-1 3 -2 5 -2 8c0 12 16 21 17 37c-12 -19 -27 -27 -49 -27c5 -7 8 -10 8 -16l-2 -12l1 -3c3 -5 3 -11 3 -17c-1 -13 -3 -13 -16 -17c-3 0 -4 2 -6 6
c-4 -3 -7 -6 -11 -6c-1 0 -3 0 -5 1h-6c-4 0 -5 2 -5 7l1 33c0 1 0 2 1 2c2 0 2 1 2 2s0 3 -1 4c-1 4 -2 7 -2 10c0 5 3 9 9 14c1 2 3 2 3 5h-2c-4 0 -8 -1 -12 -4c-6 -4 -12 -6 -19 -6l-8 1c-9 0 -16 -6 -21 -14c5 0 6 2 10 2c6 0 12 -5 12 -11c0 -2 -1 -3 -2 -6
c0 -2 4 -4 4 -8l1 -11c0 -10 -2 -19 -8 -28c-4 -7 -8 -16 -8 -26c0 -4 4 -7 7 -11l7 -23c1 -3 2 -6 2 -9c-2 -8 -3 -10 -3 -17c0 -6 1 -7 2 -12c-2 -15 -7 -27 -20 -34c-1 -1 -2 -1 -2 -3zM602 -62c18 5 29 21 34 40c3 11 11 16 19 20l4 1c2 0 4 -1 5 -2c2 -1 4 -4 6 -4
s2 1 3 3c0 3 -3 5 -3 8l-1 1c-7 10 -8 23 -13 33c-1 13 -3 25 -3 37c1 15 2 16 2 30c0 10 -1 15 -3 24c2 9 5 13 5 21c0 5 -1 11 -2 17c-2 13 -3 19 -4 33c0 16 3 31 6 46c1 5 4 9 8 9l4 -1c2 -1 4 -2 6 -2l2 1c-1 3 -4 4 -6 4c-3 2 -8 4 -8 6c0 1 0 3 2 3c8 0 13 -3 20 -5
c1 -1 2 -2 2 -4c1 -4 3 -7 7 -10c1 0 2 -1 2 -2c3 -12 7 -23 7 -35c0 -7 -3 -11 -3 -19c10 11 12 33 19 56c2 9 5 18 13 23c1 1 2 2 2 3c-1 2 -1 3 -2 3l-3 -1c-3 0 -5 -1 -7 -1c-6 2 -8 4 -14 4s-8 1 -13 2c-4 -1 -6 -2 -9 -2c-7 0 -14 7 -21 7l-4 -1c-3 -1 -5 -3 -8 -3
c-1 0 -3 0 -4 2l-12 -4c-2 0 -3 -2 -4 -2c-4 3 -6 4 -10 4c-21 0 -36 -4 -58 -4c-5 0 -7 -3 -7 -9s2 -10 2 -16c0 -14 -10 -25 -10 -41c0 -5 1 -11 5 -17c2 21 7 45 22 60c1 3 4 5 7 6c6 1 11 -1 17 3c12 -2 22 -11 22 -20l-1 -10l1 -15c0 -6 -2 -11 -2 -16
c0 -6 2 -12 2 -19c0 -9 -1 -10 -2 -20c0 -9 4 -18 4 -26c0 -3 0 -5 -1 -8l-7 -33c4 1 4 7 7 7c2 -1 3 -1 3 -4c-2 -12 -4 -20 -4 -29l1 -15c0 -12 -1 -15 -1 -26c-1 -5 -2 -9 -2 -14c1 -9 3 -12 3 -20c0 -13 -5 -26 -10 -38c-2 -6 -6 -11 -10 -14c-1 -1 -3 -2 -3 -3z" />
    <glyph glyph-name="three" unicode="3" horiz-adv-x="828" 
d="M30 286c7 2 11 10 17 15c6 6 14 8 20 13c7 5 15 5 23 9c7 4 14 3 23 5c-6 4 -12 1 -16 5c1 2 2 3 4 5c15 11 25 24 27 45c0 5 3 10 5 14c7 9 9 18 11 28c3 14 5 27 9 41c3 17 10 34 10 52c0 8 -1 20 -5 27c-2 4 -4 7 -4 12c-1 12 -8 22 -10 33c-1 2 -2 4 -3 4
c-5 4 -8 9 -12 13c-1 1 -2 4 -3 4c-8 0 -12 5 -19 7c-11 4 -23 3 -35 5c-2 0 -4 -1 -6 -2c-23 -9 -25 -9 -42 -27c-1 -2 -3 -4 -4 -9c4 4 8 7 11 10s5 4 10 6c4 0 8 -4 8 -7c0 -9 -5 -17 -10 -23c-1 -1 -1 -1 -1 -2s0 -1 1 -2c2 0 3 3 5 3l2 -1v-10c0 -9 -5 -20 -5 -32
c0 -14 5 -29 5 -42c0 -17 2 -27 3 -44c0 -8 -2 -16 -2 -23c0 -5 2 -9 2 -14c-1 -7 -1 -8 -1 -14c0 -8 1 -15 2 -22c2 -7 5 -14 5 -22c-2 -14 -4 -27 -12 -38c-5 -7 -10 -14 -13 -22zM82 346c-6 1 -7 1 -7 7c0 15 0 17 1 33c-2 30 1 25 -3 52c0 4 1 9 1 13l-1 13l1 8v16v9
c5 -1 8 -5 14 -5c0 2 -2 2 -4 4c-6 8 -10 17 -10 28c0 23 0 46 1 69c1 8 5 17 9 17s9 -6 14 -9c13 -8 13 -25 23 -38c3 -4 4 -9 4 -14c0 -14 -7 -25 -14 -35c-1 -2 -3 -4 -4 -7c9 6 15 14 20 24c5 -4 7 -10 7 -15c2 -6 3 -13 3 -20v-6c-3 -10 -3 -22 -5 -32
c-6 -19 -3 -39 -14 -53c-6 -6 -9 -11 -9 -20c0 -3 0 -5 -1 -7c-6 -10 -13 -21 -21 -29c-1 -2 -3 -3 -5 -3zM299 337c15 2 26 9 32 22c5 9 11 13 19 15c2 1 5 0 5 3c0 2 -1 3 -3 4c-4 3 -7 5 -7 10c1 4 1 4 1 8l1 22c0 3 0 7 -1 10c0 3 1 3 1 7l-1 10c0 6 3 12 3 17v7
c0 1 0 2 1 3c8 -9 17 -17 22 -27c8 -14 15 -29 22 -44c3 -6 5 -11 5 -17c0 -5 -1 -9 -4 -14l2 -1c6 4 13 6 20 6c13 0 30 -6 43 -9l-15 12c-3 2 -6 5 -6 9l1 6c0 4 -1 4 -1 9c0 3 2 6 2 10c0 5 -1 7 -2 12c1 6 2 10 2 16v20v56c0 3 4 3 4 4c-2 6 -6 8 -6 13c0 7 6 12 10 19
c4 5 7 10 7 17c-11 -18 -26 -27 -48 -27c2 -3 6 -6 6 -9l-1 -7c0 -3 1 -8 3 -11c0 -6 1 -11 1 -16c0 -13 -3 -21 -3 -35c0 -5 1 -10 2 -15c0 -8 -1 -13 -1 -21c0 -5 1 -7 1 -12c0 -1 -1 -3 -3 -3c-7 10 -9 18 -14 31c-2 3 -4 7 -7 10c-4 2 -7 7 -9 11c-6 15 -14 30 -23 44
c-6 9 -13 19 -13 31l1 6c-5 0 -9 -2 -13 -2s-8 0 -12 1c-13 0 -21 -4 -26 -15c9 4 4 4 15 5c5 0 8 -4 8 -10c0 -4 -1 -5 -3 -9c0 -1 1 -1 2 -2c4 -3 4 -8 4 -13c0 -14 -1 -28 -3 -43c-1 -6 -1 -12 -1 -18c0 -7 0 -14 1 -21c1 -6 2 -11 2 -17s-3 -11 -3 -19c0 -4 2 -9 2 -12
c-1 -12 -5 -22 -13 -29c-4 6 -7 14 -14 21c-24 23 -27 24 -36 57c4 -4 5 -4 9 -4l-3 3c-12 14 -13 32 -18 49l-9 39s-8 26 -8 34c0 6 2 11 8 14c3 2 5 4 6 8c-10 -5 -10 -5 -26 -5s-32 -8 -32 -23l1 -3c3 9 10 14 14 14c5 0 4 -4 5 -11c-3 -19 -8 -27 -12 -44
c-4 -14 -12 -27 -14 -42c0 -2 -1 -4 -2 -5c-4 -12 -6 -23 -10 -33c-5 -14 -11 -28 -23 -38l-4 -4l-3 -6c11 6 24 13 37 13c7 0 15 -2 23 -3c-5 4 -10 7 -15 8c-7 3 -8 8 -9 16c0 5 2 10 7 13c15 12 15 14 33 14c4 0 9 3 11 3s3 -2 4 -5c2 -12 4 -19 6 -31
c0 -7 -2 -13 -9 -17c-1 0 -1 -1 -1 -1v-2c7 2 14 2 21 2c25 0 46 -9 61 -33c-2 -1 -3 -2 -4 -3c-1 0 -3 0 -3 -3zM181 429l10 29c3 -2 2 -5 6 -7c0 22 4 35 9 57c6 -13 7 -20 9 -32c0 -8 -5 -14 -10 -21c6 1 8 6 12 8c4 -5 4 -13 5 -20c0 -3 -3 -6 -8 -6
c-11 -1 -21 -4 -33 -8zM529 355c17 10 29 19 44 19c3 0 7 -1 11 -2c1 0 2 1 2 2c-2 3 -5 4 -8 6c-7 5 -11 11 -11 18c0 9 4 18 4 28c-1 13 0 17 -2 31c0 2 2 5 2 8l-1 3c-5 -4 -9 -6 -14 -6s-7 1 -12 3c-2 0 -4 -1 -6 -2s-5 -1 -8 -1c-5 0 -9 2 -12 7v-3
c0 -11 11 -15 12 -25c3 1 5 3 7 4c2 2 5 3 7 3s4 -2 4 -4c-1 -13 -2 -18 -4 -31c-1 -6 -4 -14 -11 -16c-3 -1 -7 -3 -9 -6c-2 -2 -3 -3 -5 -3c-1 0 -3 2 -5 4c-1 4 -1 8 -3 12c-3 -1 -5 -2 -7 -2c-3 0 -3 4 -4 11c1 11 2 18 2 29v17c0 7 -4 15 -4 22c0 2 0 4 1 6
c0 1 0 2 -1 3c-3 2 -4 3 -4 6c0 2 2 5 2 7c1 7 4 12 8 17c2 2 2 4 2 6c0 3 -2 7 -2 11c0 9 7 15 16 15c4 0 5 -2 6 -7c1 -2 1 -4 3 -7c7 -8 11 -18 11 -28c0 -6 -1 -10 -2 -15c-1 -2 -1 -3 -1 -4v-3c19 14 12 34 33 39c-8 5 -16 8 -18 17c-5 18 -16 21 -35 21
c-12 -2 -25 -3 -32 -16v-1c-7 -2 -9 -9 -14 -13c-3 -3 -5 -7 -5 -11c-1 -13 -5 -25 -5 -39c0 -4 0 -7 1 -10c4 -10 5 -20 5 -30c1 -7 1 -15 2 -22c1 -4 2 -7 2 -11l-1 -7c0 -5 4 -9 8 -12c5 -3 8 -7 11 -11c2 -4 5 -7 10 -8c7 -1 14 -1 20 -1c10 0 18 1 27 8
c-1 -12 -12 -16 -17 -26zM580 344c12 2 23 6 30 18c7 13 24 18 35 18c9 0 17 -4 30 -8c-3 7 -4 12 -4 18l1 9c0 3 -2 7 -5 8c0 -1 1 -3 1 -5s-1 -5 -3 -7c-1 -1 -3 -3 -4 -3c-11 4 -21 1 -34 5v1c0 1 1 3 1 4c0 4 -2 6 -2 10s1 7 2 12c-1 4 -1 6 -1 11v16v8c0 9 5 12 15 12
h7c6 -1 10 -3 10 -11v-8c4 4 6 9 6 14c0 4 -1 7 -4 10c-4 5 -6 9 -6 16l-2 -1c-3 -4 -6 -5 -9 -5l-13 1c-2 0 -3 1 -4 3v7c1 6 0 12 1 18l-1 8c0 3 1 5 4 7c0 5 -3 9 -3 14c0 6 0 9 7 9c5 0 11 -2 12 -5s2 -4 3 -4c0 0 1 1 3 2c10 9 23 12 34 20c3 2 6 5 8 11
c-10 -8 -18 -12 -28 -13c0 4 5 5 5 9c-3 0 -5 -2 -7 -3c-5 -4 -12 -9 -18 -9h-3c-9 3 -19 3 -28 4c-14 0 -22 -9 -34 -18c-4 -3 -6 -8 -9 -12v-2s0 0 2 -1h1c7 9 9 11 19 13c5 0 9 -3 9 -8s-5 -7 -5 -10c0 -5 4 -6 4 -11l1 -20c0 -17 -5 -32 -5 -48c0 -12 4 -23 4 -36
c0 -7 -4 -12 -4 -19c0 -5 2 -8 2 -13c0 -12 -7 -25 -18 -32c-1 -1 -3 -1 -3 -4zM683 294c18 5 29 21 34 38c2 10 9 16 18 19c3 2 5 2 5 5c0 1 0 2 -1 2c-7 6 -10 12 -10 20c0 2 0 6 1 9c-1 3 -1 7 -1 10c0 7 2 15 2 22c0 5 -1 8 -2 12c0 2 1 5 2 5c3 0 4 -4 4 -6
c1 -8 5 -15 7 -22c4 -13 16 -21 20 -35c1 -6 3 -13 7 -19c4 -7 7 -14 7 -21c0 -6 -2 -9 -4 -15c0 -1 1 -2 3 -2c1 0 2 0 3 1c6 6 12 8 19 8c5 0 10 -1 15 -3c4 0 9 -5 14 -5l2 1c-2 3 -4 6 -6 8c-6 4 -10 11 -14 17c-4 5 -6 12 -11 16c-6 6 -10 14 -13 21c-1 2 -2 5 -3 7
c-5 4 -5 9 -5 15c3 -2 3 -5 5 -6c2 -3 3 -5 7 -5c-9 11 -13 21 -15 34c0 3 2 5 5 7c25 19 35 46 35 77c0 14 -3 28 -6 42c-1 5 -1 10 -4 14c-3 5 -4 10 -4 16l-3 12c-2 7 -8 10 -12 16c-3 6 -7 9 -12 9c-7 0 -17 -6 -25 -15l-12 -13c-3 4 -4 8 -4 13l1 16
c-6 -3 -11 -5 -17 -5l-11 1c-12 0 -22 -10 -23 -22c5 3 11 8 15 8c6 0 9 -10 9 -16c0 -5 -2 -10 -5 -14c6 -4 7 -10 7 -16v-23c0 -25 -5 -49 -5 -74s2 -37 3 -61l-1 -13c0 -5 -1 -11 -1 -16c0 -9 1 -12 1 -21c0 -19 -6 -35 -20 -48c-1 -2 -1 -2 -1 -5zM749 446
c-4 0 -8 1 -14 4c-3 2 -5 5 -5 9c0 14 3 21 3 35c0 19 0 37 1 56c1 12 8 22 18 29c1 1 2 1 3 1s3 0 4 -1c13 -8 16 -24 16 -40c0 -12 -2 -24 -6 -36c-1 -4 -2 -6 -2 -11c8 10 8 22 13 32c1 -2 2 -3 2 -5l-5 -38c0 -6 -1 -11 -6 -15c-3 -2 -4 -6 -6 -9c-5 -8 -10 -11 -16 -11
zM134 -68c16 3 26 14 31 30c4 13 10 24 23 28c2 0 3 2 3 3c0 2 -3 5 -5 8c-4 3 -6 6 -6 11l1 11c0 10 0 5 -1 16c0 5 2 9 2 14c0 2 0 5 -1 8l-1 11c0 9 2 19 2 28l-1 10c3 8 3 14 3 22v6v3c0 2 0 2 2 3l13 -24c3 -6 6 -11 8 -17l22 -70c3 -8 4 -16 4 -25c0 -8 -2 -15 -3 -25
c8 7 14 11 22 11c10 0 28 -6 42 -15l2 2l-15 17c-4 3 -7 7 -7 11l1 9c0 6 -1 11 -1 17s2 10 2 16v14c0 37 1 44 1 78l-1 34v33c0 1 0 4 1 4c3 1 4 3 4 4c0 2 -3 4 -4 6c-2 4 -3 9 -3 13c0 18 16 35 17 56l-10 -19c-7 -13 -18 -19 -31 -21c-2 -1 -5 0 -7 -3c3 -4 6 -8 6 -13
c0 -2 0 -4 -1 -6c1 -16 5 -27 5 -43c0 -18 -4 -35 -4 -53c0 -11 2 -22 2 -32c-1 -10 -2 -19 -2 -29c1 -10 0 -6 2 -17c0 -1 -1 -3 -2 -4c-3 1 -2 3 -3 5c-6 14 -9 29 -13 44c-1 5 -3 9 -6 13c-5 5 -7 11 -9 18c-3 13 -8 26 -12 39c-7 25 -24 49 -24 75c0 4 1 8 2 12
c-6 -2 -12 -5 -18 -5c-3 0 -8 2 -11 2c-10 0 -20 -8 -23 -23c6 4 12 8 16 8s6 -7 8 -14c0 -7 -2 -11 -5 -17c6 -3 6 -8 6 -13c1 -10 1 -20 1 -30c0 -22 -4 -44 -4 -69c0 -17 1 -34 2 -52c0 -5 1 -8 1 -11c-1 -12 -4 -17 -4 -27c2 -10 3 -12 3 -21c0 -13 -4 -25 -9 -37
c-2 -6 -6 -11 -11 -14c-1 -1 -2 -2 -2 -3v-1zM288 0c14 2 26 7 32 21c5 8 11 14 21 16c1 1 3 0 4 2c0 5 -10 5 -10 14s0 18 4 26c1 4 2 8 2 12c0 12 0 22 -2 33c-1 6 -1 13 -1 19c0 10 0 5 1 16c0 8 -4 15 -4 24l1 14c0 6 -1 7 -2 13c0 2 0 5 1 7c4 11 10 22 22 28l-2 1h-2
c-14 -3 -24 -12 -31 -24c-5 -9 -10 -13 -18 -13l-7 1c-2 1 -4 1 -6 1h-2c8 -10 20 -10 20 -17v-6v-5v-34l-1 -7c0 -7 5 -12 5 -16c0 -1 -1 -3 -2 -5c-3 -7 -5 -14 -8 -23c5 4 6 6 8 6c1 0 3 -2 3 -2c0 -2 -1 -3 -1 -4c-2 -6 -2 -12 -3 -17c0 -6 1 -10 1 -16
c0 -5 -3 -11 -3 -16s3 -10 3 -14c0 -2 -1 -5 -2 -7c-3 -12 -9 -22 -21 -28zM425 14c17 10 30 19 44 19c4 0 7 0 11 -2c1 0 2 1 2 2c-1 3 -5 4 -7 6c-8 5 -11 12 -11 19c0 8 3 17 3 27c0 13 0 17 -2 31c0 3 2 5 2 9v2c-5 -4 -10 -6 -15 -6s-7 2 -12 3c-2 0 -4 -1 -5 -2
c-3 -1 -6 -1 -9 -1c-4 0 -8 2 -12 7v-2c0 -12 11 -16 13 -26l7 4c2 2 4 4 6 4s4 -3 4 -5c-1 -13 -2 -18 -3 -31c-1 -6 -5 -14 -11 -16c-4 -1 -7 -3 -10 -6c-1 -2 -3 -3 -4 -3c-2 0 -3 2 -5 5s-2 7 -3 12c-4 -2 -6 -3 -7 -3c-4 0 -4 4 -5 11c1 11 2 18 2 29v18
c0 7 -3 14 -3 21c0 3 0 4 1 7l-1 2c-4 2 -4 4 -4 6s1 5 1 7c1 7 5 12 8 17c2 2 2 4 2 6c0 3 -2 7 -2 11c0 9 8 15 16 15c4 0 6 -2 7 -7c0 -2 0 -4 2 -6c8 -9 11 -19 11 -29c0 -5 0 -10 -2 -15c0 -1 -1 -3 -1 -4s0 -1 1 -2c18 14 11 33 32 38c-8 5 -15 8 -18 17
c-4 19 -15 21 -34 21c-12 -2 -26 -2 -32 -16l-1 -1c-7 -2 -9 -9 -13 -13c-3 -3 -5 -7 -5 -11c-1 -13 -6 -25 -6 -39c0 -3 0 -7 2 -10c7 -18 3 -35 7 -52c1 -3 2 -7 2 -11l-1 -7c0 -5 3 -9 7 -12c5 -3 8 -7 11 -11s6 -7 10 -7c7 -1 14 -2 21 -2c9 0 18 2 26 8
c0 -12 -11 -16 -17 -26zM476 3c12 3 23 6 29 17c6 10 13 20 26 21l2 2c0 1 0 2 -1 2c-7 3 -9 9 -9 15v6v1l-1 5c0 4 2 7 2 10c0 6 -1 10 -1 14c0 6 1 13 1 19c0 13 3 16 12 16c5 -1 11 -1 15 -5c1 0 2 -1 3 -1c5 2 7 2 15 3l-1 -7c0 -6 5 -11 5 -16c-2 -13 -8 -13 -18 -21
l3 -1c4 0 6 3 9 3c2 0 3 -2 3 -3c0 -2 -1 -5 -1 -7c0 -3 2 -4 2 -7c0 -6 -4 -11 -7 -15l-14 -17c0 -1 -2 -2 -2 -3l1 -2c10 7 16 10 24 10c10 0 27 -4 40 -11c0 0 1 -1 2 -1h2c0 3 -2 5 -5 6c-4 4 -8 6 -12 9c-3 2 -5 5 -5 7v7c0 3 0 6 -1 9c0 3 1 6 3 8c3 5 5 10 5 15
c0 3 -1 8 -1 12s2 6 2 9c0 6 -7 13 -7 20v49c0 1 0 4 1 4c2 1 3 2 3 3s-2 3 -3 4c-2 3 -3 5 -3 8c0 12 16 21 17 37c-11 -19 -26 -27 -48 -27c5 -7 7 -10 7 -16l-1 -12v-3c3 -5 3 -11 3 -17c0 -13 -3 -13 -16 -17c-2 0 -4 2 -6 6c-3 -3 -6 -6 -11 -6c-1 0 -3 0 -5 1h-5
c-5 0 -5 2 -5 7v33c0 1 0 2 1 2c2 0 3 1 3 2s-1 3 -1 4c-2 4 -3 7 -3 10c0 5 3 9 9 14c2 2 4 2 4 5h-3c-4 0 -7 -1 -11 -4c-6 -4 -13 -6 -19 -6l-9 1c-9 0 -16 -6 -21 -14c5 0 6 2 11 2c6 0 11 -5 11 -11c0 -2 0 -3 -1 -6c0 -2 4 -4 4 -8v-11c0 -10 -1 -19 -7 -28
c-5 -7 -8 -16 -8 -26c0 -4 4 -7 6 -11l8 -23c1 -3 1 -6 1 -9c-1 -8 -3 -10 -3 -17c0 -6 1 -7 3 -12c-3 -15 -7 -27 -21 -34c-1 -1 -2 -1 -2 -3zM602 -62c19 5 29 21 35 40c3 11 10 16 19 20l3 1c2 0 4 -1 6 -2s4 -4 5 -4c2 0 3 1 3 3c0 3 -2 5 -3 8v1c-8 10 -8 23 -14 33
c0 13 -3 25 -3 37c1 15 2 16 2 30c0 10 0 15 -2 24c2 9 5 13 5 21c0 5 -1 11 -3 17c-2 13 -3 19 -3 33c0 16 3 31 5 46c1 5 4 9 8 9l5 -1c1 -1 3 -2 5 -2l2 1c-1 3 -3 4 -6 4c-3 2 -7 4 -7 6c0 1 0 3 1 3c8 0 13 -3 21 -5c1 -1 1 -2 1 -4c2 -4 4 -7 7 -10c1 0 2 -1 3 -2
c2 -12 7 -23 7 -35c0 -7 -3 -11 -3 -19c10 11 12 33 18 56c2 9 6 18 13 23c1 1 2 2 2 3c0 2 -1 3 -2 3l-3 -1c-2 0 -4 -1 -7 -1c-6 2 -7 4 -14 4c-5 0 -8 1 -13 2c-4 -1 -5 -2 -8 -2c-8 0 -14 7 -22 7l-3 -1c-3 -1 -5 -3 -8 -3c-1 0 -3 0 -5 2l-12 -4c-1 0 -2 -2 -4 -2
c-4 3 -5 4 -10 4c-20 0 -35 -4 -57 -4c-5 0 -8 -3 -8 -9s3 -10 3 -16c0 -14 -11 -25 -11 -41c0 -5 2 -11 5 -17c3 21 8 45 22 60c2 3 4 5 7 6c6 1 12 -1 17 3h1c11 -2 21 -11 21 -20v-10l1 -15c0 -6 -3 -11 -3 -16c0 -6 2 -12 2 -19c0 -9 -1 -10 -2 -20c0 -9 5 -18 5 -26
c0 -3 -1 -5 -1 -8l-8 -33c5 1 4 7 7 7c3 -1 4 -1 4 -4c-2 -12 -5 -20 -5 -29l1 -15c0 -12 0 -15 -1 -26c0 -5 -2 -9 -2 -14c2 -9 3 -12 3 -20c0 -13 -5 -26 -9 -38c-2 -6 -6 -11 -11 -14c-1 -1 -2 -2 -2 -3v-2z" />
    <glyph glyph-name="four" unicode="4" horiz-adv-x="828" 
d="M29 286c8 2 12 10 18 15c6 6 13 8 20 13s15 5 22 9s15 3 24 5c-6 4 -12 1 -16 5c1 2 2 3 4 5c15 11 24 24 27 45c0 5 2 10 5 14c7 9 9 18 11 28c3 14 5 27 8 41c4 17 11 34 11 52c0 8 -1 20 -6 27c-1 4 -4 7 -4 12c-1 12 -7 22 -10 33c0 2 -1 4 -3 4c-4 4 -7 9 -11 13
c-1 1 -2 4 -4 4c-7 0 -11 5 -18 7c-12 4 -24 3 -35 5c-2 0 -5 -1 -6 -2c-23 -9 -26 -9 -42 -27c-2 -2 -4 -4 -4 -9c4 4 7 7 11 10c3 3 4 4 10 6c4 0 8 -4 8 -7c0 -9 -6 -17 -11 -23v-2s-1 -1 1 -2c2 0 3 3 4 3l2 -1v-10c0 -9 -4 -20 -4 -32c0 -14 4 -29 4 -42
c0 -17 3 -27 4 -44c0 -8 -3 -16 -3 -23c0 -5 3 -9 3 -14c-1 -7 -1 -8 -1 -14c0 -8 1 -15 2 -22s5 -14 5 -22c-2 -14 -4 -27 -12 -38c-5 -7 -11 -14 -14 -22zM82 346c-6 1 -8 1 -8 7c0 15 1 17 2 33c-2 30 0 25 -4 52c1 4 1 9 1 13v13v8v16c0 3 0 6 1 9c5 -1 8 -5 14 -5
c0 2 -3 2 -4 4c-7 8 -11 17 -11 28c1 23 0 46 2 69c1 8 4 17 9 17c3 0 9 -6 14 -9c12 -8 12 -25 22 -38c3 -4 5 -9 5 -14c0 -14 -8 -25 -14 -35c-1 -2 -3 -4 -4 -7c9 6 15 14 20 24c5 -4 7 -10 7 -15c1 -6 3 -13 3 -20l-1 -6c-2 -10 -2 -22 -5 -32c-5 -19 -2 -39 -14 -53
c-5 -6 -8 -11 -8 -20c0 -3 0 -5 -2 -7c-6 -10 -13 -21 -20 -29c-1 -2 -3 -3 -5 -3zM299 337c14 2 26 9 32 22c4 9 11 13 19 15c2 1 5 0 5 3c0 2 -2 3 -4 4c-4 3 -6 5 -6 10c0 4 1 4 1 8v22c0 3 0 7 -1 10c0 3 1 3 2 7l-2 10c0 6 4 12 4 17v7c0 1 0 2 1 3c7 -9 17 -17 22 -27
c7 -14 14 -29 22 -44c2 -6 4 -11 4 -17c0 -5 0 -9 -3 -14l1 -1c7 4 14 6 21 6c13 0 29 -6 42 -9c-4 4 -9 8 -14 12c-4 2 -6 5 -6 9l1 6c0 4 -1 4 -1 9c0 3 2 6 2 10c0 5 -1 7 -2 12c1 6 2 10 2 16v20v56c0 3 4 3 4 4c-3 6 -6 8 -6 13c0 7 6 12 10 19c4 5 6 10 7 17
c-11 -18 -26 -27 -48 -27c2 -3 6 -6 6 -9l-1 -7c0 -3 1 -8 2 -11c1 -6 2 -11 2 -16c0 -13 -3 -21 -3 -35c0 -5 0 -10 1 -15c0 -8 -1 -13 -1 -21c0 -5 1 -7 1 -12c0 -1 0 -3 -2 -3c-8 10 -10 18 -15 31c-2 3 -3 7 -7 10c-4 2 -6 7 -8 11c-7 15 -15 30 -24 44
c-6 9 -12 19 -12 31l1 6c-5 0 -9 -2 -13 -2s-8 0 -13 1c-12 0 -20 -4 -26 -15c10 4 5 4 15 5c5 0 9 -4 9 -10c0 -4 -1 -5 -3 -9c0 -1 0 -1 1 -2c4 -3 4 -8 4 -13c0 -14 0 -28 -2 -43c-1 -6 -2 -12 -2 -18c0 -7 1 -14 2 -21c1 -6 2 -11 2 -17s-4 -11 -4 -19c0 -4 3 -9 3 -12
c-2 -12 -5 -22 -13 -29c-4 6 -8 14 -14 21c-24 23 -27 24 -36 57c4 -4 5 -4 8 -4l-2 3c-12 14 -14 32 -18 49c-3 13 -7 26 -9 39c-3 13 -9 26 -9 34c0 6 3 11 9 14c2 2 5 4 6 8c-11 -5 -11 -5 -26 -5c-16 0 -32 -8 -32 -23v-3c4 9 11 14 15 14s4 -4 4 -11
c-2 -19 -7 -27 -12 -44c-4 -14 -11 -27 -13 -42c0 -2 -1 -4 -2 -5c-4 -12 -6 -23 -10 -33c-5 -14 -11 -28 -23 -38l-4 -4l-4 -6c12 6 25 13 38 13c7 0 14 -2 23 -3c-6 4 -10 7 -15 8c-7 3 -8 8 -9 16c0 5 2 10 7 13c15 12 15 14 33 14c4 0 8 3 11 3c1 0 3 -2 3 -5
c3 -12 5 -19 6 -31c0 -7 -2 -13 -8 -17c-1 0 -1 -1 -1 -1v-2c7 2 14 2 20 2c25 0 46 -9 61 -33l-3 -3c-1 0 -3 0 -3 -3zM180 429l11 29c2 -2 1 -5 6 -7c0 22 4 35 9 57c5 -13 6 -20 8 -32c0 -8 -4 -14 -9 -21c6 1 8 6 11 8c5 -5 4 -13 6 -20c0 -3 -3 -6 -8 -6
c-11 -1 -22 -4 -34 -8zM529 355c16 10 29 19 43 19c4 0 7 -1 11 -2c1 0 2 1 3 2c-2 3 -6 4 -8 6c-7 5 -11 11 -11 18c0 9 4 18 4 28c-1 13 0 17 -2 31c0 2 2 5 2 8l-1 3c-5 -4 -9 -6 -15 -6c-4 0 -7 1 -11 3c-2 0 -4 -1 -6 -2c-3 -1 -6 -1 -8 -1c-5 0 -9 2 -13 7v-3
c0 -11 12 -15 13 -25c3 1 5 3 7 4c2 2 4 3 7 3c2 0 4 -2 4 -4c-1 -13 -3 -18 -4 -31c-1 -6 -4 -14 -11 -16c-4 -1 -7 -3 -9 -6c-2 -2 -3 -3 -5 -3c-1 0 -3 2 -5 4c-2 4 -2 8 -3 12c-3 -1 -6 -2 -7 -2c-3 0 -4 4 -5 11c2 11 3 18 3 29l-1 17c0 7 -3 15 -3 22c0 2 0 4 1 6
c0 1 -1 2 -1 3c-3 2 -4 3 -4 6c0 2 1 5 2 7c1 7 4 12 8 17c1 2 2 4 2 6c0 3 -2 7 -2 11c0 9 7 15 16 15c3 0 5 -2 6 -7c1 -2 1 -4 2 -7c8 -8 11 -18 11 -28c0 -6 0 -10 -1 -15c-1 -2 -1 -3 -1 -4v-3c19 14 11 34 33 39c-9 5 -16 8 -18 17c-5 18 -16 21 -35 21
c-12 -2 -25 -3 -32 -16c0 0 0 -1 -1 -1c-6 -2 -9 -9 -13 -13c-3 -3 -5 -7 -5 -11c-1 -13 -6 -25 -6 -39c0 -4 1 -7 2 -10c4 -10 4 -20 5 -30c0 -7 0 -15 2 -22c1 -4 2 -7 2 -11l-1 -7c0 -5 4 -9 8 -12s8 -7 11 -11c2 -4 5 -7 9 -8c7 -1 14 -1 21 -1c9 0 18 1 27 8
c-1 -12 -12 -16 -17 -26zM579 344c13 2 24 6 31 18c7 13 23 18 35 18c9 0 17 -4 29 -8c-2 7 -3 12 -3 18v9c0 3 -1 7 -5 8c1 -1 2 -3 2 -5s-2 -5 -4 -7c-1 -1 -2 -3 -3 -3c-12 4 -21 1 -34 5v1c0 1 1 3 1 4c0 4 -2 6 -2 10s1 7 2 12c-1 4 -2 6 -2 11c0 6 1 11 1 16v8
c0 9 5 12 15 12h6c7 -1 10 -3 11 -11v-8c4 4 5 9 5 14c0 4 -1 7 -3 10c-4 5 -6 9 -6 16l-3 -1c-2 -4 -6 -5 -9 -5l-12 1c-2 0 -3 1 -4 3v7c0 6 -1 12 1 18l-1 8c0 3 1 5 4 7c-1 5 -3 9 -3 14c0 6 0 9 7 9c5 0 11 -2 11 -5c1 -3 2 -4 3 -4s2 1 3 2c11 9 24 12 34 20
c3 2 7 5 9 11c-10 -8 -19 -12 -29 -13c1 4 6 5 6 9c-3 0 -5 -2 -8 -3c-5 -4 -11 -9 -17 -9h-3c-9 3 -19 3 -29 4c-13 0 -21 -9 -33 -18c-4 -3 -6 -8 -9 -12c-1 -1 -1 -1 -1 -2c1 -1 1 0 2 -1h2c6 9 9 11 19 13c5 0 8 -3 8 -8s-5 -7 -5 -10c0 -5 5 -6 5 -11v-20
c0 -17 -4 -32 -4 -48c0 -12 3 -23 3 -36c0 -7 -3 -12 -3 -19c0 -5 2 -8 2 -13c0 -12 -7 -25 -18 -32c-1 -1 -4 -1 -4 -4zM682 294c19 5 30 21 34 38c3 10 10 16 18 19c3 2 5 2 5 5c0 1 0 2 -1 2c-7 6 -9 12 -9 20c0 2 0 6 1 9c-1 3 -1 7 -1 10c0 7 2 15 2 22c0 5 -1 8 -2 12
c0 2 1 5 2 5c3 0 4 -4 4 -6c1 -8 5 -15 7 -22c4 -13 16 -21 19 -35c2 -6 4 -13 7 -19c4 -7 8 -14 8 -21c0 -6 -3 -9 -4 -15c0 -1 1 -2 3 -2c1 0 2 0 2 1c6 6 13 8 20 8c5 0 9 -1 14 -3c5 0 9 -5 15 -5l2 1c-2 3 -4 6 -6 8c-6 4 -10 11 -15 17c-3 5 -6 12 -10 16
c-6 6 -10 14 -14 21c0 2 -1 5 -3 7c-4 4 -4 9 -4 15c3 -2 3 -5 5 -6c2 -3 2 -5 7 -5c-9 11 -14 21 -15 34c0 3 1 5 4 7c26 19 35 46 35 77c0 14 -2 28 -6 42c-1 5 0 10 -3 14c-3 5 -4 10 -4 16l-3 12c-2 7 -8 10 -12 16c-3 6 -7 9 -12 9c-8 0 -18 -6 -25 -15l-12 -13
c-4 4 -4 8 -4 13v16c-5 -3 -11 -5 -16 -5l-11 1c-12 0 -22 -10 -23 -22c4 3 11 8 15 8c5 0 8 -10 8 -16c0 -5 -1 -10 -5 -14c7 -4 7 -10 7 -16v-23c0 -25 -4 -49 -4 -74s2 -37 3 -61l-1 -13c-1 -5 -1 -11 -1 -16c0 -9 1 -12 1 -21c0 -19 -6 -35 -20 -48c-1 -2 -2 -2 -2 -5z
M749 446c-4 0 -8 1 -14 4c-3 2 -5 5 -5 9c0 14 2 21 2 35c1 19 0 37 2 56c1 12 8 22 18 29c1 1 2 1 3 1s2 0 4 -1c13 -8 16 -24 16 -40c0 -12 -3 -24 -6 -36c-1 -4 -2 -6 -2 -11c8 10 8 22 13 32c1 -2 2 -3 2 -5l-5 -38c0 -6 -1 -11 -6 -15c-3 -2 -4 -6 -6 -9
c-5 -8 -10 -11 -16 -11zM134 -68c15 3 26 14 31 30c4 13 10 24 23 28c2 0 2 2 2 3c0 2 -3 5 -5 8c-3 3 -5 6 -5 11l1 11c-1 10 0 5 -1 16c0 5 2 9 2 14c0 2 0 5 -1 8l-1 11c0 9 2 19 2 28l-1 10c3 8 3 14 3 22v6l-1 3c0 2 1 2 2 3l14 -24c3 -6 6 -11 8 -17l22 -70
c3 -8 4 -16 4 -25c0 -8 -2 -15 -4 -25c9 7 15 11 22 11c10 0 29 -6 43 -15l2 2l-16 17c-3 3 -6 7 -6 11l1 9c0 6 -1 11 -1 17s2 10 2 16l-1 14c0 37 1 44 1 78l-1 34l1 33v4c3 1 4 3 4 4c0 2 -2 4 -3 6c-2 4 -3 9 -3 13c0 18 16 35 17 56l-11 -19c-6 -13 -17 -19 -30 -21
c-3 -1 -5 0 -7 -3c3 -4 5 -8 5 -13c0 -2 0 -4 -1 -6c2 -16 5 -27 5 -43c0 -18 -3 -35 -3 -53c0 -11 2 -22 2 -32c-1 -10 -2 -19 -2 -29c1 -10 0 -6 2 -17c0 -1 -1 -3 -2 -4c-3 1 -3 3 -4 5c-5 14 -9 29 -12 44c-2 5 -3 9 -6 13c-5 5 -7 11 -9 18l-12 39c-8 25 -24 49 -24 75
c0 4 0 8 1 12c-6 -2 -11 -5 -17 -5c-4 0 -8 2 -12 2c-9 0 -19 -8 -23 -23c7 4 13 8 17 8s6 -7 7 -14c0 -7 -1 -11 -5 -17c6 -3 7 -8 7 -13c0 -10 1 -20 1 -30c0 -22 -4 -44 -4 -69c0 -17 0 -34 1 -52c0 -5 2 -8 2 -11c-1 -12 -4 -17 -4 -27c1 -10 2 -12 2 -21
c0 -13 -4 -25 -8 -37c-3 -6 -6 -11 -11 -14c-1 -1 -3 -2 -3 -3c0 0 0 -1 1 -1zM288 0c14 2 25 7 32 21c5 8 11 14 21 16c1 1 3 0 3 2c0 5 -9 5 -9 14s0 18 4 26c1 4 2 8 2 12c0 12 -1 22 -2 33c-1 6 -2 13 -2 19c1 10 0 5 1 16c0 8 -3 15 -3 24l1 14c0 6 -1 7 -3 13
c0 2 1 5 2 7c3 11 9 22 22 28l-2 1h-2c-15 -3 -24 -12 -31 -24c-5 -9 -10 -13 -19 -13l-7 1c-1 1 -3 1 -5 1h-3c9 -10 21 -10 21 -17l-1 -6l1 -5c0 -11 0 -23 -1 -34v-7c0 -7 5 -12 5 -16c0 -1 -1 -3 -2 -5c-3 -7 -5 -14 -8 -23c5 4 5 6 8 6c1 0 2 -2 2 -2v-4
c-3 -6 -3 -12 -3 -17c0 -6 1 -10 1 -16c0 -5 -3 -11 -3 -16s2 -10 2 -14c0 -2 0 -5 -1 -7c-4 -12 -10 -22 -21 -28zM425 14c17 10 29 19 44 19c3 0 7 0 11 -2c1 0 2 1 2 2c-2 3 -5 4 -8 6c-7 5 -11 12 -11 19c0 8 4 17 4 27c-1 13 0 17 -2 31c0 3 2 5 2 9v2
c-6 -4 -10 -6 -15 -6s-7 2 -12 3c-2 0 -4 -1 -6 -2s-5 -1 -8 -1c-5 0 -9 2 -12 7v-2c0 -12 11 -16 13 -26l6 4c2 2 5 4 7 4s4 -3 4 -5c-1 -13 -2 -18 -4 -31c-1 -6 -4 -14 -11 -16c-3 -1 -7 -3 -9 -6c-2 -2 -3 -3 -4 -3c-2 0 -4 2 -6 5c-1 3 -1 7 -3 12c-3 -2 -5 -3 -7 -3
c-3 0 -3 4 -4 11c1 11 2 18 2 29v18c0 7 -4 14 -4 21c0 3 0 4 1 7c0 0 0 2 -1 2c-3 2 -4 4 -4 6s2 5 2 7c1 7 4 12 8 17c2 2 2 4 2 6c0 3 -2 7 -2 11c0 9 7 15 16 15c4 0 5 -2 6 -7c1 -2 1 -4 3 -6c8 -9 11 -19 11 -29c0 -5 -1 -10 -2 -15c-1 -1 -1 -3 -1 -4v-2
c19 14 12 33 33 38c-8 5 -16 8 -18 17c-5 19 -16 21 -35 21c-12 -2 -25 -2 -31 -16l-1 -1c-7 -2 -9 -9 -14 -13c-2 -3 -5 -7 -5 -11c-1 -13 -5 -25 -5 -39c0 -3 0 -7 2 -10c6 -18 2 -35 6 -52c1 -3 2 -7 2 -11l-1 -7c0 -5 4 -9 8 -12c5 -3 8 -7 11 -11c2 -4 5 -7 10 -7
c7 -1 14 -2 21 -2c9 0 17 2 26 8c-1 -12 -12 -16 -17 -26zM476 3c12 3 23 6 29 17c6 10 13 20 26 21l2 2c0 1 -1 2 -1 2c-7 3 -9 9 -9 15v6v1l-1 5c0 4 2 7 2 10c0 6 -1 10 -1 14c0 6 1 13 1 19c0 13 2 16 12 16c5 -1 11 -1 15 -5c1 0 1 -1 2 -1c6 2 8 2 16 3l-1 -7
c0 -6 5 -11 5 -16c-3 -13 -8 -13 -19 -21l4 -1c3 0 6 3 9 3c2 0 3 -2 3 -3c0 -2 -1 -5 -1 -7c0 -3 1 -4 1 -7c0 -6 -3 -11 -6 -15l-14 -17c-1 -1 -2 -2 -2 -3l1 -2c9 7 16 10 24 10c9 0 27 -4 39 -11c1 0 2 -1 3 -1h1c0 3 -1 5 -4 6c-4 4 -8 6 -13 9c-2 2 -5 5 -5 7l1 7
c0 3 -1 6 -1 9s1 6 3 8c3 5 5 10 5 15c0 3 -2 8 -2 12s3 6 3 9c0 6 -7 13 -7 20v49c0 1 0 4 1 4c2 1 3 2 3 3s-2 3 -3 4c-2 3 -3 5 -3 8c0 12 16 21 17 37c-11 -19 -26 -27 -48 -27c5 -7 7 -10 7 -16l-1 -12v-3c3 -5 3 -11 3 -17c-1 -13 -3 -13 -16 -17c-3 0 -4 2 -6 6
c-3 -3 -7 -6 -11 -6c-1 0 -3 0 -5 1h-5c-5 0 -5 2 -5 7v33c0 1 0 2 1 2c2 0 3 1 3 2s-1 3 -2 4c-1 4 -2 7 -2 10c0 5 3 9 9 14c1 2 3 2 3 5h-2c-4 0 -8 -1 -11 -4c-6 -4 -13 -6 -20 -6l-8 1c-9 0 -16 -6 -21 -14c5 0 6 2 10 2c6 0 12 -5 12 -11c0 -2 0 -3 -1 -6
c0 -2 3 -4 3 -8l1 -11c0 -10 -2 -19 -8 -28c-4 -7 -7 -16 -7 -26c0 -4 4 -7 6 -11l7 -23c1 -3 2 -6 2 -9c-2 -8 -3 -10 -3 -17c0 -6 1 -7 2 -12c-2 -15 -7 -27 -20 -34c-1 -1 -2 -1 -2 -3zM602 -62c19 5 29 21 35 40c2 11 10 16 18 20l4 1c2 0 4 -1 6 -2c1 -1 3 -4 5 -4
s2 1 3 3c0 3 -2 5 -3 8c0 0 0 1 -1 1c-7 10 -8 23 -13 33c-1 13 -3 25 -3 37c1 15 2 16 2 30c0 10 -1 15 -2 24c2 9 4 13 4 21c0 5 -1 11 -2 17c-2 13 -3 19 -4 33c0 16 4 31 6 46c1 5 4 9 8 9l4 -1c2 -1 4 -2 6 -2l2 1c-1 3 -4 4 -6 4c-3 2 -8 4 -8 6c0 1 1 3 2 3
c8 0 13 -3 20 -5c1 -1 2 -2 2 -4c2 -4 3 -7 7 -10c1 0 2 -1 2 -2c3 -12 7 -23 7 -35c0 -7 -3 -11 -3 -19c10 11 12 33 19 56c2 9 5 18 13 23c1 1 2 2 2 3c-1 2 -1 3 -2 3l-3 -1c-2 0 -5 -1 -7 -1c-6 2 -8 4 -14 4c-5 0 -8 1 -13 2c-4 -1 -5 -2 -9 -2c-7 0 -13 7 -21 7l-4 -1
c-2 -1 -5 -3 -7 -3s-4 0 -5 2l-12 -4c-1 0 -3 -2 -4 -2c-4 3 -6 4 -10 4c-21 0 -35 -4 -58 -4c-5 0 -7 -3 -7 -9s2 -10 2 -16c0 -14 -10 -25 -10 -41c0 -5 2 -11 5 -17c3 21 8 45 22 60c2 3 4 5 7 6c6 1 12 -1 17 3h1c11 -2 21 -11 21 -20l-1 -10l1 -15c0 -6 -2 -11 -2 -16
c0 -6 2 -12 2 -19c0 -9 -1 -10 -2 -20c0 -9 5 -18 5 -26c0 -3 -1 -5 -1 -8l-8 -33c4 1 4 7 7 7c2 -1 3 -1 3 -4c-2 -12 -4 -20 -4 -29l1 -15c0 -12 0 -15 -1 -26c-1 -5 -2 -9 -2 -14c1 -9 3 -12 3 -20c0 -13 -5 -26 -9 -38c-3 -6 -6 -11 -11 -14c-1 -1 -2 -2 -2 -3v-2z" />
    <glyph glyph-name="five" unicode="5" horiz-adv-x="828" 
d="M29 286c7 2 12 10 18 15c5 6 13 8 20 13s15 5 22 9s14 3 24 5c-6 4 -12 1 -16 5c1 2 2 3 4 5c14 11 24 24 26 45c1 5 3 10 6 14c6 9 9 18 11 28c3 14 5 27 8 41c4 17 10 34 10 52c0 8 0 20 -5 27c-2 4 -4 7 -4 12c-1 12 -7 22 -10 33c0 2 -1 4 -3 4c-4 4 -7 9 -11 13
c-1 1 -3 4 -4 4c-7 0 -12 5 -18 7c-12 4 -24 3 -36 5c-2 0 -4 -1 -6 -2c-22 -9 -25 -9 -41 -27c-2 -2 -4 -4 -4 -9l10 10c4 3 5 4 11 6c4 0 7 -4 7 -7c0 -9 -5 -17 -10 -23c0 -1 -1 -1 -1 -2c1 -1 0 -1 2 -2c2 0 3 3 4 3l2 -1v-10c0 -9 -4 -20 -4 -32c0 -14 4 -29 4 -42
c0 -17 2 -27 3 -44c0 -8 -2 -16 -2 -23c0 -5 2 -9 2 -14c0 -7 -1 -8 -1 -14c0 -8 1 -15 3 -22c1 -7 4 -14 4 -22c-2 -14 -3 -27 -12 -38c-5 -7 -10 -14 -13 -22zM82 346c-6 1 -8 1 -8 7c0 15 1 17 1 33c-1 30 1 25 -3 52c1 4 1 9 1 13v13v8v16c0 3 0 6 1 9c5 -1 8 -5 14 -5
c-1 2 -3 2 -4 4c-7 8 -11 17 -11 28c1 23 0 46 2 69c1 8 4 17 9 17c3 0 9 -6 14 -9c12 -8 12 -25 22 -38c3 -4 5 -9 5 -14c0 -14 -8 -25 -14 -35c-2 -2 -3 -4 -4 -7c8 6 14 14 20 24c5 -4 6 -10 7 -15c1 -6 3 -13 3 -20l-1 -6c-2 -10 -2 -22 -5 -32c-5 -19 -2 -39 -14 -53
c-5 -6 -8 -11 -8 -20c0 -3 0 -5 -2 -7c-6 -10 -13 -21 -20 -29c-1 -2 -3 -3 -5 -3zM298 337c15 2 27 9 33 22c4 9 11 13 19 15c2 1 4 0 5 3c0 2 -2 3 -4 4c-4 3 -6 5 -6 10c0 4 1 4 1 8v22c0 3 0 7 -1 10c0 3 1 3 2 7l-2 10c0 6 3 12 3 17v7c0 1 0 2 2 3c7 -9 16 -17 22 -27
c7 -14 14 -29 21 -44c3 -6 5 -11 5 -17c0 -5 -1 -9 -3 -14l1 -1c7 4 14 6 21 6c13 0 29 -6 42 -9c-4 4 -9 8 -14 12c-4 2 -6 5 -6 9l1 6c-1 4 -1 4 -1 9c0 3 2 6 2 10c0 5 -1 7 -2 12c1 6 2 10 2 16l-1 20l1 56c0 3 4 3 4 4c-3 6 -6 8 -6 13c0 7 6 12 10 19c3 5 6 10 7 17
c-11 -18 -26 -27 -48 -27c2 -3 6 -6 6 -9l-2 -7c0 -3 2 -8 3 -11c1 -6 2 -11 2 -16c0 -13 -3 -21 -3 -35c0 -5 0 -10 1 -15c0 -8 -1 -13 -1 -21c0 -5 1 -7 1 -12c0 -1 0 -3 -3 -3c-7 10 -9 18 -14 31c-2 3 -4 7 -7 10c-4 2 -6 7 -8 11c-7 15 -15 30 -24 44
c-6 9 -12 19 -12 31l1 6c-6 0 -9 -2 -13 -2s-9 0 -13 1c-12 0 -20 -4 -26 -15c9 4 5 4 15 5c5 0 9 -4 9 -10c0 -4 -1 -5 -3 -9c0 -1 0 -1 1 -2c4 -3 4 -8 4 -13c0 -14 0 -28 -3 -43c0 -6 -1 -12 -1 -18c0 -7 1 -14 1 -21c1 -6 2 -11 2 -17s-3 -11 -3 -19c0 -4 3 -9 3 -12
c-2 -12 -5 -22 -14 -29c-3 6 -7 14 -13 21c-24 23 -27 24 -37 57c5 -4 6 -4 9 -4l-2 3c-13 14 -14 32 -18 49c-3 13 -7 26 -10 39c-2 13 -8 26 -8 34c0 6 3 11 8 14c3 2 5 4 7 8c-11 -5 -11 -5 -26 -5c-16 0 -32 -8 -32 -23v-3c4 9 11 14 15 14s4 -4 4 -11
c-2 -19 -7 -27 -12 -44c-4 -14 -11 -27 -13 -42c0 -2 -2 -4 -2 -5c-4 -12 -7 -23 -10 -33c-5 -14 -12 -28 -23 -38l-4 -4l-4 -6c12 6 24 13 37 13c8 0 15 -2 24 -3c-6 4 -10 7 -15 8c-7 3 -8 8 -9 16c0 5 2 10 6 13c15 12 15 14 34 14c4 0 8 3 10 3s4 -2 4 -5
c3 -12 5 -19 6 -31c0 -7 -2 -13 -9 -17l-1 -1l1 -2c7 2 14 2 20 2c25 0 46 -9 61 -33l-3 -3c-1 0 -4 0 -4 -3zM180 429l10 29c3 -2 2 -5 6 -7c0 22 5 35 10 57c5 -13 6 -20 8 -32c0 -8 -4 -14 -9 -21c6 1 7 6 11 8c5 -5 4 -13 6 -20c0 -3 -4 -6 -8 -6c-11 -1 -22 -4 -34 -8z
M529 355c16 10 29 19 43 19c4 0 7 -1 11 -2c1 0 2 1 3 2c-2 3 -6 4 -8 6c-8 5 -11 11 -11 18c0 9 3 18 3 28c0 13 0 17 -1 31c0 2 1 5 1 8v3c-5 -4 -10 -6 -15 -6c-4 0 -7 1 -12 3c-2 0 -3 -1 -5 -2c-3 -1 -6 -1 -8 -1c-5 0 -9 2 -13 7v-3c0 -11 12 -15 13 -25c3 1 5 3 7 4
c2 2 4 3 6 3c3 0 4 -2 4 -4c0 -13 -2 -18 -3 -31c-1 -6 -4 -14 -11 -16c-4 -1 -7 -3 -9 -6c-2 -2 -4 -3 -5 -3s-3 2 -5 4c-2 4 -2 8 -3 12c-4 -1 -6 -2 -7 -2c-3 0 -4 4 -5 11c2 11 2 18 2 29v17c0 7 -3 15 -3 22c0 2 0 4 1 6c0 1 -1 2 -1 3c-3 2 -4 3 -4 6c0 2 1 5 2 7
c0 7 4 12 7 17c2 2 3 4 3 6c0 3 -3 7 -3 11c0 9 8 15 16 15c4 0 6 -2 7 -7c0 -2 0 -4 2 -7c8 -8 11 -18 11 -28c0 -6 0 -10 -2 -15c0 -2 -1 -3 -1 -4s0 -2 1 -3c19 14 11 34 33 39c-9 5 -16 8 -18 17c-5 18 -16 21 -35 21c-12 -2 -26 -3 -32 -16l-1 -1c-6 -2 -9 -9 -13 -13
c-3 -3 -5 -7 -5 -11c-1 -13 -6 -25 -6 -39c0 -4 1 -7 2 -10c4 -10 4 -20 5 -30c0 -7 0 -15 2 -22c1 -4 2 -7 2 -11l-1 -7c0 -5 3 -9 8 -12c4 -3 7 -7 11 -11c2 -4 5 -7 9 -8c7 -1 14 -1 21 -1c9 0 18 1 27 8c-1 -12 -12 -16 -17 -26zM579 344c13 2 24 6 31 18
c7 13 23 18 35 18c8 0 17 -4 29 -8c-2 7 -3 12 -3 18v9c0 3 -1 7 -5 8c1 -1 1 -3 1 -5s-1 -5 -3 -7c-1 -1 -2 -3 -3 -3c-12 4 -22 1 -34 5v1v4c0 4 -1 6 -1 10s1 7 2 12c-2 4 -2 6 -2 11c0 6 1 11 1 16v8c0 9 5 12 15 12h6c7 -1 10 -3 11 -11v-8c3 4 5 9 5 14
c0 4 -1 7 -3 10c-5 5 -6 9 -6 16l-3 -1c-3 -4 -6 -5 -9 -5l-12 1c-2 0 -4 1 -4 3v7c0 6 -1 12 1 18l-1 8c0 3 0 5 4 7c-1 5 -4 9 -4 14c0 6 1 9 8 9c5 0 11 -2 11 -5c1 -3 2 -4 3 -4s2 1 3 2c11 9 24 12 34 20c3 2 7 5 9 11c-10 -8 -19 -12 -29 -13c1 4 6 5 6 9
c-3 0 -6 -2 -8 -3c-5 -4 -12 -9 -17 -9h-3c-10 3 -19 3 -29 4c-14 0 -22 -9 -34 -18c-4 -3 -6 -8 -8 -12c-1 -1 -1 -1 -1 -2c1 -1 1 0 2 -1h1c7 9 9 11 19 13c5 0 9 -3 9 -8s-5 -7 -5 -10c0 -5 5 -6 5 -11v-20c0 -17 -4 -32 -4 -48c0 -12 3 -23 3 -36c0 -7 -3 -12 -3 -19
c0 -5 1 -8 1 -13c0 -12 -6 -25 -17 -32c-2 -1 -4 -1 -4 -4zM682 294c19 5 30 21 34 38c3 10 9 16 18 19c3 2 5 2 5 5c0 1 0 2 -1 2c-7 6 -9 12 -9 20c0 2 0 6 1 9c-1 3 -1 7 -1 10c0 7 1 15 1 22c0 5 0 8 -1 12c0 2 1 5 2 5c3 0 3 -4 4 -6c0 -8 5 -15 7 -22
c4 -13 16 -21 19 -35c2 -6 4 -13 7 -19c4 -7 7 -14 7 -21c0 -6 -2 -9 -3 -15c0 -1 1 -2 2 -2s2 0 3 1c6 6 13 8 20 8c5 0 9 -1 14 -3c5 0 9 -5 15 -5l2 1c-2 3 -4 6 -7 8c-6 4 -9 11 -14 17c-4 5 -6 12 -10 16c-6 6 -11 14 -14 21c-1 2 -1 5 -3 7c-5 4 -4 9 -5 15
c4 -2 4 -5 5 -6c3 -3 3 -5 7 -5c-9 11 -13 21 -14 34c0 3 1 5 4 7c26 19 35 46 35 77c0 14 -2 28 -6 42c-1 5 0 10 -3 14c-3 5 -4 10 -5 16l-2 12c-2 7 -9 10 -12 16c-4 6 -7 9 -12 9c-8 0 -18 -6 -26 -15l-11 -13c-4 4 -4 8 -4 13v16c-5 -3 -11 -5 -16 -5l-11 1
c-12 0 -22 -10 -23 -22c4 3 11 8 15 8c5 0 8 -10 8 -16c0 -5 -2 -10 -5 -14c7 -4 7 -10 7 -16v-23c0 -25 -4 -49 -4 -74s2 -37 3 -61l-1 -13c-1 -5 -2 -11 -2 -16c1 -9 2 -12 2 -21c0 -19 -6 -35 -20 -48c-2 -2 -2 -2 -2 -5zM749 446c-4 0 -9 1 -14 4c-3 2 -5 5 -6 9
c0 14 3 21 3 35c1 19 0 37 2 56c1 12 8 22 18 29c0 1 1 1 3 1c1 0 2 0 3 -1c14 -8 16 -24 16 -40c0 -12 -2 -24 -5 -36c-1 -4 -2 -6 -2 -11c8 10 7 22 13 32c1 -2 1 -3 1 -5l-4 -38c-1 -6 -2 -11 -7 -15c-2 -2 -3 -6 -6 -9c-5 -8 -9 -11 -15 -11zM134 -68c15 3 25 14 31 30
c4 13 9 24 23 28c2 0 2 2 2 3c0 2 -3 5 -5 8c-3 3 -5 6 -5 11v11c0 10 1 5 0 16c0 5 2 9 2 14c0 2 -1 5 -1 8l-1 11c0 9 1 19 1 28v10c2 8 3 14 3 22v6l-1 3c0 2 1 2 2 3l13 -24c4 -6 6 -11 9 -17l22 -70c2 -8 4 -16 4 -25c0 -8 -2 -15 -4 -25c9 7 14 11 22 11
c10 0 29 -6 43 -15l1 2l-15 17c-3 3 -6 7 -6 11l1 9c0 6 -1 11 -1 17s2 10 2 16l-1 14c0 37 1 44 1 78l-1 34l1 33v4c3 1 4 3 4 4c0 2 -2 4 -3 6c-2 4 -3 9 -3 13c0 18 16 35 17 56l-11 -19c-6 -13 -17 -19 -31 -21c-2 -1 -5 0 -6 -3c3 -4 5 -8 5 -13c0 -2 0 -4 -1 -6
c1 -16 5 -27 5 -43c0 -18 -4 -35 -4 -53c0 -11 2 -22 2 -32s-1 -19 -1 -29c1 -10 0 -6 1 -17c0 -1 0 -3 -1 -4c-3 1 -3 3 -4 5c-5 14 -9 29 -13 44c-1 5 -2 9 -6 13c-4 5 -6 11 -8 18l-12 39c-8 25 -24 49 -24 75c0 4 0 8 1 12c-6 -2 -11 -5 -17 -5c-4 0 -8 2 -12 2
c-9 0 -19 -8 -23 -23c7 4 13 8 16 8c4 0 7 -7 8 -14c0 -7 -1 -11 -5 -17c6 -3 7 -8 7 -13v-30c0 -22 -4 -44 -4 -69c0 -17 1 -34 2 -52c0 -5 2 -8 2 -11c-1 -12 -4 -17 -4 -27c1 -10 2 -12 2 -21c0 -13 -4 -25 -9 -37c-2 -6 -6 -11 -11 -14c0 -1 -2 -2 -2 -3c0 0 0 -1 1 -1z
M288 0c14 2 25 7 32 21c4 8 11 14 20 16c2 1 4 0 4 2c0 5 -10 5 -10 14s1 18 5 26c1 4 1 8 1 12c0 12 0 22 -1 33c-1 6 -2 13 -2 19c1 10 0 5 1 16c0 8 -4 15 -4 24l1 14c0 6 -1 7 -2 13c0 2 1 5 1 7c4 11 10 22 22 28l-1 1h-3c-14 -3 -24 -12 -30 -24
c-5 -9 -11 -13 -19 -13l-7 1c-2 1 -3 1 -5 1h-3c9 -10 21 -10 21 -17l-1 -6l1 -5c0 -11 0 -23 -1 -34l-1 -7c0 -7 5 -12 5 -16c0 -1 0 -3 -1 -5c-3 -7 -6 -14 -8 -23c5 4 5 6 8 6c1 0 2 -2 2 -2c0 -2 0 -3 -1 -4c-2 -6 -2 -12 -2 -17c0 -6 1 -10 1 -16c0 -5 -3 -11 -3 -16
s2 -10 2 -14c0 -2 0 -5 -1 -7c-4 -12 -10 -22 -21 -28zM425 14c17 10 29 19 44 19c3 0 7 0 11 -2c1 0 2 1 2 2c-2 3 -6 4 -8 6c-7 5 -11 12 -11 19c0 8 4 17 4 27c-1 13 0 17 -2 31c0 3 2 5 2 9l-1 2c-5 -4 -9 -6 -14 -6s-7 2 -12 3c-2 0 -4 -1 -6 -2c-3 -1 -5 -1 -8 -1
c-5 0 -9 2 -13 7v-2c0 -12 12 -16 13 -26l7 4c2 2 4 4 7 4c2 0 4 -3 4 -5c-1 -13 -2 -18 -4 -31c-1 -6 -4 -14 -11 -16c-4 -1 -7 -3 -9 -6c-2 -2 -3 -3 -5 -3c-1 0 -3 2 -5 5s-2 7 -3 12c-3 -2 -5 -3 -7 -3c-3 0 -4 4 -4 11c1 11 2 18 2 29l-1 18c0 7 -3 14 -3 21
c0 3 0 4 1 7c0 0 0 2 -1 2c-3 2 -4 4 -4 6s1 5 2 7c1 7 4 12 8 17c2 2 2 4 2 6c0 3 -2 7 -2 11c0 9 7 15 16 15c3 0 5 -2 6 -7c1 -2 1 -4 3 -6c7 -9 11 -19 11 -29c0 -5 -1 -10 -2 -15c-1 -1 -1 -3 -1 -4v-2c19 14 12 33 33 38c-8 5 -16 8 -18 17c-5 19 -16 21 -35 21
c-12 -2 -25 -2 -32 -16c0 0 0 -1 -1 -1c-6 -2 -8 -9 -13 -13c-3 -3 -5 -7 -5 -11c-1 -13 -6 -25 -6 -39c0 -3 1 -7 2 -10c7 -18 3 -35 7 -52c1 -3 2 -7 2 -11l-1 -7c0 -5 4 -9 8 -12c5 -3 8 -7 11 -11c2 -4 5 -7 10 -7c7 -1 13 -2 20 -2c10 0 18 2 27 8
c-1 -12 -12 -16 -17 -26zM476 3c12 3 23 6 29 17c6 10 13 20 26 21l2 2c0 1 -1 2 -1 2c-7 3 -10 9 -10 15l1 6l-1 1v5c0 4 2 7 2 10c0 6 -2 10 -2 14c0 6 1 13 1 19c0 13 3 16 13 16c5 -1 10 -1 15 -5c1 0 1 -1 2 -1c6 2 8 2 16 3l-1 -7c0 -6 5 -11 5 -16
c-3 -13 -8 -13 -19 -21l4 -1c3 0 6 3 9 3c2 0 3 -2 3 -3c0 -2 -1 -5 -1 -7c0 -3 1 -4 1 -7c0 -6 -3 -11 -7 -15l-13 -17c-1 -1 -2 -2 -2 -3l1 -2c9 7 16 10 24 10c9 0 27 -4 39 -11c1 0 2 -1 3 -1h1c0 3 -1 5 -4 6c-4 4 -8 6 -13 9c-2 2 -5 5 -5 7l1 7c0 3 -1 6 -1 9
s1 6 2 8c4 5 6 10 6 15c0 3 -2 8 -2 12s3 6 3 9c0 6 -8 13 -8 20v49c0 1 0 4 1 4c3 1 4 2 4 3s-3 3 -4 4c-1 3 -2 5 -2 8c0 12 16 21 17 37c-12 -19 -27 -27 -49 -27c5 -7 8 -10 8 -16l-2 -12l1 -3c3 -5 3 -11 3 -17c-1 -13 -3 -13 -16 -17c-3 0 -4 2 -6 6
c-4 -3 -7 -6 -11 -6c-1 0 -3 0 -5 1h-6c-4 0 -5 2 -5 7l1 33c0 1 0 2 1 2c2 0 2 1 2 2s0 3 -1 4c-1 4 -2 7 -2 10c0 5 3 9 9 14c1 2 3 2 3 5h-2c-4 0 -8 -1 -12 -4c-6 -4 -12 -6 -19 -6l-8 1c-9 0 -16 -6 -21 -14c5 0 6 2 10 2c6 0 12 -5 12 -11c0 -2 -1 -3 -2 -6
c0 -2 4 -4 4 -8l1 -11c0 -10 -2 -19 -8 -28c-4 -7 -8 -16 -8 -26c0 -4 4 -7 7 -11l7 -23c1 -3 2 -6 2 -9c-2 -8 -3 -10 -3 -17c0 -6 1 -7 2 -12c-2 -15 -7 -27 -20 -34c-1 -1 -2 -1 -2 -3zM602 -62c18 5 29 21 34 40c3 11 11 16 19 20l4 1c2 0 4 -1 5 -2c2 -1 4 -4 6 -4
s2 1 3 3c0 3 -3 5 -3 8l-1 1c-7 10 -8 23 -13 33c-1 13 -3 25 -3 37c1 15 2 16 2 30c0 10 -1 15 -3 24c2 9 5 13 5 21c0 5 -1 11 -2 17c-2 13 -3 19 -4 33c0 16 3 31 6 46c1 5 4 9 8 9l4 -1c2 -1 4 -2 6 -2l2 1c-1 3 -4 4 -6 4c-3 2 -8 4 -8 6c0 1 0 3 2 3c8 0 13 -3 20 -5
c1 -1 2 -2 2 -4c1 -4 3 -7 7 -10c1 0 2 -1 2 -2c3 -12 7 -23 7 -35c0 -7 -3 -11 -3 -19c10 11 12 33 19 56c2 9 5 18 13 23c1 1 2 2 2 3c-1 2 -1 3 -2 3l-3 -1c-3 0 -5 -1 -7 -1c-6 2 -8 4 -14 4s-8 1 -13 2c-4 -1 -6 -2 -9 -2c-7 0 -14 7 -21 7l-4 -1c-3 -1 -5 -3 -8 -3
c-1 0 -3 0 -4 2l-12 -4c-2 0 -3 -2 -4 -2c-4 3 -6 4 -10 4c-21 0 -36 -4 -58 -4c-5 0 -7 -3 -7 -9s2 -10 2 -16c0 -14 -10 -25 -10 -41c0 -5 1 -11 5 -17c2 21 7 45 22 60c1 3 4 5 7 6c6 1 11 -1 17 3c12 -2 22 -11 22 -20l-1 -10l1 -15c0 -6 -2 -11 -2 -16
c0 -6 2 -12 2 -19c0 -9 -1 -10 -2 -20c0 -9 4 -18 4 -26c0 -3 0 -5 -1 -8l-7 -33c4 1 4 7 7 7c2 -1 3 -1 3 -4c-2 -12 -4 -20 -4 -29l1 -15c0 -12 -1 -15 -1 -26c-1 -5 -2 -9 -2 -14c1 -9 3 -12 3 -20c0 -13 -5 -26 -10 -38c-2 -6 -6 -11 -10 -14c-1 -1 -3 -2 -3 -3z" />
    <glyph glyph-name="six" unicode="6" horiz-adv-x="828" 
d="M29 286c7 2 11 10 17 15c6 6 14 8 21 13s15 5 22 9s14 3 24 5c-6 4 -12 1 -16 5c1 2 2 3 4 5c14 11 24 24 26 45c1 5 3 10 6 14c6 9 9 18 11 28c3 14 5 27 8 41c4 17 10 34 10 52c0 8 0 20 -5 27c-2 4 -4 7 -4 12c-1 12 -7 22 -10 33c-1 2 -1 4 -3 4c-4 4 -7 9 -11 13
c-1 1 -3 4 -4 4c-7 0 -12 5 -18 7c-12 4 -24 3 -36 5c-2 0 -4 -1 -6 -2c-22 -9 -25 -9 -41 -27c-2 -2 -4 -4 -4 -9l10 10c4 3 5 4 10 6c5 0 8 -4 8 -7c0 -9 -5 -17 -10 -23c0 -1 -1 -1 -1 -2c1 -1 0 -1 2 -2c1 0 3 3 4 3l2 -1v-10c0 -9 -5 -20 -5 -32c0 -14 5 -29 5 -42
c0 -17 2 -27 3 -44c0 -8 -2 -16 -2 -23c0 -5 2 -9 2 -14c0 -7 -1 -8 -1 -14c0 -8 1 -15 3 -22c1 -7 4 -14 4 -22c-2 -14 -3 -27 -12 -38c-5 -7 -10 -14 -13 -22zM82 346c-6 1 -8 1 -8 7c0 15 1 17 1 33c-1 30 1 25 -3 52c1 4 1 9 1 13v13v8v16c0 3 0 6 1 9c5 -1 8 -5 14 -5
c-1 2 -3 2 -4 4c-7 8 -11 17 -11 28c1 23 0 46 2 69c1 8 4 17 9 17c3 0 9 -6 14 -9c12 -8 12 -25 22 -38c3 -4 5 -9 5 -14c0 -14 -8 -25 -14 -35c-2 -2 -3 -4 -4 -7c8 6 14 14 20 24c4 -4 6 -10 7 -15c1 -6 3 -13 3 -20l-1 -6c-2 -10 -2 -22 -5 -32c-5 -19 -2 -39 -14 -53
c-5 -6 -8 -11 -8 -20c0 -3 -1 -5 -2 -7c-6 -10 -13 -21 -20 -29c-1 -2 -3 -3 -5 -3zM298 337c15 2 26 9 33 22c4 9 11 13 19 15c2 1 4 0 5 3c0 2 -2 3 -4 4c-4 3 -6 5 -6 10c0 4 1 4 1 8v22c0 3 0 7 -1 10c0 3 1 3 2 7l-2 10c0 6 3 12 3 17v7c0 1 0 2 2 3
c7 -9 16 -17 22 -27c7 -14 14 -29 21 -44c3 -6 5 -11 5 -17c0 -5 -1 -9 -3 -14l1 -1c7 4 14 6 21 6c13 0 29 -6 42 -9c-4 4 -9 8 -15 12c-3 2 -5 5 -5 9l1 6c-1 4 -2 4 -2 9c0 3 3 6 3 10c0 5 -1 7 -2 12c1 6 2 10 2 16l-1 20l1 56c0 3 3 3 3 4c-2 6 -6 8 -6 13
c0 7 7 12 11 19c3 5 6 10 6 17c-10 -18 -25 -27 -47 -27c2 -3 6 -6 6 -9l-2 -7c0 -3 2 -8 3 -11c1 -6 2 -11 2 -16c0 -13 -3 -21 -3 -35c0 -5 0 -10 1 -15c0 -8 -1 -13 -1 -21c0 -5 1 -7 1 -12c0 -1 0 -3 -3 -3c-7 10 -9 18 -14 31c-2 3 -4 7 -7 10c-4 2 -6 7 -8 11
c-7 15 -15 30 -24 44c-6 9 -12 19 -12 31v6c-5 0 -8 -2 -12 -2c-5 0 -9 0 -13 1c-12 0 -21 -4 -26 -15c9 4 5 4 15 5c5 0 9 -4 9 -10c0 -4 -2 -5 -3 -9c0 -1 0 -1 1 -2c4 -3 4 -8 4 -13c0 -14 0 -28 -3 -43c0 -6 -1 -12 -1 -18c0 -7 1 -14 1 -21c1 -6 2 -11 2 -17
s-3 -11 -3 -19c0 -4 3 -9 3 -12c-2 -12 -6 -22 -14 -29c-3 6 -7 14 -13 21c-24 23 -28 24 -37 57c5 -4 5 -4 9 -4l-2 3c-13 14 -14 32 -18 49c-3 13 -7 26 -10 39c-2 13 -8 26 -8 34c0 6 3 11 8 14c3 2 5 4 7 8c-11 -5 -11 -5 -27 -5c-15 0 -31 -8 -31 -23v-3
c4 9 11 14 15 14s3 -4 4 -11c-2 -19 -7 -27 -12 -44c-4 -14 -11 -27 -13 -42c0 -2 -2 -4 -2 -5c-4 -12 -7 -23 -10 -33c-5 -14 -12 -28 -23 -38l-4 -4l-4 -6c12 6 24 13 37 13c8 0 15 -2 24 -3c-6 4 -10 7 -15 8c-8 3 -8 8 -9 16c0 5 2 10 6 13c15 12 15 14 34 14
c4 0 8 3 10 3s4 -2 4 -5c3 -12 5 -19 6 -31c0 -7 -2 -13 -9 -17l-1 -1l1 -2c7 2 14 2 20 2c25 0 46 -9 61 -33l-3 -3c-1 0 -4 0 -4 -3zM180 429l10 29c3 -2 2 -5 6 -7c0 22 5 35 10 57c5 -13 6 -20 8 -32c0 -8 -4 -14 -9 -21c6 1 7 6 11 8c5 -5 4 -13 6 -20
c0 -3 -4 -6 -8 -6c-11 -1 -22 -4 -34 -8zM529 355c16 10 29 19 43 19c4 0 7 -1 11 -2c1 0 2 1 3 2c-2 3 -6 4 -8 6c-8 5 -11 11 -11 18c0 9 3 18 3 28c0 13 0 17 -1 31c0 2 1 5 1 8v3c-5 -4 -10 -6 -15 -6c-4 0 -7 1 -12 3c-2 0 -3 -1 -5 -2c-3 -1 -6 -1 -9 -1
c-4 0 -8 2 -12 7v-3c0 -11 12 -15 13 -25c3 1 5 3 7 4c2 2 4 3 6 3c3 0 4 -2 4 -4c-1 -13 -2 -18 -3 -31c-1 -6 -4 -14 -11 -16c-4 -1 -7 -3 -9 -6c-2 -2 -4 -3 -5 -3s-3 2 -5 4c-2 4 -2 8 -3 12c-4 -1 -6 -2 -7 -2c-3 0 -4 4 -5 11c2 11 2 18 2 29v17c0 7 -3 15 -3 22
c0 2 0 4 1 6c0 1 -1 2 -1 3c-3 2 -4 3 -4 6c0 2 1 5 1 7c1 7 5 12 8 17c2 2 3 4 3 6c0 3 -3 7 -3 11c0 9 8 15 16 15c4 0 6 -2 7 -7c0 -2 0 -4 2 -7c8 -8 11 -18 11 -28c0 -6 0 -10 -2 -15c0 -2 -1 -3 -1 -4s0 -2 1 -3c18 14 11 34 32 39c-8 5 -15 8 -17 17
c-5 18 -16 21 -35 21c-12 -2 -26 -3 -32 -16l-1 -1c-6 -2 -9 -9 -13 -13c-3 -3 -5 -7 -5 -11c-1 -13 -6 -25 -6 -39c0 -4 1 -7 2 -10c4 -10 4 -20 5 -30c0 -7 0 -15 2 -22c1 -4 2 -7 2 -11l-1 -7c0 -5 3 -9 8 -12c4 -3 7 -7 11 -11c2 -4 5 -7 9 -8c7 -1 14 -1 21 -1
c9 0 18 1 27 8c-1 -12 -12 -16 -17 -26zM579 344c13 2 24 6 30 18c8 13 24 18 36 18c8 0 17 -4 29 -8c-3 7 -3 12 -3 18v9c0 3 -1 7 -5 8c1 -1 1 -3 1 -5s-1 -5 -3 -7c-1 -1 -2 -3 -4 -3c-11 4 -21 1 -33 5l-1 1c0 1 1 3 1 4c0 4 -1 6 -1 10s1 7 2 12c-2 4 -2 6 -2 11
c0 6 1 11 1 16l-1 8c0 9 6 12 16 12h6c7 -1 10 -3 11 -11v-8c3 4 5 9 5 14c0 4 -1 7 -3 10c-5 5 -7 9 -7 16l-2 -1c-3 -4 -6 -5 -9 -5l-12 1c-2 0 -4 1 -4 3c-1 3 -1 4 -1 7c1 6 0 12 2 18l-2 8c0 3 1 5 5 7c-1 5 -4 9 -4 14c0 6 1 9 8 9c5 0 11 -2 11 -5c1 -3 2 -4 3 -4
s2 1 3 2c11 9 24 12 34 20c3 2 7 5 8 11c-9 -8 -18 -12 -28 -13c1 4 5 5 6 9c-3 0 -6 -2 -8 -3c-5 -4 -12 -9 -17 -9h-3c-10 3 -19 3 -29 4c-14 0 -22 -9 -34 -18c-4 -3 -6 -8 -8 -12c-1 -1 -1 -1 -1 -2c1 -1 1 0 2 -1h1c7 9 9 11 19 13c5 0 9 -3 9 -8s-5 -7 -5 -10
c0 -5 5 -6 5 -11v-20c0 -17 -4 -32 -4 -48c0 -12 3 -23 3 -36c0 -7 -3 -12 -3 -19c0 -5 1 -8 1 -13c0 -12 -6 -25 -17 -32c-2 -1 -4 -1 -4 -4zM682 294c19 5 30 21 34 38c3 10 9 16 18 19c3 2 5 2 5 5c0 1 0 2 -1 2c-7 6 -10 12 -10 20c0 2 1 6 2 9c-1 3 -2 7 -2 10
c0 7 2 15 2 22c0 5 0 8 -2 12c0 2 2 5 3 5c3 0 3 -4 4 -6c0 -8 5 -15 7 -22c4 -13 16 -21 19 -35c2 -6 4 -13 7 -19c4 -7 7 -14 7 -21c0 -6 -2 -9 -3 -15c0 -1 1 -2 2 -2s2 0 3 1c6 6 13 8 20 8c5 0 9 -1 14 -3c5 0 9 -5 15 -5l2 1c-3 3 -4 6 -7 8c-6 4 -9 11 -14 17
c-4 5 -6 12 -10 16c-6 6 -11 14 -14 21c-1 2 -1 5 -3 7c-5 4 -4 9 -5 15c4 -2 4 -5 5 -6c3 -3 3 -5 7 -5c-9 11 -13 21 -14 34c0 3 1 5 4 7c25 19 35 46 35 77c0 14 -2 28 -6 42c-1 5 0 10 -3 14c-3 5 -4 10 -5 16l-2 12c-2 7 -9 10 -12 16c-4 6 -7 9 -12 9
c-8 0 -18 -6 -26 -15l-12 -13c-3 4 -3 8 -3 13v16c-5 -3 -11 -5 -16 -5l-11 1c-12 0 -22 -10 -23 -22c4 3 11 8 15 8c5 0 8 -10 8 -16c0 -5 -2 -10 -5 -14c7 -4 7 -10 7 -16v-23c0 -25 -4 -49 -4 -74s1 -37 3 -61l-1 -13c-1 -5 -2 -11 -2 -16c1 -9 2 -12 2 -21
c0 -19 -6 -35 -21 -48c-1 -2 -1 -2 -1 -5zM749 446c-4 0 -9 1 -14 4c-3 2 -5 5 -6 9c0 14 3 21 3 35c1 19 0 37 2 56c1 12 8 22 17 29c1 1 2 1 4 1c1 0 2 0 3 -1c14 -8 16 -24 16 -40c0 -12 -2 -24 -5 -36c-1 -4 -2 -6 -2 -11c8 10 7 22 12 32c2 -2 2 -3 2 -5l-4 -38
c-1 -6 -2 -11 -7 -15c-2 -2 -3 -6 -6 -9c-5 -8 -9 -11 -15 -11zM134 -68c15 3 25 14 31 30c4 13 9 24 23 28c2 0 2 2 2 3c0 2 -3 5 -5 8c-3 3 -5 6 -5 11v11c0 10 1 5 -1 16c0 5 3 9 3 14c0 2 -1 5 -1 8l-1 11c0 9 1 19 1 28v10c2 8 3 14 3 22v6l-1 3c0 2 1 2 2 3l13 -24
c4 -6 6 -11 9 -17l22 -70c2 -8 4 -16 4 -25c0 -8 -2 -15 -4 -25c9 7 14 11 22 11c10 0 29 -6 42 -15l2 2l-15 17c-3 3 -6 7 -6 11l1 9c0 6 -1 11 -1 17s2 10 2 16l-1 14c0 37 1 44 1 78l-1 34l1 33v4c3 1 4 3 4 4c0 2 -2 4 -3 6c-2 4 -3 9 -3 13c0 18 16 35 17 56l-11 -19
c-6 -13 -17 -19 -31 -21c-2 -1 -5 0 -6 -3c3 -4 5 -8 5 -13c0 -2 0 -4 -1 -6c1 -16 5 -27 5 -43c0 -18 -4 -35 -4 -53c0 -11 2 -22 2 -32s-1 -19 -1 -29c1 -10 0 -6 1 -17c0 -1 0 -3 -1 -4c-3 1 -3 3 -4 5c-5 14 -9 29 -13 44c-1 5 -2 9 -6 13c-4 5 -6 11 -8 18l-12 39
c-8 25 -24 49 -24 75c0 4 0 8 1 12c-6 -2 -11 -5 -17 -5c-4 0 -8 2 -12 2c-9 0 -20 -8 -23 -23c7 4 13 8 16 8c4 0 7 -7 8 -14c0 -7 -1 -11 -5 -17c6 -3 7 -8 7 -13v-30c0 -22 -4 -44 -4 -69c0 -17 1 -34 2 -52c0 -5 2 -8 2 -11c-1 -12 -4 -17 -4 -27c1 -10 2 -12 2 -21
c0 -13 -4 -25 -9 -37c-2 -6 -6 -11 -11 -14c-1 -1 -2 -2 -2 -3c0 0 0 -1 1 -1zM287 0c15 2 26 7 33 21c4 8 11 14 20 16c2 1 4 0 4 2c0 5 -10 5 -10 14s1 18 5 26c1 4 1 8 1 12c0 12 0 22 -1 33c-1 6 -2 13 -2 19c1 10 0 5 1 16c0 8 -4 15 -4 24l1 14c0 6 -1 7 -2 13
c0 2 1 5 1 7c4 11 10 22 22 28l-1 1h-3c-14 -3 -24 -12 -30 -24c-5 -9 -11 -13 -19 -13l-7 1c-2 1 -3 1 -5 1h-3c9 -10 21 -10 21 -17l-1 -6l1 -5c0 -11 0 -23 -1 -34l-1 -7c0 -7 5 -12 5 -16c0 -1 0 -3 -1 -5c-3 -7 -6 -14 -8 -23c5 4 5 6 7 6s3 -2 3 -2c0 -2 0 -3 -1 -4
c-2 -6 -2 -12 -2 -17v-16c0 -5 -2 -11 -2 -16s2 -10 2 -14c0 -2 0 -5 -1 -7c-4 -12 -10 -22 -22 -28zM425 14c17 10 29 19 44 19c3 0 6 0 11 -2c1 0 1 1 2 2c-2 3 -6 4 -8 6c-7 5 -11 12 -11 19c0 8 4 17 4 27c-1 13 0 17 -2 31c0 3 2 5 2 9l-1 2c-5 -4 -9 -6 -14 -6
s-7 2 -12 3c-2 0 -4 -1 -6 -2c-3 -1 -5 -1 -8 -1c-5 0 -9 2 -13 7v-2c0 -12 12 -16 13 -26l7 4c2 2 4 4 7 4c2 0 4 -3 4 -5c-1 -13 -2 -18 -4 -31c-1 -6 -4 -14 -11 -16c-4 -1 -7 -3 -9 -6c-2 -2 -3 -3 -5 -3c-1 0 -3 2 -5 5s-2 7 -3 12c-3 -2 -6 -3 -7 -3c-3 0 -4 4 -4 11
c1 11 2 18 2 29l-1 18c0 7 -3 14 -3 21c0 3 0 4 1 7c0 0 0 2 -1 2c-3 2 -4 4 -4 6s1 5 2 7c1 7 4 12 8 17c1 2 2 4 2 6c0 3 -2 7 -2 11c0 9 7 15 16 15c3 0 5 -2 6 -7c1 -2 1 -4 2 -6c8 -9 11 -19 11 -29c0 -5 0 -10 -1 -15c-1 -1 -1 -3 -1 -4v-2c19 14 12 33 33 38
c-8 5 -16 8 -18 17c-5 19 -16 21 -35 21c-12 -2 -25 -2 -32 -16c0 0 0 -1 -1 -1c-6 -2 -8 -9 -13 -13c-3 -3 -5 -7 -5 -11c-1 -13 -6 -25 -6 -39c0 -3 1 -7 2 -10c7 -18 3 -35 7 -52c1 -3 2 -7 2 -11l-1 -7c0 -5 4 -9 8 -12c5 -3 8 -7 11 -11c2 -4 5 -7 10 -7
c6 -1 13 -2 20 -2c9 0 18 2 27 8c-1 -12 -12 -16 -17 -26zM476 3c12 3 23 6 29 17c6 10 13 20 26 21c1 1 1 2 1 2v2c-7 3 -10 9 -10 15l1 6l-1 1v5c0 4 2 7 2 10c0 6 -2 10 -2 14c0 6 1 13 1 19c0 13 3 16 13 16c5 -1 10 -1 15 -5c1 0 1 -1 2 -1c6 2 8 2 16 3l-1 -7
c0 -6 5 -11 5 -16c-3 -13 -8 -13 -19 -21l4 -1c3 0 6 3 8 3c3 0 4 -2 4 -3c0 -2 -1 -5 -1 -7c0 -3 1 -4 1 -7c0 -6 -4 -11 -7 -15l-14 -17c0 -1 -1 -2 -1 -3l1 -2c9 7 16 10 24 10c9 0 27 -4 39 -11c1 0 2 -1 3 -1h1c0 3 -1 5 -4 6c-4 4 -8 6 -13 9c-2 2 -5 5 -5 7l1 7
c0 3 -1 6 -1 9s1 6 2 8c4 5 6 10 6 15c0 3 -2 8 -2 12s3 6 3 9c0 6 -8 13 -8 20v49c0 1 0 4 1 4c3 1 4 2 4 3s-3 3 -4 4c-1 3 -2 5 -2 8c0 12 16 21 17 37c-12 -19 -27 -27 -49 -27c5 -7 8 -10 8 -16l-2 -12l1 -3c3 -5 3 -11 3 -17c-1 -13 -3 -13 -16 -17c-3 0 -4 2 -7 6
c-3 -3 -6 -6 -10 -6c-1 0 -3 0 -5 1h-6c-4 0 -5 2 -5 7l1 33c0 1 0 2 1 2c2 0 2 1 2 2s-1 3 -1 4c-1 4 -2 7 -2 10c0 5 2 9 8 14c2 2 4 2 4 5h-2c-4 0 -8 -1 -12 -4c-6 -4 -12 -6 -19 -6l-8 1c-9 0 -16 -6 -21 -14c5 0 6 2 10 2c6 0 12 -5 12 -11c0 -2 -1 -3 -2 -6
c0 -2 4 -4 4 -8v-11c0 -10 -1 -19 -7 -28c-5 -7 -8 -16 -8 -26c0 -4 4 -7 7 -11l7 -23c1 -3 1 -6 1 -9c-1 -8 -2 -10 -2 -17c0 -6 1 -7 2 -12c-2 -15 -7 -27 -20 -34c-1 -1 -2 -1 -2 -3zM602 -62c18 5 29 21 34 40c3 11 11 16 19 20l4 1c2 0 4 -1 5 -2c2 -1 4 -4 6 -4
s2 1 3 3c0 3 -3 5 -3 8l-1 1c-7 10 -8 23 -13 33c-1 13 -3 25 -3 37c1 15 2 16 2 30c0 10 -1 15 -3 24c2 9 5 13 5 21c0 5 -1 11 -2 17c-2 13 -3 19 -4 33c0 16 3 31 6 46c0 5 4 9 8 9l4 -1c2 -1 4 -2 5 -2l3 1c-1 3 -4 4 -6 4c-3 2 -8 4 -8 6c0 1 0 3 2 3c8 0 13 -3 20 -5
c1 -1 2 -2 2 -4c1 -4 3 -7 7 -10c1 0 2 -1 2 -2c3 -12 7 -23 7 -35c0 -7 -3 -11 -3 -19c10 11 12 33 19 56c2 9 5 18 13 23c1 1 2 2 2 3c-1 2 -1 3 -2 3l-3 -1c-3 0 -5 -1 -7 -1c-6 2 -8 4 -14 4s-8 1 -13 2c-4 -1 -6 -2 -9 -2c-7 0 -14 7 -21 7l-4 -1c-3 -1 -5 -3 -8 -3
c-1 0 -3 0 -4 2l-12 -4c-2 0 -3 -2 -4 -2c-4 3 -6 4 -10 4c-21 0 -36 -4 -58 -4c-5 0 -7 -3 -7 -9s2 -10 2 -16c0 -14 -10 -25 -10 -41c0 -5 1 -11 5 -17c2 21 7 45 22 60c1 3 4 5 6 6c6 1 12 -1 18 3c11 -2 22 -11 22 -20l-1 -10l1 -15c0 -6 -2 -11 -2 -16
c0 -6 2 -12 2 -19c0 -9 -1 -10 -2 -20c0 -9 4 -18 4 -26c0 -3 0 -5 -1 -8l-7 -33c4 1 3 7 6 7c3 -1 4 -1 4 -4c-2 -12 -4 -20 -4 -29v-15v-26c-1 -5 -2 -9 -2 -14c1 -9 2 -12 2 -20c0 -13 -4 -26 -9 -38c-2 -6 -6 -11 -10 -14c-1 -1 -3 -2 -3 -3z" />
    <glyph glyph-name="seven" unicode="7" horiz-adv-x="828" 
d="M29 286c7 2 12 10 18 15c5 6 13 8 20 13s15 5 22 9s14 3 24 5c-6 4 -12 1 -16 5c1 2 2 3 4 5c14 11 24 24 26 45c1 5 3 10 6 14c6 9 9 18 11 28c3 14 5 27 8 41c4 17 10 34 10 52c0 8 0 20 -5 27c-2 4 -4 7 -4 12c-1 12 -7 22 -10 33c0 2 -1 4 -3 4c-4 4 -7 9 -11 13
c-1 1 -3 4 -4 4c-7 0 -12 5 -18 7c-12 4 -24 3 -36 5c-2 0 -4 -1 -6 -2c-22 -9 -25 -9 -41 -27c-2 -2 -4 -4 -4 -9l10 10c4 3 5 4 11 6c4 0 7 -4 7 -7c0 -9 -5 -17 -10 -23c0 -1 -1 -1 -1 -2c1 -1 0 -1 2 -2c2 0 3 3 4 3l2 -1v-10c0 -9 -4 -20 -4 -32c0 -14 4 -29 4 -42
c0 -17 2 -27 3 -44c0 -8 -2 -16 -2 -23c0 -5 2 -9 2 -14c0 -7 -1 -8 -1 -14c0 -8 1 -15 3 -22c1 -7 4 -14 4 -22c-2 -14 -3 -27 -12 -38c-5 -7 -10 -14 -13 -22zM82 346c-6 1 -8 1 -8 7c0 15 1 17 1 33c-1 30 1 25 -3 52c1 4 1 9 1 13v13v8v16c0 3 0 6 1 9c5 -1 8 -5 14 -5
c-1 2 -3 2 -4 4c-7 8 -11 17 -11 28c1 23 0 46 2 69c1 8 4 17 9 17c3 0 9 -6 14 -9c12 -8 12 -25 22 -38c3 -4 5 -9 5 -14c0 -14 -8 -25 -14 -35c-2 -2 -3 -4 -4 -7c8 6 14 14 20 24c5 -4 6 -10 7 -15c1 -6 3 -13 3 -20l-1 -6c-2 -10 -2 -22 -5 -32c-5 -19 -2 -39 -14 -53
c-5 -6 -8 -11 -8 -20c0 -3 0 -5 -2 -7c-6 -10 -13 -21 -20 -29c-1 -2 -3 -3 -5 -3zM298 337c15 2 27 9 33 22c4 9 11 13 19 15c2 1 4 0 5 3c0 2 -2 3 -4 4c-4 3 -6 5 -6 10c0 4 1 4 1 8v22c0 3 0 7 -1 10c0 3 1 3 2 7l-2 10c0 6 3 12 3 17v7c0 1 0 2 2 3c7 -9 16 -17 22 -27
c7 -14 14 -29 21 -44c3 -6 5 -11 5 -17c0 -5 -1 -9 -3 -14l1 -1c7 4 14 6 21 6c13 0 29 -6 42 -9c-4 4 -9 8 -14 12c-4 2 -6 5 -6 9l1 6c-1 4 -1 4 -1 9c0 3 2 6 2 10c0 5 -1 7 -2 12c1 6 2 10 2 16l-1 20l1 56c0 3 4 3 4 4c-3 6 -6 8 -6 13c0 7 6 12 10 19c3 5 6 10 7 17
c-11 -18 -26 -27 -48 -27c2 -3 6 -6 6 -9l-2 -7c0 -3 2 -8 3 -11c1 -6 2 -11 2 -16c0 -13 -3 -21 -3 -35c0 -5 0 -10 1 -15c0 -8 -1 -13 -1 -21c0 -5 1 -7 1 -12c0 -1 0 -3 -3 -3c-7 10 -9 18 -14 31c-2 3 -4 7 -7 10c-4 2 -6 7 -8 11c-7 15 -15 30 -24 44
c-6 9 -12 19 -12 31l1 6c-6 0 -9 -2 -13 -2s-9 0 -13 1c-12 0 -20 -4 -26 -15c9 4 5 4 15 5c5 0 9 -4 9 -10c0 -4 -1 -5 -3 -9c0 -1 0 -1 1 -2c4 -3 4 -8 4 -13c0 -14 0 -28 -3 -43c0 -6 -1 -12 -1 -18c0 -7 1 -14 1 -21c1 -6 2 -11 2 -17s-3 -11 -3 -19c0 -4 3 -9 3 -12
c-2 -12 -5 -22 -14 -29c-3 6 -7 14 -13 21c-24 23 -27 24 -37 57c5 -4 6 -4 9 -4l-2 3c-13 14 -14 32 -18 49c-3 13 -7 26 -10 39c-2 13 -8 26 -8 34c0 6 3 11 8 14c3 2 5 4 7 8c-11 -5 -11 -5 -26 -5c-16 0 -32 -8 -32 -23v-3c4 9 11 14 15 14s4 -4 4 -11
c-2 -19 -7 -27 -12 -44c-4 -14 -11 -27 -13 -42c0 -2 -2 -4 -2 -5c-4 -12 -7 -23 -10 -33c-5 -14 -12 -28 -23 -38l-4 -4l-4 -6c12 6 24 13 37 13c8 0 15 -2 24 -3c-6 4 -10 7 -15 8c-7 3 -8 8 -9 16c0 5 2 10 6 13c15 12 15 14 34 14c4 0 8 3 10 3s4 -2 4 -5
c3 -12 5 -19 6 -31c0 -7 -2 -13 -9 -17l-1 -1l1 -2c7 2 14 2 20 2c25 0 46 -9 61 -33l-3 -3c-1 0 -4 0 -4 -3zM180 429l10 29c3 -2 2 -5 6 -7c0 22 5 35 10 57c5 -13 6 -20 8 -32c0 -8 -4 -14 -9 -21c6 1 7 6 11 8c5 -5 4 -13 6 -20c0 -3 -4 -6 -8 -6c-11 -1 -22 -4 -34 -8z
M529 355c16 10 29 19 43 19c4 0 7 -1 11 -2c1 0 2 1 3 2c-2 3 -6 4 -8 6c-8 5 -11 11 -11 18c0 9 3 18 3 28c0 13 0 17 -1 31c0 2 1 5 1 8v3c-5 -4 -10 -6 -15 -6c-4 0 -7 1 -12 3c-2 0 -3 -1 -5 -2c-3 -1 -6 -1 -8 -1c-5 0 -9 2 -13 7v-3c0 -11 12 -15 13 -25c3 1 5 3 7 4
c2 2 4 3 6 3c3 0 4 -2 4 -4c0 -13 -2 -18 -3 -31c-1 -6 -4 -14 -11 -16c-4 -1 -7 -3 -9 -6c-2 -2 -4 -3 -5 -3s-3 2 -5 4c-2 4 -2 8 -3 12c-4 -1 -6 -2 -7 -2c-3 0 -4 4 -5 11c2 11 2 18 2 29v17c0 7 -3 15 -3 22c0 2 0 4 1 6c0 1 -1 2 -1 3c-3 2 -4 3 -4 6c0 2 1 5 2 7
c0 7 4 12 7 17c2 2 3 4 3 6c0 3 -3 7 -3 11c0 9 8 15 16 15c4 0 6 -2 7 -7c0 -2 0 -4 2 -7c8 -8 11 -18 11 -28c0 -6 0 -10 -2 -15c0 -2 -1 -3 -1 -4s0 -2 1 -3c19 14 11 34 33 39c-9 5 -16 8 -18 17c-5 18 -16 21 -35 21c-12 -2 -26 -3 -32 -16l-1 -1c-6 -2 -9 -9 -13 -13
c-3 -3 -5 -7 -5 -11c-1 -13 -6 -25 -6 -39c0 -4 1 -7 2 -10c4 -10 4 -20 5 -30c0 -7 0 -15 2 -22c1 -4 2 -7 2 -11l-1 -7c0 -5 3 -9 8 -12c4 -3 7 -7 11 -11c2 -4 5 -7 9 -8c7 -1 14 -1 21 -1c9 0 18 1 27 8c-1 -12 -12 -16 -17 -26zM579 344c13 2 24 6 31 18
c7 13 23 18 35 18c8 0 17 -4 29 -8c-2 7 -3 12 -3 18v9c0 3 -1 7 -5 8c1 -1 1 -3 1 -5s-1 -5 -3 -7c-1 -1 -2 -3 -3 -3c-12 4 -22 1 -34 5v1v4c0 4 -1 6 -1 10s1 7 2 12c-2 4 -2 6 -2 11c0 6 1 11 1 16v8c0 9 5 12 15 12h6c7 -1 10 -3 11 -11v-8c3 4 5 9 5 14
c0 4 -1 7 -3 10c-5 5 -6 9 -6 16l-3 -1c-3 -4 -6 -5 -9 -5l-12 1c-2 0 -4 1 -4 3v7c0 6 -1 12 1 18l-1 8c0 3 0 5 4 7c-1 5 -4 9 -4 14c0 6 1 9 8 9c5 0 11 -2 11 -5c1 -3 2 -4 3 -4s2 1 3 2c11 9 24 12 34 20c3 2 7 5 9 11c-10 -8 -19 -12 -29 -13c1 4 6 5 6 9
c-3 0 -6 -2 -8 -3c-5 -4 -12 -9 -17 -9h-3c-10 3 -19 3 -29 4c-14 0 -22 -9 -34 -18c-4 -3 -6 -8 -8 -12c-1 -1 -1 -1 -1 -2c1 -1 1 0 2 -1h1c7 9 9 11 19 13c5 0 9 -3 9 -8s-5 -7 -5 -10c0 -5 5 -6 5 -11v-20c0 -17 -4 -32 -4 -48c0 -12 3 -23 3 -36c0 -7 -3 -12 -3 -19
c0 -5 1 -8 1 -13c0 -12 -6 -25 -17 -32c-2 -1 -4 -1 -4 -4zM682 294c19 5 30 21 34 38c3 10 9 16 18 19c3 2 5 2 5 5c0 1 0 2 -1 2c-7 6 -9 12 -9 20c0 2 0 6 1 9c-1 3 -1 7 -1 10c0 7 1 15 1 22c0 5 0 8 -1 12c0 2 1 5 2 5c3 0 3 -4 4 -6c0 -8 5 -15 7 -22
c4 -13 16 -21 19 -35c2 -6 4 -13 7 -19c4 -7 7 -14 7 -21c0 -6 -2 -9 -3 -15c0 -1 1 -2 2 -2s2 0 3 1c6 6 13 8 20 8c5 0 9 -1 14 -3c5 0 9 -5 15 -5l2 1c-2 3 -4 6 -7 8c-6 4 -9 11 -14 17c-4 5 -6 12 -10 16c-6 6 -11 14 -14 21c-1 2 -1 5 -3 7c-5 4 -4 9 -5 15
c4 -2 4 -5 5 -6c3 -3 3 -5 7 -5c-9 11 -13 21 -14 34c0 3 1 5 4 7c26 19 35 46 35 77c0 14 -2 28 -6 42c-1 5 0 10 -3 14c-3 5 -4 10 -5 16l-2 12c-2 7 -9 10 -12 16c-4 6 -7 9 -12 9c-8 0 -18 -6 -26 -15l-11 -13c-4 4 -4 8 -4 13v16c-5 -3 -11 -5 -16 -5l-11 1
c-12 0 -22 -10 -23 -22c4 3 11 8 15 8c5 0 8 -10 8 -16c0 -5 -2 -10 -5 -14c7 -4 7 -10 7 -16v-23c0 -25 -4 -49 -4 -74s2 -37 3 -61l-1 -13c-1 -5 -2 -11 -2 -16c1 -9 2 -12 2 -21c0 -19 -6 -35 -20 -48c-2 -2 -2 -2 -2 -5zM749 446c-4 0 -9 1 -14 4c-3 2 -5 5 -6 9
c0 14 3 21 3 35c1 19 0 37 2 56c1 12 8 22 18 29c0 1 1 1 3 1c1 0 2 0 3 -1c14 -8 16 -24 16 -40c0 -12 -2 -24 -5 -36c-1 -4 -2 -6 -2 -11c8 10 7 22 13 32c1 -2 1 -3 1 -5l-4 -38c-1 -6 -2 -11 -7 -15c-2 -2 -3 -6 -6 -9c-5 -8 -9 -11 -15 -11zM134 -68c15 3 25 14 31 30
c4 13 9 24 23 28c2 0 2 2 2 3c0 2 -3 5 -5 8c-3 3 -5 6 -5 11v11c0 10 1 5 0 16c0 5 2 9 2 14c0 2 -1 5 -1 8l-1 11c0 9 1 19 1 28v10c2 8 3 14 3 22v6l-1 3c0 2 1 2 2 3l13 -24c4 -6 6 -11 9 -17l22 -70c2 -8 4 -16 4 -25c0 -8 -2 -15 -4 -25c9 7 14 11 22 11
c10 0 29 -6 43 -15l1 2l-15 17c-3 3 -6 7 -6 11l1 9c0 6 -1 11 -1 17s2 10 2 16l-1 14c0 37 1 44 1 78l-1 34l1 33v4c3 1 4 3 4 4c0 2 -2 4 -3 6c-2 4 -3 9 -3 13c0 18 16 35 17 56l-11 -19c-6 -13 -17 -19 -31 -21c-2 -1 -5 0 -6 -3c3 -4 5 -8 5 -13c0 -2 0 -4 -1 -6
c1 -16 5 -27 5 -43c0 -18 -4 -35 -4 -53c0 -11 2 -22 2 -32s-1 -19 -1 -29c1 -10 0 -6 1 -17c0 -1 0 -3 -1 -4c-3 1 -3 3 -4 5c-5 14 -9 29 -13 44c-1 5 -2 9 -6 13c-4 5 -6 11 -8 18l-12 39c-8 25 -24 49 -24 75c0 4 0 8 1 12c-6 -2 -11 -5 -17 -5c-4 0 -8 2 -12 2
c-9 0 -19 -8 -23 -23c7 4 13 8 16 8c4 0 7 -7 8 -14c0 -7 -1 -11 -5 -17c6 -3 7 -8 7 -13v-30c0 -22 -4 -44 -4 -69c0 -17 1 -34 2 -52c0 -5 2 -8 2 -11c-1 -12 -4 -17 -4 -27c1 -10 2 -12 2 -21c0 -13 -4 -25 -9 -37c-2 -6 -6 -11 -11 -14c0 -1 -2 -2 -2 -3c0 0 0 -1 1 -1z
M288 0c14 2 25 7 32 21c4 8 11 14 20 16c2 1 4 0 4 2c0 5 -10 5 -10 14s1 18 5 26c1 4 1 8 1 12c0 12 0 22 -1 33c-1 6 -2 13 -2 19c1 10 0 5 1 16c0 8 -4 15 -4 24l1 14c0 6 -1 7 -2 13c0 2 1 5 1 7c4 11 10 22 22 28l-1 1h-3c-14 -3 -24 -12 -30 -24
c-5 -9 -11 -13 -19 -13l-7 1c-2 1 -3 1 -5 1h-3c9 -10 21 -10 21 -17l-1 -6l1 -5c0 -11 0 -23 -1 -34l-1 -7c0 -7 5 -12 5 -16c0 -1 0 -3 -1 -5c-3 -7 -6 -14 -8 -23c5 4 5 6 8 6c1 0 2 -2 2 -2c0 -2 0 -3 -1 -4c-2 -6 -2 -12 -2 -17c0 -6 1 -10 1 -16c0 -5 -3 -11 -3 -16
s2 -10 2 -14c0 -2 0 -5 -1 -7c-4 -12 -10 -22 -21 -28zM425 14c17 10 29 19 44 19c3 0 7 0 11 -2c1 0 2 1 2 2c-2 3 -6 4 -8 6c-7 5 -11 12 -11 19c0 8 4 17 4 27c-1 13 0 17 -2 31c0 3 2 5 2 9l-1 2c-5 -4 -9 -6 -14 -6s-7 2 -12 3c-2 0 -4 -1 -6 -2c-3 -1 -5 -1 -8 -1
c-5 0 -9 2 -13 7v-2c0 -12 12 -16 13 -26l7 4c2 2 4 4 7 4c2 0 4 -3 4 -5c-1 -13 -2 -18 -4 -31c-1 -6 -4 -14 -11 -16c-4 -1 -7 -3 -9 -6c-2 -2 -3 -3 -5 -3c-1 0 -3 2 -5 5s-2 7 -3 12c-3 -2 -5 -3 -7 -3c-3 0 -4 4 -4 11c1 11 2 18 2 29l-1 18c0 7 -3 14 -3 21
c0 3 0 4 1 7c0 0 0 2 -1 2c-3 2 -4 4 -4 6s1 5 2 7c1 7 4 12 8 17c2 2 2 4 2 6c0 3 -2 7 -2 11c0 9 7 15 16 15c3 0 5 -2 6 -7c1 -2 1 -4 3 -6c7 -9 11 -19 11 -29c0 -5 -1 -10 -2 -15c-1 -1 -1 -3 -1 -4v-2c19 14 12 33 33 38c-8 5 -16 8 -18 17c-5 19 -16 21 -35 21
c-12 -2 -25 -2 -32 -16c0 0 0 -1 -1 -1c-6 -2 -8 -9 -13 -13c-3 -3 -5 -7 -5 -11c-1 -13 -6 -25 -6 -39c0 -3 1 -7 2 -10c7 -18 3 -35 7 -52c1 -3 2 -7 2 -11l-1 -7c0 -5 4 -9 8 -12c5 -3 8 -7 11 -11c2 -4 5 -7 10 -7c7 -1 13 -2 20 -2c10 0 18 2 27 8
c-1 -12 -12 -16 -17 -26zM476 3c12 3 23 6 29 17c6 10 13 20 26 21l2 2c0 1 -1 2 -1 2c-7 3 -10 9 -10 15l1 6l-1 1v5c0 4 2 7 2 10c0 6 -2 10 -2 14c0 6 1 13 1 19c0 13 3 16 13 16c5 -1 10 -1 15 -5c1 0 1 -1 2 -1c6 2 8 2 16 3l-1 -7c0 -6 5 -11 5 -16
c-3 -13 -8 -13 -19 -21l4 -1c3 0 6 3 9 3c2 0 3 -2 3 -3c0 -2 -1 -5 -1 -7c0 -3 1 -4 1 -7c0 -6 -3 -11 -7 -15l-13 -17c-1 -1 -2 -2 -2 -3l1 -2c9 7 16 10 24 10c9 0 27 -4 39 -11c1 0 2 -1 3 -1h1c0 3 -1 5 -4 6c-4 4 -8 6 -13 9c-2 2 -5 5 -5 7l1 7c0 3 -1 6 -1 9
s1 6 2 8c4 5 6 10 6 15c0 3 -2 8 -2 12s3 6 3 9c0 6 -8 13 -8 20v49c0 1 0 4 1 4c3 1 4 2 4 3s-3 3 -4 4c-1 3 -2 5 -2 8c0 12 16 21 17 37c-12 -19 -27 -27 -49 -27c5 -7 8 -10 8 -16l-2 -12l1 -3c3 -5 3 -11 3 -17c-1 -13 -3 -13 -16 -17c-3 0 -4 2 -6 6
c-4 -3 -7 -6 -11 -6c-1 0 -3 0 -5 1h-6c-4 0 -5 2 -5 7l1 33c0 1 0 2 1 2c2 0 2 1 2 2s0 3 -1 4c-1 4 -2 7 -2 10c0 5 3 9 9 14c1 2 3 2 3 5h-2c-4 0 -8 -1 -12 -4c-6 -4 -12 -6 -19 -6l-8 1c-9 0 -16 -6 -21 -14c5 0 6 2 10 2c6 0 12 -5 12 -11c0 -2 -1 -3 -2 -6
c0 -2 4 -4 4 -8l1 -11c0 -10 -2 -19 -8 -28c-4 -7 -8 -16 -8 -26c0 -4 4 -7 7 -11l7 -23c1 -3 2 -6 2 -9c-2 -8 -3 -10 -3 -17c0 -6 1 -7 2 -12c-2 -15 -7 -27 -20 -34c-1 -1 -2 -1 -2 -3zM602 -62c18 5 29 21 34 40c3 11 11 16 19 20l4 1c2 0 4 -1 5 -2c2 -1 4 -4 6 -4
s2 1 3 3c0 3 -3 5 -3 8l-1 1c-7 10 -8 23 -13 33c-1 13 -3 25 -3 37c1 15 2 16 2 30c0 10 -1 15 -3 24c2 9 5 13 5 21c0 5 -1 11 -2 17c-2 13 -3 19 -4 33c0 16 3 31 6 46c1 5 4 9 8 9l4 -1c2 -1 4 -2 6 -2l2 1c-1 3 -4 4 -6 4c-3 2 -8 4 -8 6c0 1 0 3 2 3c8 0 13 -3 20 -5
c1 -1 2 -2 2 -4c1 -4 3 -7 7 -10c1 0 2 -1 2 -2c3 -12 7 -23 7 -35c0 -7 -3 -11 -3 -19c10 11 12 33 19 56c2 9 5 18 13 23c1 1 2 2 2 3c-1 2 -1 3 -2 3l-3 -1c-3 0 -5 -1 -7 -1c-6 2 -8 4 -14 4s-8 1 -13 2c-4 -1 -6 -2 -9 -2c-7 0 -14 7 -21 7l-4 -1c-3 -1 -5 -3 -8 -3
c-1 0 -3 0 -4 2l-12 -4c-2 0 -3 -2 -4 -2c-4 3 -6 4 -10 4c-21 0 -36 -4 -58 -4c-5 0 -7 -3 -7 -9s2 -10 2 -16c0 -14 -10 -25 -10 -41c0 -5 1 -11 5 -17c2 21 7 45 22 60c1 3 4 5 7 6c6 1 11 -1 17 3c12 -2 22 -11 22 -20l-1 -10l1 -15c0 -6 -2 -11 -2 -16
c0 -6 2 -12 2 -19c0 -9 -1 -10 -2 -20c0 -9 4 -18 4 -26c0 -3 0 -5 -1 -8l-7 -33c4 1 4 7 7 7c2 -1 3 -1 3 -4c-2 -12 -4 -20 -4 -29l1 -15c0 -12 -1 -15 -1 -26c-1 -5 -2 -9 -2 -14c1 -9 3 -12 3 -20c0 -13 -5 -26 -10 -38c-2 -6 -6 -11 -10 -14c-1 -1 -3 -2 -3 -3z" />
    <glyph glyph-name="eight" unicode="8" horiz-adv-x="828" 
d="M29 286c8 2 12 10 18 15c6 6 14 8 20 13c7 5 15 5 23 9c6 4 14 3 23 5c-6 4 -12 1 -16 5c1 2 2 3 4 5c15 11 24 24 27 45c0 5 2 10 5 14c7 9 9 18 11 28c3 14 5 27 9 41c3 17 10 34 10 52c0 8 -1 20 -5 27c-2 4 -5 7 -5 12c0 12 -7 22 -10 33c0 2 -1 4 -2 4
c-5 4 -8 9 -12 13c-1 1 -2 4 -4 4c-7 0 -11 5 -18 7c-11 4 -23 3 -35 5c-2 0 -5 -1 -6 -2c-23 -9 -26 -9 -42 -27c-2 -2 -3 -4 -4 -9c4 4 8 7 11 10s5 4 10 6c4 0 8 -4 8 -7c0 -9 -6 -17 -10 -23c-1 -1 -1 -1 -1 -2s0 -1 1 -2c2 0 3 3 5 3l1 -1v-10c0 -9 -4 -20 -4 -32
c0 -14 4 -29 4 -42c0 -17 3 -27 4 -44c0 -8 -3 -16 -3 -23c0 -5 3 -9 3 -14c-1 -7 -1 -8 -1 -14c0 -8 1 -15 2 -22s5 -14 5 -22c-2 -14 -4 -27 -12 -38c-5 -7 -10 -14 -14 -22zM82 346c-6 1 -8 1 -8 7c0 15 1 17 2 33c-2 30 0 25 -3 52v13v13v8v16c0 3 0 6 1 9
c5 -1 8 -5 14 -5c0 2 -3 2 -4 4c-6 8 -11 17 -11 28c1 23 0 46 2 69c1 8 4 17 9 17c3 0 9 -6 14 -9c13 -8 12 -25 22 -38c4 -4 5 -9 5 -14c0 -14 -8 -25 -14 -35c-1 -2 -3 -4 -4 -7c9 6 15 14 20 24c5 -4 7 -10 7 -15c2 -6 3 -13 3 -20l-1 -6c-2 -10 -2 -22 -5 -32
c-5 -19 -2 -39 -13 -53c-6 -6 -9 -11 -9 -20c0 -3 0 -5 -2 -7c-6 -10 -12 -21 -20 -29c-1 -2 -3 -3 -5 -3zM299 337c14 2 26 9 32 22c4 9 11 13 19 15c2 1 5 0 5 3c0 2 -2 3 -3 4c-5 3 -7 5 -7 10c1 4 1 4 1 8v22v10s0 3 1 7l-1 10c0 6 3 12 3 17v7c0 1 0 2 1 3
c7 -9 17 -17 22 -27c8 -14 14 -29 22 -44c3 -6 4 -11 4 -17c0 -5 0 -9 -3 -14l2 -1c6 4 13 6 20 6c13 0 29 -6 43 -9l-15 12c-3 2 -6 5 -6 9l1 6c0 4 -1 4 -1 9c0 3 2 6 2 10c0 5 -1 7 -2 12c1 6 2 10 2 16v20v56c0 3 4 3 4 4c-3 6 -6 8 -6 13c0 7 6 12 10 19c4 5 6 10 7 17
c-11 -18 -26 -27 -48 -27c2 -3 6 -6 6 -9l-1 -7c0 -3 1 -8 2 -11c1 -6 2 -11 2 -16c0 -13 -3 -21 -3 -35c0 -5 0 -10 1 -15c0 -8 -1 -13 -1 -21c0 -5 1 -7 1 -12c0 -1 0 -3 -2 -3c-8 10 -10 18 -15 31c-1 3 -3 7 -7 10c-4 2 -6 7 -8 11c-7 15 -14 30 -24 44
c-6 9 -12 19 -12 31l1 6c-5 0 -9 -2 -13 -2s-8 0 -12 1c-13 0 -21 -4 -27 -15c10 4 5 4 16 5c5 0 8 -4 8 -10c0 -4 -1 -5 -3 -9c0 -1 1 -1 1 -2c5 -3 5 -8 5 -13c0 -14 -1 -28 -3 -43c-1 -6 -2 -12 -2 -18c0 -7 1 -14 2 -21c1 -6 2 -11 2 -17s-4 -11 -4 -19c0 -4 3 -9 3 -12
c-2 -12 -5 -22 -13 -29c-4 6 -7 14 -14 21c-24 23 -27 24 -36 57c4 -4 5 -4 8 -4l-2 3c-12 14 -14 32 -18 49c-3 13 -7 26 -9 39c-3 13 -9 26 -9 34c0 6 3 11 9 14c2 2 5 4 6 8c-11 -5 -11 -5 -26 -5c-16 0 -32 -8 -32 -23l1 -3c3 9 10 14 14 14s4 -4 4 -11
c-2 -19 -7 -27 -12 -44c-4 -14 -11 -27 -13 -42c0 -2 -1 -4 -2 -5c-4 -12 -6 -23 -10 -33c-5 -14 -11 -28 -23 -38l-4 -4l-4 -6c12 6 25 13 38 13c7 0 14 -2 23 -3c-5 4 -10 7 -15 8c-7 3 -8 8 -9 16c0 5 2 10 7 13c15 12 15 14 33 14c4 0 8 3 11 3c2 0 3 -2 3 -5
c3 -12 5 -19 6 -31c0 -7 -1 -13 -8 -17c-1 0 -1 -1 -1 -1v-2c7 2 14 2 20 2c25 0 46 -9 61 -33l-3 -3c-1 0 -3 0 -3 -3zM181 429l10 29c2 -2 1 -5 6 -7c0 22 4 35 9 57c6 -13 7 -20 9 -32c0 -8 -5 -14 -10 -21c6 1 8 6 11 8c5 -5 5 -13 6 -20c0 -3 -3 -6 -8 -6
c-11 -1 -22 -4 -33 -8zM529 355c17 10 29 19 44 19c3 0 6 -1 11 -2c1 0 1 1 2 2c-2 3 -6 4 -8 6c-7 5 -11 11 -11 18c0 9 4 18 4 28c-1 13 0 17 -2 31c0 2 2 5 2 8l-1 3c-5 -4 -9 -6 -14 -6s-7 1 -12 3c-2 0 -4 -1 -6 -2c-3 -1 -5 -1 -8 -1c-5 0 -9 2 -13 7v-3
c0 -11 12 -15 13 -25c3 1 5 3 7 4c2 2 4 3 7 3c2 0 4 -2 4 -4c-1 -13 -2 -18 -4 -31c-1 -6 -4 -14 -11 -16c-4 -1 -7 -3 -9 -6c-2 -2 -3 -3 -5 -3c-1 0 -3 2 -5 4c-2 4 -2 8 -3 12c-3 -1 -6 -2 -7 -2c-3 0 -4 4 -4 11c1 11 2 18 2 29l-1 17c0 7 -3 15 -3 22c0 2 0 4 1 6
c0 1 0 2 -1 3c-3 2 -4 3 -4 6c0 2 1 5 2 7c1 7 4 12 8 17c1 2 2 4 2 6c0 3 -2 7 -2 11c0 9 7 15 16 15c3 0 5 -2 6 -7c1 -2 1 -4 2 -7c8 -8 11 -18 11 -28c0 -6 0 -10 -1 -15c-1 -2 -1 -3 -1 -4v-3c19 14 12 34 33 39c-8 5 -16 8 -18 17c-5 18 -16 21 -35 21
c-12 -2 -25 -3 -32 -16c0 0 0 -1 -1 -1c-6 -2 -8 -9 -13 -13c-3 -3 -5 -7 -5 -11c-1 -13 -6 -25 -6 -39c0 -4 1 -7 2 -10c4 -10 4 -20 5 -30c0 -7 0 -15 2 -22c1 -4 2 -7 2 -11l-1 -7c0 -5 4 -9 8 -12s8 -7 11 -11c2 -4 5 -7 10 -8c6 -1 13 -1 20 -1c9 0 18 1 27 8
c-1 -12 -12 -16 -17 -26zM579 344c13 2 24 6 31 18c7 13 23 18 35 18c9 0 17 -4 30 -8c-3 7 -4 12 -4 18v9c0 3 -1 7 -5 8c1 -1 2 -3 2 -5s-2 -5 -4 -7c0 -1 -2 -3 -3 -3c-11 4 -21 1 -34 5v1c0 1 1 3 1 4c0 4 -2 6 -2 10s1 7 2 12c-1 4 -2 6 -2 11c0 6 1 11 1 16v8
c0 9 5 12 15 12h6c7 -1 11 -3 11 -11v-8c4 4 5 9 5 14c0 4 0 7 -3 10c-4 5 -6 9 -6 16l-2 -1c-3 -4 -6 -5 -10 -5l-12 1c-2 0 -3 1 -4 3v7c0 6 0 12 1 18l-1 8c0 3 1 5 4 7c-1 5 -3 9 -3 14c0 6 0 9 7 9c5 0 11 -2 12 -5c0 -3 1 -4 2 -4s2 1 4 2c10 9 23 12 34 20
c2 2 6 5 8 11c-10 -8 -19 -12 -29 -13c1 4 6 5 6 9c-3 0 -5 -2 -8 -3c-4 -4 -11 -9 -17 -9h-3c-9 3 -19 3 -29 4c-13 0 -21 -9 -33 -18c-4 -3 -6 -8 -9 -12v-2s0 0 1 -1h2c7 9 9 11 19 13c5 0 8 -3 8 -8s-5 -7 -5 -10c0 -5 5 -6 5 -11v-20c0 -17 -4 -32 -4 -48
c0 -12 3 -23 3 -36c0 -7 -3 -12 -3 -19c0 -5 2 -8 2 -13c0 -12 -7 -25 -18 -32c-1 -1 -4 -1 -4 -4zM682 294c19 5 30 21 34 38c3 10 10 16 18 19c4 2 5 2 5 5c0 1 0 2 -1 2c-6 6 -9 12 -9 20c0 2 0 6 1 9c-1 3 -1 7 -1 10c0 7 2 15 2 22c0 5 -1 8 -2 12c0 2 1 5 2 5
c3 0 4 -4 4 -6c1 -8 5 -15 7 -22c4 -13 16 -21 19 -35c2 -6 4 -13 7 -19c5 -7 8 -14 8 -21c0 -6 -3 -9 -4 -15c0 -1 1 -2 3 -2c1 0 2 0 3 1c6 6 12 8 19 8c5 0 10 -1 15 -3c4 0 9 -5 14 -5l2 1c-2 3 -4 6 -6 8c-6 4 -10 11 -15 17c-3 5 -6 12 -10 16c-6 6 -10 14 -13 21
c-1 2 -2 5 -4 7c-4 4 -4 9 -4 15c3 -2 3 -5 5 -6c2 -3 2 -5 7 -5c-9 11 -14 21 -15 34c0 3 1 5 5 7c25 19 34 46 34 77c0 14 -2 28 -5 42c-1 5 -1 10 -4 14c-3 5 -4 10 -4 16l-3 12c-2 7 -8 10 -12 16c-3 6 -7 9 -12 9c-8 0 -17 -6 -25 -15l-12 -13c-3 4 -4 8 -4 13l1 16
c-6 -3 -11 -5 -17 -5l-11 1c-12 0 -22 -10 -23 -22c5 3 11 8 15 8c5 0 8 -10 8 -16c0 -5 -1 -10 -5 -14c7 -4 7 -10 7 -16v-23c0 -25 -4 -49 -4 -74s2 -37 3 -61l-1 -13c0 -5 -1 -11 -1 -16c0 -9 1 -12 1 -21c0 -19 -6 -35 -20 -48c-1 -2 -2 -2 -2 -5zM749 446
c-4 0 -8 1 -14 4c-3 2 -5 5 -5 9c0 14 3 21 3 35c0 19 0 37 1 56c1 12 8 22 18 29c1 1 2 1 3 1s2 0 4 -1c13 -8 16 -24 16 -40c0 -12 -2 -24 -6 -36c-1 -4 -2 -6 -2 -11c8 10 8 22 13 32c1 -2 2 -3 2 -5l-5 -38c0 -6 -1 -11 -6 -15c-3 -2 -4 -6 -6 -9c-5 -8 -10 -11 -16 -11
zM134 -68c16 3 26 14 31 30c4 13 10 24 23 28c2 0 2 2 2 3c0 2 -3 5 -5 8c-3 3 -5 6 -5 11l1 11c-1 10 0 5 -1 16c0 5 2 9 2 14c0 2 0 5 -1 8l-1 11c0 9 2 19 2 28l-1 10c3 8 3 14 3 22v6v3c0 2 0 2 1 3l14 -24c3 -6 6 -11 8 -17l22 -70c3 -8 4 -16 4 -25
c0 -8 -2 -15 -4 -25c9 7 15 11 23 11c9 0 28 -6 42 -15l2 2l-16 17c-3 3 -6 7 -6 11l1 9c0 6 -1 11 -1 17s2 10 2 16l-1 14c0 37 1 44 1 78l-1 34l1 33v4c4 1 4 3 4 4c0 2 -2 4 -3 6c-2 4 -3 9 -3 13c0 18 16 35 17 56l-11 -19c-6 -13 -17 -19 -30 -21c-3 -1 -5 0 -7 -3
c3 -4 5 -8 5 -13c0 -2 0 -4 -1 -6c2 -16 5 -27 5 -43c0 -18 -3 -35 -3 -53c0 -11 2 -22 2 -32c-1 -10 -2 -19 -2 -29c1 -10 0 -6 2 -17c0 -1 -1 -3 -2 -4c-3 1 -3 3 -3 5c-6 14 -10 29 -13 44c-2 5 -3 9 -6 13c-5 5 -7 11 -9 18l-12 39c-8 25 -24 49 -24 75c0 4 1 8 2 12
c-6 -2 -12 -5 -18 -5c-3 0 -8 2 -11 2c-10 0 -20 -8 -23 -23c6 4 12 8 16 8s6 -7 7 -14c0 -7 -1 -11 -5 -17c6 -3 7 -8 7 -13c0 -10 1 -20 1 -30c0 -22 -4 -44 -4 -69c0 -17 1 -34 1 -52c0 -5 2 -8 2 -11c-1 -12 -4 -17 -4 -27c1 -10 2 -12 2 -21c0 -13 -4 -25 -8 -37
c-3 -6 -6 -11 -11 -14c-1 -1 -3 -2 -3 -3c0 0 0 -1 1 -1zM288 0c14 2 26 7 32 21c5 8 11 14 21 16c1 1 3 0 3 2c0 5 -9 5 -9 14s0 18 4 26c1 4 2 8 2 12c0 12 -1 22 -2 33c-1 6 -2 13 -2 19c1 10 1 5 1 16c0 8 -3 15 -3 24l1 14c0 6 -1 7 -3 13c0 2 1 5 2 7c3 11 9 22 22 28
l-2 1h-2c-15 -3 -24 -12 -31 -24c-5 -9 -10 -13 -19 -13l-6 1c-2 1 -4 1 -6 1h-3c9 -10 21 -10 21 -17v-6v-5v-34l-1 -7c0 -7 5 -12 5 -16c0 -1 -1 -3 -2 -5c-3 -7 -5 -14 -8 -23c5 4 5 6 8 6c1 0 3 -2 3 -2c0 -2 -1 -3 -1 -4c-3 -6 -3 -12 -3 -17c0 -6 1 -10 1 -16
c0 -5 -3 -11 -3 -16s2 -10 2 -14c0 -2 0 -5 -1 -7c-4 -12 -10 -22 -21 -28zM425 14c17 10 30 19 44 19c4 0 7 0 11 -2c1 0 2 1 2 2c-2 3 -5 4 -8 6c-7 5 -11 12 -11 19c0 8 4 17 4 27c0 13 0 17 -2 31c0 3 2 5 2 9v2c-5 -4 -10 -6 -15 -6s-7 2 -12 3c-2 0 -4 -1 -6 -2
s-5 -1 -8 -1c-4 0 -9 2 -12 7v-2c0 -12 11 -16 13 -26l7 4c1 2 4 4 6 4s4 -3 4 -5c-1 -13 -2 -18 -4 -31c0 -6 -4 -14 -11 -16c-3 -1 -6 -3 -9 -6c-2 -2 -3 -3 -4 -3c-2 0 -4 2 -5 5c-2 3 -2 7 -4 12c-3 -2 -5 -3 -7 -3c-3 0 -3 4 -4 11c1 11 2 18 2 29v18c0 7 -4 14 -4 21
c0 3 0 4 1 7c0 0 0 2 -1 2c-3 2 -4 4 -4 6s2 5 2 7c1 7 4 12 8 17c2 2 2 4 2 6c0 3 -2 7 -2 11c0 9 7 15 16 15c4 0 6 -2 7 -7c0 -2 0 -4 2 -6c8 -9 11 -19 11 -29c0 -5 -1 -10 -2 -15c0 -1 -1 -3 -1 -4s0 -1 1 -2c18 14 11 33 32 38c-8 5 -15 8 -18 17c-5 19 -15 21 -35 21
c-12 -2 -25 -2 -31 -16l-1 -1c-7 -2 -9 -9 -14 -13c-2 -3 -5 -7 -5 -11c0 -13 -5 -25 -5 -39c0 -3 0 -7 2 -10c6 -18 2 -35 7 -52c0 -3 1 -7 1 -11l-1 -7c0 -5 4 -9 8 -12c5 -3 8 -7 11 -11s5 -7 10 -7c7 -1 14 -2 21 -2c9 0 18 2 26 8c-1 -12 -12 -16 -17 -26zM476 3
c12 3 23 6 29 17c6 10 13 20 26 21l2 2c0 1 -1 2 -1 2c-7 3 -9 9 -9 15v6v1l-1 5c0 4 2 7 2 10c0 6 -1 10 -1 14c0 6 1 13 1 19c0 13 2 16 12 16c5 -1 11 -1 15 -5c1 0 2 -1 3 -1c5 2 7 2 15 3l-1 -7c0 -6 5 -11 5 -16c-3 -13 -8 -13 -19 -21l4 -1c3 0 6 3 9 3
c2 0 3 -2 3 -3c0 -2 -1 -5 -1 -7c0 -3 2 -4 2 -7c0 -6 -4 -11 -7 -15l-14 -17c-1 -1 -2 -2 -2 -3l1 -2c10 7 16 10 24 10c9 0 27 -4 39 -11c1 0 2 -1 3 -1h1c0 3 -1 5 -4 6c-4 4 -8 6 -13 9c-2 2 -5 5 -5 7l1 7c0 3 -1 6 -1 9s1 6 3 8c3 5 5 10 5 15c0 3 -2 8 -2 12s3 6 3 9
c0 6 -7 13 -7 20v49c0 1 0 4 1 4c2 1 3 2 3 3s-2 3 -3 4c-2 3 -3 5 -3 8c0 12 16 21 17 37c-11 -19 -26 -27 -48 -27c5 -7 7 -10 7 -16l-1 -12v-3c3 -5 3 -11 3 -17c-1 -13 -3 -13 -16 -17c-2 0 -4 2 -6 6c-3 -3 -7 -6 -11 -6c-1 0 -3 0 -5 1h-5c-5 0 -5 2 -5 7v33
c0 1 0 2 1 2c2 0 3 1 3 2s-1 3 -2 4c-1 4 -2 7 -2 10c0 5 3 9 9 14c2 2 4 2 4 5h-3c-4 0 -8 -1 -11 -4c-6 -4 -13 -6 -20 -6l-8 1c-9 0 -16 -6 -21 -14c5 0 6 2 11 2c6 0 11 -5 11 -11c0 -2 0 -3 -1 -6c0 -2 3 -4 3 -8l1 -11c0 -10 -2 -19 -8 -28c-4 -7 -7 -16 -7 -26
c0 -4 4 -7 6 -11l7 -23c1 -3 2 -6 2 -9c-1 -8 -3 -10 -3 -17c0 -6 1 -7 2 -12c-2 -15 -7 -27 -20 -34c-1 -1 -2 -1 -2 -3zM602 -62c19 5 29 21 35 40c2 11 10 16 19 20l3 1c2 0 4 -1 6 -2s3 -4 5 -4s2 1 3 3c0 3 -2 5 -3 8c0 0 0 1 -1 1c-7 10 -7 23 -13 33
c0 13 -3 25 -3 37c1 15 2 16 2 30c0 10 -1 15 -2 24c2 9 4 13 4 21c0 5 -1 11 -2 17c-2 13 -3 19 -4 33c0 16 4 31 6 46c1 5 4 9 8 9l4 -1c2 -1 4 -2 6 -2l2 1c-1 3 -4 4 -6 4c-3 2 -8 4 -8 6c0 1 1 3 2 3c8 0 13 -3 20 -5c1 -1 2 -2 2 -4c2 -4 3 -7 7 -10c1 0 2 -1 2 -2
c3 -12 7 -23 7 -35c0 -7 -2 -11 -2 -19c10 11 12 33 18 56c2 9 5 18 13 23c1 1 2 2 2 3c0 2 -1 3 -2 3l-3 -1c-2 0 -5 -1 -7 -1c-6 2 -8 4 -14 4c-5 0 -8 1 -13 2c-4 -1 -5 -2 -9 -2c-7 0 -13 7 -21 7l-3 -1c-3 -1 -6 -3 -8 -3s-4 0 -5 2l-12 -4c-1 0 -3 -2 -4 -2
c-4 3 -5 4 -10 4c-21 0 -35 -4 -58 -4c-5 0 -7 -3 -7 -9s2 -10 2 -16c0 -14 -10 -25 -10 -41c0 -5 2 -11 5 -17c3 21 8 45 22 60c2 3 4 5 7 6c6 1 12 -1 17 3h1c11 -2 21 -11 21 -20l-1 -10l1 -15c0 -6 -2 -11 -2 -16c0 -6 2 -12 2 -19c0 -9 -1 -10 -2 -20c0 -9 5 -18 5 -26
c0 -3 -1 -5 -1 -8l-8 -33c4 1 4 7 7 7c2 -1 3 -1 3 -4c-1 -12 -4 -20 -4 -29l1 -15c0 -12 0 -15 -1 -26c-1 -5 -2 -9 -2 -14c1 -9 3 -12 3 -20c0 -13 -5 -26 -9 -38c-3 -6 -6 -11 -11 -14c-1 -1 -2 -2 -2 -3v-2z" />
    <glyph glyph-name="nine" unicode="9" horiz-adv-x="828" 
d="M29 286c8 2 12 10 18 15c6 6 13 8 20 13s15 5 22 9s15 3 24 5c-6 4 -12 1 -16 5c1 2 2 3 4 5c15 11 24 24 27 45c0 5 2 10 5 14c6 9 9 18 11 28c3 14 5 27 8 41c4 17 10 34 10 52c0 8 0 20 -5 27c-1 4 -4 7 -4 12c-1 12 -7 22 -10 33c0 2 -1 4 -3 4c-4 4 -7 9 -11 13
c-1 1 -2 4 -4 4c-7 0 -11 5 -18 7c-12 4 -24 3 -36 5c-1 0 -4 -1 -6 -2c-22 -9 -25 -9 -41 -27c-2 -2 -4 -4 -4 -9c4 4 7 7 11 10c3 3 4 4 10 6c4 0 7 -4 7 -7c0 -9 -5 -17 -10 -23c0 -1 -1 -1 -1 -2c1 -1 0 -1 2 -2c2 0 3 3 4 3l2 -1v-10c0 -9 -4 -20 -4 -32
c0 -14 4 -29 4 -42c0 -17 3 -27 3 -44c0 -8 -2 -16 -2 -23c0 -5 2 -9 2 -14v-14c0 -8 0 -15 2 -22c1 -7 4 -14 4 -22c-1 -14 -3 -27 -12 -38c-5 -7 -10 -14 -13 -22zM82 346c-6 1 -8 1 -8 7c0 15 1 17 2 33c-2 30 0 25 -4 52c1 4 1 9 1 13v13v8v16c0 3 0 6 1 9
c5 -1 8 -5 14 -5c0 2 -3 2 -4 4c-7 8 -11 17 -11 28c1 23 0 46 2 69c1 8 4 17 9 17c3 0 9 -6 14 -9c12 -8 12 -25 22 -38c3 -4 5 -9 5 -14c0 -14 -8 -25 -14 -35c-1 -2 -3 -4 -4 -7c9 6 15 14 20 24c5 -4 6 -10 7 -15c1 -6 3 -13 3 -20l-1 -6c-2 -10 -2 -22 -5 -32
c-5 -19 -2 -39 -14 -53c-5 -6 -8 -11 -8 -20c0 -3 0 -5 -2 -7c-6 -10 -13 -21 -20 -29c-1 -2 -3 -3 -5 -3zM298 337c15 2 27 9 33 22c4 9 11 13 19 15c2 1 5 0 5 3c0 2 -2 3 -4 4c-4 3 -6 5 -6 10c0 4 1 4 1 8v22c0 3 0 7 -1 10c0 3 1 3 2 7l-2 10c0 6 4 12 4 17v7
c0 1 0 2 1 3c7 -9 17 -17 22 -27c7 -14 14 -29 22 -44c2 -6 4 -11 4 -17c0 -5 -1 -9 -3 -14l1 -1c7 4 14 6 21 6c13 0 29 -6 42 -9c-4 4 -9 8 -14 12c-4 2 -6 5 -6 9l1 6c0 4 -1 4 -1 9c0 3 2 6 2 10c0 5 -1 7 -2 12c1 6 2 10 2 16v20v56c0 3 4 3 4 4c-3 6 -6 8 -6 13
c0 7 6 12 10 19c3 5 6 10 7 17c-11 -18 -26 -27 -48 -27c2 -3 6 -6 6 -9l-2 -7c0 -3 2 -8 3 -11c1 -6 2 -11 2 -16c0 -13 -3 -21 -3 -35c0 -5 0 -10 1 -15c0 -8 -1 -13 -1 -21c0 -5 1 -7 1 -12c0 -1 0 -3 -3 -3c-7 10 -9 18 -14 31c-2 3 -3 7 -7 10c-4 2 -6 7 -8 11
c-7 15 -15 30 -24 44c-6 9 -12 19 -12 31l1 6c-5 0 -9 -2 -13 -2s-8 0 -13 1c-12 0 -20 -4 -26 -15c10 4 5 4 15 5c5 0 9 -4 9 -10c0 -4 -1 -5 -3 -9c0 -1 0 -1 1 -2c4 -3 4 -8 4 -13c0 -14 0 -28 -2 -43c-1 -6 -2 -12 -2 -18c0 -7 1 -14 2 -21c1 -6 1 -11 1 -17
s-3 -11 -3 -19c0 -4 3 -9 3 -12c-2 -12 -5 -22 -13 -29c-4 6 -8 14 -14 21c-24 23 -27 24 -36 57c4 -4 5 -4 8 -4l-2 3c-12 14 -14 32 -18 49c-3 13 -7 26 -10 39c-2 13 -8 26 -8 34c0 6 3 11 8 14c3 2 5 4 7 8c-11 -5 -11 -5 -26 -5c-16 0 -32 -8 -32 -23v-3
c4 9 11 14 15 14s4 -4 4 -11c-2 -19 -7 -27 -12 -44c-4 -14 -11 -27 -13 -42c0 -2 -1 -4 -2 -5c-4 -12 -6 -23 -10 -33c-5 -14 -11 -28 -23 -38l-4 -4l-4 -6c12 6 25 13 37 13c8 0 15 -2 24 -3c-6 4 -10 7 -15 8c-7 3 -8 8 -9 16c0 5 2 10 6 13c16 12 16 14 34 14
c4 0 8 3 11 3c1 0 3 -2 3 -5c3 -12 5 -19 6 -31c0 -7 -2 -13 -9 -17v-1v-2c7 2 14 2 20 2c25 0 46 -9 61 -33l-3 -3c-1 0 -4 0 -4 -3zM180 429l10 29c3 -2 2 -5 6 -7c0 22 5 35 10 57c5 -13 6 -20 8 -32c0 -8 -4 -14 -9 -21c6 1 8 6 11 8c5 -5 4 -13 6 -20c0 -3 -3 -6 -8 -6
c-11 -1 -22 -4 -34 -8zM529 355c16 10 29 19 43 19c4 0 7 -1 11 -2c1 0 2 1 3 2c-2 3 -6 4 -8 6c-7 5 -11 11 -11 18c0 9 4 18 4 28c-1 13 0 17 -2 31c0 2 2 5 2 8l-1 3c-5 -4 -10 -6 -15 -6c-4 0 -7 1 -12 3c-1 0 -3 -1 -5 -2c-3 -1 -6 -1 -8 -1c-5 0 -9 2 -13 7v-3
c0 -11 12 -15 13 -25c3 1 5 3 7 4c2 2 4 3 6 3c3 0 5 -2 5 -4c-1 -13 -3 -18 -4 -31c-1 -6 -4 -14 -11 -16c-4 -1 -7 -3 -9 -6c-2 -2 -4 -3 -5 -3s-3 2 -5 4c-2 4 -2 8 -3 12c-3 -1 -6 -2 -7 -2c-3 0 -4 4 -5 11c2 11 3 18 3 29l-1 17c0 7 -3 15 -3 22c0 2 0 4 1 6
c0 1 -1 2 -1 3c-3 2 -4 3 -4 6c0 2 1 5 2 7c1 7 4 12 7 17c2 2 3 4 3 6c0 3 -3 7 -3 11c0 9 8 15 17 15c3 0 5 -2 6 -7c0 -2 0 -4 2 -7c8 -8 11 -18 11 -28c0 -6 0 -10 -2 -15v-4v-3c19 14 11 34 33 39c-9 5 -16 8 -18 17c-5 18 -16 21 -35 21c-12 -2 -25 -3 -32 -16
c0 0 0 -1 -1 -1c-6 -2 -9 -9 -13 -13c-3 -3 -5 -7 -5 -11c-1 -13 -6 -25 -6 -39c0 -4 1 -7 2 -10c4 -10 4 -20 5 -30c0 -7 0 -15 2 -22c1 -4 2 -7 2 -11l-1 -7c0 -5 4 -9 8 -12s8 -7 11 -11c2 -4 5 -7 9 -8c7 -1 14 -1 21 -1c9 0 18 1 27 8c-1 -12 -12 -16 -17 -26zM579 344
c13 2 24 6 31 18c7 13 23 18 35 18c8 0 17 -4 29 -8c-2 7 -3 12 -3 18v9c0 3 -1 7 -5 8c1 -1 2 -3 2 -5s-2 -5 -4 -7c-1 -1 -2 -3 -3 -3c-12 4 -21 1 -34 5v1c0 1 1 3 1 4c0 4 -2 6 -2 10s1 7 2 12c-1 4 -2 6 -2 11c0 6 1 11 1 16v8c0 9 5 12 15 12h6c7 -1 10 -3 11 -11v-8
c3 4 5 9 5 14c0 4 -1 7 -3 10c-4 5 -6 9 -6 16l-3 -1c-2 -4 -6 -5 -9 -5l-12 1c-2 0 -3 1 -4 3v7c0 6 -1 12 1 18l-1 8c0 3 1 5 4 7c-1 5 -3 9 -3 14c0 6 0 9 7 9c5 0 11 -2 11 -5c1 -3 2 -4 3 -4s2 1 3 2c11 9 24 12 34 20c3 2 7 5 9 11c-10 -8 -19 -12 -29 -13
c1 4 6 5 6 9c-3 0 -5 -2 -8 -3c-5 -4 -11 -9 -17 -9h-3c-10 3 -19 3 -29 4c-13 0 -22 -9 -33 -18c-5 -3 -6 -8 -9 -12c-1 -1 -1 -1 -1 -2c1 -1 1 0 2 -1h2c6 9 9 11 18 13c6 0 9 -3 9 -8s-5 -7 -5 -10c0 -5 5 -6 5 -11v-20c0 -17 -4 -32 -4 -48c0 -12 3 -23 3 -36
c0 -7 -3 -12 -3 -19c0 -5 1 -8 1 -13c0 -12 -6 -25 -17 -32c-1 -1 -4 -1 -4 -4zM682 294c19 5 30 21 34 38c3 10 9 16 18 19c3 2 5 2 5 5c0 1 0 2 -1 2c-7 6 -9 12 -9 20c0 2 0 6 1 9c-1 3 -1 7 -1 10c0 7 2 15 2 22c0 5 -1 8 -2 12c0 2 1 5 2 5c3 0 3 -4 4 -6
c1 -8 5 -15 7 -22c4 -13 16 -21 19 -35c2 -6 4 -13 7 -19c4 -7 8 -14 8 -21c0 -6 -3 -9 -4 -15c0 -1 1 -2 3 -2c1 0 1 0 2 1c6 6 13 8 20 8c5 0 9 -1 14 -3c5 0 9 -5 15 -5l2 1c-2 3 -4 6 -6 8c-6 4 -10 11 -15 17c-3 5 -6 12 -10 16c-6 6 -10 14 -14 21c-1 2 -1 5 -3 7
c-4 4 -4 9 -4 15c3 -2 3 -5 5 -6c2 -3 2 -5 6 -5c-9 11 -13 21 -14 34c0 3 1 5 4 7c26 19 35 46 35 77c0 14 -2 28 -6 42c-1 5 0 10 -3 14c-3 5 -4 10 -4 16l-3 12c-2 7 -9 10 -12 16s-7 9 -12 9c-8 0 -18 -6 -25 -15l-12 -13c-4 4 -4 8 -4 13v16c-5 -3 -11 -5 -16 -5l-11 1
c-12 0 -22 -10 -23 -22c4 3 11 8 15 8c5 0 8 -10 8 -16c0 -5 -2 -10 -5 -14c7 -4 7 -10 7 -16v-23c0 -25 -4 -49 -4 -74s2 -37 3 -61l-1 -13c-1 -5 -2 -11 -2 -16c1 -9 2 -12 2 -21c0 -19 -6 -35 -20 -48c-2 -2 -2 -2 -2 -5zM749 446c-4 0 -8 1 -14 4c-3 2 -5 5 -5 9
c0 14 2 21 2 35c1 19 0 37 2 56c1 12 8 22 18 29c1 1 1 1 3 1c1 0 2 0 4 -1c13 -8 16 -24 16 -40c0 -12 -3 -24 -6 -36c-1 -4 -2 -6 -2 -11c8 10 8 22 13 32c1 -2 2 -3 2 -5l-5 -38c-1 -6 -1 -11 -7 -15c-2 -2 -3 -6 -5 -9c-6 -8 -10 -11 -16 -11zM134 -68c15 3 25 14 31 30
c4 13 10 24 23 28c2 0 2 2 2 3c0 2 -3 5 -5 8c-3 3 -5 6 -5 11l1 11c-1 10 0 5 -1 16c0 5 2 9 2 14c0 2 0 5 -1 8l-1 11c0 9 2 19 2 28l-1 10c3 8 3 14 3 22v6l-1 3c0 2 1 2 2 3l14 -24c3 -6 5 -11 8 -17l22 -70c3 -8 4 -16 4 -25c0 -8 -2 -15 -4 -25c9 7 15 11 22 11
c10 0 29 -6 43 -15l1 2l-15 17c-3 3 -6 7 -6 11l1 9c0 6 -1 11 -1 17s2 10 2 16l-1 14c0 37 1 44 1 78l-1 34l1 33v4c3 1 4 3 4 4c0 2 -2 4 -3 6c-2 4 -3 9 -3 13c0 18 16 35 17 56l-11 -19c-6 -13 -17 -19 -30 -21c-3 -1 -6 0 -7 -3c3 -4 5 -8 5 -13c0 -2 0 -4 -1 -6
c2 -16 5 -27 5 -43c0 -18 -3 -35 -3 -53c0 -11 1 -22 1 -32s-1 -19 -1 -29c1 -10 0 -6 1 -17c0 -1 0 -3 -1 -4c-3 1 -3 3 -4 5c-5 14 -9 29 -12 44c-2 5 -3 9 -6 13c-5 5 -7 11 -9 18l-12 39c-8 25 -24 49 -24 75c0 4 0 8 1 12c-6 -2 -11 -5 -17 -5c-4 0 -8 2 -12 2
c-9 0 -19 -8 -23 -23c7 4 13 8 17 8s6 -7 7 -14c0 -7 -1 -11 -5 -17c6 -3 7 -8 7 -13c0 -10 1 -20 1 -30c0 -22 -5 -44 -5 -69c0 -17 1 -34 2 -52c0 -5 2 -8 2 -11c-1 -12 -4 -17 -4 -27c1 -10 2 -12 2 -21c0 -13 -4 -25 -8 -37c-3 -6 -6 -11 -11 -14c-1 -1 -3 -2 -3 -3
c0 0 0 -1 1 -1zM288 0c14 2 25 7 32 21c4 8 11 14 21 16c1 1 3 0 3 2c0 5 -9 5 -9 14s0 18 4 26c1 4 2 8 2 12c0 12 -1 22 -2 33c-1 6 -2 13 -2 19c1 10 0 5 1 16c0 8 -3 15 -3 24v14c0 6 -1 7 -2 13c0 2 1 5 2 7c3 11 9 22 22 28l-2 1h-3c-14 -3 -23 -12 -30 -24
c-5 -9 -10 -13 -19 -13l-7 1c-1 1 -3 1 -5 1h-3c9 -10 21 -10 21 -17l-1 -6l1 -5c0 -11 0 -23 -1 -34l-1 -7c0 -7 6 -12 6 -16c0 -1 -1 -3 -2 -5c-3 -7 -5 -14 -8 -23c5 4 5 6 8 6c1 0 2 -2 2 -2v-4c-3 -6 -3 -12 -3 -17c0 -6 1 -10 1 -16c0 -5 -3 -11 -3 -16s2 -10 2 -14
c0 -2 0 -5 -1 -7c-4 -12 -10 -22 -21 -28zM425 14c17 10 29 19 44 19c3 0 7 0 11 -2c1 0 2 1 2 2c-2 3 -5 4 -8 6c-7 5 -11 12 -11 19c0 8 4 17 4 27c-1 13 0 17 -2 31c0 3 2 5 2 9l-1 2c-5 -4 -9 -6 -14 -6s-7 2 -12 3c-2 0 -4 -1 -6 -2s-5 -1 -8 -1c-5 0 -9 2 -12 7v-2
c0 -12 11 -16 12 -26l7 4c2 2 5 4 7 4s4 -3 4 -5c-1 -13 -2 -18 -4 -31c-1 -6 -4 -14 -11 -16c-3 -1 -7 -3 -9 -6c-2 -2 -3 -3 -5 -3c-1 0 -3 2 -5 5c-1 3 -1 7 -3 12c-3 -2 -5 -3 -7 -3c-3 0 -3 4 -4 11c1 11 2 18 2 29v18c0 7 -4 14 -4 21c0 3 0 4 1 7c0 0 0 2 -1 2
c-3 2 -4 4 -4 6s2 5 2 7c1 7 4 12 8 17c2 2 2 4 2 6c0 3 -2 7 -2 11c0 9 7 15 16 15c4 0 5 -2 6 -7c1 -2 1 -4 3 -6c7 -9 11 -19 11 -29c0 -5 -1 -10 -2 -15c-1 -1 -1 -3 -1 -4v-2c19 14 12 33 33 38c-8 5 -16 8 -18 17c-5 19 -16 21 -35 21c-12 -2 -25 -2 -32 -16v-1
c-7 -2 -9 -9 -14 -13c-3 -3 -5 -7 -5 -11c-1 -13 -5 -25 -5 -39c0 -3 0 -7 1 -10c7 -18 3 -35 7 -52c1 -3 2 -7 2 -11l-1 -7c0 -5 4 -9 8 -12c5 -3 8 -7 11 -11c2 -4 5 -7 10 -7c7 -1 14 -2 20 -2c10 0 18 2 27 8c-1 -12 -12 -16 -17 -26zM476 3c12 3 23 6 29 17
c6 10 13 20 26 21l2 2c0 1 -1 2 -1 2c-7 3 -9 9 -9 15v6v1l-1 5c0 4 2 7 2 10c0 6 -1 10 -1 14v19c0 13 3 16 13 16c5 -1 10 -1 15 -5c1 0 1 -1 2 -1c6 2 8 2 16 3l-1 -7c0 -6 5 -11 5 -16c-3 -13 -8 -13 -19 -21l4 -1c3 0 6 3 9 3c2 0 3 -2 3 -3c0 -2 -1 -5 -1 -7
c0 -3 1 -4 1 -7c0 -6 -3 -11 -7 -15l-13 -17c-1 -1 -2 -2 -2 -3l1 -2c9 7 16 10 24 10c9 0 27 -4 39 -11c1 0 2 -1 3 -1h1c0 3 -1 5 -4 6c-4 4 -8 6 -13 9c-2 2 -5 5 -5 7l1 7c0 3 -1 6 -1 9s1 6 3 8c3 5 5 10 5 15c0 3 -2 8 -2 12s3 6 3 9c0 6 -7 13 -7 20v49c0 1 0 4 1 4
c2 1 3 2 3 3s-3 3 -3 4c-2 3 -3 5 -3 8c0 12 16 21 17 37c-11 -19 -26 -27 -48 -27c5 -7 7 -10 7 -16l-1 -12v-3c3 -5 3 -11 3 -17c-1 -13 -3 -13 -16 -17c-3 0 -4 2 -6 6c-4 -3 -7 -6 -11 -6c-1 0 -3 0 -5 1h-5c-5 0 -6 2 -6 7l1 33c0 1 0 2 1 2c2 0 3 1 3 2s-1 3 -2 4
c-1 4 -2 7 -2 10c0 5 3 9 9 14c1 2 3 2 3 5h-2c-4 0 -8 -1 -11 -4c-6 -4 -13 -6 -20 -6l-8 1c-9 0 -16 -6 -21 -14c5 0 6 2 10 2c6 0 12 -5 12 -11c0 -2 -1 -3 -1 -6c0 -2 3 -4 3 -8l1 -11c0 -10 -2 -19 -8 -28c-4 -7 -8 -16 -8 -26c0 -4 5 -7 7 -11l7 -23c1 -3 2 -6 2 -9
c-2 -8 -3 -10 -3 -17c0 -6 1 -7 2 -12c-2 -15 -7 -27 -20 -34c-1 -1 -2 -1 -2 -3zM602 -62c19 5 29 21 35 40c2 11 10 16 18 20l4 1c2 0 4 -1 6 -2c1 -1 3 -4 5 -4s2 1 3 3c0 3 -2 5 -3 8c0 0 0 1 -1 1c-7 10 -8 23 -13 33c-1 13 -3 25 -3 37c1 15 2 16 2 30
c0 10 -1 15 -2 24c2 9 4 13 4 21c0 5 -1 11 -2 17c-2 13 -3 19 -4 33c0 16 3 31 6 46c1 5 4 9 8 9l4 -1c2 -1 4 -2 6 -2l2 1c-1 3 -4 4 -6 4c-3 2 -8 4 -8 6c0 1 1 3 2 3c8 0 13 -3 20 -5c1 -1 2 -2 2 -4c1 -4 3 -7 7 -10c1 0 2 -1 2 -2c3 -12 7 -23 7 -35
c0 -7 -3 -11 -3 -19c10 11 12 33 19 56c2 9 5 18 13 23c1 1 2 2 2 3c-1 2 -1 3 -2 3l-3 -1c-2 0 -5 -1 -7 -1c-6 2 -8 4 -14 4c-5 0 -8 1 -13 2c-4 -1 -5 -2 -9 -2c-7 0 -13 7 -21 7l-4 -1c-2 -1 -5 -3 -7 -3s-4 0 -5 2l-12 -4c-1 0 -3 -2 -4 -2c-4 3 -6 4 -10 4
c-21 0 -35 -4 -58 -4c-5 0 -7 -3 -7 -9s2 -10 2 -16c0 -14 -10 -25 -10 -41c0 -5 1 -11 5 -17c2 21 8 45 22 60c2 3 4 5 7 6c6 1 12 -1 17 3h1c11 -2 21 -11 21 -20l-1 -10l1 -15c0 -6 -2 -11 -2 -16c0 -6 2 -12 2 -19c0 -9 -1 -10 -2 -20c0 -9 4 -18 4 -26v-8l-8 -33
c4 1 4 7 7 7c2 -1 3 -1 3 -4c-2 -12 -4 -20 -4 -29l1 -15c0 -12 0 -15 -1 -26c-1 -5 -2 -9 -2 -14c1 -9 3 -12 3 -20c0 -13 -5 -26 -10 -38c-2 -6 -6 -11 -10 -14c-1 -1 -2 -2 -2 -3v-2z" />
    <glyph glyph-name="colon" unicode=":" horiz-adv-x="117" 
d="M98 3l8 32h3c2 0 3 0 4 1s1 2 1 3l-2 9c0 1 0 3 1 4s1 2 2 3c1 2 2 4 2 5v1c-2 2 -3 4 -4 7s-1 5 -1 8v6c-2 7 -4 12 -7 15c-3 2 -8 3 -16 3h-7c-6 0 -12 1 -18 4l-3 1c-1 0 -3 -1 -5 -3l-20 -15c-6 -4 -9 -9 -9 -16l1 -15c0 -11 -3 -22 -8 -33c0 -1 0 -1 1 -2
c0 -1 0 -2 1 -3c1 1 3 2 5 3s5 3 8 4c7 -11 16 -16 25 -16c7 0 15 2 22 5l12 3l1 -13c1 -1 1 -1 2 -1h1zM98 228l8 32h3c2 0 3 0 4 1s1 2 1 3l-2 9c0 1 0 3 1 4s1 2 2 3c1 2 2 4 2 5v1c-2 2 -3 4 -4 7s-1 5 -1 8v6c-2 7 -4 12 -7 15c-3 2 -8 3 -16 3h-7c-6 0 -12 1 -18 4
l-3 1c-1 0 -3 -1 -5 -3l-20 -15c-6 -4 -9 -9 -9 -16l1 -15c0 -11 -3 -22 -8 -33c0 -1 0 -1 1 -2c0 -1 0 -2 1 -3c1 1 3 2 5 3s5 3 8 4c7 -11 16 -16 25 -16c7 0 15 2 22 5l12 3l1 -13c1 -1 1 -1 2 -1h1z" />
    <glyph glyph-name="semicolon" unicode=";" horiz-adv-x="117" 
d="M98 228l8 32h3c2 0 3 0 4 1s1 2 1 3l-2 9c0 1 0 3 1 4s1 2 2 3c1 2 2 4 2 5v1c-2 2 -3 4 -4 7s-1 5 -1 8v6c-2 7 -4 12 -7 15c-3 2 -8 3 -16 3h-7c-6 0 -12 1 -18 4l-3 1c-1 0 -3 -1 -5 -3l-20 -15c-6 -4 -9 -9 -9 -16l1 -15c0 -11 -3 -22 -8 -33c0 -1 0 -1 1 -2
c0 -1 0 -2 1 -3c1 1 3 2 5 3s5 3 8 4c7 -11 16 -16 25 -16c7 0 15 2 22 5l12 3l1 -13c1 -1 1 -1 2 -1h1zM28 -55c23 8 45 27 64 56l2 -3c0 -7 1 -11 4 -12l7 26v5c5 0 8 3 8 10v5v4l3 3s1 3 1 4c-3 4 -5 10 -5 17c0 6 -2 13 -6 19c-4 3 -10 4 -18 4c-11 0 -20 1 -27 4h-1
c-3 -1 -11 -7 -24 -17c-6 -4 -9 -9 -9 -16l1 -15c0 -11 -3 -22 -8 -33l2 -5c2 0 4 1 7 4c2 2 4 3 6 3l4 -4c1 -2 2 -4 3 -5c1 -2 3 -3 6 -4s5 -3 5 -6c-4 -8 -12 -23 -25 -44z" />
    <glyph glyph-name="semicolon" unicode="&#x37e;" horiz-adv-x="117" 
d="M98 228l8 32h3c2 0 3 0 4 1s1 2 1 3l-2 9c0 1 0 3 1 4s1 2 2 3c1 2 2 4 2 5v1c-2 2 -3 4 -4 7s-1 5 -1 8v6c-2 7 -4 12 -7 15c-3 2 -8 3 -16 3h-7c-6 0 -12 1 -18 4l-3 1c-1 0 -3 -1 -5 -3l-20 -15c-6 -4 -9 -9 -9 -16l1 -15c0 -11 -3 -22 -8 -33c0 -1 0 -1 1 -2
c0 -1 0 -2 1 -3c1 1 3 2 5 3s5 3 8 4c7 -11 16 -16 25 -16c7 0 15 2 22 5l12 3l1 -13c1 -1 1 -1 2 -1h1zM28 -55c23 8 45 27 64 56l2 -3c0 -7 1 -11 4 -12l7 26v5c5 0 8 3 8 10v5v4l3 3s1 3 1 4c-3 4 -5 10 -5 17c0 6 -2 13 -6 19c-4 3 -10 4 -18 4c-11 0 -20 1 -27 4h-1
c-3 -1 -11 -7 -24 -17c-6 -4 -9 -9 -9 -16l1 -15c0 -11 -3 -22 -8 -33l2 -5c2 0 4 1 7 4c2 2 4 3 6 3l4 -4c1 -2 2 -4 3 -5c1 -2 3 -3 6 -4s5 -3 5 -6c-4 -8 -12 -23 -25 -44z" />
    <glyph glyph-name="less" unicode="&#x3c;" horiz-adv-x="171" 
d="M171 356c0 8 -5 13 -17 23v-1c0 -6 4 -9 4 -13c0 -2 -1 -4 -2 -5c-10 -9 -19 -20 -30 -28c-14 -12 -29 -22 -44 -34c-13 -11 -25 -26 -43 -26c-4 0 -9 1 -13 3h-2c-3 0 -4 -5 -4 -8c0 -4 3 -7 6 -9c22 -16 38 -37 53 -59c2 -3 5 -9 9 -9l4 2c2 1 3 2 4 2l3 -1
c9 -10 21 -17 29 -28c9 -13 20 -25 35 -33c-13 21 -17 44 -17 70l1 13c-5 -3 -9 -4 -13 -4c-8 0 -14 5 -21 11c-9 8 -19 16 -29 23c-5 4 -9 7 -9 12l1 4c1 8 6 12 14 15c11 3 22 6 33 6s21 -3 32 -10l1 -1c1 0 2 1 3 4c-2 6 -3 13 -3 19c0 16 5 31 12 47c2 6 3 10 3 15z" />
    <glyph glyph-name="equal" unicode="=" horiz-adv-x="223" 
d="M25 288c2 0 4 0 5 1s1 1 2 1c6 2 12 4 17 6c11 7 23 10 36 10l9 -1l7 1c3 1 6 1 9 2c10 3 20 4 30 4s20 -3 29 -8l3 -1c1 0 1 0 2 1v3v3c0 1 0 2 1 3s2 1 3 1l5 -1c8 -3 16 -5 24 -6l12 -3c0 1 0 3 -1 4s-1 3 -2 4c-3 2 -4 4 -4 7l1 3c2 6 4 12 7 18v9c0 3 1 6 3 9
c-19 -9 -39 -13 -60 -12c-8 0 -16 0 -24 -1l-10 -1c-21 0 -41 5 -60 14c-5 1 -9 3 -13 4c1 -4 3 -7 6 -9l4 -4c1 -2 1 -4 1 -6v-1c-7 -3 -15 -4 -22 -4s-15 1 -22 2c5 -9 8 -18 8 -27s-4 -17 -11 -24c2 -1 4 -1 5 -1zM25 197c2 0 4 0 5 1s1 1 2 1c6 2 12 4 17 6
c11 7 23 10 36 10l9 -1l7 1c3 1 6 1 9 2c10 3 20 4 30 4s20 -3 29 -8l3 -1c1 0 1 0 2 1v3v3c0 1 0 2 1 3s2 1 3 1l5 -1c8 -3 16 -5 24 -6l12 -3c0 1 0 3 -1 4s-1 3 -2 4c-3 2 -4 4 -4 7l1 3c2 6 4 12 7 18v9c0 3 1 6 3 9c-19 -9 -39 -13 -60 -12c-8 0 -16 0 -24 -1l-10 -1
c-21 0 -41 5 -60 14c-5 1 -9 3 -13 4c1 -4 3 -7 6 -9l4 -4c1 -2 1 -4 1 -6v-1c-7 -3 -15 -4 -22 -4s-15 1 -22 2c5 -9 8 -18 8 -27s-4 -17 -11 -24c2 -1 4 -1 5 -1z" />
    <glyph glyph-name="greater" unicode="&#x3e;" horiz-adv-x="171" 
d="M20 356c0 -5 1 -9 3 -15c7 -16 12 -31 12 -47c0 -6 -1 -13 -3 -19c1 -3 2 -4 3 -4l1 1c11 7 21 10 32 10s22 -3 33 -6c8 -3 13 -7 14 -15l1 -4c0 -5 -4 -8 -9 -12c-10 -7 -20 -15 -29 -23c-7 -6 -13 -11 -21 -11c-4 0 -8 1 -13 4l1 -13c0 -26 -4 -49 -17 -70
c15 8 26 20 35 33c8 11 20 18 29 28l3 1c1 0 2 -1 4 -2l4 -2c4 0 7 6 9 9c15 22 31 43 53 59c3 2 6 5 6 9c0 3 -1 8 -4 8h-2c-4 -2 -9 -3 -13 -3c-18 0 -30 15 -43 26c-15 12 -30 22 -44 34c-11 8 -20 19 -30 28c-1 1 -2 3 -2 5c0 4 4 7 4 13v1c-12 -10 -17 -15 -17 -23z
" />
    <glyph glyph-name="question" unicode="?" horiz-adv-x="294" 
d="M134 77l1 40c0 27 -2 43 -5 48l-1 5c2 25 7 44 14 59c7 14 14 29 21 44c-12 -7 -20 -15 -24 -24c-3 -5 -6 -8 -8 -8c-5 3 -7 6 -7 9c0 2 1 4 2 7c1 2 3 4 4 6c1 1 1 3 2 4c20 31 45 58 76 80l3 2c-9 -23 -14 -36 -15 -38c-3 -5 -5 -10 -5 -15l1 -5c3 0 4 0 5 1
c23 47 48 87 73 120l13 20c7 14 10 30 10 47c0 16 -3 31 -9 46c-6 14 -15 23 -28 28c-19 7 -35 21 -48 40c-5 7 -9 10 -13 11c0 -7 1 -12 3 -15s3 -9 3 -17c-21 8 -43 13 -66 14c-29 0 -50 -16 -65 -48c-7 -16 -15 -24 -26 -24c-5 0 -10 1 -15 4c-1 0 -2 0 -3 1s-2 1 -3 1
s-3 -1 -4 -2c9 -23 23 -34 42 -35h27c17 0 32 -7 45 -22c0 -1 0 -1 1 -2l3 -3s1 -2 2 -2c3 2 5 4 5 6c0 3 -1 6 -4 9c-1 3 -2 6 -4 9c-4 10 -6 20 -6 29c0 18 7 33 22 45c3 1 5 2 6 2c3 0 6 -2 8 -5c6 -9 13 -17 21 -22c13 -12 20 -27 20 -45c0 -10 -2 -19 -7 -28
c-17 -31 -38 -56 -63 -75c-19 -13 -32 -28 -37 -45s-13 -32 -23 -43c-13 -18 -20 -40 -21 -66c0 -18 -1 -31 -2 -38s-2 -14 -2 -21c0 -10 3 -27 9 -52l-4 -10c-1 -1 -1 -2 -2 -3s-2 -3 -2 -6c2 -5 4 -7 5 -7c2 0 4 1 5 2c9 3 17 5 26 5c16 0 31 -6 44 -18zM119 -32l8 32h3
c2 0 3 0 4 1s1 2 1 3l-2 9c0 1 0 3 1 4s1 2 2 3c1 2 2 4 2 5v1c-2 2 -3 4 -4 7s-1 5 -1 8v6c-2 7 -4 12 -7 15c-3 2 -8 3 -16 3h-7c-6 0 -12 1 -18 4l-3 1c-1 0 -3 -1 -5 -3l-20 -15c-6 -4 -9 -9 -9 -16l1 -15c0 -11 -3 -22 -8 -33c0 -1 0 -1 1 -2c0 -1 0 -2 1 -3
c1 1 3 2 5 3s5 3 8 4c7 -11 16 -16 25 -16c7 0 15 2 22 5l12 3l1 -13c1 -1 1 -1 2 -1h1z" />
    <glyph glyph-name="at" unicode="@" horiz-adv-x="307" 
d="M176 241l-3 56l-15 -29zM148 26c4 0 8 7 10 22c2 9 5 17 10 25c0 -9 0 -14 -1 -17s-2 -7 -2 -10c0 -6 3 -9 8 -9c2 0 4 1 6 3c2 1 5 4 8 8s5 7 5 10l-2 10c0 3 1 4 4 5s5 3 6 6l1 1c4 0 13 -4 27 -13l4 23l-15 -16l-39 26l6 52l-40 -10l-12 19l17 46l-33 54
c-1 1 -2 2 -2 4c0 5 3 12 10 19l8 9v31c10 19 21 38 32 56l32 -29l21 -67c-6 -6 -9 -32 -9 -77v-16c0 -17 -1 -34 -3 -51l13 -11l-1 7c0 6 2 12 6 19c20 33 30 57 30 72c0 10 -3 21 -8 33c-3 -1 -5 -4 -8 -8c-2 -4 -6 -6 -11 -6c1 7 3 11 5 13s3 4 4 5c9 18 14 39 15 62
c0 11 -3 21 -8 30c-6 9 -14 13 -23 13l-8 -1c2 4 5 7 10 10s8 7 8 14c-5 30 -12 56 -20 77c-4 11 -8 16 -12 16s-9 -4 -14 -12c-9 -13 -22 -25 -38 -36c7 13 10 23 10 30c0 9 -5 17 -15 25c-8 8 -13 12 -16 12c-5 0 -8 -7 -10 -21c-2 -6 -3 -12 -3 -18c0 -13 -5 -31 -14 -53
c-12 -26 -18 -51 -18 -75c0 -17 3 -35 10 -53c5 -12 10 -24 14 -37c5 -16 14 -28 25 -36c1 -1 1 -1 2 -1h3c1 -1 2 -3 2 -8c-3 -4 -8 -6 -15 -6c-17 0 -26 -7 -26 -20c0 -12 2 -23 7 -32c10 -22 17 -46 21 -72c3 -17 10 -31 19 -40c3 -4 5 -6 7 -6zM146 -11
c-25 0 -48 9 -69 28c-4 3 -7 7 -8 12l-13 50c-13 38 -20 70 -20 95c-1 1 -2 2 -3 2l-7 -2c-3 0 -4 2 -4 7v6c1 12 2 22 2 31l-4 63c0 39 4 74 13 105c16 72 33 115 52 129c15 7 22 17 22 30l-1 9c0 1 0 2 1 3l4 1c17 7 35 10 52 10s34 -4 51 -12c6 -3 10 -8 13 -15
c5 -14 12 -26 19 -36c22 -33 36 -71 41 -114v-6c5 -19 9 -38 10 -57c1 -20 3 -39 8 -57c1 -5 2 -9 2 -13c0 -5 -1 -9 -2 -13c-5 -16 -8 -33 -8 -51c0 -13 -1 -26 -4 -39c-15 -57 -37 -108 -66 -153c-3 -4 -7 -7 -11 -8l7 23c-33 -19 -59 -28 -77 -28z" />
    <glyph glyph-name="A" unicode="A" horiz-adv-x="466" 
d="M20 -174c13 5 23 10 33 12c15 4 30 5 44 5c19 0 38 -2 56 -8c6 -2 12 -3 18 -3s11 1 17 3c-19 6 -37 12 -51 28c-10 11 -15 23 -15 37c0 6 1 12 3 19c8 -1 10 -7 14 -11c5 -3 9 -9 19 -10c-11 20 -15 40 -20 60c-3 8 -4 17 -4 26c0 7 1 15 4 23c4 11 6 22 9 32
c7 27 13 53 24 78c2 5 3 10 7 14c10 10 15 23 15 37v12c0 12 5 21 14 29c8 7 16 13 25 19s18 10 28 10h4c11 0 22 1 32 5l6 1c5 0 8 -3 9 -9c5 -27 12 -54 12 -82v-10c0 -9 2 -19 4 -28l7 -26l1 -9c0 -6 -2 -9 -8 -9l-11 2s-2 -1 -2 -2c0 -3 2 -5 4 -5c16 -6 21 -19 24 -34
l1 -16l-1 -11l-4 -37c-1 -39 -14 -73 -46 -99c-12 -9 -20 -22 -27 -37h4c9 0 13 6 18 10c24 18 48 29 74 29c17 0 35 -5 53 -15c14 -8 28 -14 42 -21c2 -1 3 -2 5 -2s4 1 5 4c-7 10 -14 21 -23 30c-13 12 -21 25 -21 41c0 6 1 13 4 20c2 5 3 10 3 15c0 6 -1 12 -5 17
c-12 19 -15 41 -15 62v24c0 22 -5 43 -8 64c-5 37 -8 75 -22 111l-1 3l1 4c4 -1 5 -4 8 -6c1 -1 3 -3 4 -3l4 2c-1 2 -2 4 -4 6c-27 31 -31 70 -40 107c-7 29 -14 57 -20 85c-4 21 -10 42 -17 62l-2 13c0 12 6 21 18 29c9 6 9 7 13 20c-11 -11 -24 -13 -36 -13h-13
c-15 0 -29 -3 -44 -7c-20 -7 -31 -22 -31 -45v-6c5 14 12 22 21 28c3 2 6 4 8 4s3 0 4 -1c3 -2 4 -4 4 -6l-1 -6c-2 -14 -7 -26 -12 -39c-10 -23 -23 -46 -28 -71c-6 -24 -15 -48 -26 -71c-22 -47 -40 -94 -49 -145c-2 -7 -4 -13 -7 -19c-10 -26 -18 -53 -24 -82
c-6 -27 -7 -55 -18 -81c-6 -17 -9 -34 -11 -52c-1 -14 0 -28 -6 -42c-10 -23 -23 -45 -48 -55c-2 -1 -3 -3 -6 -8zM209 244c5 23 17 41 20 62c7 -4 6 -12 12 -14c2 0 4 2 4 4l-1 16c0 35 13 68 21 103c9 -21 13 -42 17 -63l1 -7c0 -10 -4 -20 -10 -28l-12 -19
c13 5 18 15 26 20c10 -12 8 -28 11 -42l1 -3c0 -7 -8 -11 -15 -12c-25 -3 -49 -8 -75 -17z" />
    <glyph glyph-name="B" unicode="B" horiz-adv-x="298" 
d="M26 -175c3 0 6 2 9 3c13 4 26 9 39 14c14 5 30 9 45 9c5 0 9 0 14 -1c24 -5 50 -2 73 -17l3 -1c2 0 4 1 6 3c-3 6 -6 13 -10 19s-5 13 -5 19c0 11 3 22 4 33c1 2 4 3 6 5c19 16 33 34 33 59c0 4 0 8 -1 13l-3 28c0 15 4 29 7 43c12 -3 13 -15 25 -19c-3 13 -8 23 -15 32
c-4 6 -6 11 -6 17c0 5 1 10 4 15c3 8 7 15 13 20c11 9 17 21 21 35c4 13 6 26 8 39l2 17c0 20 -6 38 -15 55c-10 20 -21 40 -44 51c-10 5 -18 8 -28 8c-5 0 -10 -1 -16 -3c-5 -2 -10 -3 -18 -5c7 10 14 14 20 19c24 18 44 41 60 68c6 10 9 21 10 34v14c0 24 -5 46 -28 62
c-2 1 -3 3 -4 4c-3 5 -7 7 -12 9c-27 9 -56 5 -83 10h-2c-4 0 -8 -1 -11 -3c-18 -6 -35 -12 -51 -20c-22 -11 -41 -27 -56 -53c10 3 14 9 19 13c7 6 13 12 22 16l9 2c7 0 13 -3 17 -9c3 -4 4 -8 4 -12s-1 -8 -4 -12l-11 -16c14 -7 14 -20 14 -33v-22c0 -26 -1 -52 -5 -78
c-2 -16 -3 -33 -3 -50s1 -33 3 -50c2 -13 4 -26 4 -40c0 -9 -1 -18 -4 -27c-2 -6 -3 -12 -3 -19c0 -6 1 -12 3 -19c2 -4 3 -9 3 -14s-1 -11 -3 -16c-2 -6 -2 -13 -2 -19c0 -9 1 -17 4 -26c1 -4 3 -8 3 -11c0 -27 0 -53 -1 -79c0 -36 -17 -64 -43 -86l-19 -17
c-2 -2 -6 -4 -6 -7l1 -3zM151 -100c-6 11 -9 20 -9 31l4 92v40c1 8 2 16 2 23c0 12 -2 24 -6 35c2 6 3 11 3 17c0 11 -3 22 -3 34c0 6 1 12 3 18c1 2 1 3 1 6s-1 7 -2 10c-1 6 -2 12 -2 19c0 6 1 12 3 18l1 6l-2 12l-1 11c0 5 1 11 5 17c11 -20 1 -47 24 -58c2 2 3 3 3 4
c0 2 -2 3 -3 5c-4 6 -5 12 -5 18c0 5 1 11 3 16c3 12 12 21 20 21h1c13 -1 26 -12 28 -25c1 -6 2 -12 5 -17c4 -7 5 -14 5 -22v-13c0 -5 0 -9 1 -14v-3c0 -7 -10 -14 -15 -21c-5 -5 -13 -8 -18 -17c15 2 25 10 35 15c2 -2 2 -4 2 -5c0 -4 -3 -7 -4 -10
c-7 -20 -16 -40 -24 -61c-3 -7 -5 -14 -6 -21c-6 -31 -11 -62 -16 -93s-17 -58 -33 -88zM150 339c-5 5 -6 12 -6 18v5c0 34 1 69 2 104c0 11 0 21 -1 32c0 7 3 10 11 11l7 1c19 0 28 -11 30 -32c0 -4 0 -8 1 -12c2 -9 2 -18 2 -26c0 -29 -9 -55 -27 -79
c-5 -7 -8 -18 -19 -22z" />
    <glyph glyph-name="C" unicode="C" horiz-adv-x="308" 
d="M182 -176l4 2c11 11 25 15 36 25c19 17 39 35 65 35c4 0 9 0 13 -1c2 0 6 1 7 3l1 3c0 3 -3 5 -5 7c-19 26 -31 56 -37 89c-2 11 -3 22 -3 34c0 16 2 32 5 49l2 6c0 2 -1 4 -4 5c-6 -4 -7 -11 -8 -17c-4 -20 -7 -40 -12 -60c-6 -29 -18 -54 -40 -73
c-8 -6 -14 -10 -19 -10c-7 0 -13 5 -20 15c-3 3 -5 6 -7 10c-2 3 -5 6 -9 7c-13 5 -18 8 -18 16c0 4 1 10 3 17c3 9 6 18 6 27v5c-3 19 -5 38 -14 55c-6 10 -10 19 -10 29c0 7 2 14 6 21c1 2 2 5 2 7c0 3 -1 5 -3 6c-12 5 -14 13 -14 22l1 18c0 5 2 9 5 13c1 1 2 2 4 2l7 -1
c1 0 2 0 3 1l-20 49c-6 14 -10 28 -11 43l-1 20l1 32l-2 27c0 7 3 14 6 20c5 13 11 25 21 34c2 3 4 5 4 8c0 2 0 4 -2 6c-4 5 -5 11 -5 16c0 6 1 12 3 18c3 9 9 17 18 17h19c3 0 6 0 9 -1c9 -3 4 -14 7 -20l1 -2c14 -14 15 -33 17 -51c3 -20 10 -39 17 -58c1 -4 2 -11 7 -11
h2c3 1 4 3 4 5l-1 8v57c1 22 8 27 29 28c2 0 4 2 8 4c-11 8 -16 18 -20 29c-8 25 -23 40 -48 44c-11 2 -21 3 -32 3c-9 0 -19 -1 -28 -3c-12 -2 -22 -10 -33 -11c-16 -3 -21 -14 -28 -26c-6 -11 -24 -13 -27 -29c-6 -25 -12 -50 -12 -76v-13c0 -18 -3 -35 -7 -52l-5 -24v-5
c0 -2 0 -4 4 -5c9 7 2 21 13 28c2 -4 2 -9 2 -13l-1 -12c-3 -18 -6 -36 -8 -54l-2 -20c0 -5 1 -10 3 -15c3 -7 5 -14 5 -21l-2 -19c0 -8 3 -15 10 -20c10 -8 12 -18 12 -30l4 -84c0 -7 1 -14 5 -20c7 -11 11 -24 11 -37l-2 -16c-1 -4 -1 -8 -1 -12c0 -10 2 -20 4 -30
c4 -18 10 -24 24 -24l12 1l9 3l16 2c11 0 16 -6 23 -24c4 -8 6 -18 12 -25c3 -3 6 -6 9 -6z" />
    <glyph glyph-name="D" unicode="D" horiz-adv-x="330" 
d="M40 -187c16 6 25 23 38 34c13 12 30 17 44 27c15 11 33 12 49 20c15 8 31 7 51 11c-13 9 -26 2 -35 10l2 4c2 3 5 5 7 7c32 24 53 54 58 98c1 12 6 23 12 32c14 18 19 38 24 60c6 30 11 59 18 89c8 37 22 74 22 113c0 8 -1 16 -2 25c-2 12 -3 25 -9 35c-4 8 -9 15 -9 25
c-2 26 -16 48 -22 73c-1 3 -3 7 -6 8c-10 8 -16 19 -25 28c-2 3 -5 9 -8 9h-2c-14 0 -25 12 -38 16c-25 7 -51 5 -77 9c-4 0 -9 -2 -13 -3l-39 -16c-21 -8 -36 -26 -51 -43c-4 -4 -8 -9 -9 -20c9 9 16 15 23 21c4 4 9 8 15 11l7 2c5 0 9 -2 13 -5c3 -3 4 -6 4 -9
c0 -4 -1 -8 -2 -12c-2 -16 -11 -27 -20 -39c-1 -1 -2 -2 -2 -3l1 -3l2 -1c4 0 7 6 10 6l4 -2v-22c0 -9 -1 -18 -4 -28c-4 -14 -6 -28 -6 -42c0 -12 1 -24 3 -36c4 -18 7 -37 7 -55c0 -27 5 -53 6 -79l1 -18c0 -10 -1 -20 -3 -30c-1 -6 -2 -13 -2 -19c0 -7 1 -13 3 -20
c2 -3 2 -7 2 -11l-1 -11c-1 -7 -1 -13 -1 -19c0 -17 2 -33 5 -49c3 -15 10 -30 10 -46l-1 -8c-3 -27 -9 -54 -25 -75c-11 -15 -22 -30 -29 -49zM155 -56l-11 2c-5 2 -6 8 -6 13v4c0 14 1 28 2 42l1 26l-2 38l-1 29c0 7 0 13 -1 19s0 14 -2 21l-1 7c1 9 2 18 2 27l-1 30l1 17
v34c0 7 0 13 1 20c10 -2 17 -12 28 -12h3c-1 5 -6 6 -9 9c-14 18 -23 38 -23 62c1 50 0 100 4 150c1 9 3 16 6 24s8 13 13 13c3 0 7 -2 11 -6c6 -6 13 -10 20 -14c16 -10 22 -29 29 -46c5 -13 10 -25 19 -37c7 -9 10 -20 10 -31c0 -9 -2 -18 -4 -26c-5 -18 -16 -34 -26 -49
c-3 -5 -7 -10 -9 -16c19 13 32 31 44 53c10 -10 14 -21 15 -32c3 -14 6 -29 6 -44l-1 -13c-5 -23 -5 -48 -11 -71c-6 -22 -8 -44 -11 -67c-2 -18 -8 -34 -19 -47c-10 -11 -18 -24 -18 -42v-3c0 -5 -1 -10 -4 -14c-13 -23 -28 -45 -44 -64c-3 -4 -7 -6 -11 -6z" />
    <glyph glyph-name="E" unicode="E" horiz-adv-x="288" 
d="M38 -189c30 10 53 30 65 63c10 27 30 40 53 51c8 3 15 5 22 5c9 0 19 -3 28 -9c11 -6 22 -11 33 -16c2 3 2 5 2 6l-1 5c-4 13 -5 26 -5 39l1 29c0 6 -1 12 -2 19c-2 11 -7 21 -16 29l-1 -3c0 -4 3 -7 5 -9c4 -6 5 -13 5 -19c0 -7 -1 -13 -4 -20c-3 -6 -6 -10 -11 -10
c-2 0 -4 0 -7 2c-4 2 -9 3 -13 3h-7c-17 0 -31 6 -48 10c2 6 3 10 3 15l-1 11c-2 9 -3 17 -3 25c0 7 1 14 3 21c1 5 2 9 2 13c0 5 -1 10 -2 15l-2 27c0 18 2 37 2 55c0 8 0 15 -1 23l1 4c5 28 8 33 30 33h9c22 -1 28 -8 30 -32v-20l1 -11c9 14 13 28 13 43c0 10 -2 20 -6 30
c-7 16 -16 32 -16 51v6c-4 -1 -5 -1 -6 -2c-4 -7 -9 -18 -16 -18l-3 1c-4 2 -8 2 -13 2h-15c-3 1 -5 3 -6 6c-1 4 -2 8 -2 12v5c0 34 1 69 2 104v5c0 3 0 5 2 6c4 2 6 4 6 7s-2 5 -3 8c-4 13 -5 26 -5 40v13c0 4 0 8 5 10l9 2c10 0 21 -5 27 -13l1 -3l-1 -7c0 -3 1 -5 6 -7
c18 28 47 42 71 62c14 11 23 26 29 43c-18 -19 -37 -36 -65 -40c3 13 15 19 16 37c-9 -10 -16 -16 -23 -23c-6 -7 -13 -13 -21 -18c-4 -2 -9 -5 -13 -5l-5 1c-21 9 -42 8 -64 10h-4c-10 0 -20 -4 -28 -12c-15 -15 -29 -30 -42 -47c-8 -11 -12 -25 -18 -38l-1 -4
c0 -2 1 -4 3 -5l2 -1c3 0 4 4 5 6c5 12 13 21 22 30c5 5 10 8 15 8c3 0 6 -1 9 -3c10 -5 12 -14 12 -25c0 -12 -6 -21 -12 -31c-1 -1 -3 -3 -3 -5s1 -3 3 -4c10 -7 10 -18 10 -28l2 -69c0 -17 -1 -33 -3 -50c-4 -31 -6 -62 -6 -92c0 -37 2 -73 4 -109c0 -4 0 -7 1 -11
s2 -7 2 -11s-1 -9 -2 -14c-2 -15 -5 -30 -5 -46c0 -5 0 -10 1 -15c2 -10 2 -21 2 -30c0 -42 -14 -79 -46 -109l-1 -3v-2c1 -1 2 -2 3 -2z" />
    <glyph glyph-name="F" unicode="F" horiz-adv-x="290" 
d="M36 -198c25 8 47 21 59 47c6 10 11 21 14 32c6 23 21 35 39 44l6 2c4 2 5 4 5 6c0 3 -1 5 -2 7c-3 4 -7 7 -10 10c-7 7 -11 16 -11 25l1 6c1 6 1 12 1 18l-1 34c0 10 1 20 4 30l-1 13c-2 9 -2 19 -2 28c0 19 2 38 2 57l-1 20c0 4 1 8 2 13c2 7 5 14 9 20c2 3 5 4 7 4
c4 -1 5 -5 6 -8l-1 -16l2 -11c4 11 6 18 7 27c0 3 1 6 5 7l7 1c9 0 19 -6 22 -16c3 -8 4 -16 4 -24c0 -4 0 -9 -1 -13c0 -2 -2 -4 -2 -6s1 -3 3 -5c8 13 13 29 13 45c0 13 -3 25 -9 35s-9 21 -9 32c0 5 0 9 1 14c1 3 2 7 2 12l-1 6c-6 -2 -7 -7 -9 -10
c-6 -11 -12 -23 -23 -23c-4 0 -8 1 -13 4h-1c-17 0 -20 1 -20 14v116c0 3 0 6 4 7c5 1 6 3 6 5l-2 7c-7 17 -7 34 -7 52c0 10 4 13 13 15h3c9 0 16 -5 23 -11c6 -5 -1 -14 8 -20c17 28 43 42 68 60c4 3 8 6 12 10c11 10 18 23 22 38c-12 -11 -22 -24 -36 -31
c-21 -11 -42 -19 -65 -19c-9 0 -18 1 -28 4c-17 6 -35 3 -52 6l-5 1c-5 0 -11 -3 -15 -7c-28 -25 -54 -51 -67 -90c-1 -1 -2 -3 -2 -5s1 -4 4 -5l2 -1c2 0 3 4 5 6c5 14 14 24 24 33c4 3 9 5 13 5c10 0 19 -8 20 -21v-6c0 -7 -1 -13 -4 -18s-6 -10 -8 -15c-1 -1 -2 -2 -2 -4
l2 -3c13 -10 11 -27 12 -41v-33c0 -33 0 -65 -5 -98c-3 -22 -4 -43 -4 -65c0 -38 3 -75 5 -113v-24c0 -8 0 -16 -1 -24c-1 -10 -5 -20 -5 -31l2 -11c3 -10 4 -20 4 -30c0 -24 -7 -47 -16 -71c-5 -15 -14 -28 -27 -38c-2 -2 -5 -3 -5 -8v-3z" />
    <glyph glyph-name="G" unicode="G" horiz-adv-x="291" 
d="M165 -188c17 17 31 31 45 43c16 14 33 26 52 26c7 0 15 -2 23 -6l6 1c-4 11 -4 11 -12 19c-20 20 -30 44 -30 70c0 9 1 19 3 28c5 21 5 43 5 64v21c0 19 -2 37 -2 56l-1 24c0 17 2 34 7 53c-10 -9 -15 -15 -21 -19c-5 -4 -10 -7 -16 -7c-3 0 -6 1 -9 3c-5 5 -11 7 -16 7
c-6 0 -11 -2 -18 -6c-6 -3 -10 -5 -14 -5c-7 0 -13 6 -20 17c-1 1 -1 4 -3 4l-2 -1c-1 -3 -1 -7 -1 -10c0 -10 4 -20 8 -30c9 -16 18 -31 21 -52c9 10 15 20 25 25l6 2c3 0 5 -2 5 -7l-1 -76l-1 -2c-4 -3 -5 -7 -5 -12l1 -17c0 -20 -7 -37 -15 -54c-2 -4 -5 -9 -8 -10
c-12 -2 -17 -12 -23 -23c-2 -6 -5 -8 -8 -8s-6 3 -9 10c-6 14 -8 29 -8 44c-4 0 -5 0 -6 -1c-5 -3 -9 -5 -11 -5c-4 0 -5 4 -7 13c-1 8 -3 17 -3 27l1 11c4 27 5 53 5 80c0 35 -2 71 -2 106c0 5 -2 10 -3 15c-2 8 -4 16 -4 24l2 15l2 9c0 3 -1 5 -5 7c-5 4 -7 9 -7 15l1 9
c1 28 8 55 20 80c3 7 6 13 6 20c0 4 -1 8 -3 13c-2 6 -3 11 -3 17c0 9 2 18 3 27c1 11 5 19 13 26c5 5 10 10 17 10l4 -1c9 -4 11 -14 12 -24v-7c0 -5 0 -9 3 -14c18 -32 26 -67 26 -103c0 -16 -2 -31 -4 -47c-1 -6 -2 -14 -2 -23v-7c16 18 23 36 27 57c6 32 11 65 44 81
l-11 10c-15 12 -25 28 -28 49c-1 10 -4 20 -8 29c-7 19 -16 36 -36 40c-9 2 -18 4 -27 4c-7 0 -15 -1 -23 -4c-12 -4 -19 -15 -30 -19s-15 -11 -17 -22c-2 -10 -5 -18 -13 -23c-5 -3 -7 -9 -9 -14c-15 -27 -26 -55 -26 -87v-11c0 -4 -1 -7 -2 -11c-4 -28 -5 -55 -5 -83v-34
c1 -14 7 -27 8 -41c2 -27 3 -55 4 -82c1 -20 0 -40 4 -60c3 -14 4 -28 4 -42l-1 -28c0 -7 1 -13 5 -19c15 -24 33 -47 45 -74c2 -5 5 -9 10 -10c16 -3 31 -6 46 -6c20 0 40 6 58 28v-2c0 -37 -27 -57 -38 -90z" />
    <glyph glyph-name="H" unicode="H" horiz-adv-x="334" 
d="M28 -222c29 8 51 26 63 58c5 12 10 24 14 36c5 12 11 22 22 27c6 2 11 8 17 10c5 1 6 3 6 6s-1 6 -3 9c-1 2 -3 4 -5 6c-9 8 -14 19 -14 31c0 4 0 8 1 12s1 7 1 10l-1 37l1 66v78c0 13 1 26 6 38c4 11 8 16 15 16l9 -2c11 -4 25 -5 33 -17c1 -2 2 -4 4 -4l2 2
c7 13 20 5 28 12l1 -4v-10c0 -21 1 -41 11 -60l1 -3c0 -4 -2 -8 -2 -12c-4 -20 -16 -35 -28 -50c-4 -4 -10 -7 -11 -15l5 -1c8 0 14 9 21 9h3c3 -5 4 -9 4 -14l-1 -7l-1 -13v-5c2 -7 3 -13 3 -20c0 -18 -7 -35 -15 -51c-9 -19 -19 -37 -29 -55c-2 -5 -5 -10 -5 -16
c0 -2 0 -4 1 -7c6 3 8 8 10 13c9 14 20 20 35 22l9 1c8 0 16 -2 23 -4c22 -7 43 -17 62 -33c1 -2 3 -4 6 -4c1 0 2 0 4 2c0 8 -6 14 -10 19l-28 31c-8 8 -12 17 -12 28c0 3 0 6 1 10s1 8 1 13l-2 29c0 10 2 19 6 28c7 15 12 31 12 47l-2 17c-1 9 -3 18 -3 26l2 11
c3 7 4 14 4 21c0 15 -6 28 -10 42c-3 9 -6 18 -6 28l1 33l-1 33l1 111c0 3 0 5 1 5c7 2 9 5 9 8c0 5 -6 11 -8 15c-5 10 -7 19 -7 29c0 8 2 17 5 26c5 15 11 28 17 42c9 18 15 37 17 62c-10 -19 -18 -34 -25 -49c-12 -24 -30 -38 -54 -43c-9 -2 -17 -4 -25 -5v-3
c0 -3 0 -4 1 -5c8 -16 14 -33 14 -52c0 -7 -1 -15 -3 -23c-1 -4 -2 -8 -2 -12l1 -7c5 -17 6 -34 6 -51v-26c0 -20 -13 -39 -30 -43l-5 -1c-4 0 -8 3 -9 10c-1 3 0 7 -4 11c-6 -11 -12 -21 -21 -21c-4 0 -8 2 -13 5h-2c-20 0 -20 1 -20 24c0 36 0 72 1 108v7c0 3 0 5 2 5
c6 1 7 3 7 6s-2 6 -3 9c-4 13 -6 26 -6 38c0 22 8 42 26 60c2 1 2 3 3 5c-2 2 -4 2 -6 2l-5 -1c-13 -3 -23 -11 -32 -20c-7 -7 -13 -13 -23 -13l-9 2c-5 2 -9 2 -14 2c-9 0 -18 -2 -25 -9c-11 -12 -22 -25 -27 -45l6 3c9 7 16 10 22 10c9 0 15 -9 21 -27l3 -15
c0 -7 -6 -12 -6 -18v-2c4 -7 10 -12 10 -22v-32c0 -37 -2 -74 -17 -110c-9 -23 -14 -48 -15 -73l-1 -17c0 -8 2 -16 11 -22c1 -1 2 -5 2 -8c5 -21 10 -41 14 -62c3 -17 6 -35 6 -53c0 -10 -1 -20 -3 -30c-2 -7 -4 -15 -4 -24c0 -4 1 -9 2 -13c3 -11 4 -22 4 -32
c0 -24 -6 -47 -14 -71c-6 -18 -15 -34 -29 -45c-2 -2 -5 -3 -5 -6z" />
    <glyph glyph-name="I" unicode="I" horiz-adv-x="169" 
d="M20 -228c27 6 49 19 61 47c5 11 11 22 14 33c6 21 18 34 35 43c9 5 14 8 14 12c0 3 -4 7 -11 15c-5 6 -10 14 -10 22l1 19l-1 21c0 10 1 19 3 29c7 30 10 59 10 89c0 27 -2 54 -4 81c-2 23 -3 45 -3 67l1 37l1 19c0 13 -1 26 -4 39c-3 15 -4 30 -4 45c0 14 1 27 2 41
l1 11c0 3 0 5 -1 8c-3 11 -5 22 -5 32c0 26 8 50 17 74c5 15 14 29 26 39c2 2 6 3 6 6l-1 4c-25 -7 -47 -21 -59 -48c-7 -15 -13 -31 -20 -47c-8 -19 -19 -28 -35 -28l-10 1c-7 1 -14 4 -21 6v-3c0 -6 4 -10 7 -13l23 -19c10 -8 15 -17 15 -29c0 -3 0 -6 -1 -10
c-1 -3 -1 -7 -1 -10v-129l-1 -5l-1 -20c0 -12 1 -24 6 -35c3 -7 4 -12 4 -18s-1 -12 -3 -19l-18 -73c8 4 9 11 13 16c1 2 3 3 4 3h2c3 -1 4 -3 5 -6v-3c0 -5 -1 -10 -3 -14c-4 -19 -6 -37 -6 -56c0 -14 1 -27 3 -41v-19c-3 -17 -6 -35 -6 -52c0 -9 1 -18 3 -27
c1 -5 2 -10 2 -16c0 -8 -1 -15 -3 -23c-8 -36 -17 -72 -47 -96z" />
    <glyph glyph-name="J" unicode="J" horiz-adv-x="262" 
d="M86 -198c8 0 15 3 23 9c18 15 37 21 59 22c6 0 13 2 19 3c8 0 14 4 17 11c16 26 34 51 34 84v7l1 8c2 7 3 14 3 21c0 9 -1 17 -2 25l-1 19v8c0 26 2 52 3 78c0 14 2 27 3 41c1 12 2 23 2 35c0 8 0 17 -2 25c-3 12 -4 24 -4 36v11l-1 56c0 10 1 21 3 31c0 3 -1 8 -2 11
c-2 6 -3 12 -3 19l3 27v4c-2 5 -2 10 -2 14c0 13 6 23 17 33c4 3 6 5 6 8s-4 5 -10 8c-20 8 -35 21 -41 43c-4 14 -12 28 -20 40c-14 18 -32 27 -54 32c0 -4 2 -6 4 -8c30 -27 44 -61 44 -99c0 -9 -1 -17 -2 -26l-1 -19v-8c2 -12 6 -25 6 -37l-1 -9c-3 -27 -1 -54 -4 -81
c-4 -37 -6 -74 -18 -109c-5 -14 -7 -29 -7 -43c0 -9 1 -18 2 -27c1 -4 2 -8 9 -10c-3 9 -4 18 -4 27c0 20 7 39 16 57c2 -4 3 -8 3 -13l-1 -7l-1 -22l1 -30l-1 -50l2 -37l-1 -22l1 -14c0 -24 -13 -42 -34 -55c-3 -2 -8 -1 -8 -6v-3h2c11 0 21 7 31 10c1 -7 2 -13 2 -19
c0 -17 -5 -32 -18 -46c-6 6 -11 8 -16 8s-10 -2 -15 -7l-5 -4l-6 -2c-4 0 -7 3 -9 8c-2 4 -3 9 -3 13c-1 6 -1 12 -1 18c0 19 4 37 10 55c4 15 11 28 24 36c2 1 4 3 4 5l-2 5c-13 -3 -22 -14 -29 -25l-26 -39c-5 -8 -12 -15 -20 -21c-6 -4 -13 -7 -20 -7l-10 2
c-2 1 -5 2 -8 2c-2 0 -4 -1 -7 -4c7 -8 15 -15 18 -26c4 -11 6 -23 9 -34c2 -8 5 -16 9 -24c7 -14 18 -22 30 -22z" />
    <glyph glyph-name="K" unicode="K" horiz-adv-x="351" 
d="M351 -206c-9 21 -22 36 -35 50c-5 5 -9 9 -12 15c-12 30 -26 58 -38 87c-11 29 -24 58 -27 91c-2 15 -8 28 -14 41c-13 30 -13 30 -15 73c0 3 -2 6 -3 8l-9 24c-4 13 -7 25 -7 37c0 16 5 32 16 46c7 9 12 21 14 33c5 28 18 48 39 62c15 9 35 39 39 55l-22 -14
c-5 -3 -9 -5 -13 -5c-5 0 -11 3 -16 7c-10 9 -16 20 -20 33s-7 27 -18 35c-2 -3 -3 -4 -3 -5c-1 -3 -1 -6 -1 -9v-11c0 -36 -9 -70 -20 -104c-13 -38 -29 -75 -38 -116c0 -2 -1 -4 -2 -7c-1 -4 -3 -7 -7 -7h-1c-4 1 -5 3 -5 6l1 5c1 4 2 8 2 12c0 7 -2 14 -4 21
c-4 18 -6 36 -6 54c0 19 2 38 6 57l1 12c0 4 0 8 -2 11c-2 9 -3 17 -3 25c0 18 5 34 15 50c5 8 8 17 13 28l-29 -9c-3 -1 -5 -2 -8 -2c-2 0 -5 1 -7 2c-21 12 -39 26 -49 51c-7 16 -14 30 -24 49c2 -22 6 -38 11 -53c7 -18 13 -38 17 -57c3 -14 6 -28 6 -41
c0 -11 -2 -21 -8 -32l-1 -4c0 -2 1 -4 2 -4c7 -1 8 -6 8 -11v-258c0 -15 0 -30 1 -45c2 -39 1 -79 3 -119v-10c0 -41 -11 -78 -38 -107c-10 -11 -17 -24 -20 -42c30 37 63 59 102 59c11 0 22 -1 34 -5c0 12 -4 19 -8 27c-9 17 -13 34 -16 53l-2 24l1 32v25c0 31 2 61 12 90
c4 9 4 20 6 30c1 7 1 14 10 17c12 -44 12 -89 13 -139c7 11 7 19 8 26c1 9 1 17 5 25c11 -27 15 -45 15 -73l-1 -9c0 -3 1 -6 5 -7c10 -1 10 -9 11 -17c4 -27 7 -53 7 -80c0 -18 -2 -37 -4 -55l-1 -6c0 -3 1 -5 4 -8c19 18 37 25 55 25c26 0 51 -16 75 -42z" />
    <glyph glyph-name="L" unicode="L" horiz-adv-x="306" 
d="M305 -218l1 6c0 6 -3 11 -4 16c-5 17 -10 34 -16 50c-4 11 -6 21 -6 31c0 12 3 25 9 37c0 0 -2 1 -2 2c-6 -1 -10 -9 -17 -9h-2c-4 3 -5 8 -6 13c-2 14 -4 28 -4 42c0 10 1 19 3 28l1 5c0 4 -2 6 -6 6l-5 -1c-9 -2 -14 -7 -20 -13c-12 -15 -27 -27 -41 -40
c-8 -8 -17 -10 -26 -10c-6 0 -13 1 -19 3c-23 5 -26 12 -26 38l-1 7l2 10c2 7 3 14 3 21c0 9 -1 17 -3 25l-1 21c2 12 3 23 3 34l-1 28c0 7 0 14 1 21c4 14 4 27 4 41v16c-1 38 -8 76 -8 114v13l-1 8c-1 5 -2 9 -2 13l1 12c2 15 7 30 7 45l-2 14c-2 10 -3 20 -3 30
c0 23 5 44 13 66c6 19 15 36 31 48c1 1 4 2 4 5l-1 3c-25 -7 -47 -20 -59 -47l-20 -46c-8 -19 -20 -28 -36 -28l-9 1c-7 1 -14 4 -21 5v-3c0 -6 4 -9 7 -12c7 -6 14 -13 21 -18c11 -7 16 -17 16 -29l-1 -18l-1 -78c0 -15 0 -29 1 -44l-1 -8c-2 -6 -2 -13 -2 -19
c0 -13 3 -25 7 -37c2 -7 3 -13 3 -19c0 -7 -1 -13 -3 -20l-17 -71c7 4 8 9 10 13c2 3 4 7 7 7l2 -1c4 -2 5 -5 5 -9v-3l-6 -23c-2 -12 -3 -24 -3 -37l2 -56c0 -5 0 -9 -1 -14c-2 -13 -6 -27 -6 -40l1 -11c3 -12 4 -25 4 -37c0 -14 -1 -27 -5 -40v-7c11 2 18 9 25 17
c3 4 6 10 12 10h2c15 0 27 10 38 19c7 5 13 9 20 9c4 0 9 -2 14 -5s11 -5 16 -6c14 -5 24 -13 31 -25c5 -9 11 -13 20 -14c20 -4 37 -13 48 -32c5 -8 12 -15 19 -23z" />
    <glyph glyph-name="M" unicode="M" horiz-adv-x="423" 
d="M25 -217c28 7 46 20 59 47c6 12 12 24 15 38c6 23 20 36 38 46c8 4 11 6 11 10c0 3 -2 6 -8 12c-7 8 -14 17 -14 28v4c1 5 1 11 1 16l-1 42c0 11 3 21 3 31l-1 34v61c0 35 7 69 7 104l-1 16l4 2c11 -26 27 -50 30 -80c5 -45 31 -76 52 -110c6 -10 16 -19 31 -19h4
c-9 10 -12 20 -12 31v4c2 23 8 45 23 61c5 6 8 12 10 19c6 37 23 68 37 101c2 4 4 10 9 12c-5 -40 -3 -79 -4 -118v-8c0 -9 1 -18 5 -24c4 -7 5 -13 5 -20c0 -12 -6 -22 -11 -33c-5 -12 -14 -21 -22 -30c-3 -3 -6 -5 -6 -9v-3l4 -1c8 0 14 10 23 10h2c2 -4 3 -9 3 -13
l-2 -19l1 -8c1 -6 2 -13 2 -19c0 -19 -6 -35 -14 -52c-9 -20 -20 -38 -29 -57c-3 -5 -6 -11 -6 -17l1 -6c5 0 7 5 9 9c10 20 26 27 44 27c6 0 13 0 19 -2c24 -7 47 -17 66 -35c2 -2 4 -5 7 -5l4 1v3c0 7 -5 12 -9 16c-9 11 -18 22 -28 33c-6 7 -12 15 -12 25v2
c1 7 1 13 1 20l-1 49c1 9 4 17 4 26v5c-3 11 -3 21 -3 32c0 18 2 37 2 55l-2 32c0 14 3 28 3 42c0 32 -1 65 -2 98c0 32 1 64 2 96c0 4 0 10 1 11c6 3 8 6 8 9c0 4 -4 9 -6 13c-5 10 -8 21 -8 31c0 9 2 18 5 28c4 14 11 28 17 41c8 17 14 34 14 54c-9 -13 -16 -28 -24 -42
c-11 -23 -29 -37 -51 -42c-10 -3 -19 -4 -31 -7c11 -11 14 -21 14 -32c0 -9 -3 -19 -7 -29c-2 -4 -3 -9 -5 -12c-13 -21 -18 -45 -23 -69c-4 -15 -7 -30 -15 -43c-11 -19 -18 -38 -22 -60c-3 -17 -10 -32 -20 -47c-7 19 -15 36 -19 53c-3 17 -4 35 -10 51c-3 8 -4 17 -9 24
c-22 38 -37 80 -51 123c-5 13 -7 25 -7 37c0 22 8 43 26 60c2 2 3 3 3 5v2l-5 1l-6 -1c-13 -3 -22 -11 -32 -21c-7 -7 -13 -11 -23 -11l-8 1c-4 1 -8 1 -12 1c-25 0 -45 -20 -52 -53c8 5 15 10 23 14c5 3 9 4 12 4c7 0 11 -5 14 -16c2 -7 3 -14 3 -20c0 -9 -2 -16 -6 -24
c-1 -3 -3 -5 -3 -8l2 -4c13 -12 11 -29 12 -45c0 -47 0 -94 -5 -142c-3 -24 -4 -48 -4 -71c0 -40 3 -79 4 -119l1 -29c0 -8 0 -15 -1 -22c-1 -12 -5 -23 -5 -34l2 -12c3 -11 4 -21 4 -32c0 -23 -6 -46 -13 -69c-6 -20 -16 -38 -32 -51c-2 -2 -4 -3 -4 -6z" />
    <glyph glyph-name="N" unicode="N" horiz-adv-x="377" 
d="M25 -216c34 8 56 32 68 66c9 28 21 53 50 61c4 1 5 4 5 6s-1 4 -2 6c-2 4 -6 7 -9 11c-7 7 -11 15 -11 24v5c1 6 1 13 1 19l-1 25l-1 10c0 6 1 11 3 17c1 5 2 9 2 14s-1 11 -2 17l-2 24c0 21 3 41 3 62l-1 22l1 3c4 15 5 29 5 45v13l-1 6c0 3 1 5 4 6l29 -52
c7 -13 13 -25 18 -38l48 -151c6 -18 9 -36 9 -54c0 -8 0 -16 -2 -24c-1 -10 -4 -20 -6 -31c19 16 31 24 48 24c11 0 23 -3 40 -9c18 -6 36 -13 52 -23l4 4l-33 37c-7 7 -14 14 -14 23l1 5l1 14c0 13 -2 26 -2 39v5c1 9 4 19 4 28l-1 31v63c0 36 2 72 2 107l-2 74l1 71
c0 3 0 9 1 9c7 2 9 6 9 9c0 4 -5 9 -7 13c-5 10 -7 20 -7 29c0 8 1 16 4 25c5 14 11 27 17 40c9 17 15 36 16 56c-8 -13 -16 -27 -23 -41c-14 -29 -38 -42 -67 -46c-5 -1 -11 1 -14 -6c6 -9 11 -18 11 -29c0 -4 0 -8 -2 -13l1 -12c1 -15 4 -30 7 -45c2 -12 3 -24 3 -36
c0 -21 -2 -41 -5 -61c-2 -19 -3 -37 -3 -55c0 -12 0 -25 2 -37c1 -11 2 -22 2 -33c-1 -20 -3 -41 -3 -62l2 -29l1 -8c0 -3 -1 -6 -3 -9c-7 2 -6 7 -8 12c-12 30 -20 63 -28 95c-3 10 -6 20 -13 28c-10 11 -14 25 -19 40c-8 28 -17 55 -26 83c-6 20 -15 38 -22 58
c-13 34 -30 68 -30 107c0 8 1 17 3 26c-13 -6 -25 -11 -38 -11c-4 0 -9 0 -13 2s-8 2 -12 2c-21 0 -43 -18 -50 -51c8 5 15 10 23 14c5 3 9 4 12 4c5 0 9 -4 13 -13c2 -6 3 -12 4 -18v-4c0 -12 -5 -22 -11 -32c13 -7 14 -18 14 -29c1 -21 2 -42 2 -64c0 -18 -1 -36 -3 -55
c-4 -32 -6 -64 -6 -96c0 -38 2 -75 4 -113c0 -5 0 -9 1 -13c2 -4 2 -8 2 -12l-1 -12c-2 -16 -7 -31 -7 -46l2 -16c2 -10 3 -19 3 -29c0 -28 -9 -54 -19 -80c-5 -13 -13 -24 -24 -32c-2 -1 -5 -3 -5 -6c0 -1 0 -2 1 -3z" />
    <glyph glyph-name="O" unicode="O" 
d="M164 -162c22 0 45 11 64 34c32 38 55 83 63 137c1 12 3 23 14 30c2 1 5 4 5 6l-2 4c-5 7 -6 15 -6 22c0 8 1 17 3 25c4 27 10 53 10 80l-1 16c-2 19 -8 38 -9 57c-1 47 -9 92 -20 138c-10 40 -26 72 -52 99c-18 18 -38 27 -57 27c-20 0 -39 -9 -57 -26
c-41 -40 -63 -92 -74 -150c-6 -39 -15 -78 -19 -117c-3 -23 -6 -46 -6 -70l1 -28c0 -3 0 -5 4 -6c3 2 3 5 3 8v5c0 3 1 6 3 8c4 -6 5 -13 5 -20v-41c0 -23 1 -47 5 -70c9 -50 26 -96 58 -133c19 -23 42 -35 65 -35zM170 -89c-5 0 -9 4 -13 14c-8 16 -12 33 -12 51v20
c-13 -19 -4 -43 -14 -64c-19 51 -31 166 -31 261c0 62 5 115 16 136c8 -19 3 -41 13 -62v16c0 39 5 76 9 113c2 22 9 43 16 63c4 9 10 14 17 17c3 1 5 2 7 2c5 0 9 -3 12 -8c6 -11 11 -22 15 -34c7 -22 12 -45 16 -68c5 -29 7 -58 13 -87c1 -7 2 -14 2 -22s-1 -17 -2 -26
c-1 -10 -2 -21 -2 -31s1 -20 2 -31l2 -22c0 -13 -2 -26 -6 -39c-4 -12 -5 -24 -8 -36c-8 -35 -26 -64 -39 -96c-2 -5 -5 -9 -5 -16c0 -1 0 -4 1 -6c11 9 14 22 21 32c4 5 6 12 12 12h1c8 -1 8 -11 10 -17l4 -29c0 -12 -6 -14 -24 -18c-9 -2 -17 -5 -21 -14
c-4 -8 -8 -11 -12 -11z" />
    <glyph glyph-name="P" unicode="P" horiz-adv-x="308" 
d="M25 -175c25 7 46 20 59 45c5 11 11 23 15 35c6 22 20 34 38 43c8 4 12 6 12 9s-3 6 -9 12c-7 7 -14 15 -14 25l1 16c0 11 -2 21 -2 31l1 11c2 13 2 25 2 38c0 10 0 21 -1 31c0 1 1 2 3 3c6 0 10 -4 15 -7c14 -7 28 -11 41 -11c22 0 42 9 60 27c40 37 59 83 62 138v10
c0 53 -15 104 -27 156c-4 22 -14 42 -28 60c-12 15 -23 22 -35 22c-9 0 -19 -3 -31 -11c-16 -10 -27 -24 -40 -38c-3 -3 -4 -7 -8 -7h-2c-6 8 -7 16 -7 25c0 10 2 21 2 32v3c-13 -7 -24 -10 -36 -10c-7 0 -13 1 -20 2l-7 1c-24 0 -43 -20 -49 -50c8 5 16 10 24 14
c4 2 8 4 11 4c6 0 10 -5 13 -14c2 -6 4 -13 4 -20c0 -8 -2 -15 -6 -23c-1 -2 -3 -5 -3 -7c0 -1 0 -2 2 -3c10 -8 11 -20 11 -31l1 -52c0 -30 -2 -61 -5 -91c-3 -24 -4 -47 -4 -70c0 -36 2 -71 4 -106l1 -21l-2 -29c-1 -11 -3 -23 -3 -34l1 -15c2 -10 2 -20 2 -30
c0 -40 -13 -75 -44 -105c-1 -1 -2 -2 -2 -5v-3zM165 151c-12 0 -24 5 -33 15c-3 4 -4 8 -4 13v16c0 5 0 11 1 16c7 37 5 74 6 111l1 18l-1 21c0 24 11 43 24 61c9 12 16 18 23 18c8 0 16 -6 28 -20c9 -11 13 -26 17 -41c6 -27 8 -54 8 -80l1 -15c0 -34 -9 -65 -24 -96
c-4 -8 -9 -16 -15 -23c-8 -9 -20 -14 -32 -14z" />
    <glyph glyph-name="Q" unicode="Q" horiz-adv-x="311" 
d="M264 -170c-17 12 -29 28 -38 46c-3 6 -8 11 -15 14s-11 8 -12 15c-1 11 -5 20 -11 29l-2 6c0 3 2 5 7 7c7 2 13 6 18 11c32 31 55 68 70 111c8 20 7 42 13 63c7 24 10 49 14 74c2 7 2 15 2 22c0 11 -2 23 -6 34c-5 12 -6 25 -6 37l1 41c7 -2 5 -10 12 -11
c-6 51 -26 97 -49 141c-7 13 -16 25 -27 36c-20 20 -43 30 -66 30c-22 0 -43 -9 -62 -28c-32 -33 -54 -72 -63 -117c-3 -15 -6 -29 -21 -37c5 -8 9 -15 9 -23v-3c-2 -13 -2 -26 -6 -39c-5 -15 -6 -30 -6 -44v-13c0 -25 10 -49 10 -73c0 -32 3 -62 16 -92c1 -4 3 -8 3 -13
c6 -38 27 -67 55 -91c7 -7 14 -12 17 -21c10 -25 38 -34 48 -59c0 -2 3 -2 5 -3l16 -14c21 -20 47 -29 74 -36zM155 -28c-5 0 -8 2 -12 7c-6 10 -11 21 -15 32c-6 18 -11 37 -15 56c-5 25 -7 50 -12 75c-2 8 -3 15 -3 23l4 49l-3 47c0 14 2 27 7 40c3 8 3 18 6 26
c8 31 26 57 38 85c3 6 6 11 7 17c-2 1 -3 2 -5 2c-7 -10 -14 -21 -22 -31c-4 -5 -7 -8 -9 -8c-4 0 -6 4 -9 11c-2 5 -3 10 -4 16l-1 13c0 12 5 15 25 18c11 1 16 8 23 16c4 4 7 7 9 7c3 0 6 -3 10 -9c6 -11 13 -22 13 -36l3 -26c13 15 2 35 13 50c19 -35 30 -135 30 -222
c0 -56 -5 -106 -15 -129c-7 19 -4 37 -12 56c0 -43 -6 -83 -12 -123c-2 -16 -9 -31 -15 -46c-3 -8 -10 -12 -17 -15c-2 -1 -5 -1 -7 -1z" />
    <glyph glyph-name="R" unicode="R" horiz-adv-x="340" 
d="M23 -168c26 7 46 21 59 45c6 12 12 24 15 36c6 22 20 35 39 43l5 3c4 1 6 4 6 7c0 2 0 4 -2 5c-15 12 -21 26 -21 42c0 6 1 13 3 20c-2 7 -3 15 -3 22c0 16 4 33 4 49c0 9 -1 17 -4 25c0 2 0 4 1 6s3 4 4 4c2 0 4 -1 5 -2c2 -3 3 -6 4 -9c1 -18 10 -33 15 -49
c4 -13 10 -25 20 -35c10 -11 18 -24 22 -40c4 -15 8 -29 15 -42c9 -16 16 -31 16 -47c0 -9 -2 -18 -7 -27l-1 -4c0 -2 1 -4 3 -5l3 -1c2 0 4 2 6 4c13 12 27 16 42 16c11 0 21 -2 32 -5c5 -1 10 -4 16 -6c5 -2 10 -5 16 -5l4 1c-5 6 -9 13 -14 17c-13 10 -21 24 -31 37
c-8 11 -13 26 -23 35c-13 13 -22 30 -29 46c-2 5 -3 12 -7 15c-10 9 -9 20 -10 32c7 -3 7 -9 11 -13s5 -10 13 -10h2c-17 20 -25 42 -31 65l-1 9c0 6 3 11 10 16c55 40 76 99 76 166c0 31 -5 62 -13 93c-2 10 -1 21 -7 30c-7 10 -9 22 -10 35c-1 9 -4 17 -6 25
c-4 16 -18 22 -26 35c-7 13 -15 19 -26 19c-6 0 -13 -2 -21 -5c-13 -6 -24 -15 -34 -26l-26 -29c-7 9 -8 18 -8 28l1 36c-12 -8 -24 -11 -36 -11l-24 2c-26 0 -48 -22 -50 -49c7 5 14 10 22 14c4 2 8 4 11 4c7 0 11 -5 14 -15c2 -7 4 -14 4 -20c0 -11 -4 -21 -11 -31
c14 -8 15 -21 15 -35v-48c0 -32 -1 -63 -5 -95c-3 -22 -4 -44 -4 -66c0 -38 3 -75 5 -112l1 -22l-2 -29c-1 -11 -3 -23 -3 -34l1 -15c2 -10 2 -20 2 -30c0 -41 -13 -76 -44 -106c-2 -2 -3 -3 -3 -7v-2zM168 161c-9 0 -18 4 -30 10c-7 4 -11 10 -12 20v13c0 9 0 17 3 26
c3 12 3 24 3 36c1 41 0 81 3 122c3 26 18 47 39 64c2 2 4 2 7 2c2 0 5 0 8 -2c12 -7 21 -17 26 -31c7 -19 9 -38 9 -57c0 -26 -5 -53 -12 -79c-2 -5 -5 -10 -5 -19v-5c18 22 17 48 28 70c3 -3 4 -6 4 -10l-1 -8c-4 -25 -6 -50 -9 -75c-1 -13 -3 -24 -14 -32
c-6 -5 -8 -14 -13 -21c-11 -16 -21 -24 -34 -24z" />
    <glyph glyph-name="S" unicode="S" horiz-adv-x="307" 
d="M198 -160c3 0 4 4 6 7c18 23 35 45 60 58c10 4 15 13 19 24c7 20 10 40 10 59c0 30 -8 59 -29 85c-26 34 -53 67 -83 97c-22 22 -41 46 -53 77c-2 4 -4 9 -4 14v2c1 3 2 6 4 6s3 0 4 -2c4 -3 6 -8 9 -12c6 -7 10 -17 20 -22c0 10 -4 16 -7 22c-17 32 -25 65 -25 99
c0 22 3 44 9 66c6 20 15 38 30 52c4 4 8 6 12 6c6 0 11 -5 14 -13c2 -7 3 -13 3 -21v-7c-6 -30 -9 -61 -23 -88l-1 -2c0 -2 1 -4 3 -5c8 8 17 17 19 30c2 18 10 34 14 51c1 5 1 11 8 11v-7c0 -16 -2 -31 -2 -47l1 -17c2 -24 8 -47 19 -68c3 1 4 1 4 2l1 8v6
c0 29 12 53 29 74c9 12 20 21 33 27c3 2 5 3 5 6v2c-1 4 -5 7 -9 7c-3 0 -6 -2 -9 -3l-6 -1c-7 0 -12 4 -17 10c-10 15 -21 31 -28 49c-4 10 -9 16 -19 18c-11 3 -22 8 -34 12c4 9 13 8 16 16c-3 2 -6 2 -9 2c-6 0 -12 -3 -18 -5c-10 -3 -19 -9 -29 -13
c-32 -10 -51 -35 -66 -65c-9 -17 -13 -35 -20 -52c-5 -12 -8 -24 -8 -36c0 -6 1 -13 2 -19c3 -17 4 -34 4 -51v-5c0 -31 8 -58 25 -82c8 -10 13 -22 15 -35c5 -28 21 -48 42 -63c4 -4 10 -7 13 -12c15 -23 32 -44 45 -68c7 -14 9 -29 9 -43l-2 -29c0 -5 -4 -10 -7 -13
c-12 -11 -25 -22 -33 -38c-2 -3 -4 -4 -6 -4s-4 1 -6 3c-13 16 -23 34 -23 55c0 6 1 13 3 20l9 26c1 3 3 6 3 9l-2 5h-1c-5 0 -7 -4 -9 -8c-5 -9 -12 -13 -20 -18c-10 -6 -21 -8 -32 -8l-15 1c-24 0 -44 -20 -45 -46l6 3c7 4 13 6 18 6c10 0 17 -8 24 -23c3 -9 7 -18 11 -27
c10 -18 23 -33 43 -35l15 -1c17 0 34 3 50 10c3 2 7 5 12 5h3v-4c0 -9 -8 -16 -8 -25l1 -5h3z" />
    <glyph glyph-name="T" unicode="T" horiz-adv-x="420" 
d="M133 -202c25 7 46 21 58 47c7 13 13 27 17 41c6 23 23 33 41 42l8 2c4 0 8 -2 12 -4s8 -8 12 -8c2 0 3 1 5 3l1 4c0 5 -5 10 -6 16c0 1 -1 2 -2 3c-16 21 -17 49 -29 71c-1 28 -6 55 -6 82l2 28c1 12 2 24 2 36c0 16 -1 31 -4 47l-1 6l2 9c6 12 8 24 8 36s-2 25 -5 38
c-3 18 -5 36 -7 55l-1 17c0 34 7 67 12 99c2 12 9 19 18 19l9 -2c4 -1 8 -4 12 -4l5 2c-2 7 -8 8 -13 10c-6 2 -10 7 -15 9c-1 1 -2 2 -2 3v2c0 2 2 4 4 4h5c14 0 27 -7 39 -11c2 -1 4 -4 4 -7c3 -9 7 -17 15 -22c2 -1 4 -4 5 -6c6 -25 15 -50 15 -76c0 -11 -2 -22 -6 -34
v-6c9 10 12 15 18 34c7 29 14 58 22 87c5 20 12 39 29 51c2 2 4 3 4 6l-1 3c0 2 -2 3 -3 3l-7 -1c-5 0 -10 -2 -15 -2l-6 2c-8 5 -16 5 -25 5c-8 0 -16 0 -24 4l-4 1l-4 -1c-5 -3 -10 -4 -15 -4c-9 0 -17 4 -26 9c-7 4 -13 6 -20 6l-8 -1c-6 -2 -11 -7 -17 -7
c-3 0 -7 1 -10 5l-26 -9c-3 -1 -6 -4 -9 -4l-3 2c-5 5 -12 6 -19 6h-9c-39 -3 -77 -9 -116 -9c-11 0 -16 -7 -16 -19v-3c0 -5 1 -11 3 -16s2 -10 2 -15c0 -8 -2 -16 -4 -23c-5 -12 -11 -24 -14 -37c-2 -10 -4 -19 -4 -29c0 -13 3 -26 10 -38c3 23 8 45 14 67
c6 24 17 46 34 64c4 5 9 10 15 12c13 2 26 -2 38 8h1l8 -2c8 -3 16 -10 23 -15c10 -7 15 -17 15 -28v-6c-1 -5 -1 -10 -1 -15l2 -33c0 -7 -1 -14 -3 -20c-1 -5 -2 -10 -2 -15c0 -6 1 -12 2 -19c2 -7 2 -15 2 -23s0 -15 -2 -23l-2 -19c0 -13 3 -27 7 -40c2 -6 3 -12 3 -18
c0 -5 -1 -10 -2 -16l-17 -73c5 1 7 4 8 8c2 3 4 8 7 8l3 -1c4 -1 5 -4 5 -8l-1 -6c-1 -6 -1 -12 -3 -17c-4 -13 -6 -27 -6 -40l2 -33v-16c0 -14 -1 -27 -2 -41c-1 -10 -4 -19 -4 -29l2 -13c3 -11 4 -21 4 -31c0 -29 -10 -56 -20 -83c-5 -12 -13 -23 -23 -31
c-2 -1 -5 -3 -5 -6z" />
    <glyph glyph-name="U" unicode="U" horiz-adv-x="306" 
d="M154 -174c10 0 19 3 30 9c47 27 84 66 89 132c1 15 2 30 2 45c0 17 -1 33 -7 49c-2 5 -3 11 -3 17s1 11 3 16c9 22 8 45 9 68l3 57c2 30 9 59 9 89c1 29 2 58 15 85c2 3 2 7 2 11c0 6 -2 13 -4 19c-6 15 -6 31 -6 47v4c0 17 -6 34 -12 53c-3 -4 -5 -5 -5 -6
c-2 -44 -27 -69 -58 -85c-33 -16 -45 -48 -52 -83v-1l3 -4c8 11 15 21 23 30c5 5 9 8 13 8c5 0 9 -5 12 -14c6 -16 12 -32 17 -48c3 -10 5 -21 5 -32l-1 -13c-5 -41 -15 -82 -16 -124l-1 -39l1 -20c2 -11 3 -23 3 -34s-1 -21 -3 -31c-5 -24 -8 -49 -8 -73v-11
c0 -10 -1 -19 -9 -27c-8 11 -5 26 -14 36v-33c0 -13 -2 -22 -15 -27c-10 -3 -23 -7 -23 -26c0 -5 -2 -7 -5 -7s-5 1 -8 4c-6 7 -10 15 -10 24c0 10 5 19 14 27c4 3 7 6 7 12c-17 5 -27 21 -27 40l1 11c1 8 4 16 4 24l-1 9c-5 28 -8 56 -12 84l-1 10c0 17 4 31 11 46
c9 -6 9 -21 19 -25c1 2 2 4 2 6c0 3 -2 6 -3 9c-9 21 -14 44 -19 66c-1 7 -3 14 -3 21l1 8c1 8 2 16 2 24c0 15 -3 30 -8 45l-1 9v4c2 7 2 15 2 22c0 18 -4 35 -6 54c-1 8 -2 15 -2 23l1 10c1 8 2 15 7 21l4 2c3 0 6 -3 9 -3l3 1c-1 13 -8 21 -15 29s-11 12 -15 12
s-8 -2 -14 -7c-5 -4 -9 -5 -14 -5s-10 2 -15 7s-11 10 -17 14c-4 2 -8 4 -13 4c-3 0 -7 -1 -10 -3c-2 -2 -4 -4 -4 -7v-2c0 -4 3 -4 6 -4c6 0 10 -4 13 -11c6 -11 11 -22 11 -35v-3c0 -15 3 -30 6 -44c2 -7 3 -15 3 -22l-1 -18c0 -10 2 -19 6 -29c2 -7 5 -15 5 -22
c0 -6 -2 -12 -7 -17c-1 -1 -2 -3 -2 -5l1 -8l-1 -9c0 -12 4 -23 4 -35l-1 -8l-1 -17c0 -9 1 -19 2 -28c2 -15 3 -30 3 -45l-1 -24l-2 -28c0 -29 5 -58 5 -87c0 -12 -1 -23 -3 -35l1 -6c7 -38 21 -73 45 -101c14 -18 27 -26 42 -26z" />
    <glyph glyph-name="V" unicode="V" horiz-adv-x="388" 
d="M205 -162c9 1 9 12 11 19c11 39 21 77 31 116c11 46 24 91 29 138c1 12 4 25 11 35c17 28 22 61 29 93c4 16 6 33 12 48c5 12 10 25 12 38c3 29 14 54 23 81c6 22 14 43 23 64c1 2 2 3 2 5l-2 5c-2 -1 -4 -2 -5 -4c-20 -33 -41 -66 -56 -103l-29 -73c-2 -5 -3 -12 -9 -15
l-1 7c0 9 4 18 4 28v5c-23 -47 -18 -100 -36 -144c-18 -46 -13 -98 -36 -147l-7 37c-2 5 -1 11 -6 13c-7 3 -9 9 -9 14l1 16c0 12 -2 24 -5 36c-2 8 -4 17 -4 26c0 3 1 7 5 8h1c4 0 5 -3 6 -6c5 -8 3 -19 13 -30c-5 32 -11 58 -26 80c-9 14 -15 29 -15 45v8
c0 15 -5 28 -11 40c-4 8 -7 17 -7 25l2 19c0 9 -2 18 -4 27l-9 41c-2 7 -2 13 -2 20c0 9 1 19 4 28c6 18 14 35 21 52c2 5 6 10 6 18c0 2 0 5 -1 8l-19 -29c-12 -20 -28 -36 -45 -51c-15 -13 -32 -19 -49 -19c-8 0 -15 1 -23 3c-3 1 -7 3 -10 3c-1 0 -3 0 -4 -3l-1 -3
c0 -5 6 -8 9 -11l4 -4c15 -8 22 -23 25 -40c5 -20 8 -40 14 -60c8 -31 11 -64 23 -93c2 -6 5 -13 5 -20l-1 -6c-2 -5 -2 -11 -2 -16c0 -10 2 -20 4 -30c5 -24 13 -48 16 -73c1 -15 8 -29 15 -42c9 -20 18 -40 18 -64v-14c0 -11 1 -21 10 -29c1 -1 1 -3 1 -6v-7
c0 -6 0 -12 2 -17c8 -25 16 -50 28 -73c3 -7 6 -17 14 -17z" />
    <glyph glyph-name="W" unicode="W" horiz-adv-x="545" 
d="M205 -190c9 2 10 17 12 27c19 77 39 153 54 231c0 3 0 7 5 8c14 -29 29 -58 29 -94l-1 -15c0 -10 2 -19 10 -27c2 -1 2 -4 2 -7v-6c0 -6 0 -13 1 -18c9 -28 17 -55 29 -80c4 -7 7 -16 14 -16h1c7 1 8 11 10 19c11 42 21 85 31 128c11 46 24 92 28 141c1 13 5 26 11 37
c18 31 23 68 30 103c3 12 3 25 8 36c15 33 17 71 29 106c9 28 16 56 28 82c7 14 9 27 9 42v10c0 3 -1 7 -7 7l1 -10c0 -23 -13 -40 -30 -53c-16 -13 -33 -22 -51 -29c-6 -2 -12 -3 -17 -3c-17 0 -33 10 -44 29c-1 2 -3 3 -4 4l-2 -5l1 -6c4 -24 14 -44 24 -64
c11 -22 18 -46 18 -71c0 -8 -1 -15 -2 -23l-15 -90c-2 -10 -4 -20 -8 -29c-9 -22 -13 -45 -16 -69c-2 -28 -10 -54 -17 -85c-7 14 -7 25 -10 35c-1 6 -2 16 -5 17c-8 4 -10 10 -10 17l1 13c0 12 -1 23 -4 35c-3 11 -5 22 -5 34c0 3 1 6 4 8h1c3 0 5 -2 7 -5
c5 -9 3 -22 13 -33c-4 32 -10 60 -26 83c-10 16 -12 39 -26 53c-1 2 -1 6 -1 9c-1 19 -8 35 -13 52c-9 24 -13 50 -13 76c0 10 1 21 2 31c4 24 7 48 10 72c1 3 2 6 2 9c0 2 -1 4 -3 6c-8 -7 -13 -17 -17 -26c-6 -16 -14 -30 -23 -44c-2 -4 -6 -8 -11 -8l-10 2
c-11 0 -18 -9 -20 -22c-2 -9 -3 -19 -3 -28s1 -17 4 -26c3 -11 4 -22 7 -34c9 -31 11 -65 23 -96c3 -8 4 -16 4 -25c0 -34 -3 -66 -13 -98c-2 -8 -3 -16 -4 -25c-2 -28 -9 -54 -18 -85c-6 15 -7 27 -9 37c-2 6 -1 14 -7 17c-8 3 -8 11 -8 18l1 13c0 15 -3 29 -6 43
c-1 3 -2 7 -2 11l-1 11c0 4 1 7 4 8h2c6 0 7 -9 9 -14l2 -11c2 -3 2 -7 7 -7c-4 28 -10 54 -24 76c-10 17 -17 34 -17 55v9c0 8 -2 17 -5 24c-8 15 -13 30 -13 47l2 21c0 5 -2 11 -3 17c-3 16 -6 32 -10 48l-2 18c0 10 2 20 5 30c6 21 14 41 22 60c2 4 6 9 6 15
c0 2 -1 5 -2 7c-7 -6 -11 -15 -16 -23c-15 -26 -33 -46 -54 -63c-13 -11 -26 -16 -40 -16l-10 1c-10 1 -20 3 -30 5v-4c0 -10 6 -13 11 -17c15 -10 23 -25 26 -44c4 -22 8 -43 14 -64c8 -33 11 -67 23 -99c2 -6 4 -12 4 -18l-3 -23c0 -14 3 -26 6 -39c6 -24 11 -48 15 -73
c1 -14 6 -27 12 -39c13 -24 21 -49 21 -79v-13c0 -9 1 -18 9 -25c2 -2 2 -5 2 -9v-13c0 -5 1 -10 2 -14c8 -23 14 -46 24 -67c5 -9 8 -24 17 -24h2z" />
    <glyph glyph-name="X" unicode="X" horiz-adv-x="451" 
d="M221 -216l4 2l2 4l-2 4c-5 11 -11 21 -17 31c-13 21 -19 44 -19 69c0 30 2 60 8 89c3 18 7 35 20 52c4 -20 0 -41 14 -57c0 51 6 97 20 145c5 -7 7 -11 9 -15c18 -33 28 -71 44 -105c6 -14 12 -29 17 -44c3 -10 5 -21 5 -31c0 -17 -5 -34 -21 -45c-4 -3 -9 -6 -9 -14
c8 -7 17 -10 26 -10l9 1c15 3 30 8 44 18c10 7 20 15 31 20c6 3 13 5 19 5s11 -2 17 -5c1 -1 3 -3 5 -3l4 3c-9 17 -15 35 -28 49c-27 29 -49 62 -57 104c-3 16 -9 30 -16 45c-9 21 -23 39 -31 61c-10 23 -12 50 -26 72c-1 1 -1 4 -1 6c3 25 5 51 11 75c5 0 5 -5 9 -5h1
c5 32 2 67 14 99c12 31 20 65 36 94s39 48 64 72l-10 1c-17 0 -29 -7 -40 -20c-14 -15 -26 -32 -43 -43c-9 -6 -19 -9 -28 -9c-13 0 -25 6 -36 19c-3 4 -5 8 -8 11c-2 1 -4 3 -6 3l-3 -2c-2 -1 -2 -3 -2 -4c0 -2 1 -4 2 -6c6 -10 10 -21 12 -33c3 -22 5 -44 5 -66
c0 -35 -4 -70 -12 -104c-1 -6 -3 -14 -10 -14h-1c-6 0 -8 6 -10 11l-39 88c-2 4 -2 9 -3 13c-2 14 -4 27 -4 41c0 20 3 39 9 59l17 59l-2 5c-5 -1 -7 -5 -8 -8c-15 -36 -41 -55 -72 -66c-14 -4 -27 -10 -41 -17c-25 -12 -50 -54 -53 -91c7 11 12 22 20 31c6 6 13 10 20 10
c5 0 11 -2 15 -7c19 -20 39 -39 46 -70c2 -7 5 -13 10 -17c20 -17 30 -42 40 -68c3 -10 6 -20 13 -28c4 -5 5 -10 5 -16c0 -4 0 -8 -2 -12c-4 -11 -6 -22 -10 -32c-16 -46 -16 -97 -41 -138c-3 -4 -3 -9 -5 -13l-27 -79c-9 -27 -24 -47 -48 -57c-12 -6 -25 -12 -37 -19
c-8 -5 -18 -8 -20 -24c10 4 20 6 29 6l13 -1c2 0 5 0 7 2c5 4 10 5 15 5c7 0 14 -3 20 -6c25 -12 47 -30 73 -38c13 -4 22 -17 30 -28c3 -4 6 -9 9 -12c2 -1 3 -2 5 -2z" />
    <glyph glyph-name="Y" unicode="Y" horiz-adv-x="411" 
d="M162 -184c3 0 4 2 6 4c10 16 24 28 37 42c9 12 22 17 35 17c16 -1 33 -1 47 -11c4 -2 8 -3 12 -3c6 0 12 2 19 7l-24 23c-16 14 -26 30 -31 52c-8 43 -16 85 -18 128l-1 41c0 28 2 57 14 83l1 5v8c2 24 8 47 14 70c1 2 2 3 4 3l7 -2c2 0 2 2 3 6c3 45 19 84 37 124
c18 39 44 69 78 89c4 2 9 3 9 9v2c-5 2 -11 3 -16 3c-10 0 -19 -4 -28 -11c-14 -11 -25 -24 -40 -32c-10 -5 -19 -8 -27 -8c-17 0 -32 10 -44 28l-8 12l-4 2l-3 -1c-2 -1 -3 -2 -3 -4l1 -3c4 -10 9 -20 10 -32c1 -13 2 -26 2 -38c0 -44 -8 -86 -20 -128
c-2 -6 -5 -12 -11 -12s-8 6 -10 12c-9 24 -17 49 -26 74c-4 10 -9 20 -10 32l-1 23c0 24 3 47 13 70c6 15 12 30 17 45c1 4 5 7 5 11l-2 5h-2c-2 -2 -4 -3 -6 -6c-19 -33 -47 -46 -80 -50c-13 -2 -25 -6 -37 -8c-16 -3 -29 -13 -38 -28c-7 -12 -14 -24 -20 -36
c-1 -2 -3 -4 -3 -6s0 -3 2 -5c6 6 10 13 16 19s14 10 21 10c8 0 15 -4 21 -12c16 -22 35 -44 39 -75c1 -8 5 -14 10 -19c17 -17 23 -40 31 -63c4 -13 6 -27 14 -38c2 -3 3 -7 3 -11v-2c-1 -4 -1 -8 -1 -12c0 -14 6 -27 12 -40c8 -20 11 -39 11 -61l-1 -115v-47
c0 -25 -5 -47 -16 -68c-4 -8 -9 -16 -13 -25c-7 -15 -10 -31 -10 -47h3z" />
    <glyph glyph-name="Z" unicode="Z" horiz-adv-x="399" 
d="M24 -171c8 9 13 19 18 29c9 20 21 38 36 54c14 15 31 21 50 24l71 11c17 3 33 6 50 6c11 0 23 -2 35 -5c15 -4 26 -11 34 -24l24 -48c2 -3 2 -9 9 -9c-2 8 -2 15 -2 23v15c0 6 0 13 -1 19c-3 16 -4 31 -4 47c0 18 1 36 2 54c0 4 3 10 3 14c0 3 -2 5 -6 6h-2
c-6 0 -6 -10 -9 -16c-11 -27 -21 -37 -42 -37c-6 0 -13 1 -20 2c-3 0 -5 0 -8 1c-10 3 -20 4 -30 4c-12 0 -25 -2 -37 -6c-15 -5 -30 -9 -46 -10l-8 -1c-4 0 -6 2 -6 5l2 10c3 12 6 23 11 34c13 24 22 50 31 75c3 8 5 15 11 22l-1 -32c0 -13 1 -15 6 -22c7 53 23 101 49 150
l1 -7c0 -11 -5 -19 -5 -28l1 -7c5 0 6 3 6 6c8 43 24 83 44 121s38 77 58 115c19 34 32 71 47 107c2 3 3 6 3 9c0 4 -1 7 -5 9c-6 -2 -6 -8 -8 -13c-6 -15 -17 -27 -30 -36c-6 -4 -12 -7 -18 -7c-4 0 -8 1 -13 3c-10 6 -22 9 -32 14c-4 2 -9 3 -14 3c-4 0 -9 -1 -13 -4
c-11 -6 -22 -9 -33 -9c-7 0 -15 1 -23 3l-12 1c-6 0 -11 -1 -17 -3c-8 -3 -14 -5 -19 -5c-7 0 -12 5 -21 18c-1 1 -2 1 -6 1v-6c0 -62 -27 -116 -53 -174c13 9 20 17 27 26c13 17 27 34 41 50c13 14 27 23 44 23l15 -1c6 0 14 1 20 2c5 1 10 4 14 4c2 0 4 -1 6 -3
c3 -3 4 -7 4 -11c0 -5 -2 -11 -3 -16c-1 -3 -3 -5 -5 -8c-24 -45 -49 -88 -63 -137c-2 -6 -4 -13 -7 -19c-18 -34 -29 -71 -43 -107c-14 -39 -31 -77 -49 -114c-27 -57 -46 -116 -61 -177l-2 -9c0 -3 1 -6 4 -9z" />
    <glyph glyph-name="bracketleft" unicode="[" horiz-adv-x="758" 
 />
    <glyph glyph-name="backslash" unicode="\" horiz-adv-x="569" 
 />
    <glyph glyph-name="bracketright" unicode="]" horiz-adv-x="758" 
 />
    <glyph glyph-name="asciicircum" unicode="^" horiz-adv-x="267" 
d="M244 179c8 0 14 5 23 18h-1c-5 0 -9 -5 -13 -5c-2 0 -3 1 -5 3c-9 10 -20 19 -28 30c-12 14 -22 29 -34 44c-11 13 -25 25 -25 43c0 4 0 8 2 13v2c0 3 -5 4 -8 4c-4 0 -7 -3 -9 -6c-16 -22 -37 -38 -59 -53c-3 -2 -9 -5 -9 -9l2 -4c1 -2 2 -3 2 -5l-1 -2
c-10 -9 -17 -21 -28 -29c-13 -9 -25 -20 -33 -35c22 13 45 16 71 16h12c-3 5 -4 9 -4 13c0 8 6 14 11 21c8 9 16 19 23 29c4 5 8 9 13 9l3 -1c8 -1 12 -6 15 -14c3 -11 6 -23 6 -34c0 -10 -3 -21 -10 -31v-1c0 -1 1 -2 3 -3c7 2 13 3 20 3c15 0 31 -5 46 -12
c6 -2 11 -4 15 -4z" />
    <glyph glyph-name="underscore" unicode="_" horiz-adv-x="371" 
d="M29 -10c3 0 6 0 8 1c1 1 3 1 4 1l29 6c20 7 41 10 62 10l16 -1l28 3c17 3 34 4 51 4s35 -3 54 -8h5v5c0 3 4 5 12 5c16 -4 38 -7 66 -10c0 2 -2 5 -5 8c-5 2 -7 4 -7 7l14 21c0 9 2 15 5 18c-31 -8 -65 -12 -104 -12c-19 0 -39 -1 -59 -2c-35 0 -70 5 -103 14l-23 4
c1 -2 7 -6 17 -13c1 -2 2 -4 2 -6c-13 -3 -25 -5 -38 -5s-25 1 -38 2c9 -9 14 -18 14 -27s-6 -17 -19 -24z" />
    <glyph glyph-name="grave" unicode="`" horiz-adv-x="186" 
d="M167 542l1 4l-2 13l1 4c3 6 7 10 12 14l2 10c1 2 3 5 5 5c-23 11 -43 42 -64 65c-23 29 -32 53 -54 95v-3c0 -7 3 -15 3 -21l-1 -7c-6 4 -11 10 -17 17l-15 23c0 -14 0 -26 -3 -34c-2 -9 -7 -14 -15 -15l3 -6l6 -4c14 -11 29 -16 43 -34c15 -22 25 -23 41 -45
c7 -9 13 -20 18 -35c2 -3 1 -4 3 -4l2 3c0 3 0 5 2 5l3 -2c10 -20 15 -29 26 -48z" />
    <glyph glyph-name="a" unicode="a" horiz-adv-x="394" 
d="M392 -70l2 7c0 3 -2 5 -3 8c-7 15 -16 30 -28 42l-39 38c-24 23 -31 54 -40 87c9 -8 11 -9 19 -10l-5 7c-27 31 -30 71 -39 108c-7 28 -15 56 -21 85c-4 20 -10 40 -16 60c-2 5 -2 10 -2 14c0 12 6 22 18 29c6 4 11 9 14 18c-23 -11 -23 -11 -57 -11c-14 0 -28 -4 -41 -9
c-18 -7 -28 -22 -28 -40l1 -7c5 12 12 20 21 26c4 3 8 4 11 4c5 0 7 -4 8 -13l1 -12l-2 -17c-7 -27 -17 -52 -24 -78c-9 -31 -25 -59 -29 -91c0 -4 -3 -8 -5 -12c-2 -6 -6 -12 -6 -18c-1 -19 -9 -36 -15 -53c-11 -30 -25 -60 -50 -82l-9 -10l-8 -12c21 10 41 21 63 25
c6 1 12 2 18 2c16 0 32 -4 51 -5c-12 9 -22 14 -33 17c-11 4 -16 13 -18 25l-1 9c0 12 4 22 14 29l20 16c12 9 24 15 39 15h14c5 0 11 0 16 3c3 2 5 2 7 2c4 0 7 -3 8 -9c4 -20 9 -40 12 -59l1 -10c0 -15 -4 -28 -19 -36c-1 -1 -2 -2 -2 -3l1 -3c15 3 30 4 44 4
c57 0 104 -22 137 -80zM116 125l22 62c6 -3 4 -11 13 -15v12c0 39 12 76 21 112c9 -21 14 -42 17 -64l1 -6c0 -16 -10 -30 -21 -45c13 3 17 14 25 18c10 -12 9 -28 12 -43v-1c0 -7 -8 -12 -17 -12c-24 -3 -47 -9 -73 -18z" />
    <glyph glyph-name="b" unicode="b" horiz-adv-x="288" 
d="M37 -77c23 3 40 10 53 23c7 8 11 16 17 24c10 13 20 22 37 22l10 -1c17 -3 35 -4 53 -6c17 -2 31 -9 42 -22c3 -4 6 -9 13 -12c-2 13 -7 22 -14 30c-4 5 -6 11 -6 16s2 10 4 15c4 7 8 14 14 19c5 5 11 10 13 16c9 22 15 44 15 66c0 20 -5 39 -17 59c-7 12 -13 26 -24 33
c-13 9 -27 17 -42 17c-8 0 -15 -2 -23 -6l-5 -2l-3 2c4 7 11 10 16 14c24 18 43 40 59 64c7 11 10 23 10 35v20c0 22 -24 54 -45 61c-25 8 -52 4 -79 9h-2c-3 0 -6 -1 -9 -2c-18 -7 -36 -12 -53 -21c-20 -10 -38 -25 -51 -47c7 1 9 4 12 7c8 5 15 12 24 17c4 2 8 3 12 3
c6 0 12 -2 16 -7c2 -3 4 -7 4 -11s-2 -9 -5 -14c-3 -4 -8 -7 -9 -13c10 -5 13 -14 13 -25v-39c0 -16 0 -32 -3 -48c-3 -19 -5 -37 -5 -56c0 -25 3 -51 5 -76l1 -15c0 -5 0 -10 -2 -15c-2 -9 -3 -17 -3 -25c0 -6 0 -13 3 -19l2 -9l-1 -7c-6 -28 -16 -53 -42 -69
c-3 -1 -5 -2 -5 -5zM142 15c-3 7 -5 13 -5 20l2 10c1 2 2 5 2 8l-1 5c-2 6 -3 12 -3 18s1 12 3 18c1 2 1 4 1 7l-1 9c-2 6 -3 13 -3 19s1 11 3 17l1 5l-3 21c0 5 1 10 5 16c12 -18 1 -45 25 -54l2 4c0 2 -2 3 -3 4c-4 6 -5 12 -5 18c0 4 1 9 2 14c4 12 12 20 20 20h2
c13 -1 23 -10 26 -23c2 -6 3 -12 6 -17c2 -5 4 -10 4 -16l-1 -6l-1 -8c3 -5 4 -9 4 -12c0 -11 -10 -18 -17 -26c-4 -4 -10 -8 -17 -14c19 1 30 12 42 19c2 -1 3 -3 3 -4l-1 -3c-7 -13 -14 -27 -18 -42c-3 -10 -14 -17 -25 -19c-11 -3 -21 -6 -32 -6h-8c-3 0 -6 -1 -9 -2z
M146 236c-3 0 -4 4 -5 7c-2 6 -2 13 -2 19v57h2v62c0 8 2 12 11 12h7c17 0 26 -7 28 -28c1 -13 3 -26 3 -40l-1 -13c-3 -22 -13 -38 -23 -55l-13 -17c-2 -2 -5 -4 -7 -4z" />
    <glyph glyph-name="c" unicode="c" horiz-adv-x="260" 
d="M160 -8c22 1 44 1 62 18c1 1 4 2 5 2l5 -1c4 0 3 4 4 8c0 3 1 6 2 10c1 27 7 53 22 78c-14 -2 -14 -2 -19 -9c-10 -12 -19 -25 -28 -37c-5 -7 -11 -16 -19 -16c-12 0 -18 -6 -24 -13c-4 -4 -8 -6 -11 -6c-4 0 -8 3 -12 9c-5 8 -6 18 -10 25c-7 -2 -12 -3 -16 -3
c-8 0 -10 6 -11 21v5l1 12c1 7 5 11 11 11l8 -2l-18 43c-10 19 -14 40 -14 61l1 28c0 3 0 7 -1 10l-2 15c0 20 10 36 23 51c4 5 7 9 7 15c0 2 -1 6 -3 10s-3 8 -3 12c0 14 9 28 20 29l15 1c6 0 11 0 15 -2c5 -1 5 -6 5 -10l1 -7c1 -3 4 -5 6 -7c4 -5 6 -9 7 -15
c1 -14 7 -27 8 -41c1 -17 11 -32 16 -48c1 -2 2 -4 5 -4h1c5 0 5 3 5 7l-1 52c0 25 8 32 32 33c1 0 2 1 5 3c-11 9 -16 21 -21 33c-8 19 -23 32 -44 35c-12 2 -23 4 -35 4c-9 0 -18 -1 -27 -3c-13 -2 -24 -9 -37 -12c-10 -2 -17 -6 -20 -15c-3 -8 -8 -14 -16 -17
c-7 -3 -13 -9 -15 -16c-7 -24 -13 -49 -13 -74l1 -14c0 -10 0 -20 -3 -29c-3 -12 -6 -24 -8 -36c-1 -3 -2 -6 -2 -9c0 -2 1 -4 4 -4h1c4 0 4 3 4 7v3c2 5 1 11 7 16c3 -4 3 -8 3 -12l-1 -11l-7 -48c-1 -7 -2 -14 -2 -21c0 -8 1 -16 5 -23c2 -3 3 -6 3 -9l-2 -10l-1 -9
c0 -14 9 -22 20 -29s20 -15 28 -24c7 -9 15 -17 27 -18c17 -1 34 -3 51 -3z" />
    <glyph glyph-name="d" unicode="d" horiz-adv-x="332" 
d="M31 -67c24 4 46 10 61 30c4 6 7 12 12 18c8 9 17 19 30 19h4c6 -1 12 -1 18 -1h19c31 2 58 14 77 39c10 14 20 27 32 40c4 3 6 8 9 12c17 36 22 75 35 111l1 4c-6 26 3 54 -17 77c-2 1 -3 4 -3 7c-1 22 -15 40 -21 60c-1 4 -3 8 -5 10c-12 9 -21 20 -31 30
c-2 2 -4 3 -7 3c-10 1 -19 7 -28 10c-22 7 -44 10 -65 10c-11 0 -21 0 -31 -2c-20 -2 -40 -10 -57 -20c-18 -11 -35 -23 -44 -43c6 3 11 7 16 11c6 5 13 10 21 13c2 1 4 1 7 1c4 0 9 -2 13 -5c3 -2 4 -4 4 -7l-2 -9c-2 -8 -6 -16 -11 -22c-4 -5 -10 -8 -12 -16l3 -1
c4 0 7 5 11 5l3 -1v-14c0 -11 -1 -23 -5 -34c-3 -9 -5 -18 -5 -28s2 -21 4 -31c3 -17 6 -34 7 -50c0 -22 5 -43 5 -64l1 -22l-2 -16c-2 -6 -3 -13 -3 -19s1 -11 4 -17c1 -3 1 -6 1 -9c0 -5 -1 -11 -3 -16c-8 -26 -20 -49 -46 -63zM166 27l-10 1c-12 2 -20 10 -20 21v4
c0 7 -3 13 -3 19l2 30l-1 38l1 22l-1 13c0 3 1 6 3 9c9 -4 16 -11 27 -11h4c-27 18 -34 44 -34 73l2 86c1 14 1 29 7 43c4 10 8 14 14 14c4 0 9 -2 14 -6c3 -1 5 -5 8 -5c22 -6 30 -26 38 -44c6 -11 10 -21 19 -30c7 -7 10 -16 10 -26c0 -7 -1 -15 -4 -22
c-5 -16 -16 -29 -26 -43c-3 -3 -6 -6 -8 -11c10 3 17 11 24 18l21 26c4 -6 8 -9 9 -13c5 -17 10 -34 10 -52c0 -17 -5 -34 -17 -51c-14 -19 -28 -38 -48 -52c-9 -7 -20 -9 -30 -15c4 -2 7 -3 10 -3l18 1c-8 -24 -18 -34 -39 -34z" />
    <glyph glyph-name="e" unicode="e" horiz-adv-x="286" 
d="M35 -60c27 5 51 14 66 39c7 12 17 20 28 26c16 8 33 13 49 13c9 0 19 -1 28 -5c10 -5 21 -7 36 -12c-6 14 -8 26 -8 39l1 20c0 7 -3 14 -11 18c2 -4 3 -7 3 -11c0 -6 -3 -11 -7 -16c-2 -3 -5 -6 -8 -6l-3 1c-23 6 -47 2 -70 10l-1 2c0 2 2 5 2 8v1c-2 7 -4 14 -4 21
s2 14 4 21l1 4l-1 3c-3 7 -3 14 -3 22c0 12 2 23 2 35l-1 18c0 19 11 26 33 26h14c15 -2 22 -8 23 -24v-19c8 10 12 21 12 32c0 7 -2 14 -7 20c-8 9 -14 19 -14 32v3l-5 -1c-6 -9 -13 -11 -20 -11l-27 1c-4 0 -7 4 -8 8c-1 5 -1 9 -1 14c1 12 0 25 2 37l1 4l-3 17
c0 5 2 10 9 14c-1 11 -7 20 -7 31v4c1 3 1 5 1 8s1 5 4 6s7 2 11 2c11 0 24 -4 25 -11c2 -6 4 -8 6 -8s4 2 7 4c14 12 30 21 47 27c9 4 19 9 27 15c6 6 14 11 18 24c-21 -16 -40 -25 -62 -28c2 10 12 11 13 21c-7 0 -12 -5 -17 -8c-8 -6 -16 -11 -25 -15c-4 -2 -9 -4 -13 -4
l-6 1c-21 6 -42 5 -63 7h-5c-11 0 -20 -3 -29 -9c-13 -9 -26 -19 -39 -29c-9 -7 -13 -17 -19 -27c-1 -1 -1 -1 -1 -3l1 -2l3 -1c1 0 2 0 3 1l7 9c8 7 16 14 26 17l8 2c11 0 19 -8 19 -18v-3c-1 -8 -11 -14 -11 -20v-1c2 -8 10 -13 10 -22l1 -44c0 -14 -1 -27 -3 -40
c-3 -21 -6 -42 -6 -63c0 -15 1 -31 4 -46c2 -10 3 -21 3 -33c0 -10 -1 -20 -5 -30c-2 -3 -2 -7 -2 -11s0 -7 1 -10c1 -6 2 -12 2 -18c0 -28 -14 -55 -38 -71c-3 -2 -8 -2 -8 -8z" />
    <glyph glyph-name="f" unicode="f" horiz-adv-x="286" 
d="M36 -62c31 5 55 19 70 47l7 11c5 9 12 16 22 18c8 3 16 7 25 10c-3 3 -3 6 -5 6c-11 7 -19 14 -19 25c0 3 1 7 3 12v1l-2 8l-1 13c0 3 0 5 1 8c2 5 3 10 3 15l-4 26l1 5c2 6 2 11 2 17l-1 16c0 10 0 20 5 28c3 5 6 11 11 11l4 -1c4 -1 4 -4 4 -7v-10c0 -1 0 -2 2 -2
c7 15 11 20 19 20l10 -2c10 -2 15 -10 15 -27l-1 -14c10 9 15 19 15 30c0 8 -3 16 -9 23s-10 14 -10 22l3 15l-1 5l-4 -1c-9 -12 -18 -20 -31 -20c-4 0 -8 1 -13 2h-2c-14 0 -16 2 -16 16l1 71c0 2 0 4 3 5c4 1 5 2 5 4c0 3 -1 5 -2 8c-4 8 -5 16 -5 25v7c0 4 1 8 6 8l13 1
c4 0 8 -1 12 -3c8 -3 11 -9 12 -21c21 22 45 31 68 41l17 10c8 5 15 11 17 21c-13 -7 -26 -16 -40 -20c-20 -6 -39 -9 -59 -9c-10 0 -20 0 -30 2c-12 2 -26 5 -39 5c-9 0 -18 -1 -26 -5c-28 -11 -53 -30 -69 -58c-1 -1 -3 -3 -3 -5l2 -3l3 -2c2 0 4 3 6 6c7 10 17 17 28 22
c3 2 7 2 10 2c5 0 10 -2 15 -7c3 -3 4 -7 4 -10c0 -5 -2 -9 -5 -14c-3 -4 -8 -7 -9 -13c12 -5 13 -16 13 -26v-23c0 -23 -1 -45 -5 -67c-2 -16 -4 -33 -4 -49c0 -10 0 -21 2 -31c2 -16 4 -32 4 -48c0 -13 -2 -25 -5 -38l-1 -5c0 -5 2 -9 3 -14c2 -4 3 -9 3 -13
c0 -5 -1 -10 -3 -15c-7 -26 -19 -49 -45 -61v-4z" />
    <glyph glyph-name="g" unicode="g" horiz-adv-x="293" 
d="M169 -37c16 10 29 18 42 25c17 10 34 17 53 17c6 0 14 -1 21 -3l3 -1c2 0 4 1 5 4c-4 7 -12 8 -17 13c-16 11 -24 25 -24 40c0 5 0 10 2 15c5 15 6 30 6 45l-1 24c-2 14 -1 28 -3 43c0 6 4 12 4 19l-1 6c-11 -9 -21 -14 -32 -14c-7 0 -13 2 -20 5l-6 2c-4 0 -8 -3 -12 -4
c-6 -2 -12 -3 -18 -3c-10 0 -19 4 -27 16v-6c0 -25 25 -34 28 -56c6 4 10 8 15 10c4 3 9 7 14 7c2 0 3 -1 5 -2c3 -2 4 -5 4 -8l-1 -14c0 -18 -5 -35 -7 -53c-2 -14 -9 -30 -24 -35c-8 -3 -15 -6 -20 -13c-4 -4 -7 -6 -10 -6s-7 3 -11 9c-4 8 -4 17 -7 26
c-7 -3 -12 -5 -15 -5c-5 0 -7 5 -9 16l-1 8l1 8c3 18 4 37 4 55l-1 38c0 15 -7 31 -7 47c0 5 0 9 2 14c0 1 -1 4 -2 5c-7 4 -9 8 -9 13s3 11 4 16c2 14 9 26 17 37c4 4 5 8 5 12c0 3 0 6 -2 10c-2 5 -3 9 -3 14c0 16 10 29 26 33c3 1 6 1 9 1c8 0 12 -5 14 -16
c1 -5 1 -9 5 -14c17 -19 24 -40 24 -63c0 -11 -1 -21 -4 -32c-1 -3 -2 -6 -2 -9c0 -2 0 -3 1 -5c16 12 21 18 26 34c7 23 16 43 45 50c-18 11 -34 17 -39 36c-8 31 -29 47 -60 47h-16c-26 -5 -55 -6 -69 -35c0 -1 -1 -2 -2 -2c-14 -5 -19 -20 -29 -29c-6 -6 -11 -15 -11 -24
c-1 -17 -7 -32 -8 -48c-1 -12 -4 -24 -4 -36c0 -8 1 -15 4 -22c8 -22 9 -43 10 -65c1 -16 1 -32 5 -48c2 -8 4 -16 4 -24l-2 -15c0 -12 8 -20 17 -26c10 -7 17 -16 24 -25c5 -8 11 -15 21 -16c15 -2 30 -4 45 -4c20 0 39 4 58 18c-2 -26 -26 -35 -37 -57z" />
    <glyph glyph-name="h" unicode="h" horiz-adv-x="330" 
d="M25 -60c26 5 50 13 63 37c13 22 28 42 56 46c2 1 4 3 4 4c0 2 -1 3 -2 3c-15 8 -20 20 -20 33l1 13l-1 3l-1 11c0 4 1 8 2 11c2 3 2 7 2 11s0 7 -1 10c-1 6 -2 13 -2 19c0 14 2 28 2 43v9l1 6c4 12 9 18 21 18h5c11 -2 23 -2 33 -10c2 -1 3 -2 5 -2l6 2c7 4 17 3 28 5
l-2 -15c0 -10 3 -19 8 -27c2 -3 3 -6 3 -9l-2 -9c-5 -10 -13 -17 -22 -24l-17 -12l8 -2c7 0 13 7 19 7l3 -1c3 -2 4 -5 4 -7c0 -5 -2 -10 -2 -14v-3c2 -5 3 -9 3 -13c0 -13 -8 -23 -15 -33l-30 -36c-1 -2 -4 -5 -4 -8l2 -4c21 16 35 22 53 22c8 0 18 -1 30 -4
c19 -4 38 -10 55 -19c2 -1 4 -3 6 -3l3 1v2c0 5 -5 8 -10 11c-8 7 -17 13 -27 19c-5 4 -11 10 -11 16l1 14c0 7 -1 13 -2 19c0 7 2 13 6 18c7 10 12 21 12 33c0 4 -1 8 -2 13c-1 4 -2 9 -2 13c0 3 0 6 2 8c3 4 4 8 4 11c0 6 -3 12 -6 18c-4 9 -10 17 -10 27v105c0 3 0 9 2 9
c5 2 7 4 7 6c0 4 -5 7 -7 10c-4 6 -6 11 -6 17s2 11 5 17c5 9 11 17 17 26c8 11 14 22 15 37c-23 -39 -56 -59 -102 -59h-3c11 -14 16 -22 16 -35l-3 -26c0 -2 0 -3 1 -5c6 -12 6 -25 6 -38c-1 -23 -3 -26 -24 -34l-10 -3c-6 0 -9 4 -14 14c-7 -8 -14 -14 -23 -14
c-3 0 -7 1 -11 3h-12c-10 0 -11 3 -11 15l1 72c0 2 0 3 2 3c5 1 6 3 6 5c0 3 -2 6 -3 9c-3 8 -5 15 -5 21c0 12 6 21 19 32c3 2 8 3 8 8v1h-5c-9 0 -17 -2 -25 -7c-13 -9 -27 -13 -42 -13l-18 1c-20 0 -35 -12 -46 -31c6 1 11 4 16 5l7 1c13 0 25 -11 25 -24
c0 -2 0 -5 -1 -7l-2 -6c0 -2 1 -4 4 -6c3 -3 4 -7 4 -11l1 -24c0 -22 -3 -43 -16 -62c-8 -12 -13 -26 -15 -40c-1 -5 -2 -11 -2 -17s2 -13 10 -17c2 -1 3 -5 4 -7l16 -50c2 -6 3 -12 3 -19l-2 -13c-2 -8 -4 -17 -4 -25c0 -6 1 -11 3 -17l2 -9l-1 -7c-6 -27 -16 -52 -43 -66
c-2 -1 -4 -2 -4 -5v-1z" />
    <glyph glyph-name="i" unicode="i" horiz-adv-x="170" 
d="M20 -67c31 4 56 16 70 45c10 19 24 31 45 36c3 1 7 0 8 4v2c0 3 -3 5 -6 7c-8 5 -15 10 -15 21v2c2 19 1 37 9 55c3 8 4 17 4 25v8c-2 21 -1 43 -4 64c-2 14 -3 28 -3 41l1 23l1 13c0 8 -1 16 -4 24c-3 9 -4 18 -4 27l2 32c0 7 0 13 -3 19l-2 9c0 5 2 10 3 14
c8 26 21 49 48 61l-4 2h-5c-31 -6 -52 -24 -67 -52c-10 -19 -22 -27 -40 -27l-15 2c-4 1 -8 2 -12 2c-2 0 -4 0 -6 -1c9 -10 19 -14 29 -19c12 -7 16 -9 16 -18l-1 -12l1 -11c0 -24 0 -49 -1 -73l-2 -16c0 -9 3 -18 8 -25c2 -4 3 -7 3 -10s-1 -7 -3 -10
c-7 -16 -12 -31 -18 -51c5 4 6 6 8 8c3 2 6 6 9 6c1 0 3 0 4 -1c2 -2 2 -4 2 -5c0 -3 -1 -6 -2 -8c-5 -12 -5 -25 -6 -38v-3c0 -10 2 -20 2 -30c0 -5 0 -10 -2 -15c-3 -7 -4 -14 -4 -21c0 -6 1 -13 3 -19c2 -3 2 -7 2 -10c0 -6 -1 -11 -3 -16c-8 -26 -21 -48 -46 -61z" />
    <glyph glyph-name="j" unicode="j" horiz-adv-x="260" 
d="M94 -85c8 1 15 5 22 9c11 8 24 11 38 11l33 3c6 1 10 2 15 6c25 23 39 52 39 85l-2 43c0 27 3 54 6 81l1 24c0 7 0 14 -2 20c-4 14 -5 28 -5 41l1 37c0 14 -3 28 -3 41c0 7 1 13 3 20c-1 4 -2 7 -2 10c0 9 6 16 16 22c3 1 6 3 6 7c0 5 -5 4 -9 5c-20 5 -35 16 -43 35
c-3 7 -8 12 -12 18c-15 18 -36 25 -59 29c1 -5 5 -6 7 -7c25 -16 40 -42 40 -70c0 -7 -1 -14 -3 -21v-11c2 -15 5 -29 5 -45l-1 -13c-3 -38 -4 -76 -19 -112c-5 -11 -8 -22 -8 -33c0 -6 1 -12 2 -18c1 -4 1 -7 6 -8l-1 15c0 21 6 35 17 43l2 -8l-1 -6c-2 -7 -3 -14 -3 -20
s1 -12 3 -18l1 -5l-1 -5c-3 -7 -3 -14 -3 -21c0 -14 3 -28 3 -42v-4c0 -22 -10 -35 -27 -45c-4 -3 -10 -5 -18 -9h6c12 0 20 4 29 6c2 -5 3 -10 3 -14c0 -9 -4 -18 -10 -26c-2 -2 -5 -6 -8 -6l-2 1c-4 3 -9 5 -13 5c-6 0 -13 -4 -19 -7c-3 -2 -6 -2 -9 -2c-5 0 -8 3 -10 11
l-2 15c0 8 2 16 4 23c3 10 7 19 11 27c5 9 16 12 25 22c-16 0 -25 -8 -33 -17l-28 -30c-11 -10 -23 -17 -38 -17c-4 0 -8 1 -13 2l-4 1c-2 0 -4 -1 -7 -4c18 -10 22 -27 27 -44c2 -5 5 -8 7 -12c8 -14 19 -18 32 -18h8z" />
    <glyph glyph-name="k" unicode="k" horiz-adv-x="347" 
d="M347 -17c-9 11 -21 19 -32 27c-5 3 -10 5 -13 9c-17 25 -37 48 -53 75c-4 7 -9 14 -10 22c-3 14 -10 26 -19 36c-8 8 -15 20 -15 29v7c0 9 -5 14 -9 21c-5 10 -8 17 -8 24c0 8 5 15 15 26c6 6 12 11 15 18c6 21 21 32 40 39c15 6 26 16 36 28l-4 1l-5 -1
c-11 -4 -20 -6 -27 -6c-15 0 -23 9 -36 30c-4 6 -7 12 -16 13c-1 -3 -2 -4 -2 -6v-3c0 -26 -11 -47 -22 -69c-13 -22 -28 -42 -36 -66l-3 -5c-2 -2 -4 -3 -7 -3h-2c-2 1 -3 2 -3 4l2 7c0 4 -2 8 -3 12c-5 12 -7 24 -7 35s2 22 6 33l1 6c0 4 -1 7 -2 9c-2 5 -3 9 -3 13
c0 11 5 20 13 28c4 4 9 8 11 18c-10 -3 -19 -4 -28 -4c-12 0 -24 3 -36 9c-20 10 -31 30 -48 48c1 -13 6 -22 11 -31c9 -14 16 -28 20 -44c1 -5 3 -10 3 -14c0 -5 -2 -10 -7 -15c-1 -1 -2 -4 -2 -6c0 -1 0 -2 2 -2c6 -1 8 -4 8 -8l-1 -7v-99c0 -45 3 -92 5 -138
c0 -16 -3 -32 -11 -46c-7 -11 -16 -18 -26 -24c-7 -6 -15 -11 -19 -25c21 17 43 23 64 29c12 3 25 5 37 5c11 0 21 -1 32 -4c0 7 -3 12 -7 15c-12 11 -16 27 -19 42l-1 7c0 7 2 14 2 21v12c0 27 12 53 23 77c1 1 3 1 5 1c13 -24 12 -52 13 -79c11 7 6 20 15 28
c6 -9 10 -19 12 -29c2 -6 9 -20 13 -27c5 -7 6 -15 7 -24c2 -10 3 -20 3 -30c0 -13 -2 -27 -6 -41c22 7 41 16 61 16l9 -1c23 -3 44 -12 64 -23z" />
    <glyph glyph-name="l" unicode="l" horiz-adv-x="305" 
d="M305 -51c-4 16 -10 31 -18 45c-4 7 -6 14 -6 20c0 7 3 15 8 22v1l-1 2c-9 -3 -14 -6 -17 -6c-5 0 -7 5 -10 20l-1 17v8c1 3 3 7 3 11c0 2 0 4 -3 5l-5 1c-4 0 -9 -3 -13 -4c-4 -2 -8 -5 -12 -8c-11 -8 -23 -14 -34 -21s-21 -9 -32 -9c-8 0 -17 1 -26 4
c-15 4 -18 7 -18 22c0 6 0 11 2 16c2 3 2 6 2 9s0 5 -1 8c-1 6 -2 11 -2 17c0 13 3 26 3 40l-1 15l1 5c3 7 4 14 4 21l-1 15c0 19 -5 36 -6 54c-1 14 -4 27 -4 40c0 9 1 17 4 25c2 6 3 12 3 18c0 5 -1 10 -3 15c-2 4 -3 9 -3 13c0 5 1 11 3 16c8 24 20 46 45 58v4
c-34 -5 -57 -22 -73 -52c-11 -19 -21 -27 -39 -27c-5 0 -11 1 -18 2l-9 2c-2 0 -4 -1 -7 -3c9 -10 21 -14 31 -19c9 -4 15 -10 15 -19l-1 -6v-17c-1 -14 -2 -27 -2 -41c0 -8 0 -16 2 -24c0 -2 0 -4 -1 -6c-2 -5 -2 -9 -2 -14c0 -10 3 -19 7 -27c2 -4 3 -8 3 -11s-1 -6 -2 -9
c-7 -15 -13 -31 -17 -48c7 2 8 9 13 10l4 1c3 0 5 -2 5 -6c0 -5 -2 -10 -4 -15c-4 -8 -5 -17 -5 -26c0 -8 1 -16 2 -24v-12c0 -4 0 -8 -1 -13c-2 -8 -5 -16 -5 -24l1 -6c3 -7 4 -14 4 -21c0 -11 -3 -22 -7 -34c12 1 19 6 26 11c4 3 8 7 13 7h3c14 0 26 6 37 13
c6 3 12 4 19 4c4 0 8 0 13 -2c6 -3 13 -4 19 -5c12 -2 22 -8 30 -17c5 -5 10 -7 17 -8c20 -1 39 -7 54 -23c4 -4 9 -7 14 -10z" />
    <glyph glyph-name="m" unicode="m" horiz-adv-x="424" 
d="M26 -49c33 5 53 14 67 42c12 23 29 35 53 41c1 0 1 2 2 3c0 1 0 3 -1 4c-11 7 -21 14 -21 26c0 4 1 8 3 13l-2 8c-1 4 -1 7 -1 11s0 9 2 14c2 3 2 6 2 9s0 5 -1 8c-2 6 -2 12 -2 18c0 14 3 27 3 41l-1 13l1 5c4 11 4 23 4 35l-1 6c0 2 1 4 5 6c13 -17 27 -34 33 -56
s44 -63 66 -71c3 -1 7 -2 11 -2c1 0 3 0 5 1c-6 6 -9 12 -9 20c0 3 0 6 1 9c4 10 8 20 17 26c10 7 14 16 18 26c10 21 23 38 39 55v-34l-1 -29c0 -8 1 -16 5 -24c3 -6 5 -10 5 -15c0 -8 -5 -14 -11 -21c-8 -9 -18 -14 -28 -22l5 -2h1c7 0 13 6 19 6l4 -1c3 -2 3 -5 3 -8
l-1 -13l3 -15c0 -10 -5 -18 -10 -26c-7 -10 -14 -19 -22 -28c-7 -7 -15 -15 -18 -26l4 -1c2 0 3 2 4 3c12 14 27 19 43 19l18 -2c25 -3 48 -9 70 -21c3 -1 5 -3 7 -3s3 1 5 2c-5 8 -13 13 -21 18c-16 11 -28 21 -28 42v7c1 14 3 28 3 42c0 9 -1 18 -3 27v2c2 10 3 20 3 31
l-1 23l1 16v123c0 2 1 4 2 4c4 2 6 4 6 6s-2 5 -4 7c-6 7 -8 13 -8 20s2 13 6 20c5 9 12 17 18 25c9 13 11 20 11 36c-21 -42 -55 -60 -98 -60h-4c7 -10 11 -16 11 -23c0 -6 -4 -12 -10 -22l-3 -3c-12 -12 -18 -26 -23 -42c-4 -12 -10 -23 -19 -31c-8 -8 -13 -18 -16 -29
c-4 -13 -11 -23 -22 -33c-7 14 -17 26 -20 39c-7 24 -10 31 -23 48c-18 21 -34 45 -46 70c-5 9 -7 16 -7 23c0 10 6 19 18 30c4 3 10 4 11 10l-8 1c-7 0 -14 -2 -19 -6c-16 -12 -34 -14 -52 -14h-14c-21 0 -34 -14 -45 -30c9 1 17 5 26 8l8 1c10 0 17 -7 18 -20v-3
c0 -7 -4 -14 -9 -19c14 -7 14 -19 14 -31v-20c0 -22 -1 -44 -4 -65c-3 -17 -5 -35 -5 -52c0 -10 1 -20 2 -30c2 -15 4 -30 4 -45c0 -13 -1 -26 -5 -39l-1 -7c0 -4 1 -8 3 -12c1 -4 3 -9 3 -14l-1 -5c-6 -27 -15 -53 -41 -68c-3 -1 -6 -1 -6 -5v-1z" />
    <glyph glyph-name="n" unicode="n" horiz-adv-x="375" 
d="M25 -75c32 4 57 19 71 48c9 18 23 27 41 33c4 1 10 0 11 6c0 5 -4 7 -8 8c-9 6 -14 12 -14 22l1 8c1 3 1 6 1 9l1 48c0 8 0 15 -2 22v2c0 2 1 5 2 7l1 6l-3 23c0 8 2 16 5 23c2 4 2 9 2 13v16c0 2 0 4 3 6c16 -20 36 -36 48 -59c16 -31 31 -64 47 -96
c6 -12 10 -24 10 -37c0 -10 -2 -19 -6 -29l-1 -2l3 -2c14 10 29 13 45 13c10 0 20 -2 31 -4c21 -4 41 -10 61 -15c-10 10 -21 18 -32 26c-7 5 -12 11 -12 19l1 7l1 6l-1 9c-1 4 -2 7 -2 11c0 3 1 5 2 8c2 5 3 10 3 15c0 6 -1 12 -3 18l-1 7l1 7c2 9 3 19 3 28l-1 43
c1 20 1 39 1 59v63c0 3 0 4 3 5c4 1 5 3 5 5l-2 5c-8 7 -11 15 -11 22c0 9 4 18 11 27c4 5 8 10 11 16c8 10 14 21 15 36c-22 -38 -55 -58 -101 -58h-3c4 -8 13 -13 13 -20l-3 -15c0 -8 3 -17 6 -25c2 -12 4 -23 4 -35v-7c-3 -23 -7 -45 -7 -68c0 -11 1 -22 3 -33v-7
c-1 -13 -2 -26 -2 -39c0 -8 0 -15 2 -23v-3c0 -3 -1 -6 -6 -6l-5 7c-11 19 -18 39 -26 59c-4 8 -8 17 -15 22c-9 6 -14 15 -18 25c-15 33 -32 66 -52 96c-13 20 -27 41 -27 66l2 15c-11 -1 -19 -5 -28 -6c-9 0 -18 1 -27 2h-6c-23 0 -41 -11 -51 -32l26 10l7 1
c11 0 19 -8 19 -21c0 -6 -1 -12 -5 -16l-2 -4c0 -2 1 -3 3 -4c9 -8 9 -19 9 -29c0 -31 -1 -62 -6 -93c-2 -13 -3 -27 -3 -40c0 -15 1 -30 3 -46c2 -12 4 -24 4 -36c0 -8 -1 -16 -4 -25c-2 -5 -3 -10 -3 -16c0 -5 1 -10 3 -16c2 -4 3 -8 3 -11l-1 -7c-6 -27 -16 -51 -41 -66
c-2 -1 -7 -1 -7 -7z" />
    <glyph glyph-name="o" unicode="o" 
d="M164 -4c62 0 109 52 125 98c5 12 8 23 22 28c-7 6 -9 13 -9 20c0 8 3 16 6 23c5 11 7 22 7 33c0 13 -3 25 -6 37c-3 10 -6 19 -6 29v9c0 16 -5 31 -14 46c-6 10 -5 22 -11 31c-15 21 -34 38 -58 49c-16 7 -32 11 -48 11c-12 0 -25 -3 -37 -9c-48 -24 -82 -61 -93 -116
c0 -4 -1 -9 -3 -13c-10 -20 -12 -42 -17 -64c-1 -6 -2 -13 -2 -19c0 -8 1 -16 4 -23c8 2 2 10 9 12c4 -4 5 -9 5 -15l-2 -15v-7c0 -44 17 -82 48 -112c17 -16 36 -26 58 -31c8 -2 15 -2 22 -2zM170 39c-3 0 -6 2 -8 5c-8 10 -16 19 -16 33v15c-13 -10 -4 -28 -14 -38
c-21 37 -32 100 -32 154c0 37 5 70 16 87c8 -9 5 -22 11 -32c2 18 5 37 8 55c3 19 7 38 18 55c6 9 15 14 23 14c7 0 14 -4 20 -12c15 -19 22 -41 27 -64c4 -14 6 -28 10 -41c2 -6 3 -12 3 -18c0 -5 0 -9 -1 -13c-1 -7 -2 -14 -2 -20c0 -7 1 -14 2 -21l1 -13
c0 -8 -1 -15 -5 -23c-4 -7 -6 -16 -9 -23c-9 -22 -26 -38 -37 -57c-3 -4 -6 -6 -6 -12v-2c12 6 17 16 26 23c3 3 6 4 9 4s6 -2 8 -8c3 -6 4 -11 5 -17v-3c0 -5 -2 -9 -9 -10c-15 -1 -31 -3 -43 -15c-1 -2 -3 -3 -5 -3z" />
    <glyph glyph-name="p" unicode="p" horiz-adv-x="308" 
d="M25 -66c29 6 54 17 67 44c11 22 28 35 52 40c1 0 3 1 3 5c-1 1 -1 3 -3 4c-11 6 -19 14 -19 25c0 3 0 7 2 11v7c-1 5 -2 10 -2 14s1 9 2 13s2 7 2 11s-1 8 -2 12l-1 7c0 2 0 4 3 6l25 -7c11 -3 22 -5 33 -5c20 0 39 6 57 17c11 6 21 14 30 22c22 23 34 48 34 77
c0 11 -2 22 -5 33l-13 46c-5 18 -12 35 -23 50c-15 20 -31 30 -50 30c-10 0 -20 -3 -32 -8c-8 -4 -16 -9 -23 -14l-17 -13c-3 -2 -5 -3 -7 -3s-5 2 -7 6s-2 7 -2 11c0 7 2 14 2 22l-33 -7c-8 0 -15 3 -22 3h-4c-26 0 -42 -10 -52 -32l25 9l9 2c10 0 15 -7 17 -19v-3
c0 -9 -6 -15 -7 -23c12 -4 10 -15 12 -25v-25c0 -21 0 -43 -5 -64c-3 -15 -4 -29 -4 -44c0 -25 3 -51 5 -76l1 -14c0 -5 0 -10 -2 -15c-2 -8 -3 -16 -3 -24c0 -6 0 -12 3 -18c2 -2 2 -4 2 -7l-1 -8c-7 -28 -17 -53 -45 -67c-1 -1 -2 -1 -2 -3v-3zM164 150c-11 0 -21 3 -30 9
c-4 3 -6 6 -7 11v13c9 37 7 74 8 110c1 18 28 48 45 49c14 0 26 -6 34 -18c13 -16 17 -35 20 -54c1 -7 1 -15 1 -25v-6c0 -27 -12 -53 -32 -73c-10 -10 -25 -16 -39 -16z" />
    <glyph glyph-name="q" unicode="q" horiz-adv-x="311" 
d="M257 -78c-21 10 -28 36 -52 42c-2 0 -5 3 -5 5c-2 11 -10 18 -16 29c19 3 32 14 45 24c28 21 49 48 59 81c6 25 15 49 20 75l1 17c0 8 -1 16 -5 23c-5 10 -6 19 -6 29v28c4 -3 5 -5 6 -6c2 -1 2 -3 5 -3h2c-12 48 -35 88 -73 119c-17 15 -38 22 -61 24h-8
c-64 0 -111 -57 -124 -97c-5 -13 -9 -24 -22 -30c5 -8 8 -14 8 -21s-2 -14 -6 -23s-5 -18 -5 -28v-12c0 -15 8 -29 9 -44c0 -27 8 -51 18 -76c11 -30 30 -49 54 -66c5 -3 11 -5 15 -10c22 -25 50 -43 78 -61c19 -11 40 -17 63 -19zM158 18c-7 0 -15 4 -21 12
c-13 16 -19 36 -25 56c-4 17 -6 34 -12 50l-2 10l1 7l1 23l-1 45c1 23 10 45 24 65c10 15 21 29 32 44l1 2c0 1 -1 3 -3 4c-8 -4 -13 -13 -20 -19c-5 -4 -10 -6 -13 -6c-5 0 -8 4 -11 13c-2 4 -3 8 -3 12c0 8 6 12 20 13c11 1 21 3 29 12c3 3 6 4 8 4c4 0 7 -2 11 -6
c6 -8 12 -16 14 -27v-5c0 -4 0 -7 3 -10c10 8 1 24 12 34c20 -39 30 -99 30 -152c0 -37 -5 -70 -15 -91c-9 10 -3 25 -12 35c-1 -23 -6 -44 -9 -66c-2 -16 -7 -31 -17 -45c-6 -9 -14 -14 -22 -14z" />
    <glyph glyph-name="r" unicode="r" horiz-adv-x="339" 
d="M25 -59c31 4 56 18 70 46c9 20 23 31 43 35c3 1 7 0 8 4l1 2c0 4 -4 5 -7 7c-9 5 -15 12 -15 22c0 3 1 6 2 10l1 3c0 3 -2 6 -2 9c-1 3 -1 6 -1 10s0 9 2 13c1 3 2 7 2 10c0 4 -1 9 -2 13c-1 3 -2 7 -2 11c0 3 2 5 5 6c2 0 5 -1 6 -4l3 -7c6 -14 11 -30 23 -40
c22 -18 36 -41 49 -66c0 -1 1 -2 2 -3c8 -8 13 -18 13 -27c0 -7 -2 -13 -6 -20v-1c0 -1 1 -2 5 -3c14 7 31 12 49 12h5c21 0 39 -8 60 -11c-3 7 -9 11 -14 14c-16 9 -28 21 -40 34c-4 5 -8 10 -14 13c-19 11 -26 32 -41 46c-2 1 -3 4 -3 8l1 5l10 -3c-5 12 -13 21 -16 32
l-1 6c0 4 2 6 7 9c18 7 33 18 47 31c19 21 32 46 32 74v3c-2 42 -20 80 -35 119c-2 4 -5 9 -9 12c-4 5 -10 6 -15 12c-9 10 -20 15 -32 15l-14 -2c-13 -4 -26 -10 -37 -18c-9 -6 -17 -13 -27 -20c-7 6 -9 12 -9 19l1 22c-9 -2 -18 -6 -27 -6l-35 1c-22 0 -40 -11 -48 -31
l24 9l9 2c10 0 16 -7 18 -20v-1c0 -8 -7 -14 -7 -20l1 -2c4 -7 9 -13 10 -22l1 -8v-21c0 -21 0 -42 -5 -62c-3 -15 -4 -30 -4 -45c0 -26 3 -52 5 -77l1 -13c0 -6 -1 -13 -3 -20c-1 -7 -3 -14 -3 -21c0 -6 1 -11 4 -17l2 -9c0 -5 -1 -9 -3 -14c-7 -25 -18 -48 -44 -61
c-1 -1 -2 -1 -2 -2zM169 156c-11 0 -23 4 -35 9c-4 2 -7 6 -7 11v13c9 37 7 74 8 110c1 18 27 48 44 49h3c13 0 24 -6 31 -17c8 -12 12 -25 12 -39v-7c-3 -18 -5 -36 -15 -52c-1 -1 -2 -2 -2 -4l1 -5c16 10 16 29 26 42c3 -1 4 -3 4 -5l-5 -27c-5 -38 -5 -38 -31 -63
c-11 -11 -23 -15 -34 -15z" />
    <glyph glyph-name="s" unicode="s" horiz-adv-x="306" 
d="M197 -17c3 0 4 1 6 3c18 15 38 29 61 37c18 6 25 22 27 39l1 13c0 22 -11 40 -29 54c-27 20 -53 41 -82 59c-21 13 -41 28 -54 50c-2 2 -4 5 -4 7s1 3 3 5l2 1c3 0 6 -3 8 -5c7 -6 14 -15 28 -19c-12 16 -21 28 -28 41c-5 11 -8 23 -8 35c0 26 11 53 31 68
c6 5 13 10 20 10c3 0 6 -1 9 -3c6 -4 9 -10 9 -17c0 -5 -1 -10 -3 -15c-6 -17 -10 -34 -20 -49c10 5 18 10 22 22s9 25 19 36c2 -3 2 -6 2 -9c0 -4 -1 -8 -2 -12l-1 -12c0 -18 5 -34 15 -49c2 -2 3 -6 7 -6l3 1v5c0 21 12 36 28 49c9 7 19 12 29 16c4 1 9 1 10 7
c-3 3 -6 4 -9 4l-7 -1c-3 -1 -6 -1 -9 -1c-6 0 -12 2 -17 7c-9 9 -18 18 -26 29c-5 7 -10 10 -18 11c-11 2 -22 5 -34 8c3 6 9 5 15 13c-35 -6 -65 -11 -93 -27c-24 -13 -37 -36 -50 -59c-5 -8 -7 -16 -7 -24c0 -4 1 -9 2 -13c3 -9 3 -19 3 -29c0 -20 7 -38 23 -52
c7 -6 14 -13 17 -23c6 -17 18 -29 33 -36c24 -11 41 -30 60 -47c12 -10 16 -24 17 -39c0 -11 -3 -20 -13 -24c-11 -5 -21 -11 -29 -21c-2 -2 -4 -3 -7 -3l-5 1c-15 7 -22 20 -22 34c0 7 1 14 5 21c3 5 8 8 8 14v2l-4 1c-3 0 -5 -2 -7 -4c-10 -10 -23 -13 -37 -15
c-5 -1 -11 -1 -16 -1h-19c-20 0 -35 -12 -40 -28c10 3 18 5 23 5c12 0 18 -7 30 -24c13 -18 30 -29 53 -29h3c22 0 43 1 64 7l4 1c2 0 3 0 4 -2v-1c0 -5 -7 -9 -7 -14l1 -3h2z" />
    <glyph glyph-name="t" unicode="t" horiz-adv-x="418" 
d="M132 -65c32 4 56 19 71 48c7 12 14 24 30 29c9 3 17 5 25 5c6 0 13 -1 19 -5l3 -1l6 2c-2 7 -5 12 -9 16c-13 11 -22 28 -26 44c-5 15 -7 31 -7 47c0 9 0 17 2 26c1 7 1 13 1 19c0 8 0 15 -2 23c-1 4 -2 7 -2 11c0 2 0 4 2 6c6 8 8 16 8 24c0 6 -2 13 -4 19
c-6 16 -9 31 -9 47c0 20 5 40 11 60c3 12 8 17 18 17l9 -1c3 -1 6 -2 9 -2c2 0 4 0 6 2c-4 4 -10 4 -14 6c-5 2 -10 4 -17 8c6 2 12 3 17 3c12 0 22 -4 32 -7c11 -4 21 -15 27 -26c7 -14 15 -28 15 -44c0 -8 -2 -16 -7 -24l4 -3c6 6 10 13 13 20l19 47c7 19 17 36 36 45v5
h-7c-14 0 -27 2 -40 2c-11 1 -22 4 -32 4l-9 -1c-5 -1 -10 -2 -14 -2c-8 0 -16 2 -24 5c-7 3 -14 4 -21 4c-6 0 -12 -1 -19 -3l-6 -2h-1c-4 2 -8 3 -11 3c-9 0 -18 -5 -26 -6l-12 -1c-11 3 -22 5 -33 5l-26 -2c-12 -2 -23 -4 -35 -4l-28 2c-9 0 -17 -1 -25 -3
c-9 -1 -13 -5 -13 -11c0 -3 1 -5 2 -8c2 -5 3 -9 3 -13c0 -9 -3 -16 -8 -24c-4 -5 -7 -9 -9 -15c-2 -7 -4 -13 -4 -20c0 -8 2 -16 9 -25c4 15 7 27 12 39c13 29 30 54 66 54h10c5 3 10 5 15 5c9 0 18 -5 27 -9c14 -7 18 -8 18 -18l-1 -13l1 -21c0 -12 -2 -24 -2 -37
c0 -6 1 -13 2 -19l-1 -8c-2 -4 -2 -9 -2 -13c0 -9 3 -18 7 -26c2 -4 3 -8 3 -11c0 -4 -1 -7 -3 -11c-6 -15 -12 -30 -16 -48l8 7c2 2 5 6 8 6l3 -1c3 -1 3 -3 3 -6l-1 -6c-3 -10 -8 -19 -8 -29c1 -12 2 -25 2 -38s-1 -25 -5 -38l-1 -5c0 -4 2 -8 3 -12c2 -5 3 -9 3 -13
c0 -6 -1 -11 -3 -16c-7 -26 -19 -48 -45 -60v-4z" />
    <glyph glyph-name="u" unicode="u" horiz-adv-x="307" 
d="M157 1c8 0 16 1 24 3c21 6 39 17 57 29c24 15 38 44 38 73c0 11 -2 22 -6 32c-2 4 -3 9 -3 14c0 4 1 8 3 12c5 9 6 18 7 28c1 19 2 39 6 58c3 14 7 28 7 42c1 17 3 33 14 47c2 2 3 5 3 8c0 4 -2 8 -4 11c-6 9 -6 19 -6 29c0 13 -6 23 -14 35c-6 -16 -10 -30 -23 -37
c-13 -8 -26 -16 -41 -19c-27 -6 -40 -25 -51 -50h3c6 0 8 3 11 5l11 9c6 4 11 6 15 6c5 0 10 -4 16 -13c11 -15 17 -32 17 -48c0 -11 -2 -22 -7 -33c-2 -3 -3 -7 -4 -11c-1 -18 -6 -35 -6 -53c0 -7 0 -13 2 -20c2 -5 2 -11 2 -16c0 -8 -1 -15 -4 -22c-6 -14 -7 -28 -7 -42
c0 -9 -1 -16 -7 -21c-10 5 -5 18 -15 22c-1 -1 -1 -3 -1 -4l1 -8v-6c0 -11 -3 -13 -17 -18c-8 -4 -20 -3 -21 -17c-1 -2 -3 -3 -6 -3h-2c-8 2 -13 7 -15 15v3c0 6 3 11 10 14c4 1 9 2 10 8l-6 1c-13 4 -20 12 -20 23c0 3 1 7 2 11c2 4 2 7 2 10s0 7 -2 10c-3 10 -6 19 -7 29
c-1 9 -4 17 -4 26c0 8 3 17 11 24c8 -2 9 -14 19 -14h1c0 6 -3 9 -5 13c-7 11 -14 23 -16 35c-4 22 3 45 -10 66c2 5 2 10 2 14c0 12 -4 24 -6 36l-1 9c0 5 1 10 4 15c2 4 5 6 8 6l12 -1c-1 2 -2 3 -2 5l-3 3c-8 8 -16 16 -27 16c-5 0 -11 -2 -17 -6c-3 -1 -5 -2 -8 -2
c-5 0 -11 2 -16 5c-7 4 -15 8 -23 10l-8 1c-5 0 -10 -2 -14 -8c21 -5 29 -15 31 -35c1 -5 0 -9 3 -13c9 -20 1 -43 15 -62l1 -3c0 -2 -2 -5 -5 -7s-4 -4 -4 -7l1 -5l1 -15v-21c0 -7 0 -14 2 -22s3 -17 3 -25l-1 -15c-1 -10 -2 -21 -2 -31c0 -12 1 -23 5 -34l1 -5l-2 -7
c-2 -4 -3 -7 -3 -11c0 -6 2 -11 5 -17c9 -18 21 -33 36 -46s32 -18 50 -18z" />
    <glyph glyph-name="v" unicode="v" horiz-adv-x="387" 
d="M203 5c3 0 6 3 9 8c4 7 7 14 10 21c19 48 43 94 53 145c1 7 4 14 10 19c17 15 22 37 29 56c5 13 9 26 16 37c3 6 6 12 8 18c4 18 14 34 23 51c8 15 17 30 26 45h-3c-5 0 -6 -3 -9 -6c-30 -29 -54 -62 -75 -97c-4 -7 -8 -16 -16 -21v4c0 8 5 14 5 23v2
c-12 -16 -18 -33 -22 -50c-4 -13 -5 -28 -13 -39c-10 -14 -14 -30 -18 -47c-3 -16 -9 -31 -18 -45c-5 7 -5 14 -8 21c-2 3 -2 8 -6 9c-6 2 -8 7 -8 11v9c0 7 -2 13 -5 20l-4 17c0 2 1 4 4 5l3 1c3 0 4 -4 6 -6c3 -5 4 -12 12 -18c-5 22 -13 39 -27 52c-8 7 -15 15 -15 26
c0 14 -5 24 -13 34c-2 3 -4 7 -4 10l1 12c0 12 -4 23 -9 34c-4 7 -5 14 -5 21c0 12 4 22 12 33c5 7 10 14 14 21c2 2 5 5 5 8l-1 5c-15 -10 -26 -26 -42 -35c-17 -10 -34 -20 -53 -24l-16 -2c-13 0 -26 3 -39 4c0 -7 3 -8 6 -9c21 -7 30 -23 36 -43c10 -28 18 -57 33 -83
c1 -3 3 -7 3 -12c0 -1 0 -3 -1 -5c-1 -3 -2 -5 -2 -8c0 -4 2 -8 3 -12c6 -18 14 -35 18 -54c2 -9 8 -16 14 -23c8 -10 16 -20 18 -34c2 -12 -2 -26 11 -35l1 -7c5 -25 19 -44 35 -62c3 -3 6 -5 8 -5z" />
    <glyph glyph-name="w" unicode="w" horiz-adv-x="546" 
d="M204 -18c5 0 9 7 15 20c19 45 39 91 55 140c6 -7 12 -12 15 -18c6 -11 15 -20 16 -33c1 -11 -2 -25 10 -33c2 -1 1 -5 2 -7c5 -25 19 -44 35 -62c3 -4 6 -5 8 -5c3 0 6 3 9 7l8 16l25 61c11 29 24 56 29 87c1 7 4 15 9 19c11 9 15 22 21 35c7 13 9 28 15 41l24 53
c11 24 22 49 39 69c4 5 7 11 7 18c0 5 -1 11 -5 18c-1 -26 -17 -35 -34 -43c-11 -5 -22 -9 -33 -12c-12 -4 -23 -6 -35 -6c-16 0 -31 5 -45 20c-1 -2 -2 -3 -2 -5l1 -4c4 -13 14 -23 22 -34c12 -14 19 -28 19 -45c0 -7 -2 -15 -5 -23c-5 -10 -6 -21 -9 -32
c-2 -9 -4 -18 -10 -26c-9 -13 -14 -27 -16 -43c-4 -16 -10 -32 -18 -47c-7 6 -6 14 -9 20c-2 3 -2 9 -6 10c-7 1 -9 5 -9 10l1 9c0 7 -2 13 -5 20c-2 5 -3 10 -4 15l-1 3c0 2 1 4 4 5l3 1c3 0 4 -3 6 -6c4 -5 4 -13 12 -18c-3 17 -8 31 -19 43c-17 19 -33 39 -42 63
c-1 4 -3 9 -6 12c-8 13 -11 27 -11 42c0 8 1 16 3 24c3 14 9 28 9 43v3c-9 -2 -13 -8 -18 -14c-6 -9 -14 -17 -22 -25c-4 -3 -6 -6 -12 -6l-10 1c-17 0 -24 -11 -24 -23l2 -12c8 -28 16 -55 30 -80c4 -7 5 -15 5 -22v-17c0 -4 0 -8 1 -12c0 -1 -2 -3 -3 -5
c-8 -13 -11 -27 -14 -42c-4 -15 -9 -30 -18 -46c-5 12 -6 26 -13 30c-8 5 -9 10 -9 16v5c0 6 -2 12 -4 17s-3 11 -5 17l-1 4c0 2 2 4 5 5h2c3 0 4 -2 6 -4c4 -6 4 -13 13 -19c-6 22 -13 38 -28 51c-7 7 -14 16 -14 27v2c0 11 -4 20 -11 29c-3 3 -7 7 -7 12l1 3l1 10
c0 12 -4 23 -9 33c-4 8 -6 15 -6 22c0 11 4 21 11 31l16 23c2 2 5 5 5 9l-1 5c-15 -13 -27 -27 -43 -37s-33 -20 -53 -24l-12 -1c-14 0 -28 3 -43 3c1 -3 1 -5 2 -6l5 -3c20 -6 29 -21 35 -40c10 -29 18 -59 33 -85c2 -4 3 -8 3 -12c0 -2 0 -5 -1 -7s-1 -4 -1 -5
c0 -4 1 -8 2 -12c6 -19 15 -36 19 -55c2 -9 8 -17 14 -23c7 -8 13 -18 16 -28c4 -15 -1 -32 13 -43c1 0 1 -1 1 -2c0 -22 14 -37 25 -53c8 -11 13 -17 18 -17z" />
    <glyph glyph-name="x" unicode="x" horiz-adv-x="452" 
d="M221 -57c2 0 4 1 6 2c-1 9 -9 13 -14 18c-7 7 -14 14 -17 24c-4 11 -6 22 -6 32c0 20 7 40 16 60c3 5 5 10 12 13c5 -11 2 -25 15 -34v6c0 30 7 56 20 81c23 -21 34 -47 51 -70c7 -8 12 -17 17 -26c5 -7 7 -14 7 -20c0 -9 -6 -18 -18 -25c-4 -3 -10 -4 -11 -9
c1 -3 3 -4 5 -4c8 -2 15 -3 23 -3c17 0 33 5 49 11c17 7 34 15 52 15c8 0 16 -2 24 -5c-11 18 -18 24 -31 33c-24 17 -46 35 -55 64c-2 9 -7 16 -13 22c-24 23 -41 52 -57 80c-1 1 -2 3 -2 5l9 40c0 2 1 5 2 5l8 -4c3 0 3 3 3 7c0 29 13 54 27 78c15 25 34 44 59 58
c7 4 15 7 21 15l-11 1c-11 0 -22 -4 -31 -10s-18 -13 -28 -18c-15 -9 -30 -15 -45 -15c-14 0 -28 5 -41 16c-2 2 -5 3 -8 3c-2 0 -4 -1 -7 -3c7 -9 14 -17 16 -28c2 -12 3 -23 3 -35c0 -20 -3 -40 -10 -59c-3 -8 -7 -12 -11 -12s-8 3 -13 9c-9 12 -17 25 -27 36
c-12 15 -18 30 -18 46c0 10 3 21 8 32l15 34c1 2 3 4 3 6c0 1 -1 2 -3 4c-1 -1 -3 -2 -4 -4c-17 -22 -41 -33 -68 -39l-47 -12c-26 -7 -44 -25 -53 -53c3 0 4 2 6 4c12 13 21 18 32 18c9 0 19 -4 32 -13c24 -15 34 -44 60 -56l2 -4c14 -11 18 -29 32 -41c3 -2 5 -5 5 -9
l-2 -6c-12 -26 -27 -51 -34 -79c-1 -3 -3 -7 -6 -10c-9 -8 -15 -18 -20 -28l-22 -37c-10 -18 -24 -30 -44 -36c-14 -4 -29 -8 -43 -13c-7 -2 -16 -3 -21 -16c9 4 18 5 26 5l8 -1l15 2c6 2 11 3 17 3c9 0 18 -3 28 -6c15 -6 29 -12 44 -15c20 -4 39 -11 54 -25
c3 -3 6 -5 9 -5z" />
    <glyph glyph-name="y" unicode="y" horiz-adv-x="412" 
d="M159 -40c15 10 28 19 41 29c10 7 23 12 35 12h3c16 -1 32 -1 46 -6c5 -2 9 -3 14 -3c6 0 11 2 18 5c-9 6 -18 10 -26 15c-11 7 -22 14 -27 27c-7 23 -14 46 -18 70c-1 10 -2 21 -2 31c0 13 1 26 5 39c7 22 12 45 22 67c0 2 1 3 2 5l3 1l6 -3c4 0 4 5 5 9
c3 28 19 50 36 72c17 23 38 40 65 51l25 11c-7 2 -13 3 -19 3c-10 0 -18 -2 -26 -6c-11 -5 -22 -12 -33 -17c-12 -5 -24 -8 -36 -8c-17 0 -33 6 -47 21c-3 3 -5 5 -8 5c-2 0 -4 -1 -6 -3c4 -9 11 -17 12 -28l1 -16c0 -27 -7 -54 -20 -78c-4 -7 -7 -11 -11 -11s-8 4 -12 10
c-8 13 -15 27 -23 41c-8 13 -12 26 -12 39s4 26 12 39c5 10 11 19 17 28c1 3 5 5 5 8l-2 4c-1 0 -3 0 -4 -1c-23 -25 -54 -32 -86 -34c-14 -1 -27 -3 -41 -6c-25 -5 -41 -23 -53 -44c6 3 11 7 16 11c7 4 14 6 21 6c5 0 10 -1 15 -4c18 -10 34 -24 43 -43c5 -9 9 -17 17 -22
l11 -9c12 -17 17 -38 31 -53c1 -2 2 -4 2 -6l-2 -8c0 -10 8 -17 13 -25c6 -10 10 -20 10 -31l-1 -41l1 -50c0 -26 -6 -50 -28 -70c-6 -6 -11 -15 -11 -25z" />
    <glyph glyph-name="z" unicode="z" horiz-adv-x="398" 
d="M25 -77c4 0 5 5 7 7l14 18c22 28 48 47 85 48c24 1 48 6 72 8c15 2 30 3 45 3c12 0 24 -1 36 -3c16 -3 27 -9 36 -21l27 -35l2 2c0 28 -6 56 -6 84c0 11 1 21 3 32v2c0 2 -1 3 -3 4c-2 0 -4 -1 -5 -3c-3 -3 -5 -7 -7 -11c-10 -17 -23 -24 -42 -24c-8 0 -16 1 -23 2
c-11 2 -22 3 -33 3c-14 0 -27 -2 -41 -5c-12 -3 -25 -4 -38 -5l-10 -2c-3 0 -6 1 -8 4l-1 4c0 4 3 8 5 13l6 10c14 19 25 39 36 60c1 3 2 6 7 6l1 -7l-1 -13c0 -4 1 -9 2 -13c10 11 8 25 14 36c5 11 10 22 16 33s12 22 22 32l1 -5c0 -5 -4 -11 -4 -16l2 -6c2 2 4 2 4 3
c11 37 31 69 54 99c33 43 66 87 92 135c2 3 6 8 6 12c0 1 -1 3 -3 4l-3 1c-4 0 -5 -8 -8 -11c-13 -17 -28 -26 -46 -26c-6 0 -12 1 -19 3l-26 7c-5 2 -11 3 -16 3c-4 0 -9 -1 -13 -3c-10 -5 -20 -6 -30 -6l-20 1c-5 1 -11 2 -17 2l-14 -2c-6 -2 -13 -3 -18 -3
c-10 0 -19 3 -27 14c-11 -53 -10 -57 -55 -126c10 5 18 11 25 17l42 35c12 10 26 16 41 16h13c11 0 22 1 34 2h5c6 0 9 -2 9 -8l-1 -7c-2 -5 -5 -8 -8 -12c-23 -30 -48 -59 -63 -95c-2 -7 -7 -12 -11 -19c-5 -8 -11 -16 -15 -25c-20 -42 -47 -81 -71 -120
c-15 -25 -31 -48 -43 -74c-7 -16 -12 -32 -18 -48c-1 -2 -2 -5 -2 -7c0 -1 0 -2 2 -3z" />
    <glyph glyph-name="braceleft" unicode="{" horiz-adv-x="495" 
 />
    <glyph glyph-name="bar" unicode="|" horiz-adv-x="495" 
 />
    <glyph glyph-name="braceright" unicode="}" horiz-adv-x="495" 
 />
    <glyph glyph-name="asciitilde" unicode="~" horiz-adv-x="290" 
d="M109 189l4 1v2c0 8 -5 14 -7 21l-1 8c0 5 1 9 6 13s10 7 15 7c3 0 6 -1 10 -3c3 -1 7 -3 10 -6c16 -17 39 -18 60 -25l5 -1c3 0 5 1 8 3c16 11 34 18 48 32c5 4 10 9 10 15v3c0 10 5 18 8 27c2 7 5 15 5 24l-1 7c-17 -20 -38 -25 -62 -29c4 -7 7 -12 7 -18
c0 -4 -2 -9 -6 -13c-6 -6 -12 -11 -20 -11h-1c-9 0 -3 -11 -11 -13h-4c-5 0 -10 2 -14 4c-13 8 -24 16 -34 26c-5 6 -11 9 -18 10c-13 2 -26 6 -39 8l1 4l20 15c-49 -11 -88 -56 -88 -98v-2c10 8 22 14 34 14c6 0 12 -2 19 -5l24 -13c3 -2 6 -7 12 -7z" />
    <glyph glyph-name="exclamdown" unicode="&#xa1;" horiz-adv-x="672" 
 />
    <glyph glyph-name="cent" unicode="&#xa2;" horiz-adv-x="1139" 
 />
    <glyph glyph-name="sterling" unicode="&#xa3;" horiz-adv-x="399" 
 />
    <glyph glyph-name="currency" unicode="&#xa4;" horiz-adv-x="495" 
 />
    <glyph glyph-name="yen" unicode="&#xa5;" horiz-adv-x="616" 
 />
    <glyph glyph-name="brokenbar" unicode="&#xa6;" horiz-adv-x="495" 
 />
    <glyph glyph-name="section" unicode="&#xa7;" horiz-adv-x="495" 
 />
    <glyph glyph-name="dieresis" unicode="&#xa8;" horiz-adv-x="253" 
d="M98 619l8 32h3c2 0 3 0 4 1s1 2 1 3l-2 9c0 1 0 3 1 4s1 2 2 3c1 2 2 4 2 5v1c-2 2 -3 4 -4 7s-1 5 -1 8v6c-2 7 -4 12 -7 15c-3 2 -8 3 -16 3h-7c-6 0 -12 1 -18 4l-3 1c-1 0 -3 -1 -5 -3l-20 -15c-6 -4 -9 -9 -9 -16l1 -15c0 -11 -3 -22 -8 -33c0 -1 0 -1 1 -2
c0 -1 0 -2 1 -3c1 1 3 2 5 3s5 3 8 4c7 -11 16 -16 25 -16c7 0 15 2 22 5l12 3l1 -13c1 -1 1 -1 2 -1h1zM234 619l8 32h3c2 0 3 0 4 1s1 2 1 3l-2 9c0 1 0 3 1 4s1 2 2 3c1 2 2 4 2 5v1c-2 2 -3 4 -4 7s-1 5 -1 8v6c-2 7 -4 12 -7 15c-3 2 -8 3 -16 3h-7c-6 0 -12 1 -18 4
l-3 1c-1 0 -3 -1 -5 -3l-20 -15c-6 -4 -9 -9 -9 -16l1 -15c0 -11 -3 -22 -8 -33c0 -1 0 -1 1 -2c0 -1 0 -2 1 -3c1 1 3 2 5 3s5 3 8 4c7 -11 16 -16 25 -16c7 0 15 2 22 5l12 3l1 -13c1 -1 1 -1 2 -1h1z" />
    <glyph glyph-name="copyright" unicode="&#xa9;" horiz-adv-x="818" 
 />
    <glyph glyph-name="ordfeminine" unicode="&#xaa;" horiz-adv-x="648" 
 />
    <glyph glyph-name="guillemotleft" unicode="&#xab;" horiz-adv-x="461" 
 />
    <glyph glyph-name="logicalnot" unicode="&#xac;" horiz-adv-x="495" 
 />
    <glyph glyph-name="registered" unicode="&#xae;" horiz-adv-x="818" 
 />
    <glyph glyph-name="macron" unicode="&#xaf;" horiz-adv-x="670" 
 />
    <glyph glyph-name="degree" unicode="&#xb0;" horiz-adv-x="329" 
d="M211 614h-2c-9 0 -13 9 -19 16c-4 6 -7 13 -10 20c-6 -1 -2 -8 -8 -9c-5 14 -8 27 -8 41c0 13 2 25 6 38s18 20 25 32c1 3 5 3 9 3h13c16 0 31 -1 46 -6c-1 -2 -8 -2 -8 -5c0 -2 1 -3 3 -6c6 -6 9 -15 13 -23c4 -13 8 -26 20 -40l-8 1c-6 0 -9 -3 -10 -10
c0 -16 -12 -30 -20 -41c-9 -12 -27 -10 -42 -11zM218 631c6 2 14 0 18 9c2 6 5 12 9 17c5 8 11 14 11 24l-1 7c-3 11 -3 16 -6 16c-2 0 -6 -2 -13 -6l-2 1c-1 1 -1 2 -1 3l1 4l1 11c0 7 -3 9 -14 15c-3 2 -4 3 -6 3c-1 0 -2 -2 -3 -5l-2 -9c-1 -2 -1 -5 -1 -8v-7
c0 -6 -1 -12 -10 -15l-1 -2l2 -5l11 -15c-7 0 -11 -2 -11 -6c0 -2 1 -4 2 -7c2 -5 4 -11 7 -16c2 -4 5 -9 8 -9h1z" />
    <glyph glyph-name="plusminus" unicode="&#xb1;" horiz-adv-x="1014" 
 />
    <glyph glyph-name="twosuperior" unicode="&#xb2;" horiz-adv-x="1014" 
 />
    <glyph glyph-name="threesuperior" unicode="&#xb3;" horiz-adv-x="1014" 
 />
    <glyph glyph-name="acute" unicode="&#xb4;" horiz-adv-x="186" 
d="M39 542c11 19 16 28 26 48l3 2c2 0 2 -2 2 -5l2 -3c2 0 1 1 3 4c5 15 11 26 18 35c16 22 26 23 41 45c14 18 29 23 43 34l6 4l3 6c-8 1 -13 6 -15 15c-3 8 -3 20 -3 34l-15 -23c-6 -7 -11 -13 -17 -17l-1 7c0 6 3 14 3 21v3c-22 -42 -31 -66 -54 -95
c-21 -23 -41 -54 -64 -65c2 0 4 -3 5 -5l2 -10c5 -4 9 -8 12 -14l1 -4l-2 -13z" />
    <glyph glyph-name="mu" unicode="&#xb5;" horiz-adv-x="1180" 
 />
    <glyph glyph-name="paragraph" unicode="&#xb6;" horiz-adv-x="408" 
d="M269 -25c-7 22 -21 34 -31 49c-22 33 -38 68 -38 108c0 16 3 34 9 52c2 6 4 12 5 18c0 4 3 8 3 12l-2 5c-7 -4 -5 -17 -14 -22c-2 19 -3 36 -3 54v12c0 10 -3 20 -3 30c0 4 1 8 2 12c3 13 5 26 5 39l-2 31c-2 17 -2 35 -2 52s0 20 9 20h6c6 0 11 4 17 6s11 4 17 4
c7 0 14 -2 20 -8c4 -4 9 -6 15 -6c9 -1 11 -1 11 -8l-1 -11c-6 -46 -10 -93 -27 -136c-1 -2 -2 -5 -2 -7c0 -3 1 -5 4 -8c9 7 10 25 20 32c5 -8 6 -17 6 -26l-1 -15c-2 -15 -2 -30 -2 -45c0 -22 1 -45 5 -67c2 -18 4 -35 4 -53l-1 -48l1 -56c0 -4 0 -8 4 -13
c9 55 36 89 67 118l-5 10c-22 46 -36 95 -36 148l2 44c0 16 -2 32 -5 47c-1 7 -1 13 -1 20c0 12 1 23 3 35c2 7 6 15 6 22c0 17 7 17 16 17c20 0 39 -6 58 -8v5c0 8 -5 13 -9 18c-14 18 -33 24 -49 37c-24 21 -52 18 -79 23h-1c-5 0 -11 -4 -16 -4l-4 1c-4 2 -7 3 -11 3
c-7 0 -14 -3 -21 -5c-6 -1 -13 -5 -19 -5c-4 0 -7 1 -10 3c-5 5 -11 6 -18 6l-12 -1c-13 -2 -26 -5 -39 -5c-4 0 -9 -2 -13 -5c-26 -22 -53 -45 -73 -78c-9 -15 -14 -32 -14 -49c0 -11 2 -24 7 -36c8 -18 13 -37 13 -56c0 -11 -2 -21 -4 -32l1 -5c8 -2 16 -4 25 -5
c22 -3 44 -13 66 -13c7 0 15 1 22 4h2c4 0 6 -5 6 -11l-1 -29l2 -36c0 -15 -2 -29 -4 -44c-2 -12 -3 -24 -3 -37c0 -28 5 -55 9 -83c2 -8 5 -12 9 -12l5 1c5 2 11 2 16 2l19 -1c19 -2 38 -6 59 -11z" />
    <glyph glyph-name="periodcentered" unicode="&#xb7;" horiz-adv-x="248" 
 />
    <glyph glyph-name="periodcentered" unicode="&#x2219;" horiz-adv-x="248" 
 />
    <glyph glyph-name="cedilla" unicode="&#xb8;" horiz-adv-x="500" 
 />
    <glyph glyph-name="onesuperior" unicode="&#xb9;" horiz-adv-x="1014" 
 />
    <glyph glyph-name="ordmasculine" unicode="&#xba;" horiz-adv-x="718" 
 />
    <glyph glyph-name="guillemotright" unicode="&#xbb;" horiz-adv-x="461" 
 />
    <glyph glyph-name="onequarter" unicode="&#xbc;" horiz-adv-x="1708" 
 />
    <glyph glyph-name="onehalf" unicode="&#xbd;" horiz-adv-x="1964" 
 />
    <glyph glyph-name="threequarters" unicode="&#xbe;" horiz-adv-x="1708" 
 />
    <glyph glyph-name="questiondown" unicode="&#xbf;" horiz-adv-x="748" 
 />
    <glyph glyph-name="Agrave" unicode="&#xc0;" horiz-adv-x="466" 
d="M20 -174c13 5 23 10 33 12c15 4 30 5 44 5c19 0 38 -2 56 -8c6 -2 12 -3 18 -3s11 1 17 3c-19 6 -37 12 -51 28c-10 11 -15 23 -15 37c0 6 1 12 3 19c8 -1 10 -7 14 -11c5 -3 9 -9 19 -10c-11 20 -15 40 -20 60c-3 8 -4 17 -4 26c0 7 1 15 4 23c4 11 6 22 9 32
c7 27 13 53 24 78c2 5 3 10 7 14c10 10 15 23 15 37v12c0 12 5 21 14 29c8 7 16 13 25 19s18 10 28 10h4c11 0 22 1 32 5l6 1c5 0 8 -3 9 -9c5 -27 12 -54 12 -82v-10c0 -9 2 -19 4 -28l7 -26l1 -9c0 -6 -2 -9 -8 -9l-11 2s-2 -1 -2 -2c0 -3 2 -5 4 -5c16 -6 21 -19 24 -34
l1 -16l-1 -11l-4 -37c-1 -39 -14 -73 -46 -99c-12 -9 -20 -22 -27 -37h4c9 0 13 6 18 10c24 18 48 29 74 29c17 0 35 -5 53 -15c14 -8 28 -14 42 -21c2 -1 3 -2 5 -2s4 1 5 4c-7 10 -14 21 -23 30c-13 12 -21 25 -21 41c0 6 1 13 4 20c2 5 3 10 3 15c0 6 -1 12 -5 17
c-12 19 -15 41 -15 62v24c0 22 -5 43 -8 64c-5 37 -8 75 -22 111l-1 3l1 4c4 -1 5 -4 8 -6c1 -1 3 -3 4 -3l4 2c-1 2 -2 4 -4 6c-27 31 -31 70 -40 107c-7 29 -14 57 -20 85c-4 21 -10 42 -17 62l-2 13c0 12 6 21 18 29c9 6 9 7 13 20c-11 -11 -24 -13 -36 -13h-13
c-15 0 -29 -3 -44 -7c-20 -7 -31 -22 -31 -45v-6c5 14 12 22 21 28c3 2 6 4 8 4s3 0 4 -1c3 -2 4 -4 4 -6l-1 -6c-2 -14 -7 -26 -12 -39c-10 -23 -23 -46 -28 -71c-6 -24 -15 -48 -26 -71c-22 -47 -40 -94 -49 -145c-2 -7 -4 -13 -7 -19c-10 -26 -18 -53 -24 -82
c-6 -27 -7 -55 -18 -81c-6 -17 -9 -34 -11 -52c-1 -14 0 -28 -6 -42c-10 -23 -23 -45 -48 -55c-2 -1 -3 -3 -6 -8zM209 244c5 23 17 41 20 62c7 -4 6 -12 12 -14c2 0 4 2 4 4l-1 16c0 35 13 68 21 103c9 -21 13 -42 17 -63l1 -7c0 -10 -4 -20 -10 -28l-12 -19
c13 5 18 15 26 20c10 -12 8 -28 11 -42l1 -3c0 -7 -8 -11 -15 -12c-25 -3 -49 -8 -75 -17zM279 772l1 4l-1 13v4c3 6 7 10 12 14l2 10c1 2 3 5 5 5c-23 11 -43 42 -64 65c-22 29 -32 53 -54 95v-3c0 -7 3 -15 3 -21l-1 -7c-6 4 -11 10 -17 17l-15 23c0 -14 0 -26 -3 -34
c-2 -9 -7 -14 -15 -15l3 -6l6 -4c14 -11 29 -16 43 -34c15 -22 25 -23 41 -45c7 -9 13 -20 18 -35c2 -3 1 -4 3 -4l2 3c0 3 0 5 2 5l3 -2c10 -20 15 -29 26 -48z" />
    <glyph glyph-name="Aacute" unicode="&#xc1;" horiz-adv-x="466" 
d="M20 -174c13 5 23 10 33 12c15 4 30 5 44 5c19 0 38 -2 56 -8c6 -2 12 -3 18 -3s11 1 17 3c-19 6 -37 12 -51 28c-10 11 -15 23 -15 37c0 6 1 12 3 19c8 -1 10 -7 14 -11c5 -3 9 -9 19 -10c-11 20 -15 40 -20 60c-3 8 -4 17 -4 26c0 7 1 15 4 23c4 11 6 22 9 32
c7 27 13 53 24 78c2 5 3 10 7 14c10 10 15 23 15 37v12c0 12 5 21 14 29c8 7 16 13 25 19s18 10 28 10h4c11 0 22 1 32 5l6 1c5 0 8 -3 9 -9c5 -27 12 -54 12 -82v-10c0 -9 2 -19 4 -28l7 -26l1 -9c0 -6 -2 -9 -8 -9l-11 2s-2 -1 -2 -2c0 -3 2 -5 4 -5c16 -6 21 -19 24 -34
l1 -16l-1 -11l-4 -37c-1 -39 -14 -73 -46 -99c-12 -9 -20 -22 -27 -37h4c9 0 13 6 18 10c24 18 48 29 74 29c17 0 35 -5 53 -15c14 -8 28 -14 42 -21c2 -1 3 -2 5 -2s4 1 5 4c-7 10 -14 21 -23 30c-13 12 -21 25 -21 41c0 6 1 13 4 20c2 5 3 10 3 15c0 6 -1 12 -5 17
c-12 19 -15 41 -15 62v24c0 22 -5 43 -8 64c-5 37 -8 75 -22 111l-1 3l1 4c4 -1 5 -4 8 -6c1 -1 3 -3 4 -3l4 2c-1 2 -2 4 -4 6c-27 31 -31 70 -40 107c-7 29 -14 57 -20 85c-4 21 -10 42 -17 62l-2 13c0 12 6 21 18 29c9 6 9 7 13 20c-11 -11 -24 -13 -36 -13h-13
c-15 0 -29 -3 -44 -7c-20 -7 -31 -22 -31 -45v-6c5 14 12 22 21 28c3 2 6 4 8 4s3 0 4 -1c3 -2 4 -4 4 -6l-1 -6c-2 -14 -7 -26 -12 -39c-10 -23 -23 -46 -28 -71c-6 -24 -15 -48 -26 -71c-22 -47 -40 -94 -49 -145c-2 -7 -4 -13 -7 -19c-10 -26 -18 -53 -24 -82
c-6 -27 -7 -55 -18 -81c-6 -17 -9 -34 -11 -52c-1 -14 0 -28 -6 -42c-10 -23 -23 -45 -48 -55c-2 -1 -3 -3 -6 -8zM209 244c5 23 17 41 20 62c7 -4 6 -12 12 -14c2 0 4 2 4 4l-1 16c0 35 13 68 21 103c9 -21 13 -42 17 -63l1 -7c0 -10 -4 -20 -10 -28l-12 -19
c13 5 18 15 26 20c10 -12 8 -28 11 -42l1 -3c0 -7 -8 -11 -15 -12c-25 -3 -49 -8 -75 -17zM207 772c11 19 16 28 26 48l3 2c2 0 2 -2 2 -5l2 -3c2 0 1 1 3 4c5 15 11 26 18 35c16 22 26 23 41 45c14 18 29 23 43 34l6 4l3 6c-8 1 -13 6 -15 15c-3 8 -3 20 -3 34l-15 -23
c-6 -7 -11 -13 -17 -17l-1 7c0 6 3 14 3 21v3c-22 -42 -32 -66 -54 -95c-21 -23 -41 -54 -64 -65c2 0 4 -3 5 -5l2 -10c5 -4 9 -8 12 -14v-4l-1 -13z" />
    <glyph glyph-name="Acircumflex" unicode="&#xc2;" horiz-adv-x="466" 
 />
    <glyph glyph-name="Atilde" unicode="&#xc3;" horiz-adv-x="466" 
 />
    <glyph glyph-name="Adieresis" unicode="&#xc4;" horiz-adv-x="466" 
 />
    <glyph glyph-name="Aring" unicode="&#xc5;" horiz-adv-x="466" 
 />
    <glyph glyph-name="AE" unicode="&#xc6;" horiz-adv-x="600" 
 />
    <glyph glyph-name="Ccedilla" unicode="&#xc7;" horiz-adv-x="308" 
 />
    <glyph glyph-name="Egrave" unicode="&#xc8;" horiz-adv-x="288" 
 />
    <glyph glyph-name="Eacute" unicode="&#xc9;" horiz-adv-x="288" 
 />
    <glyph glyph-name="Ecircumflex" unicode="&#xca;" horiz-adv-x="288" 
 />
    <glyph glyph-name="Edieresis" unicode="&#xcb;" horiz-adv-x="288" 
 />
    <glyph glyph-name="Igrave" unicode="&#xcc;" horiz-adv-x="169" 
 />
    <glyph glyph-name="Iacute" unicode="&#xcd;" horiz-adv-x="169" 
 />
    <glyph glyph-name="Icircumflex" unicode="&#xce;" horiz-adv-x="169" 
 />
    <glyph glyph-name="Idieresis" unicode="&#xcf;" horiz-adv-x="169" 
 />
    <glyph glyph-name="Eth" unicode="&#xd0;" horiz-adv-x="330" 
 />
    <glyph glyph-name="Ntilde" unicode="&#xd1;" horiz-adv-x="377" 
 />
    <glyph glyph-name="Ograve" unicode="&#xd2;" 
 />
    <glyph glyph-name="Oacute" unicode="&#xd3;" 
 />
    <glyph glyph-name="Ocircumflex" unicode="&#xd4;" 
 />
    <glyph glyph-name="Otilde" unicode="&#xd5;" 
 />
    <glyph glyph-name="Odieresis" unicode="&#xd6;" 
 />
    <glyph glyph-name="multiply" unicode="&#xd7;" horiz-adv-x="223" 
 />
    <glyph glyph-name="Oslash" unicode="&#xd8;" 
 />
    <glyph glyph-name="Ugrave" unicode="&#xd9;" horiz-adv-x="306" 
 />
    <glyph glyph-name="Uacute" unicode="&#xda;" horiz-adv-x="306" 
 />
    <glyph glyph-name="Ucircumflex" unicode="&#xdb;" horiz-adv-x="306" 
 />
    <glyph glyph-name="Udieresis" unicode="&#xdc;" horiz-adv-x="306" 
 />
    <glyph glyph-name="Yacute" unicode="&#xdd;" horiz-adv-x="411" 
 />
    <glyph glyph-name="Thorn" unicode="&#xde;" horiz-adv-x="308" 
 />
    <glyph glyph-name="germandbls" unicode="&#xdf;" horiz-adv-x="1251" 
 />
    <glyph glyph-name="agrave" unicode="&#xe0;" horiz-adv-x="394" 
 />
    <glyph glyph-name="aacute" unicode="&#xe1;" horiz-adv-x="394" 
 />
    <glyph glyph-name="acircumflex" unicode="&#xe2;" horiz-adv-x="394" 
 />
    <glyph glyph-name="atilde" unicode="&#xe3;" horiz-adv-x="394" 
 />
    <glyph glyph-name="adieresis" unicode="&#xe4;" horiz-adv-x="394" 
 />
    <glyph glyph-name="aring" unicode="&#xe5;" horiz-adv-x="394" 
 />
    <glyph glyph-name="ae" unicode="&#xe6;" horiz-adv-x="435" 
 />
    <glyph glyph-name="ccedilla" unicode="&#xe7;" horiz-adv-x="260" 
 />
    <glyph glyph-name="egrave" unicode="&#xe8;" horiz-adv-x="286" 
 />
    <glyph glyph-name="eacute" unicode="&#xe9;" horiz-adv-x="286" 
 />
    <glyph glyph-name="ecircumflex" unicode="&#xea;" horiz-adv-x="286" 
 />
    <glyph glyph-name="edieresis" unicode="&#xeb;" horiz-adv-x="286" 
 />
    <glyph glyph-name="igrave" unicode="&#xec;" horiz-adv-x="170" 
 />
    <glyph glyph-name="iacute" unicode="&#xed;" horiz-adv-x="170" 
 />
    <glyph glyph-name="icircumflex" unicode="&#xee;" horiz-adv-x="170" 
 />
    <glyph glyph-name="idieresis" unicode="&#xef;" horiz-adv-x="170" 
 />
    <glyph glyph-name="eth" unicode="&#xf0;" horiz-adv-x="1139" 
 />
    <glyph glyph-name="ntilde" unicode="&#xf1;" horiz-adv-x="375" 
 />
    <glyph glyph-name="ograve" unicode="&#xf2;" 
 />
    <glyph glyph-name="oacute" unicode="&#xf3;" 
 />
    <glyph glyph-name="ocircumflex" unicode="&#xf4;" 
 />
    <glyph glyph-name="otilde" unicode="&#xf5;" 
 />
    <glyph glyph-name="odieresis" unicode="&#xf6;" 
 />
    <glyph glyph-name="divide" unicode="&#xf7;" horiz-adv-x="223" 
 />
    <glyph glyph-name="oslash" unicode="&#xf8;" 
 />
    <glyph glyph-name="ugrave" unicode="&#xf9;" horiz-adv-x="307" 
 />
    <glyph glyph-name="uacute" unicode="&#xfa;" horiz-adv-x="307" 
 />
    <glyph glyph-name="ucircumflex" unicode="&#xfb;" horiz-adv-x="307" 
 />
    <glyph glyph-name="udieresis" unicode="&#xfc;" horiz-adv-x="307" 
 />
    <glyph glyph-name="yacute" unicode="&#xfd;" horiz-adv-x="412" 
 />
    <glyph glyph-name="thorn" unicode="&#xfe;" horiz-adv-x="308" 
 />
    <glyph glyph-name="ydieresis" unicode="&#xff;" horiz-adv-x="412" 
 />
    <glyph glyph-name="dotlessi" unicode="&#x131;" horiz-adv-x="251" 
 />
    <glyph glyph-name="circumflex" unicode="&#x2c6;" horiz-adv-x="267" 
 />
    <glyph glyph-name="caron" unicode="&#x2c7;" horiz-adv-x="267" 
 />
    <glyph glyph-name="uni02C9" unicode="&#x2c9;" horiz-adv-x="500" 
 />
    <glyph glyph-name="breve" unicode="&#x2d8;" horiz-adv-x="500" 
 />
    <glyph glyph-name="dotaccent" unicode="&#x2d9;" horiz-adv-x="500" 
 />
    </font>
</defs>
</svg>
